<?xml version="1.0" encoding="iso-8859-1"?>
<!-- Generator: Adobe Illustrator 19.0.0, SVG Export Plug-In . SVG Version: 6.00 Build 0)  -->
<svg version="1.1" id="Layer_1" xmlns="http://www.w3.org/2000/svg" xmlns:xlink="http://www.w3.org/1999/xlink" x="0px" y="0px"
	 viewBox="0 0 509.287 509.287" style="enable-background:new 0 0 509.287 509.287;" xml:space="preserve">
<circle style="fill:#886C60;" cx="254.644" cy="254.644" r="254.644"/>
<g>
	<path style="fill:#FBD303;" d="M254.644,151.905c-56.964,0-102.739,46.114-102.739,102.739
		c0,56.964,46.114,102.739,102.739,102.739c56.964,0,102.739-46.114,102.739-102.739
		C357.383,197.679,311.608,151.905,254.644,151.905z M254.644,307.878c-29.16,0-53.234-23.735-53.234-53.234
		s23.735-53.234,53.234-53.234c29.16,0,53.234,23.735,53.234,53.234S283.804,307.878,254.644,307.878z"/>
	<path style="fill:#FBD303;" d="M495.725,244.811h-51.878c-4.747-96.975-82.395-174.623-179.37-179.37V13.563H245.15v51.878
		c-96.975,4.747-174.623,82.395-179.37,179.37H13.563v19.327h51.878c4.747,96.975,82.395,174.623,179.37,179.37v51.878h19.327
		v-51.878c96.975-4.747,174.623-82.395,179.37-179.37h51.878v-19.327H495.725z M254.644,399.428
		c-80.021,0-144.784-64.763-144.784-144.784S174.623,109.86,254.644,109.86s144.784,64.763,144.784,144.784
		S334.665,399.428,254.644,399.428z"/>
</g>
<g>
</g>
<g>
</g>
<g>
</g>
<g>
</g>
<g>
</g>
<g>
</g>
<g>
</g>
<g>
</g>
<g>
</g>
<g>
</g>
<g>
</g>
<g>
</g>
<g>
</g>
<g>
</g>
<g>
</g>
</svg>
