<?xml version="1.0" encoding="iso-8859-1"?>
<!-- Generator: Adobe Illustrator 19.0.0, SVG Export Plug-In . SVG Version: 6.00 Build 0)  -->
<svg version="1.1" id="Layer_1" xmlns="http://www.w3.org/2000/svg" xmlns:xlink="http://www.w3.org/1999/xlink" x="0px" y="0px"
	 viewBox="0 0 509.287 509.287" style="enable-background:new 0 0 509.287 509.287;" xml:space="preserve">
<circle style="fill:#4F5565;" cx="254.644" cy="254.644" r="254.644"/>
<polygon style="fill:#FCFCFD;" points="397.732,65.441 111.555,65.441 111.555,443.846 314.999,443.846 397.732,361.452 "/>
<polygon style="fill:#F1F3F7;" points="314.999,443.846 397.732,361.452 314.999,361.452 "/>
<path style="fill:#6EB1E1;" d="M257.356,119.693c-41.367,0-74.596,33.568-74.596,74.596c0,41.367,33.568,74.596,74.596,74.596
	c41.367,0,74.596-33.568,74.596-74.596h-74.596V119.693z"/>
<path style="fill:#FBD303;" d="M266.511,110.538v74.596h74.596C341.107,144.106,307.878,110.538,266.511,110.538z"/>
<g>
	<rect x="160.381" y="311.269" style="fill:#F1F3F7;" width="188.525" height="17.971"/>
	<rect x="160.381" y="360.434" style="fill:#F1F3F7;" width="124.101" height="17.971"/>
</g>
<g>
</g>
<g>
</g>
<g>
</g>
<g>
</g>
<g>
</g>
<g>
</g>
<g>
</g>
<g>
</g>
<g>
</g>
<g>
</g>
<g>
</g>
<g>
</g>
<g>
</g>
<g>
</g>
<g>
</g>
</svg>
