<?xml version="1.0" encoding="iso-8859-1"?>
<!-- Generator: Adobe Illustrator 19.0.0, SVG Export Plug-In . SVG Version: 6.00 Build 0)  -->
<svg version="1.1" id="Layer_1" xmlns="http://www.w3.org/2000/svg" xmlns:xlink="http://www.w3.org/1999/xlink" x="0px" y="0px"
	 viewBox="0 0 509.287 509.287" style="enable-background:new 0 0 509.287 509.287;" xml:space="preserve">
<circle style="fill:#4B5AA7;" cx="254.644" cy="254.644" r="254.644"/>
<path style="fill:#BDBDBE;" d="M279.396,361.113h-49.505v146.819c8.138,0.678,16.615,1.356,24.752,1.356
	c8.477,0,16.615-0.339,24.752-1.356V361.113z"/>
<rect x="64.424" y="98.67" style="fill:#F1F3F7;" width="380.101" height="243.793"/>
<rect x="48.826" y="342.464" style="fill:#333842;" width="411.295" height="18.649"/>
<rect x="147.497" y="80.021" style="fill:#6EB1E1;" width="214.294" height="18.649"/>
<g>
	<path style="fill:#393D47;" d="M146.479,94.262l-27.465,8.138c-6.442,2.374-10.85,8.477-10.85,15.597v2.374
		c0,2.034,1.356,3.391,3.391,3.391s3.391-1.356,3.391-3.391v-2.374c0-4.069,2.713-7.799,6.442-9.155l27.465-8.138
		c1.695-0.678,2.713-2.374,2.374-4.069C150.209,94.601,148.175,93.584,146.479,94.262z"/>
	<path style="fill:#393D47;" d="M390.273,102.4l-27.465-8.138c-1.695-0.678-3.73,0.339-4.069,2.374
		c-0.678,1.695,0.339,3.73,2.374,4.069l27.126,8.138c3.73,1.356,6.442,5.086,6.442,9.155v2.374c0,2.034,1.356,3.391,3.391,3.391
		s3.391-1.356,3.391-3.391v-2.374C401.462,110.877,397.054,104.773,390.273,102.4z"/>
	<path style="fill:#393D47;" d="M302.792,102.739l-13.563-8.138c-1.695-1.017-3.73-0.339-4.747,1.017
		c-1.017,1.695-0.339,3.73,1.356,4.747l13.563,8.138c1.356,1.017,3.052,4.747,3.052,9.494v2.374c0,2.034,1.356,3.391,3.391,3.391
		c2.034,0,3.391-1.356,3.391-3.391v-2.374C308.556,111.216,306.522,105.452,302.792,102.739z"/>
	<path style="fill:#393D47;" d="M220.397,94.601l-13.902,8.138c-3.73,2.374-5.764,8.477-5.764,15.258v2.374
		c0,2.034,1.356,3.391,3.391,3.391s3.391-1.356,3.391-3.391v-2.374c0-4.747,1.356-8.477,2.713-9.494l13.563-8.138
		c1.695-1.017,2.034-3.052,1.356-4.747C224.127,94.262,221.754,93.584,220.397,94.601z"/>
</g>
<g>
	<path style="fill:#646B79;" d="M117.658,118.336h-12.207c-8.138,0-14.58,6.442-14.58,14.58h41.706
		C132.238,124.779,125.457,118.336,117.658,118.336z"/>
	<path style="fill:#646B79;" d="M391.629,118.336h12.207c8.138,0,14.58,6.442,14.58,14.58H376.71
		C377.049,124.779,383.83,118.336,391.629,118.336z"/>
	<path style="fill:#646B79;" d="M299.062,118.336h12.207c8.138,0,14.58,6.442,14.58,14.58h-41.367
		C284.482,124.779,290.924,118.336,299.062,118.336z"/>
	<path style="fill:#646B79;" d="M210.225,118.336h-12.207c-8.138,0-14.58,6.442-14.58,14.58h41.706
		C224.805,124.779,218.363,118.336,210.225,118.336z"/>
</g>
<rect x="106.13" y="175.64" style="fill:#FBD303;" width="297.367" height="137.324"/>
<g>
</g>
<g>
</g>
<g>
</g>
<g>
</g>
<g>
</g>
<g>
</g>
<g>
</g>
<g>
</g>
<g>
</g>
<g>
</g>
<g>
</g>
<g>
</g>
<g>
</g>
<g>
</g>
<g>
</g>
</svg>
