<?xml version="1.0" encoding="iso-8859-1"?>
<!-- Generator: Adobe Illustrator 19.0.0, SVG Export Plug-In . SVG Version: 6.00 Build 0)  -->
<svg version="1.1" id="Layer_1" xmlns="http://www.w3.org/2000/svg" xmlns:xlink="http://www.w3.org/1999/xlink" x="0px" y="0px"
	 viewBox="0 0 509.287 509.287" style="enable-background:new 0 0 509.287 509.287;" xml:space="preserve">
<circle style="fill:#FBD303;" cx="254.644" cy="254.644" r="254.644"/>
<path style="fill:#4F5565;" d="M490.977,99.687H18.31v307.878h216.328c2.374,8.816,10.511,15.258,20.344,15.258
	c9.494,0,17.632-6.442,20.344-15.258h216.328V99.687H490.977z"/>
<path style="fill:#F1F3F7;" d="M241.081,86.464H40.689V383.83h90.532h109.86c7.46,0,13.563,6.103,13.563,13.563V383.83V100.026
	C254.644,92.567,248.54,86.464,241.081,86.464z"/>
<path style="fill:#DEDEDF;" d="M268.207,86.464h200.392V383.83h-90.532h-109.86c-7.46,0-13.563,6.103-13.563,13.563V383.83V100.026
	C254.644,92.567,260.747,86.464,268.207,86.464z"/>
<polygon style="fill:#646B79;" points="194.289,199.036 147.836,115.285 101.044,199.036 "/>
<path style="fill:#F0582F;" d="M162.416,252.948v-29.499h-62.389v62.389h29.499C129.526,267.528,144.106,252.948,162.416,252.948z"
	/>
<path style="fill:#6EB1E1;" d="M162.416,252.948v32.89h-32.89c0,18.31,14.58,32.89,32.89,32.89s32.89-14.58,32.89-32.89
	C195.306,267.528,180.726,252.948,162.416,252.948z"/>
<rect x="74.257" y="350.262" style="fill:#F0582F;" width="37.637" height="10.511"/>
<rect x="128.848" y="350.262" style="fill:#6EB1E1;" width="37.637" height="10.511"/>
<rect x="183.777" y="350.262" style="fill:#646B79;" width="37.637" height="10.511"/>
<polygon style="fill:#F6CEB0;" points="234.299,137.325 234.299,138.342 216.328,156.313 215.311,156.313 208.869,138.681 
	216.668,130.882 "/>
<path style="fill:#4F5565;" d="M208.869,138.681l-2.713-7.121c-0.678-2.034,1.356-4.069,3.391-3.391l7.121,2.713L208.869,138.681z"
	/>
<path style="fill:#D54232;" d="M228.535,143.089c-4.408-0.339-8.138,3.052-7.46,7.46c26.109,26.109,136.307,136.307,162.416,162.416
	c2.373-2.374,5.086-5.086,7.46-7.46C364.842,279.057,254.644,169.197,228.535,143.089z"/>
<path style="fill:#BF3025;" d="M234.299,137.325c-3.73-1.017-6.781,1.695-5.764,5.764
	c26.109,26.109,136.307,136.307,162.416,162.416c2.034-2.034,3.73-3.73,5.764-5.764
	C370.607,273.293,260.408,163.433,234.299,137.325z"/>
<path style="fill:#F0582F;" d="M221.075,150.548c-3.73-1.017-6.781,1.695-5.764,5.764
	c26.109,26.109,136.307,136.307,162.416,162.416c2.034-2.034,3.73-3.73,5.764-5.764
	C357.044,286.517,247.184,176.657,221.075,150.548z"/>
<path style="fill:#FBD303;" d="M413.669,324.493l-10.85,10.85c-2.373,2.374-6.103,2.374-8.138,0l-16.954-16.954l18.988-18.988
	l16.954,16.954C415.703,318.728,415.703,322.458,413.669,324.493z"/>
<g>
	<path style="fill:#F8B517;" d="M404.514,305.505l-20.683,20.683c-0.678,0.678-2.034,0.678-2.713,0
		c-0.678-0.678-0.678-2.034,0-2.713l20.683-20.683c0.678-0.678,2.034-0.678,2.713,0C405.192,303.47,405.192,304.827,404.514,305.505
		z"/>
	<path style="fill:#F8B517;" d="M400.106,301.436l-20.683,20.683c-0.678,0.678-2.034,0.678-2.713,0
		c-0.678-0.678-0.678-2.034,0-2.713l20.683-20.683c0.678-0.678,2.034-0.678,2.713,0
		C400.784,299.401,400.784,300.758,400.106,301.436z"/>
</g>
<g>
</g>
<g>
</g>
<g>
</g>
<g>
</g>
<g>
</g>
<g>
</g>
<g>
</g>
<g>
</g>
<g>
</g>
<g>
</g>
<g>
</g>
<g>
</g>
<g>
</g>
<g>
</g>
<g>
</g>
</svg>
