<?xml version="1.0" encoding="iso-8859-1"?>
<!-- Generator: Adobe Illustrator 19.0.0, SVG Export Plug-In . SVG Version: 6.00 Build 0)  -->
<svg version="1.1" id="Layer_1" xmlns="http://www.w3.org/2000/svg" xmlns:xlink="http://www.w3.org/1999/xlink" x="0px" y="0px"
	 viewBox="0 0 509.287 509.287" style="enable-background:new 0 0 509.287 509.287;" xml:space="preserve">
<circle style="fill:#71D456;" cx="254.644" cy="254.644" r="254.644"/>
<path style="fill:#333842;" d="M200.392,118.336v-29.16c0-3.391,2.713-6.103,6.103-6.103h96.297c3.391,0,6.103,2.713,6.103,6.103
	v29.16h15.258v-29.16c0-11.868-9.494-21.362-21.362-21.362h-96.297c-11.868,0-21.362,9.494-21.362,21.362v29.16L200.392,118.336
	L200.392,118.336z"/>
<rect x="57.303" y="116.641" style="fill:#646B79;" width="395.02" height="138.681"/>
<rect x="57.303" y="255.322" style="fill:#4F5565;" width="395.02" height="138.681"/>
<rect x="113.928" y="116.641" style="fill:#333842;" width="21.701" height="277.362"/>
<g>
	<path style="fill:#DEDEDF;" d="M138.681,277.701h-27.465c-3.73,0-6.781-3.052-6.781-6.781v-32.212c0-3.73,3.052-6.781,6.781-6.781
		h27.465c3.73,0,6.781,3.052,6.781,6.781v32.212C145.123,274.649,142.072,277.701,138.681,277.701z M111.216,238.368
		c-0.339,0-0.678,0.339-0.678,0.678v32.212c0,0.339,0.339,0.678,0.678,0.678h27.465c0.339,0,0.678-0.339,0.678-0.678v-32.212
		c0-0.339-0.339-0.678-0.678-0.678H111.216z"/>
	<path style="fill:#DEDEDF;" d="M124.779,258.034c-1.695,0-3.052-1.356-3.052-3.052v-25.43c0-1.695,1.356-3.052,3.052-3.052
		c1.695,0,3.052,1.356,3.052,3.052v25.43C127.83,256.678,126.474,258.034,124.779,258.034z"/>
</g>
<rect x="373.658" y="116.641" style="fill:#333842;" width="21.701" height="277.362"/>
<g>
	<path style="fill:#DEDEDF;" d="M398.072,277.701h-27.465c-3.73,0-6.781-3.052-6.781-6.781v-32.212c0-3.73,3.052-6.781,6.781-6.781
		h27.465c3.73,0,6.781,3.052,6.781,6.781v32.212C404.853,274.649,401.801,277.701,398.072,277.701z M370.607,238.368
		c-0.339,0-0.678,0.339-0.678,0.678v32.212c0,0.339,0.339,0.678,0.678,0.678h27.465c0.339,0,0.678-0.339,0.678-0.678v-32.212
		c0-0.339-0.339-0.678-0.678-0.678H370.607z"/>
	<path style="fill:#DEDEDF;" d="M384.509,258.034c-1.695,0-3.052-1.356-3.052-3.052v-25.43c0-1.695,1.356-3.052,3.052-3.052
		c1.695,0,3.052,1.356,3.052,3.052v25.43C387.56,256.678,386.204,258.034,384.509,258.034z"/>
</g>
<g>
</g>
<g>
</g>
<g>
</g>
<g>
</g>
<g>
</g>
<g>
</g>
<g>
</g>
<g>
</g>
<g>
</g>
<g>
</g>
<g>
</g>
<g>
</g>
<g>
</g>
<g>
</g>
<g>
</g>
</svg>
