<?xml version="1.0" encoding="iso-8859-1"?>
<!-- Generator: Adobe Illustrator 19.0.0, SVG Export Plug-In . SVG Version: 6.00 Build 0)  -->
<svg version="1.1" id="Layer_1" xmlns="http://www.w3.org/2000/svg" xmlns:xlink="http://www.w3.org/1999/xlink" x="0px" y="0px"
	 viewBox="0 0 509.287 509.287" style="enable-background:new 0 0 509.287 509.287;" xml:space="preserve">
<circle style="fill:#71D456;" cx="254.644" cy="254.644" r="254.644"/>
<path style="fill:#F1F3F7;" d="M75.613,131.899v286.517c0,6.781,5.425,11.868,11.868,11.868h334.326
	c6.781,0,11.868-5.425,11.868-11.868V131.899H75.613z"/>
<path style="fill:#4F5565;" d="M433.674,90.872c0-6.781-5.425-11.868-11.868-11.868H87.481c-6.781,0-11.868,5.425-11.868,11.868
	v41.367h358.061V90.872z"/>
<circle style="fill:#F0582F;" cx="111.216" cy="105.452" r="8.816"/>
<circle style="fill:#FBD303;" cx="140.037" cy="105.452" r="8.816"/>
<circle style="fill:#71D456;" cx="169.197" cy="105.452" r="8.816"/>
<path style="fill:#333842;" d="M371.963,96.636H212.26c-4.747,0-8.816,3.73-8.816,8.816c0,4.747,3.73,8.816,8.816,8.816h159.364
	c4.747,0,8.816-3.73,8.816-8.816C380.44,100.705,376.71,96.636,371.963,96.636z"/>
<g>
	<path style="fill:#DEDEDF;" d="M161.06,170.215c-6.442,0-11.868,5.425-11.868,11.868v198.019c0,6.442,5.425,11.868,11.868,11.868
		c6.442,0,11.868-5.425,11.868-11.868V182.082C172.927,175.64,167.502,170.215,161.06,170.215z"/>
	<path style="fill:#DEDEDF;" d="M254.644,170.215c-6.442,0-11.868,5.425-11.868,11.868v198.019c0,6.442,5.425,11.868,11.868,11.868
		c6.442,0,11.868-5.425,11.868-11.868V182.082C266.511,175.64,261.086,170.215,254.644,170.215z"/>
	<path style="fill:#DEDEDF;" d="M348.228,170.215c-6.442,0-11.868,5.425-11.868,11.868v198.019c0,6.442,5.425,11.868,11.868,11.868
		c6.442,0,11.868-5.425,11.868-11.868V182.082C360.434,175.64,355.009,170.215,348.228,170.215z"/>
</g>
<g>
	<path style="fill:#646B79;" d="M148.853,284.143v95.958c0,6.442,5.425,11.868,11.868,11.868c6.442,0,11.868-5.425,11.868-11.868
		v-95.958H148.853z"/>
	<path style="fill:#646B79;" d="M242.776,253.626V380.44c0,6.442,5.425,11.868,11.868,11.868c6.442,0,11.868-5.425,11.868-11.868
		V253.626H242.776z"/>
	<path style="fill:#646B79;" d="M336.36,222.771v157.33c0,6.442,5.425,11.868,11.868,11.868c6.442,0,11.868-5.425,11.868-11.868
		v-157.33H336.36z"/>
</g>
<circle style="fill:#F0582F;" cx="161.06" cy="298.384" r="33.229"/>
<circle style="fill:#FBD303;" cx="254.644" cy="271.597" r="33.229"/>
<circle style="fill:#71D456;" cx="348.228" cy="231.587" r="33.229"/>
<g>
</g>
<g>
</g>
<g>
</g>
<g>
</g>
<g>
</g>
<g>
</g>
<g>
</g>
<g>
</g>
<g>
</g>
<g>
</g>
<g>
</g>
<g>
</g>
<g>
</g>
<g>
</g>
<g>
</g>
</svg>
