<?xml version="1.0" encoding="iso-8859-1"?>
<!-- Generator: Adobe Illustrator 19.0.0, SVG Export Plug-In . SVG Version: 6.00 Build 0)  -->
<svg version="1.1" id="Layer_1" xmlns="http://www.w3.org/2000/svg" xmlns:xlink="http://www.w3.org/1999/xlink" x="0px" y="0px"
	 viewBox="0 0 509.287 509.287" style="enable-background:new 0 0 509.287 509.287;" xml:space="preserve">
<circle style="fill:#0090FF;" cx="254.644" cy="254.644" r="254.644"/>
<path style="fill:#F1F3F7;" d="M87.481,135.968v267.189c0,6.103,5.086,11.189,11.189,11.189h311.947
	c6.103,0,11.189-5.086,11.189-11.189V135.968H87.481z"/>
<path style="fill:#4F5565;" d="M421.807,97.653c0-6.103-5.086-11.189-11.189-11.189H98.67c-6.103,0-11.189,5.086-11.189,11.189
	v38.315h334.326V97.653z"/>
<circle style="fill:#F0582F;" cx="120.71" cy="111.216" r="8.138"/>
<circle style="fill:#FBD303;" cx="147.836" cy="111.216" r="8.138"/>
<circle style="fill:#71D456;" cx="174.962" cy="111.216" r="8.138"/>
<path style="fill:#333842;" d="M364.164,103.078H215.311c-4.408,0-8.138,3.73-8.138,8.138c0,4.408,3.73,8.138,8.138,8.138h148.853
	c4.408,0,8.138-3.73,8.138-8.138C371.963,106.808,368.572,103.078,364.164,103.078z"/>
<path style="fill:#646B79;" d="M262.781,463.513H122.744c-5.425,0-9.833-4.408-9.833-9.833v-237.69c0-5.425,4.408-9.833,9.833-9.833
	h140.376c5.425,0,9.833,4.408,9.833,9.833v237.69C272.954,459.105,268.546,463.513,262.781,463.513z"/>
<rect x="139.02" y="235.995" style="fill:#6EB1E1;" width="107.486" height="154.617"/>
<circle style="fill:#4F5565;" cx="192.932" cy="428.588" r="15.936"/>
<g>
</g>
<g>
</g>
<g>
</g>
<g>
</g>
<g>
</g>
<g>
</g>
<g>
</g>
<g>
</g>
<g>
</g>
<g>
</g>
<g>
</g>
<g>
</g>
<g>
</g>
<g>
</g>
<g>
</g>
</svg>
