<?xml version="1.0" encoding="iso-8859-1"?>
<!-- Generator: Adobe Illustrator 19.0.0, SVG Export Plug-In . SVG Version: 6.00 Build 0)  -->
<svg version="1.1" id="Layer_1" xmlns="http://www.w3.org/2000/svg" xmlns:xlink="http://www.w3.org/1999/xlink" x="0px" y="0px"
	 viewBox="0 0 509.287 509.287" style="enable-background:new 0 0 509.287 509.287;" xml:space="preserve">
<circle style="fill:#F0582F;" cx="254.644" cy="254.644" r="254.644"/>
<path style="fill:#FCFCFD;" d="M81.038,135.968V413.33c0,6.442,5.086,11.528,11.528,11.528h323.815
	c6.442,0,11.528-5.086,11.528-11.528V135.968H81.038z"/>
<path style="fill:#4F5565;" d="M428.249,95.958c0-6.442-5.086-11.528-11.528-11.528H92.906c-6.442,0-11.528,5.086-11.528,11.528
	v40.011h346.872L428.249,95.958L428.249,95.958z"/>
<circle style="fill:#F0582F;" cx="115.624" cy="110.199" r="8.477"/>
<circle style="fill:#FBD303;" cx="143.767" cy="110.199" r="8.477"/>
<circle style="fill:#71D456;" cx="171.91" cy="110.199" r="8.477"/>
<path style="fill:#333842;" d="M368.233,101.722H213.616c-4.747,0-8.477,3.73-8.477,8.477s3.73,8.477,8.477,8.477h154.617
	c4.747,0,8.477-3.73,8.477-8.477S372.641,101.722,368.233,101.722z"/>
<polygon style="fill:#FBD303;" points="284.482,308.556 342.464,250.236 392.307,300.079 392.307,171.571 116.98,171.571 
	116.98,325.849 209.547,233.621 "/>
<polygon style="fill:#4F5565;" points="342.464,250.236 284.482,308.556 209.547,233.621 116.98,325.849 116.98,381.118 
	392.307,381.118 392.307,300.079 "/>
<circle style="fill:#FFFFFF;" cx="284.821" cy="231.248" r="21.701"/>
<g>
</g>
<g>
</g>
<g>
</g>
<g>
</g>
<g>
</g>
<g>
</g>
<g>
</g>
<g>
</g>
<g>
</g>
<g>
</g>
<g>
</g>
<g>
</g>
<g>
</g>
<g>
</g>
<g>
</g>
</svg>
