<?xml version="1.0" encoding="iso-8859-1"?>
<!-- Generator: Adobe Illustrator 19.0.0, SVG Export Plug-In . SVG Version: 6.00 Build 0)  -->
<svg version="1.1" id="Layer_1" xmlns="http://www.w3.org/2000/svg" xmlns:xlink="http://www.w3.org/1999/xlink" x="0px" y="0px"
	 viewBox="0 0 509.287 509.287" style="enable-background:new 0 0 509.287 509.287;" xml:space="preserve">
<circle style="fill:#EE4A68;" cx="254.644" cy="254.644" r="254.644"/>
<path style="fill:#4F5565;" d="M436.048,88.498c0-6.781-5.425-12.207-12.207-12.207H85.446c-6.781,0-12.207,5.425-12.207,12.207
	v41.706h362.808V88.498z"/>
<circle style="fill:#F0582F;" cx="109.181" cy="103.417" r="8.816"/>
<circle style="fill:#FBD303;" cx="138.681" cy="103.417" r="8.816"/>
<circle style="fill:#71D456;" cx="167.841" cy="103.417" r="8.816"/>
<path style="fill:#333842;" d="M373.319,94.601H211.921c-4.747,0-8.816,4.069-8.816,8.816s4.069,8.816,8.816,8.816h161.738
	c4.747,0,8.816-4.069,8.816-8.816C382.135,98.67,378.066,94.601,373.319,94.601z"/>
<path style="fill:#FCFCFD;" d="M73.24,130.543v290.246c0,6.781,5.425,12.207,12.207,12.207H424.18
	c6.781,0,12.207-5.425,12.207-12.207V130.543H73.24z"/>
<g>
	<rect x="115.963" y="162.416" style="fill:#6EB1E1;" width="67.476" height="63.746"/>
	<rect x="220.736" y="162.416" style="fill:#6EB1E1;" width="67.476" height="63.746"/>
	<rect x="325.849" y="162.416" style="fill:#6EB1E1;" width="67.476" height="63.746"/>
	<rect x="115.963" y="249.558" style="fill:#6EB1E1;" width="67.476" height="63.746"/>
	<rect x="220.736" y="249.558" style="fill:#6EB1E1;" width="67.476" height="63.746"/>
	<rect x="325.849" y="249.558" style="fill:#6EB1E1;" width="67.476" height="63.746"/>
	<rect x="115.963" y="336.699" style="fill:#6EB1E1;" width="67.476" height="63.746"/>
	<rect x="220.736" y="336.699" style="fill:#6EB1E1;" width="67.476" height="63.746"/>
	<rect x="325.849" y="336.699" style="fill:#6EB1E1;" width="67.476" height="63.746"/>
</g>
<g>
</g>
<g>
</g>
<g>
</g>
<g>
</g>
<g>
</g>
<g>
</g>
<g>
</g>
<g>
</g>
<g>
</g>
<g>
</g>
<g>
</g>
<g>
</g>
<g>
</g>
<g>
</g>
<g>
</g>
</svg>
