<?xml version="1.0" encoding="iso-8859-1"?>
<!-- Generator: Adobe Illustrator 19.0.0, SVG Export Plug-In . SVG Version: 6.00 Build 0)  -->
<svg version="1.1" id="Layer_1" xmlns="http://www.w3.org/2000/svg" xmlns:xlink="http://www.w3.org/1999/xlink" x="0px" y="0px"
	 viewBox="0 0 509.287 509.287" style="enable-background:new 0 0 509.287 509.287;" xml:space="preserve">
<circle style="fill:#886C60;" cx="254.644" cy="254.644" r="254.644"/>
<path style="fill:#F1F3F7;" d="M407.226,177.335c0-84.768-69.51-153.6-154.617-152.244C171.91,26.109,105.452,90.532,102.4,170.893
	c-2.034,50.861,20.683,96.297,57.303,125.118c15.258,12.207,23.735,30.856,23.735,50.522l0,0h142.411l0,0
	c0-20.005,9.155-38.654,24.752-51.2C385.187,267.528,407.226,225.144,407.226,177.335z"/>
<circle style="fill:#6EB1E1;" cx="254.644" cy="177.335" r="114.607"/>
<g>
	<path style="fill:#71D456;" d="M322.458,390.612H186.829c-9.494,0-17.293-7.799-17.293-17.293l0,0
		c0-9.494,7.799-17.293,17.293-17.293h135.29c9.494,0,17.293,7.799,17.293,17.293l0,0
		C339.412,383.152,331.952,390.612,322.458,390.612z"/>
	<path style="fill:#71D456;" d="M322.458,434.691H186.829c-9.494,0-17.293-7.799-17.293-17.293l0,0
		c0-9.494,7.799-17.293,17.293-17.293h135.29c9.494,0,17.293,7.799,17.293,17.293l0,0
		C339.412,426.893,331.952,434.691,322.458,434.691z"/>
</g>
<path style="fill:#F0582F;" d="M201.07,443.846c6.442,23.396,27.804,40.689,53.574,40.689c25.43,0,47.131-17.293,53.574-40.689
	H201.07z"/>
<polygon style="fill:#FFFFFF;" points="229.213,203.444 191.915,166.485 202.426,155.974 229.213,182.76 254.644,156.991 
	280.074,182.76 306.861,155.974 317.372,166.485 280.074,203.444 254.644,178.013 "/>
<g>
</g>
<g>
</g>
<g>
</g>
<g>
</g>
<g>
</g>
<g>
</g>
<g>
</g>
<g>
</g>
<g>
</g>
<g>
</g>
<g>
</g>
<g>
</g>
<g>
</g>
<g>
</g>
<g>
</g>
</svg>
