<?xml version="1.0" encoding="iso-8859-1"?>
<!-- Generator: Adobe Illustrator 19.0.0, SVG Export Plug-In . SVG Version: 6.00 Build 0)  -->
<svg version="1.1" id="Layer_1" xmlns="http://www.w3.org/2000/svg" xmlns:xlink="http://www.w3.org/1999/xlink" x="0px" y="0px"
	 viewBox="0 0 509.287 509.287" style="enable-background:new 0 0 509.287 509.287;" xml:space="preserve">
<circle style="fill:#FBD303;" cx="254.644" cy="254.644" r="254.644"/>
<polygon style="fill:#F6CEB0;" points="355.348,417.399 354.67,416.721 354.67,388.917 355.348,388.238 373.658,396.715 
	373.658,408.922 "/>
<path style="fill:#4F5565;" d="M373.658,396.715l7.46,3.391c2.034,1.017,2.034,4.069,0,5.086l-7.46,3.391V396.715z"/>
<path style="fill:#D54232;" d="M355.348,408.583c3.73-3.052,3.73-8.477,0-11.529c-40.35,0-209.208,0-249.558,0
	c0,3.73,0,7.799,0,11.529C146.14,408.583,314.999,408.583,355.348,408.583z"/>
<path style="fill:#BF3025;" d="M355.348,417.399c3.73-2.374,3.73-6.442,0-8.816c-40.35,0-209.208,0-249.558,0
	c0,3.052,0,5.764,0,8.816C146.14,417.399,314.999,417.399,355.348,417.399z"/>
<path style="fill:#F0582F;" d="M355.348,397.054c3.73-2.374,3.73-6.442,0-8.816c-40.35,0-209.208,0-249.558,0
	c0,3.052,0,5.764,0,8.816C146.14,397.054,314.999,397.054,355.348,397.054z"/>
<path style="fill:#F1F3F7;" d="M73.579,411.295v-16.615c0-3.391,2.713-6.442,6.442-6.442h26.109v29.16H80.021
	C76.291,417.399,73.579,414.686,73.579,411.295z"/>
<g>
	<path style="fill:#646B79;" d="M95.279,418.755v-31.873c0-1.017,1.017-2.034,2.034-2.034c1.017,0,2.034,1.017,2.034,2.034v31.873
		c0,1.017-1.017,2.034-2.034,2.034C95.958,420.789,95.279,419.772,95.279,418.755z"/>
	<path style="fill:#646B79;" d="M101.722,418.755v-31.873c0-1.017,1.017-2.034,2.034-2.034c1.017,0,2.034,1.017,2.034,2.034v31.873
		c0,1.017-1.017,2.034-2.034,2.034C102.4,420.789,101.722,419.772,101.722,418.755z"/>
</g>
<polygon style="fill:#F1F3F7;" points="435.709,88.498 73.579,88.498 73.579,332.291 330.935,332.291 382.474,383.83 
	382.474,332.291 435.709,332.291 "/>
<rect x="103.756" y="117.319" style="fill:#71D456;" width="78.326" height="18.988"/>
<path style="fill:#FBD303;" d="M223.449,149.87v72.562h72.562C296.011,182.421,263.46,149.87,223.449,149.87z"/>
<path style="fill:#F0582F;" d="M296.011,222.432h-72.562l48.827,53.574C286.856,262.781,296.011,243.793,296.011,222.432z"/>
<path style="fill:#4F5565;" d="M223.449,222.432l27.465,67.136c7.799-3.391,15.258-7.799,21.362-13.563L223.449,222.432z"/>
<path style="fill:#71D456;" d="M223.449,149.87c-40.011,0-72.562,32.551-72.562,72.562s32.551,72.562,72.562,72.562
	c9.833,0,18.988-2.034,27.465-5.425l-27.465-67.136V149.87z"/>
<rect x="331.613" y="204.8" style="fill:#FFFFFF;" width="75.274" height="101.383"/>
<rect x="340.768" y="215.989" style="fill:#71D456;" width="12.546" height="12.546"/>
<rect x="340.768" y="237.69" style="fill:#FBD303;" width="12.546" height="12.546"/>
<rect x="340.768" y="259.73" style="fill:#F0582F;" width="12.546" height="12.546"/>
<rect x="340.768" y="281.77" style="fill:#4F5565;" width="12.546" height="12.546"/>
<g>
	<rect x="362.13" y="215.989" style="fill:#DEDEDF;" width="33.907" height="6.103"/>
	<rect x="362.13" y="237.69" style="fill:#DEDEDF;" width="33.907" height="6.103"/>
	<rect x="362.13" y="259.73" style="fill:#DEDEDF;" width="33.907" height="6.103"/>
	<rect x="362.13" y="281.77" style="fill:#DEDEDF;" width="33.907" height="6.103"/>
</g>
<g>
	<rect x="311.947" y="117.319" style="fill:#4F5565;" width="94.94" height="9.494"/>
	<rect x="373.658" y="138.003" style="fill:#4F5565;" width="32.89" height="9.494"/>
	<rect x="346.872" y="159.025" style="fill:#4F5565;" width="59.677" height="9.494"/>
</g>
<g>
</g>
<g>
</g>
<g>
</g>
<g>
</g>
<g>
</g>
<g>
</g>
<g>
</g>
<g>
</g>
<g>
</g>
<g>
</g>
<g>
</g>
<g>
</g>
<g>
</g>
<g>
</g>
<g>
</g>
</svg>
