<?xml version="1.0" encoding="iso-8859-1"?>
<!-- Generator: Adobe Illustrator 19.0.0, SVG Export Plug-In . SVG Version: 6.00 Build 0)  -->
<svg version="1.1" id="Layer_1" xmlns="http://www.w3.org/2000/svg" xmlns:xlink="http://www.w3.org/1999/xlink" x="0px" y="0px"
	 viewBox="0 0 509.287 509.287" style="enable-background:new 0 0 509.287 509.287;" xml:space="preserve">
<circle style="fill:#FBD303;" cx="254.644" cy="254.644" r="254.644"/>
<path style="fill:#646B79;" d="M451.984,120.371c0-7.46-6.103-13.224-13.224-13.224H70.527c-7.46,0-13.224,6.103-13.224,13.224
	v224.127h395.02V120.371H451.984z"/>
<path style="fill:#F1F3F7;" d="M57.303,344.498v41.028c0,7.46,6.103,13.224,13.224,13.224h368.572
	c7.46,0,13.224-6.103,13.224-13.224v-41.028H57.303z"/>
<rect x="76.63" y="126.474" style="fill:#FCFCFD;" width="356.026" height="218.024"/>
<circle style="fill:#FBD303;" cx="254.644" cy="371.963" r="11.189"/>
<rect x="197.34" y="399.089" style="fill:#DEDEDF;" width="114.268" height="50.183"/>
<rect x="172.927" y="449.271" style="fill:#F1F3F7;" width="163.772" height="22.379"/>
<rect x="128.17" y="150.548" style="fill:#6EB1E1;" width="37.637" height="37.637"/>
<g>
	<rect x="187.846" y="150.548" style="fill:#F1F3F7;" width="193.272" height="12.207"/>
	<rect x="187.846" y="175.979" style="fill:#F1F3F7;" width="124.779" height="12.207"/>
</g>
<rect x="128.17" y="216.668" style="fill:#6EB1E1;" width="37.637" height="37.637"/>
<g>
	<rect x="187.846" y="216.668" style="fill:#F1F3F7;" width="193.272" height="12.207"/>
	<rect x="187.846" y="242.098" style="fill:#F1F3F7;" width="124.779" height="12.207"/>
</g>
<rect x="128.17" y="282.787" style="fill:#6EB1E1;" width="37.637" height="37.637"/>
<g>
	<rect x="187.846" y="282.787" style="fill:#F1F3F7;" width="193.272" height="12.207"/>
	<rect x="187.846" y="308.217" style="fill:#F1F3F7;" width="124.779" height="12.207"/>
</g>
<g>
</g>
<g>
</g>
<g>
</g>
<g>
</g>
<g>
</g>
<g>
</g>
<g>
</g>
<g>
</g>
<g>
</g>
<g>
</g>
<g>
</g>
<g>
</g>
<g>
</g>
<g>
</g>
<g>
</g>
</svg>
