<?xml version="1.0" encoding="iso-8859-1"?>
<!-- Generator: Adobe Illustrator 19.0.0, SVG Export Plug-In . SVG Version: 6.00 Build 0)  -->
<svg version="1.1" id="Layer_1" xmlns="http://www.w3.org/2000/svg" xmlns:xlink="http://www.w3.org/1999/xlink" x="0px" y="0px"
	 viewBox="0 0 509.287 509.287" style="enable-background:new 0 0 509.287 509.287;" xml:space="preserve">
<circle style="fill:#FBD303;" cx="254.644" cy="254.644" r="254.644"/>
<path style="fill:#646B79;" d="M448.254,119.354c0-6.781-5.425-12.546-12.546-12.546H73.579c-6.781,0-12.546,5.425-12.546,12.546
	v221.415h386.882V119.354H448.254z"/>
<path style="fill:#F1F3F7;" d="M61.033,340.768v38.993c0,6.781,5.425,12.546,12.546,12.546H435.37
	c6.781,0,12.546-5.425,12.546-12.546v-38.993H61.033z"/>
<rect x="81.717" y="125.457" style="fill:#6EB1E1;" width="345.854" height="215.311"/>
<rect x="202.426" y="392.646" style="fill:#DEDEDF;" width="104.774" height="46.114"/>
<path style="fill:#F1F3F7;" d="M315.677,438.76H193.611c-12.546,0-23.057,9.494-23.057,21.022h167.841
	C338.395,447.915,328.223,438.76,315.677,438.76z"/>
<circle style="fill:#FBD303;" cx="254.644" cy="366.877" r="9.833"/>
<path style="fill:#886C60;" d="M356.366,73.579c2.034-3.052,1.356-7.121-1.695-9.155c-2.713-2.034-6.781-1.695-9.155,1.017
	L241.081,186.829l28.821,21.701L356.366,73.579z"/>
<polygon style="fill:#646B79;" points="221.754,263.121 269.902,208.191 241.081,186.829 202.426,248.54 "/>
<path style="fill:#DEDEDF;" d="M270.58,205.817l-27.465-20.344c-1.695-1.356-4.408-1.017-5.764,0.678
	c-1.356,1.695-1.017,4.408,0.678,5.764l27.465,20.344c1.695,1.356,4.408,1.017,5.764-0.678
	C272.615,209.886,272.275,207.174,270.58,205.817z"/>
<path style="fill:#F0582F;" d="M218.363,254.983c0,0,14.241,18.31-7.46,33.907c-21.701,15.597-59.338-4.747-59.338-4.747
	s15.258-1.695,25.091-15.936C186.829,253.966,203.783,238.368,218.363,254.983z"/>
<g>
</g>
<g>
</g>
<g>
</g>
<g>
</g>
<g>
</g>
<g>
</g>
<g>
</g>
<g>
</g>
<g>
</g>
<g>
</g>
<g>
</g>
<g>
</g>
<g>
</g>
<g>
</g>
<g>
</g>
</svg>
