<?xml version="1.0" encoding="iso-8859-1"?>
<!-- Generator: Adobe Illustrator 19.0.0, SVG Export Plug-In . SVG Version: 6.00 Build 0)  -->
<svg version="1.1" id="Layer_1" xmlns="http://www.w3.org/2000/svg" xmlns:xlink="http://www.w3.org/1999/xlink" x="0px" y="0px"
	 viewBox="0 0 509.287 509.287" style="enable-background:new 0 0 509.287 509.287;" xml:space="preserve">
<circle style="fill:#F0582F;" cx="254.644" cy="254.644" r="254.644"/>
<path style="fill:#4F5565;" d="M454.697,122.066c0-6.103-4.747-10.85-10.85-10.85H65.441c-6.103,0-10.85,4.747-10.85,10.85v218.702
	h400.445V122.066H454.697z"/>
<rect x="72.562" y="130.543" style="fill:#6EB1E1;" width="364.164" height="210.225"/>
<g>
	<rect x="85.446" y="146.479" style="fill:#F1F3F7;" width="73.918" height="153.6"/>
	<path style="fill:#F1F3F7;" d="M54.591,340.768v40.35c0,6.103,4.747,10.85,10.85,10.85h378.744c6.103,0,10.85-4.747,10.85-10.85
		v-40.35H54.591z"/>
</g>
<rect x="196.323" y="391.968" style="fill:#DEDEDF;" width="116.641" height="44.758"/>
<rect x="167.163" y="436.726" style="fill:#F1F3F7;" width="174.962" height="22.379"/>
<rect x="89.854" y="151.566" style="fill:#8E342D;" width="28.821" height="28.821"/>
<rect x="89.854" y="189.881" style="fill:#4B5AA7;" width="28.821" height="28.821"/>
<rect x="89.854" y="227.857" style="fill:#F7CFA2;" width="28.821" height="28.821"/>
<rect x="89.854" y="266.172" style="fill:#71D456;" width="28.821" height="28.821"/>
<rect x="125.796" y="151.566" style="fill:#FBD303;" width="28.821" height="28.821"/>
<rect x="125.796" y="189.881" style="fill:#6EB1E1;" width="28.821" height="28.821"/>
<rect x="125.796" y="227.857" style="fill:#E74938;" width="28.821" height="28.821"/>
<g>
	<rect x="125.796" y="266.172" style="fill:#4F5565;" width="28.821" height="28.821"/>
	<path style="fill:#4F5565;" d="M410.956,154.617c0-4.408-3.73-8.138-8.138-8.138H178.691c-4.408,0-8.138,3.73-8.138,8.138v27.465
		h240.064v-27.465H410.956z"/>
</g>
<circle style="fill:#F0582F;" cx="194.628" cy="164.45" r="5.764"/>
<circle style="fill:#FBD303;" cx="213.955" cy="164.45" r="5.764"/>
<circle style="fill:#71D456;" cx="233.621" cy="164.45" r="5.764"/>
<path style="fill:#333842;" d="M369.25,158.686H262.442c-3.052,0-5.764,2.713-5.764,5.764s2.713,5.764,5.764,5.764H369.25
	c3.052,0,5.764-2.713,5.764-5.764C375.354,161.06,372.641,158.686,369.25,158.686z"/>
<path style="fill:#F1F3F7;" d="M170.893,182.082v143.767c0,4.408,3.73,8.138,8.138,8.138h224.127c4.408,0,8.138-3.73,8.138-8.138
	V182.082H170.893z"/>
<g>
	<path style="fill:#646B79;" d="M253.626,222.093c-1.017,1.017-2.374,2.374-3.391,3.73l2.374,2.034
		c1.017-1.356,2.034-2.374,3.052-3.391L253.626,222.093z"/>
	<path style="fill:#646B79;" d="M245.828,239.724l-3.052-1.356c-0.678,1.356-1.017,3.052-1.695,4.747l3.052,1.017
		C244.811,242.776,245.489,241.081,245.828,239.724z"/>
	<path style="fill:#646B79;" d="M250.236,231.587l-2.713-1.695c-1.017,1.356-1.695,2.713-2.373,4.408l2.713,1.356
		C248.54,234.299,249.558,232.943,250.236,231.587z"/>
	<path style="fill:#646B79;" d="M245.828,276.005l-3.052,1.017c0.678,1.356,1.356,3.052,2.034,4.408l2.713-1.356
		C246.845,278.718,246.167,277.362,245.828,276.005z"/>
	<path style="fill:#646B79;" d="M247.184,285.838c1.017,1.356,1.695,2.713,2.713,4.069l2.374-2.034
		c-1.017-1.356-1.695-2.374-2.713-3.73L247.184,285.838z"/>
	<path style="fill:#646B79;" d="M308.217,209.547c-1.695-0.678-3.052-1.017-4.747-1.356l-0.678,3.052
		c1.356,0.339,3.052,0.678,4.408,1.356L308.217,209.547z"/>
	<path style="fill:#646B79;" d="M243.115,267.189l-3.052,0.678c0.339,1.695,0.678,3.391,1.017,4.747l3.052-1.017
		C243.793,269.902,243.454,268.546,243.115,267.189z"/>
	<path style="fill:#646B79;" d="M337.038,234.977c-0.678-1.356-1.695-3.052-2.374-4.408l-2.713,1.695
		c0.678,1.356,1.695,2.713,2.374,4.069L337.038,234.977z"/>
	<path style="fill:#646B79;" d="M337.377,244.811l3.052-1.017c-0.339-1.695-1.017-3.052-1.695-4.747l-3.052,1.017
		C336.699,242.098,337.038,243.454,337.377,244.811z"/>
	<path style="fill:#646B79;" d="M325.171,219.38c-1.356-1.017-2.374-2.034-3.73-3.052l-2.034,2.713
		c1.356,1.017,2.374,2.034,3.73,3.052L325.171,219.38z"/>
	<path style="fill:#646B79;" d="M317.033,213.616c-1.356-0.678-2.713-1.695-4.408-2.374l-1.356,3.052
		c1.356,0.678,2.713,1.356,4.069,2.034L317.033,213.616z"/>
	<path style="fill:#646B79;" d="M331.952,226.501c-1.017-1.356-2.034-2.713-3.052-3.73l-2.374,2.034
		c1.017,1.017,2.034,2.374,3.052,3.391L331.952,226.501z"/>
	<path style="fill:#646B79;" d="M333.987,280.413l2.713,1.356c0.678-1.356,1.356-3.052,2.034-4.408l-3.052-1.017
		C335.343,277.701,334.665,279.057,333.987,280.413z"/>
	<path style="fill:#646B79;" d="M255.661,291.264l-2.374,2.374c1.017,1.017,2.374,2.374,3.391,3.391l2.034-2.374
		C257.695,293.637,256.678,292.62,255.661,291.264z"/>
	<path style="fill:#646B79;" d="M306.522,303.809l1.017,3.052c1.695-0.678,3.052-1.017,4.747-1.695l-1.356-3.052
		C309.573,302.792,308.217,303.47,306.522,303.809z"/>
	<path style="fill:#646B79;" d="M322.458,294.654l2.034,2.374c1.356-1.017,2.374-2.374,3.73-3.391l-2.374-2.034
		C324.832,292.62,323.815,293.637,322.458,294.654z"/>
	<path style="fill:#646B79;" d="M337.377,271.936l3.052,1.017c0.339-1.695,1.017-3.052,1.017-4.747l-3.052-0.678
		C338.056,268.885,337.717,270.241,337.377,271.936z"/>
	<path style="fill:#646B79;" d="M297.706,306.183l0.339,3.052c1.695-0.339,3.391-0.678,4.747-1.017l-0.678-3.052
		C300.758,305.505,299.062,305.844,297.706,306.183z"/>
	<path style="fill:#646B79;" d="M328.901,288.212l2.374,2.034c1.017-1.356,2.034-2.713,2.713-4.069l-2.713-1.695
		C330.935,285.499,329.918,286.856,328.901,288.212z"/>
	<path style="fill:#646B79;" d="M314.999,300.079l1.695,2.713c1.356-0.678,2.713-1.695,4.069-2.713l-1.695-2.713
		C317.711,298.384,316.355,299.401,314.999,300.079z"/>
	<path style="fill:#646B79;" d="M269.902,210.903c-1.356,0.678-3.052,1.356-4.408,2.374l1.695,2.713
		c1.356-0.678,2.713-1.356,4.069-2.034L269.902,210.903z"/>
	<path style="fill:#646B79;" d="M260.747,300.079c1.356,1.017,2.713,1.695,4.069,2.713l1.695-2.713
		c-1.356-0.678-2.713-1.695-3.73-2.374L260.747,300.079z"/>
	<path style="fill:#646B79;" d="M261.086,215.65c-1.356,1.017-2.713,2.034-3.73,3.052l2.034,2.374
		c1.017-1.017,2.374-2.034,3.73-2.713L261.086,215.65z"/>
	<path style="fill:#646B79;" d="M279.057,207.852c-1.695,0.339-3.052,0.678-4.747,1.356l1.017,3.052
		c1.356-0.339,3.052-1.017,4.408-1.356L279.057,207.852z"/>
	<path style="fill:#646B79;" d="M278.379,308.217c1.695,0.339,3.052,0.678,4.747,1.017l0.339-3.052
		c-1.356-0.339-3.052-0.678-4.408-1.017L278.379,308.217z"/>
	<path style="fill:#646B79;" d="M269.224,305.166c1.356,0.678,3.052,1.356,4.408,1.695l1.017-3.052
		c-1.356-0.339-3.052-1.017-4.408-1.695L269.224,305.166z"/>
	<path style="fill:#646B79;" d="M299.401,215.989h-16.615v-16.615h16.615V215.989z M285.838,212.938h10.511v-10.511h-10.511V212.938
		z"/>
	<path style="fill:#646B79;" d="M299.401,316.694h-16.615v-16.615h16.615V316.694z M285.838,313.642h10.511v-10.511h-10.511V313.642
		z"/>
	<path style="fill:#646B79;" d="M349.584,266.511H332.97v-16.954h16.615V266.511z M336.021,263.46h10.511v-10.511h-10.511V263.46z"
		/>
	<path style="fill:#646B79;" d="M248.879,266.511h-16.615v-16.954h16.615V266.511z M235.317,263.46h10.511v-10.511h-10.511V263.46z"
		/>
</g>
<g>
</g>
<g>
</g>
<g>
</g>
<g>
</g>
<g>
</g>
<g>
</g>
<g>
</g>
<g>
</g>
<g>
</g>
<g>
</g>
<g>
</g>
<g>
</g>
<g>
</g>
<g>
</g>
<g>
</g>
</svg>
