<?xml version="1.0" encoding="iso-8859-1"?>
<!-- Generator: Adobe Illustrator 19.0.0, SVG Export Plug-In . SVG Version: 6.00 Build 0)  -->
<svg version="1.1" id="Layer_1" xmlns="http://www.w3.org/2000/svg" xmlns:xlink="http://www.w3.org/1999/xlink" x="0px" y="0px"
	 viewBox="0 0 509.287 509.287" style="enable-background:new 0 0 509.287 509.287;" xml:space="preserve">
<circle style="fill:#F0582F;" cx="254.644" cy="254.644" r="254.644"/>
<path style="fill:#4F5565;" d="M268.885,12.546h-28.821c-2.034,0-3.73,1.695-3.73,3.73V80.36c0,2.034,1.695,3.73,3.73,3.73h28.821
	c2.034,0,3.73-1.695,3.73-3.73V16.615C272.954,14.241,271.258,12.546,268.885,12.546z"/>
<g>
	<rect x="245.15" y="84.429" style="fill:#646B79;" width="18.988" height="18.988"/>
	<path style="fill:#646B79;" d="M254.644,328.223c-46.792,0-90.532-17.971-123.423-51.2c-3.73-3.73-3.73-9.833,0-13.902
		c3.73-3.73,9.833-3.73,13.902,0c29.499,29.16,68.154,45.436,109.86,45.436s80.699-16.276,109.86-45.775
		c3.73-3.73,9.833-3.73,13.902,0c3.73,3.73,3.73,9.833,0,13.902C345.176,309.913,301.436,328.223,254.644,328.223z"/>
</g>
<g>
	<polygon style="fill:#DEDEDF;" points="295.332,153.261 405.531,449.271 242.437,182.76 	"/>
	<polygon style="fill:#DEDEDF;" points="213.955,153.261 103.756,449.271 266.85,182.76 	"/>
</g>
<circle style="fill:#0090FF;" cx="254.644" cy="153.261" r="56.964"/>
<circle style="fill:#FBD303;" cx="254.644" cy="153.261" r="25.77"/>
<g>
</g>
<g>
</g>
<g>
</g>
<g>
</g>
<g>
</g>
<g>
</g>
<g>
</g>
<g>
</g>
<g>
</g>
<g>
</g>
<g>
</g>
<g>
</g>
<g>
</g>
<g>
</g>
<g>
</g>
</svg>
