<?xml version="1.0" encoding="iso-8859-1"?>
<!-- Generator: Adobe Illustrator 19.0.0, SVG Export Plug-In . SVG Version: 6.00 Build 0)  -->
<svg version="1.1" id="Layer_1" xmlns="http://www.w3.org/2000/svg" xmlns:xlink="http://www.w3.org/1999/xlink" x="0px" y="0px"
	 viewBox="0 0 509.287 509.287" style="enable-background:new 0 0 509.287 509.287;" xml:space="preserve">
<circle style="fill:#F0582F;" cx="254.644" cy="254.644" r="254.644"/>
<path style="fill:#4F5565;" d="M457.409,112.572c0-4.408-3.391-7.799-7.799-7.799H59.677c-4.408,0-7.799,3.391-7.799,7.799v226.501
	H457.07V112.572H457.409z"/>
<path style="fill:#F1F3F7;" d="M51.878,339.412v51.878c0,4.408,3.391,7.799,7.799,7.799h389.934c4.408,0,7.799-3.391,7.799-7.799
	v-51.878H51.878z"/>
<rect x="69.51" y="124.101" style="fill:#6EB1E1;" width="370.268" height="215.311"/>
<rect x="215.989" y="399.089" style="fill:#BDBDBE;" width="77.309" height="35.264"/>
<g>
	<rect x="190.559" y="434.352" style="fill:#F1F3F7;" width="128.17" height="17.632"/>
	<path style="fill:#F1F3F7;" d="M398.411,57.303H278.04c-3.73,0-7.121,3.052-7.121,7.121v202.766c0,3.73,3.052,7.121,7.121,7.121
		h120.371c3.73,0,7.121-3.052,7.121-7.121V64.085C405.192,60.355,402.14,57.303,398.411,57.303z"/>
</g>
<rect x="271.258" y="71.883" style="fill:#646B79;" width="134.273" height="178.352"/>
<g>
	<circle style="fill:#BDBDBE;" cx="338.395" cy="261.764" r="7.799"/>
	<path style="fill:#BDBDBE;" d="M348.906,63.407h-21.362c-1.017,0-2.034,1.017-2.034,2.034s1.017,2.034,2.034,2.034h21.362
		c1.017,0,2.034-1.017,2.034-2.034C350.94,64.424,349.923,63.407,348.906,63.407z"/>
</g>
<g>
</g>
<g>
</g>
<g>
</g>
<g>
</g>
<g>
</g>
<g>
</g>
<g>
</g>
<g>
</g>
<g>
</g>
<g>
</g>
<g>
</g>
<g>
</g>
<g>
</g>
<g>
</g>
<g>
</g>
</svg>
