<?xml version="1.0" encoding="iso-8859-1"?>
<!-- Generator: Adobe Illustrator 19.0.0, SVG Export Plug-In . SVG Version: 6.00 Build 0)  -->
<svg version="1.1" id="Layer_1" xmlns="http://www.w3.org/2000/svg" xmlns:xlink="http://www.w3.org/1999/xlink" x="0px" y="0px"
	 viewBox="0 0 509.287 509.287" style="enable-background:new 0 0 509.287 509.287;" xml:space="preserve">
<circle style="fill:#6EB1E1;" cx="254.644" cy="254.644" r="254.644"/>
<polygon style="fill:#F6CEB0;" points="399.767,370.946 400.784,370.268 429.266,370.268 430.283,370.946 421.128,389.934 
	408.922,389.934 "/>
<path style="fill:#4F5565;" d="M421.128,389.934l-3.391,7.46c-1.356,2.034-4.069,2.034-5.425,0l-3.391-7.46H421.128z"/>
<path style="fill:#D54232;" d="M408.922,370.946c3.052,3.73,8.816,3.73,11.868,0c0-41.706,0-216.328,0-257.695
	c-4.069,0-8.138,0-11.868,0C408.922,154.956,408.922,329.579,408.922,370.946z"/>
<path style="fill:#BF3025;" d="M399.767,370.946c2.373,3.73,6.781,3.73,9.155,0c0-41.706,0-216.328,0-257.695
	c-3.052,0-6.103,0-9.155,0C399.767,154.956,399.767,329.579,399.767,370.946z"/>
<path style="fill:#F0582F;" d="M421.128,370.946c2.373,3.73,6.781,3.73,9.155,0c0-41.706,0-216.328,0-257.695
	c-3.052,0-6.103,0-9.155,0C421.128,154.956,421.128,329.579,421.128,370.946z"/>
<path style="fill:#FBD303;" d="M406.548,80.021h17.293c3.73,0,6.442,3.052,6.442,6.442v26.787h-30.177V86.464
	C400.106,82.734,402.819,80.021,406.548,80.021z"/>
<g>
	<path style="fill:#F8B517;" d="M398.75,102.4h32.89c1.017,0,2.034,1.017,2.034,2.034s-1.017,2.034-2.034,2.034h-32.89
		c-1.017,0-2.034-1.017-2.034-2.034C396.376,103.417,397.393,102.4,398.75,102.4z"/>
	<path style="fill:#F8B517;" d="M398.75,108.842h32.89c1.017,0,2.034,1.017,2.034,2.034c0,1.017-1.017,2.034-2.034,2.034h-32.89
		c-1.017,0-2.034-1.017-2.034-2.034C396.376,109.86,397.393,108.842,398.75,108.842z"/>
</g>
<path style="fill:#FCFCFD;" d="M89.176,80.021h279.735v362.808H121.727c-17.971,0-32.212-14.58-32.212-32.212V80.021H89.176z"/>
<path style="fill:#F1F3F7;" d="M153.939,410.956c-0.339,17.632-14.58,31.873-32.212,31.873h279.735
	c17.632,0,32.212-14.241,32.212-31.873H153.939z"/>
<g>
	<path style="fill:#71D456;" d="M256.339,175.979v-54.591H141.054v115.285h54.93C195.645,203.105,222.771,175.979,256.339,175.979z"
		/>
	<path style="fill:#71D456;" d="M256.339,175.979L256.339,175.979L256,237.012h-60.355c0,33.568,27.126,61.033,61.033,61.033
		c33.568,0,61.033-27.126,61.033-61.033C317.372,203.105,290.246,175.979,256.339,175.979z"/>
</g>
<g>
	<rect x="129.865" y="331.613" style="fill:#F1F3F7;" width="198.697" height="14.58"/>
	<rect x="129.865" y="370.607" style="fill:#F1F3F7;" width="198.697" height="14.58"/>
</g>
<g>
</g>
<g>
</g>
<g>
</g>
<g>
</g>
<g>
</g>
<g>
</g>
<g>
</g>
<g>
</g>
<g>
</g>
<g>
</g>
<g>
</g>
<g>
</g>
<g>
</g>
<g>
</g>
<g>
</g>
</svg>
