<?xml version="1.0" encoding="iso-8859-1"?>
<!-- Generator: Adobe Illustrator 19.0.0, SVG Export Plug-In . SVG Version: 6.00 Build 0)  -->
<svg version="1.1" id="Layer_1" xmlns="http://www.w3.org/2000/svg" xmlns:xlink="http://www.w3.org/1999/xlink" x="0px" y="0px"
	 viewBox="0 0 509.287 509.287" style="enable-background:new 0 0 509.287 509.287;" xml:space="preserve">
<circle style="fill:#4B5AA7;" cx="254.644" cy="254.644" r="254.644"/>
<polygon style="fill:#FFFFFC;" points="338.056,58.66 103.756,58.66 103.756,450.628 405.531,450.628 405.531,126.135 "/>
<polygon style="fill:#F1F3F7;" points="338.056,126.135 405.531,126.135 338.056,58.66 "/>
<g>
	<rect x="261.764" y="200.731" style="fill:#646B79;" width="93.245" height="5.764"/>
	<rect x="154.278" y="200.731" style="fill:#646B79;" width="93.245" height="5.764"/>
	<path style="fill:#646B79;" d="M264.816,213.955h-20.344v-20.344h20.344V213.955z M250.236,207.852h8.477v-8.477h-8.477V207.852z"
		/>
	<path style="fill:#646B79;" d="M156.991,213.955h-20.344v-20.344h20.344V213.955z M142.75,207.852h8.477v-8.477h-8.477V207.852z"/>
	<path style="fill:#646B79;" d="M372.302,213.955h-20.344v-20.344h20.344V213.955z M358.061,207.852h8.477v-8.477h-8.477V207.852z"
		/>
	<path style="fill:#646B79;" d="M164.45,106.13h-20.344V85.785h20.344V106.13z M149.87,100.366h8.477v-8.477h-8.477V100.366z"/>
	<path style="fill:#646B79;" d="M365.181,321.441h-20.344v-20.344h20.344V321.441z M350.601,315.677h8.477V307.2h-8.477V315.677z"/>
	<path style="fill:#646B79;" d="M246.506,206.156c-3.052-0.339-6.103-0.678-8.816-1.017l1.017-5.764
		c2.713,0.339,5.764,0.678,8.477,1.017L246.506,206.156z M228.874,203.444c-3.052-0.678-5.764-1.695-8.477-2.713l2.034-5.425
		c2.713,1.017,5.425,1.695,8.138,2.374L228.874,203.444z M211.921,197.34c-2.713-1.356-5.425-2.713-8.138-4.069l2.713-5.086
		c2.374,1.356,5.086,2.713,7.46,3.73L211.921,197.34z M196.323,188.524c-2.374-1.695-4.747-3.391-7.121-5.425l3.73-4.408
		c2.034,1.695,4.408,3.391,6.781,5.086L196.323,188.524z M182.421,176.996c-2.034-2.034-4.069-4.408-6.103-6.442l4.408-3.73
		c1.695,2.034,3.73,4.069,5.764,6.103L182.421,176.996z M170.554,163.433c-1.695-2.374-3.391-5.086-5.086-7.46l5.086-3.052
		c1.356,2.374,3.052,4.747,4.747,7.121L170.554,163.433z M161.399,147.836c-1.356-2.713-2.374-5.425-3.391-8.138l5.425-2.034
		c1.017,2.713,2.034,5.425,3.391,7.799L161.399,147.836z M154.956,130.882c-0.678-2.713-1.356-5.764-2.034-8.816l5.764-1.017
		c0.678,2.713,1.017,5.425,2.034,8.138L154.956,130.882z M151.905,113.25c-0.339-2.713-0.678-5.764-0.678-8.816h5.764
		c0,2.713,0.339,5.764,0.339,8.477L151.905,113.25z"/>
	<path style="fill:#646B79;" d="M351.958,303.131c0-2.713-0.339-5.764-0.339-8.477l5.764-0.678c0.339,3.052,0.339,6.103,0.339,9.155
		H351.958z M350.601,286.177c-0.678-2.713-1.017-5.425-2.034-8.138l5.764-1.695c0.678,2.713,1.356,5.764,2.034,8.816
		L350.601,286.177z M345.854,269.902c-1.017-2.713-2.034-5.425-3.391-7.799l5.425-2.374c1.356,2.713,2.374,5.425,3.391,8.138
		L345.854,269.902z M338.734,254.305c-1.356-2.374-3.052-4.747-4.747-7.121l4.747-3.391c1.695,2.374,3.391,5.086,5.086,7.46
		L338.734,254.305z M328.562,240.742c-1.695-2.034-3.73-4.069-5.764-6.103l4.069-4.069c2.034,2.034,4.069,4.408,6.103,6.442
		L328.562,240.742z M316.694,228.874c-2.034-1.695-4.408-3.391-6.781-5.086l3.391-4.747c2.374,1.695,4.747,3.391,7.121,5.425
		L316.694,228.874z M302.453,219.041c-2.374-1.356-5.086-2.713-7.46-3.73l2.374-5.425c2.713,1.356,5.425,2.713,8.138,4.069
		L302.453,219.041z M287.195,212.26c-2.713-1.017-5.425-1.695-8.138-2.374l1.356-5.764c3.052,0.678,5.764,1.695,8.477,2.713
		L287.195,212.26z M270.58,207.852c-2.713-0.339-5.764-0.678-8.477-1.017l0.339-5.764c3.052,0.339,6.103,0.678,8.816,1.017
		L270.58,207.852z"/>
</g>
<rect x="136.985" y="341.785" style="fill:#6EB1E1;" width="105.113" height="78.665"/>
<rect x="267.189" y="341.785" style="fill:#71D456;" width="105.113" height="78.665"/>
<rect x="150.209" y="355.009" style="fill:#559BC6;" width="40.35" height="8.138"/>
<g>
	<rect x="150.209" y="376.71" style="fill:#F1F3F7;" width="78.665" height="8.138"/>
	<rect x="150.209" y="399.428" style="fill:#F1F3F7;" width="61.372" height="8.138"/>
</g>
<rect x="280.413" y="355.009" style="fill:#5DB73E;" width="40.35" height="8.138"/>
<g>
	<rect x="280.413" y="376.71" style="fill:#F1F3F7;" width="78.665" height="8.138"/>
	<rect x="280.413" y="399.428" style="fill:#F1F3F7;" width="61.372" height="8.138"/>
</g>
<g>
</g>
<g>
</g>
<g>
</g>
<g>
</g>
<g>
</g>
<g>
</g>
<g>
</g>
<g>
</g>
<g>
</g>
<g>
</g>
<g>
</g>
<g>
</g>
<g>
</g>
<g>
</g>
<g>
</g>
</svg>
