<?xml version="1.0" encoding="iso-8859-1"?>
<!-- Generator: Adobe Illustrator 19.0.0, SVG Export Plug-In . SVG Version: 6.00 Build 0)  -->
<svg version="1.1" id="Layer_1" xmlns="http://www.w3.org/2000/svg" xmlns:xlink="http://www.w3.org/1999/xlink" x="0px" y="0px"
	 viewBox="0 0 509.287 509.287" style="enable-background:new 0 0 509.287 509.287;" xml:space="preserve">
<circle style="fill:#71D456;" cx="254.644" cy="254.644" r="254.644"/>
<rect x="41.028" y="216.328" style="fill:#FBD303;" width="133.256" height="33.568"/>
<g>
	<rect x="165.807" y="232.943" style="fill:#F8B517;" width="2.374" height="16.615"/>
	<rect x="157.669" y="241.42" style="fill:#F8B517;" width="2.374" height="8.477"/>
	<rect x="148.853" y="232.943" style="fill:#F8B517;" width="2.374" height="16.615"/>
	<rect x="140.715" y="241.42" style="fill:#F8B517;" width="2.374" height="8.477"/>
	<rect x="131.899" y="232.943" style="fill:#F8B517;" width="2.374" height="16.615"/>
	<rect x="123.762" y="241.42" style="fill:#F8B517;" width="2.374" height="8.477"/>
	<rect x="114.946" y="232.943" style="fill:#F8B517;" width="2.374" height="16.615"/>
	<rect x="107.147" y="241.42" style="fill:#F8B517;" width="2.374" height="8.477"/>
	<rect x="98.331" y="232.943" style="fill:#F8B517;" width="2.374" height="16.615"/>
	<rect x="90.193" y="241.42" style="fill:#F8B517;" width="2.374" height="8.477"/>
	<rect x="81.377" y="232.943" style="fill:#F8B517;" width="2.374" height="16.615"/>
	<rect x="73.24" y="241.42" style="fill:#F8B517;" width="2.374" height="8.477"/>
	<rect x="64.424" y="232.943" style="fill:#F8B517;" width="2.374" height="16.615"/>
	<rect x="56.286" y="241.42" style="fill:#F8B517;" width="2.374" height="8.477"/>
	<rect x="47.47" y="232.943" style="fill:#F8B517;" width="2.374" height="16.615"/>
</g>
<rect x="335.004" y="216.328" style="fill:#FBD303;" width="133.256" height="33.568"/>
<g>
	<rect x="459.444" y="232.943" style="fill:#F8B517;" width="2.373" height="16.615"/>
	<rect x="451.306" y="241.42" style="fill:#F8B517;" width="2.373" height="8.477"/>
	<rect x="442.49" y="232.943" style="fill:#F8B517;" width="2.373" height="16.615"/>
	<rect x="434.352" y="241.42" style="fill:#F8B517;" width="2.373" height="8.477"/>
	<rect x="425.536" y="232.943" style="fill:#F8B517;" width="2.373" height="16.615"/>
	<rect x="417.399" y="241.42" style="fill:#F8B517;" width="2.373" height="8.477"/>
	<rect x="408.922" y="232.943" style="fill:#F8B517;" width="2.373" height="16.615"/>
	<rect x="400.784" y="241.42" style="fill:#F8B517;" width="2.373" height="8.477"/>
	<rect x="391.968" y="232.943" style="fill:#F8B517;" width="2.373" height="16.615"/>
	<rect x="383.83" y="241.42" style="fill:#F8B517;" width="2.373" height="8.477"/>
	<rect x="375.015" y="232.943" style="fill:#F8B517;" width="2.373" height="16.615"/>
	<rect x="366.877" y="241.42" style="fill:#F8B517;" width="2.373" height="8.477"/>
	<rect x="358.061" y="232.943" style="fill:#F8B517;" width="2.373" height="16.615"/>
	<rect x="349.923" y="241.42" style="fill:#F8B517;" width="2.373" height="8.477"/>
	<rect x="341.446" y="232.943" style="fill:#F8B517;" width="2.373" height="16.615"/>
</g>
<polygon style="fill:#FCFCFD;" points="307.2,61.372 103.756,61.372 103.756,447.915 405.531,447.915 405.531,159.703 "/>
<polygon style="fill:#F1F3F7;" points="307.2,159.703 405.531,159.703 307.2,61.372 "/>
<g>
	<path style="fill:#646B79;" d="M158.008,272.275h-6.781c0-1.356,0-2.374,0-3.73l7.121,0.339
		C158.347,270.241,158.008,271.258,158.008,272.275z"/>
	<path style="fill:#646B79;" d="M158.686,262.103l-7.121-1.017c0.339-2.374,0.678-4.747,1.356-7.121l6.781,1.356
		C159.364,257.695,159.025,260.069,158.686,262.103z M311.947,262.103c-0.339-2.374-0.678-4.408-1.017-6.781l6.781-1.695
		c0.678,2.373,1.017,4.747,1.356,7.121L311.947,262.103z M161.738,249.219l-6.781-2.034c0.678-2.374,1.695-4.747,2.374-6.781
		l6.442,2.713C163.094,244.811,162.416,246.845,161.738,249.219z M309.234,248.879c-0.678-2.034-1.356-4.408-2.374-6.442
		l6.442-2.713c1.017,2.374,1.695,4.747,2.374,6.781L309.234,248.879z M166.824,236.673l-6.103-3.391
		c1.017-2.034,2.374-4.408,3.73-6.442l6.103,3.73C169.197,232.604,167.841,234.638,166.824,236.673z M303.809,236.673
		c-1.017-2.034-2.034-4.069-3.391-5.764l6.103-3.73c1.356,2.034,2.713,4.069,3.73,6.442L303.809,236.673z M174.283,225.144
		l-5.425-4.408c1.356-2.034,3.052-3.73,4.747-5.764l5.086,4.747C176.996,221.754,175.64,223.449,174.283,225.144z M296.689,225.144
		c-1.356-1.695-2.713-3.391-4.408-5.086l5.086-4.747c1.695,1.695,3.391,3.73,4.747,5.764L296.689,225.144z M183.099,215.311
		l-4.747-5.086c1.695-1.695,3.73-3.391,5.764-4.747l4.408,5.425C186.49,212.26,184.795,213.955,183.099,215.311z M287.534,215.311
		c-1.695-1.356-3.391-3.052-5.086-4.408l4.408-5.425c2.034,1.356,3.73,3.052,5.764,4.747L287.534,215.311z M193.95,207.174
		l-3.73-6.103c2.034-1.356,4.069-2.713,6.442-3.73l3.391,6.103C197.679,204.8,195.645,205.817,193.95,207.174z M277.022,207.174
		c-2.034-1.356-3.73-2.374-5.764-3.391l3.391-6.103c2.034,1.017,4.408,2.374,6.442,3.73L277.022,207.174z M205.817,201.07
		l-2.713-6.442c2.374-1.017,4.747-1.695,6.781-2.374l2.034,6.781C209.886,199.375,207.852,200.053,205.817,201.07z M264.816,200.731
		c-2.034-1.017-4.069-1.695-6.442-2.374l2.034-6.781c2.374,0.678,4.747,1.695,6.781,2.374L264.816,200.731z M218.702,197.001
		l-1.356-6.781c2.374-0.678,4.747-1.017,7.121-1.356l1.017,7.121C223.11,195.984,220.736,196.323,218.702,197.001z M251.931,197.001
		c-2.034-0.339-4.408-1.017-6.781-1.017l1.017-7.121c2.373,0.339,4.747,0.678,7.121,1.356L251.931,197.001z M231.926,194.967
		l-0.339-7.121c2.374,0,4.747,0,7.46,0l-0.339,7.121C236.673,194.967,234.299,194.967,231.926,194.967z"/>
	<path style="fill:#646B79;" d="M319.746,272.275h-7.121c0-1.017,0-2.374,0-3.391l7.121-0.339
		C319.746,269.902,319.746,271.258,319.746,272.275z"/>
	<rect x="224.805" y="181.065" style="fill:#646B79;" width="21.023" height="21.023"/>
	<rect x="142.411" y="181.065" style="fill:#646B79;" width="21.023" height="21.023"/>
	<rect x="308.556" y="181.065" style="fill:#646B79;" width="21.023" height="21.023"/>
	<rect x="152.922" y="187.846" style="fill:#646B79;" width="166.824" height="7.121"/>
	<path style="fill:#646B79;" d="M263.46,389.256c-16.615,0-29.838-13.563-29.838-29.838v-97.992h5.764v97.992
		c0,13.563,10.85,24.413,24.413,24.413c13.563,0,24.413-10.85,24.413-24.413v-21.022c0-17.293,13.902-31.195,31.195-31.195
		c17.293,0,31.195,13.902,31.195,31.195v11.528h-5.764v-11.528c0-14.241-11.529-25.43-25.43-25.43
		c-14.241,0-25.43,11.529-25.43,25.43v21.022C293.637,376.032,280.074,389.256,263.46,389.256z"/>
</g>
<polygon style="fill:#FBD303;" points="235.317,205.817 219.719,233.96 224.805,251.253 246.167,251.253 251.253,233.96 "/>
<g>
	<rect x="218.363" y="251.253" style="fill:#646B79;" width="34.246" height="11.528"/>
	<circle style="fill:#646B79;" cx="235.317" cy="235.317" r="3.73"/>
</g>
<path style="fill:#DEDEDF;" d="M347.55,339.751L347.55,339.751c-17.632,0-32.212,14.241-32.212,32.212v35.264
	c0,17.632,14.241,32.212,32.212,32.212l0,0c17.632,0,32.212-14.241,32.212-32.212v-35.603
	C379.762,353.992,365.181,339.751,347.55,339.751z"/>
<path style="fill:#FFFFFC;" d="M347.55,351.958L347.55,351.958c-2.374,0-4.069,1.695-4.069,4.069v16.615
	c0,2.373,1.695,4.069,4.069,4.069l0,0c2.373,0,4.069-1.695,4.069-4.069v-16.615C351.619,353.992,349.584,351.958,347.55,351.958z"/>
<g>
</g>
<g>
</g>
<g>
</g>
<g>
</g>
<g>
</g>
<g>
</g>
<g>
</g>
<g>
</g>
<g>
</g>
<g>
</g>
<g>
</g>
<g>
</g>
<g>
</g>
<g>
</g>
<g>
</g>
</svg>
