<?xml version="1.0" encoding="iso-8859-1"?>
<!-- Generator: Adobe Illustrator 19.0.0, SVG Export Plug-In . SVG Version: 6.00 Build 0)  -->
<svg version="1.1" id="Layer_1" xmlns="http://www.w3.org/2000/svg" xmlns:xlink="http://www.w3.org/1999/xlink" x="0px" y="0px"
	 viewBox="0 0 509.287 509.287" style="enable-background:new 0 0 509.287 509.287;" xml:space="preserve">
<circle style="fill:#FBD303;" cx="254.644" cy="254.644" r="254.644"/>
<path style="fill:#886C60;" d="M397.054,54.252H112.233c-6.781,0-12.207,5.425-12.207,12.207V442.49
	c0,6.781,5.425,12.207,12.207,12.207h284.821c6.781,0,12.207-5.425,12.207-12.207V66.797
	C409.261,60.016,403.836,54.252,397.054,54.252z"/>
<rect x="131.899" y="86.124" style="fill:#FCFCFD;" width="245.15" height="337.038"/>
<rect x="161.399" y="160.381" style="fill:#6EB1E1;" width="44.419" height="44.419"/>
<rect x="161.399" y="232.265" style="fill:#F0582F;" width="44.419" height="44.419"/>
<rect x="161.399" y="304.148" style="fill:#FBD303;" width="44.419" height="44.419"/>
<g>
	<rect x="223.11" y="175.979" style="fill:#DEDEDF;" width="124.44" height="13.563"/>
	<rect x="223.11" y="247.862" style="fill:#DEDEDF;" width="124.44" height="13.563"/>
	<rect x="223.11" y="319.746" style="fill:#DEDEDF;" width="124.44" height="13.563"/>
</g>
<path style="fill:#393D47;" d="M330.935,63.068H178.352c-3.73,0-7.121,3.052-7.121,7.121v24.074c0,3.73,3.052,7.121,7.121,7.121
	h152.583c3.73,0,7.121-3.052,7.121-7.121V70.188C338.056,66.119,335.004,63.068,330.935,63.068z"/>
<g>
</g>
<g>
</g>
<g>
</g>
<g>
</g>
<g>
</g>
<g>
</g>
<g>
</g>
<g>
</g>
<g>
</g>
<g>
</g>
<g>
</g>
<g>
</g>
<g>
</g>
<g>
</g>
<g>
</g>
</svg>
