<?xml version="1.0" encoding="iso-8859-1"?>
<!-- Generator: Adobe Illustrator 19.0.0, SVG Export Plug-In . SVG Version: 6.00 Build 0)  -->
<svg version="1.1" id="Layer_1" xmlns="http://www.w3.org/2000/svg" xmlns:xlink="http://www.w3.org/1999/xlink" x="0px" y="0px"
	 viewBox="0 0 509.287 509.287" style="enable-background:new 0 0 509.287 509.287;" xml:space="preserve">
<circle style="fill:#FBD303;" cx="254.644" cy="254.644" r="254.644"/>
<rect x="45.097" y="45.097" style="fill:#646B79;" width="419.094" height="419.094"/>
<rect x="121.049" y="45.097" style="fill:#6EB1E1;" width="267.528" height="419.094"/>
<g>
	<path style="fill:#F1F3F7;" d="M98.67,61.711H67.136c-2.034,0-3.73,1.695-3.73,3.391v43.062c0,2.034,1.695,3.391,3.73,3.391H98.67
		c2.034,0,3.73-1.695,3.73-3.391V65.441C102.061,63.407,100.705,61.711,98.67,61.711z"/>
	<path style="fill:#F1F3F7;" d="M98.67,128.848H67.136c-2.034,0-3.73,1.695-3.73,3.391v43.062c0,2.034,1.695,3.391,3.73,3.391H98.67
		c2.034,0,3.73-1.695,3.73-3.391v-42.723C102.061,130.543,100.705,128.848,98.67,128.848z"/>
	<path style="fill:#F1F3F7;" d="M98.67,195.984H67.136c-2.034,0-3.73,1.695-3.73,3.391v43.062c0,2.034,1.695,3.391,3.73,3.391H98.67
		c2.034,0,3.73-1.695,3.73-3.391v-42.723C102.061,197.679,100.705,195.984,98.67,195.984z"/>
	<path style="fill:#F1F3F7;" d="M98.67,263.121H67.136c-2.034,0-3.73,1.695-3.73,3.391v43.062c0,2.034,1.695,3.391,3.73,3.391H98.67
		c2.034,0,3.73-1.695,3.73-3.391V266.85C102.061,264.816,100.705,263.121,98.67,263.121z"/>
	<path style="fill:#F1F3F7;" d="M98.67,330.257H67.136c-2.034,0-3.73,1.695-3.73,3.391v43.062c0,2.034,1.695,3.391,3.73,3.391H98.67
		c2.034,0,3.73-1.695,3.73-3.391v-42.723C102.061,331.952,100.705,330.257,98.67,330.257z"/>
	<path style="fill:#F1F3F7;" d="M98.67,397.393H67.136c-2.034,0-3.73,1.695-3.73,3.391v43.062c0,2.034,1.695,3.391,3.73,3.391H98.67
		c2.034,0,3.73-1.695,3.73-3.391v-43.062C102.061,399.089,100.705,397.393,98.67,397.393z"/>
	<path style="fill:#F1F3F7;" d="M442.151,61.711h-31.534c-2.034,0-3.73,1.695-3.73,3.391v43.062c0,2.034,1.695,3.391,3.73,3.391
		h31.534c2.034,0,3.73-1.695,3.73-3.391V65.441C445.881,63.407,444.185,61.711,442.151,61.711z"/>
	<path style="fill:#F1F3F7;" d="M442.151,128.848h-31.534c-2.034,0-3.73,1.695-3.73,3.391v43.062c0,2.034,1.695,3.391,3.73,3.391
		h31.534c2.034,0,3.73-1.695,3.73-3.391v-42.723C445.881,130.543,444.185,128.848,442.151,128.848z"/>
	<path style="fill:#F1F3F7;" d="M442.151,195.984h-31.534c-2.034,0-3.73,1.695-3.73,3.391v43.062c0,2.034,1.695,3.391,3.73,3.391
		h31.534c2.034,0,3.73-1.695,3.73-3.391v-42.723C445.881,197.679,444.185,195.984,442.151,195.984z"/>
	<path style="fill:#F1F3F7;" d="M442.151,263.121h-31.534c-2.034,0-3.73,1.695-3.73,3.391v43.062c0,2.034,1.695,3.391,3.73,3.391
		h31.534c2.034,0,3.73-1.695,3.73-3.391V266.85C445.881,264.816,444.185,263.121,442.151,263.121z"/>
	<path style="fill:#F1F3F7;" d="M442.151,330.257h-31.534c-2.034,0-3.73,1.695-3.73,3.391v43.062c0,2.034,1.695,3.391,3.73,3.391
		h31.534c2.034,0,3.73-1.695,3.73-3.391v-42.723C445.881,331.952,444.185,330.257,442.151,330.257z"/>
	<path style="fill:#F1F3F7;" d="M442.151,397.393h-31.534c-2.034,0-3.73,1.695-3.73,3.391v43.062c0,2.034,1.695,3.391,3.73,3.391
		h31.534c2.034,0,3.73-1.695,3.73-3.391v-43.062C445.881,399.089,444.185,397.393,442.151,397.393z"/>
	<circle style="fill:#F1F3F7;" cx="254.644" cy="254.644" r="88.159"/>
</g>
<polygon style="fill:#F0582F;" points="229.552,202.087 229.552,307.2 307.539,254.644 "/>
<g>
</g>
<g>
</g>
<g>
</g>
<g>
</g>
<g>
</g>
<g>
</g>
<g>
</g>
<g>
</g>
<g>
</g>
<g>
</g>
<g>
</g>
<g>
</g>
<g>
</g>
<g>
</g>
<g>
</g>
</svg>
