<?xml version="1.0" encoding="iso-8859-1"?>
<!-- Generator: Adobe Illustrator 19.0.0, SVG Export Plug-In . SVG Version: 6.00 Build 0)  -->
<svg version="1.1" id="Layer_1" xmlns="http://www.w3.org/2000/svg" xmlns:xlink="http://www.w3.org/1999/xlink" x="0px" y="0px"
	 viewBox="0 0 509.287 509.287" style="enable-background:new 0 0 509.287 509.287;" xml:space="preserve">
<circle style="fill:#F0582F;" cx="254.644" cy="254.644" r="254.644"/>
<path style="fill:#FFFFFF;" d="M303.809,186.151V47.809h-98.331v138.342C139.02,207.174,90.532,269.224,90.532,342.803
	c0,57.981,30.177,108.842,75.613,138.003h177.335c45.436-29.16,75.613-80.021,75.613-138.003
	C418.755,269.224,370.268,207.174,303.809,186.151z"/>
<g>
	<path style="fill:#6EB1E1;" d="M104.773,338.734c0,1.356,0,2.713,0,4.069c0,49.844,24.413,95.958,65.441,123.762h168.858
		c41.028-28.143,65.441-73.918,65.441-123.762c0-1.356,0-2.713,0-4.069H104.773z"/>
	<circle style="fill:#6EB1E1;" cx="296.011" cy="289.907" r="25.77"/>
	<circle style="fill:#6EB1E1;" cx="246.167" cy="154.278" r="17.293"/>
	<circle style="fill:#6EB1E1;" cx="181.404" cy="284.143" r="14.58"/>
</g>
<g>
	<circle style="fill:#9CD4F7;" cx="254.644" cy="423.841" r="21.023"/>
	<circle style="fill:#9CD4F7;" cx="336.021" cy="388.577" r="14.241"/>
</g>
<path style="fill:#EFF2F4;" d="M304.827,28.482H204.461c-11.868,0-21.701,9.833-21.701,21.701l0,0
	c0,11.868,9.833,21.701,21.701,21.701h100.705c11.868,0,21.701-9.833,21.701-21.701l0,0
	C326.866,38.315,317.033,28.482,304.827,28.482z"/>
<g>
</g>
<g>
</g>
<g>
</g>
<g>
</g>
<g>
</g>
<g>
</g>
<g>
</g>
<g>
</g>
<g>
</g>
<g>
</g>
<g>
</g>
<g>
</g>
<g>
</g>
<g>
</g>
<g>
</g>
</svg>
