<?xml version="1.0" encoding="iso-8859-1"?>
<!-- Generator: Adobe Illustrator 19.0.0, SVG Export Plug-In . SVG Version: 6.00 Build 0)  -->
<svg version="1.1" id="Layer_1" xmlns="http://www.w3.org/2000/svg" xmlns:xlink="http://www.w3.org/1999/xlink" x="0px" y="0px"
	 viewBox="0 0 509.287 509.287" style="enable-background:new 0 0 509.287 509.287;" xml:space="preserve">
<circle style="fill:#6EB1E1;" cx="254.644" cy="254.644" r="254.644"/>
<path style="fill:#F8B517;" d="M418.755,421.807H94.94c-12.546,0-23.057-11.868-23.057-26.448V114.268
	c0-14.58,10.172-26.448,23.057-26.448h84.429c7.121,0,13.902,3.73,17.971,10.172l8.138,11.868
	c4.408,6.442,11.189,10.172,17.971,10.172h195.306c12.546,0,23.057,11.868,23.057,26.448v248.54
	C441.812,409.939,431.64,421.807,418.755,421.807z"/>
<path style="fill:#FBD303;" d="M131.899,151.566h323.475c14.241,0,25.091,14.919,22.718,31.195l-32.551,217.007
	c-2.034,12.546-11.528,22.04-22.718,22.04H99.009c-14.241,0-25.091-14.919-22.718-31.195l32.551-217.007
	C111.216,161.06,120.71,151.566,131.899,151.566z"/>
<circle style="fill:#FFFFFC;" cx="277.022" cy="286.517" r="92.567"/>
<polygon style="fill:#F0582F;" points="247.523,233.96 247.523,339.412 330.257,286.517 "/>
<g>
</g>
<g>
</g>
<g>
</g>
<g>
</g>
<g>
</g>
<g>
</g>
<g>
</g>
<g>
</g>
<g>
</g>
<g>
</g>
<g>
</g>
<g>
</g>
<g>
</g>
<g>
</g>
<g>
</g>
</svg>
