<?xml version="1.0" encoding="iso-8859-1"?>
<!-- Generator: Adobe Illustrator 19.0.0, SVG Export Plug-In . SVG Version: 6.00 Build 0)  -->
<svg version="1.1" id="Layer_1" xmlns="http://www.w3.org/2000/svg" xmlns:xlink="http://www.w3.org/1999/xlink" x="0px" y="0px"
	 viewBox="0 0 509.287 509.287" style="enable-background:new 0 0 509.287 509.287;" xml:space="preserve">
<circle style="fill:#4F5565;" cx="254.644" cy="254.644" r="254.644"/>
<path style="fill:#F8B517;" d="M410.956,428.927H101.722c-12.207,0-22.04-11.189-22.04-25.43V135.29
	c0-13.902,9.833-25.43,22.04-25.43h80.699c6.781,0,13.224,3.73,17.293,9.833l7.799,11.528c4.069,6.103,10.511,9.833,17.293,9.833
	h186.49c12.207,0,22.04,11.189,22.04,25.43v237.351C432.657,417.399,422.824,428.927,410.956,428.927z"/>
<rect x="111.216" y="64.085" style="fill:#FCFCFD;" width="289.907" height="364.842"/>
<rect x="111.216" y="64.085" style="fill:#6EB1E1;" width="289.907" height="25.091"/>
<path style="fill:#FBD303;" d="M136.985,220.397h308.556c13.563,0,24.074,11.528,21.701,24.074l-31.195,167.502
	c-1.695,9.833-10.85,16.954-21.701,16.954H105.791c-13.563,0-24.074-11.528-21.701-24.074l31.195-167.502
	C116.98,227.518,126.135,220.397,136.985,220.397z"/>
<rect x="144.784" y="111.216" style="fill:#F1F3F7;" width="138.681" height="19.666"/>
<rect x="144.784" y="155.634" style="fill:#71D456;" width="226.501" height="48.487"/>
<g>
</g>
<g>
</g>
<g>
</g>
<g>
</g>
<g>
</g>
<g>
</g>
<g>
</g>
<g>
</g>
<g>
</g>
<g>
</g>
<g>
</g>
<g>
</g>
<g>
</g>
<g>
</g>
<g>
</g>
</svg>
