<?xml version="1.0" encoding="iso-8859-1"?>
<!-- Generator: Adobe Illustrator 19.0.0, SVG Export Plug-In . SVG Version: 6.00 Build 0)  -->
<svg version="1.1" id="Layer_1" xmlns="http://www.w3.org/2000/svg" xmlns:xlink="http://www.w3.org/1999/xlink" x="0px" y="0px"
	 viewBox="0 0 509.287 509.287" style="enable-background:new 0 0 509.287 509.287;" xml:space="preserve">
<circle style="fill:#71D456;" cx="254.644" cy="254.644" r="254.644"/>
<path style="fill:#F1F3F7;" d="M77.987,133.595v282.787c0,6.442,5.425,11.868,11.868,11.868h329.918
	c6.442,0,11.868-5.425,11.868-11.868V133.595H77.987z"/>
<path style="fill:#4F5565;" d="M431.301,92.906c0-6.442-5.425-11.868-11.868-11.868H89.854c-6.442,0-11.868,5.425-11.868,11.868
	v40.689H431.64V92.906H431.301z"/>
<circle style="fill:#F0582F;" cx="112.911" cy="107.486" r="8.477"/>
<circle style="fill:#FBD303;" cx="141.732" cy="107.486" r="8.477"/>
<circle style="fill:#71D456;" cx="170.215" cy="107.486" r="8.477"/>
<path style="fill:#333842;" d="M370.268,99.009h-157.33c-4.747,0-8.477,3.73-8.477,8.477c0,4.747,3.73,8.477,8.477,8.477h157.33
	c4.747,0,8.477-3.73,8.477-8.477C378.744,102.739,375.015,99.009,370.268,99.009z"/>
<rect x="177.335" y="203.444" style="fill:#6EB1E1;" width="19.327" height="50.522"/>
<polygon style="fill:#DEDEDF;" points="340.429,388.238 168.858,388.238 168.858,258.713 254.644,186.49 340.429,258.713 "/>
<path style="fill:#F0582F;" d="M366.199,266.511l-111.555-92.906l-111.555,92.906c-5.764,5.086-5.764,13.902,0,18.988
	c4.408,3.73,11.189,3.73,15.936,0l95.619-79.682l95.619,79.682c4.408,3.73,11.189,3.73,15.936,0l0,0
	C371.963,280.413,371.963,271.258,366.199,266.511z"/>
<g>
	<rect x="228.196" y="294.654" style="fill:#4F5565;" width="52.895" height="93.584"/>
	<circle style="fill:#4F5565;" cx="254.644" cy="256" r="18.988"/>
</g>
<g>
</g>
<g>
</g>
<g>
</g>
<g>
</g>
<g>
</g>
<g>
</g>
<g>
</g>
<g>
</g>
<g>
</g>
<g>
</g>
<g>
</g>
<g>
</g>
<g>
</g>
<g>
</g>
<g>
</g>
</svg>
