<?xml version="1.0" encoding="iso-8859-1"?>
<!-- Generator: Adobe Illustrator 19.0.0, SVG Export Plug-In . SVG Version: 6.00 Build 0)  -->
<svg version="1.1" id="Layer_1" xmlns="http://www.w3.org/2000/svg" xmlns:xlink="http://www.w3.org/1999/xlink" x="0px" y="0px"
	 viewBox="0 0 509.287 509.287" style="enable-background:new 0 0 509.287 509.287;" xml:space="preserve">
<circle style="fill:#4F5565;" cx="254.644" cy="254.644" r="254.644"/>
<polygon style="fill:#FCFCFD;" points="327.883,61.033 106.808,61.033 106.808,448.254 402.479,448.254 402.479,135.968 "/>
<polygon style="fill:#F1F3F7;" points="327.883,135.968 402.479,135.968 327.883,61.033 "/>
<circle style="fill:#6EB1E1;" cx="254.644" cy="254.644" r="68.154"/>
<g>
	<path style="fill:#646B79;" d="M372.641,238.707h-12.885c-6.781-45.775-42.723-82.395-89.515-89.515v-12.885h-31.534v12.885
		c-46.453,6.781-82.395,43.74-89.515,89.515h-12.885v31.534h12.885c6.781,46.114,43.401,82.395,89.515,89.515v12.885h31.534v-12.885
		c46.114-6.781,82.395-43.401,89.515-89.515h12.885V238.707z M246.506,144.106h16.615v16.615h-16.615V144.106z M144.106,246.506
		h16.615v16.615h-16.615V246.506z M262.781,365.181h-16.615v-16.615h16.615V365.181z M270.58,352.297v-11.189h-31.534v11.189
		c-41.706-6.781-74.935-40.011-81.717-81.717h10.85v-31.534h-11.189c6.781-41.706,39.332-74.935,81.717-81.717v10.85h31.534v-11.189
		c42.384,6.781,74.935,40.011,81.717,81.717h-10.85v31.534h11.189C345.515,312.286,312.286,345.515,270.58,352.297z
		 M365.181,262.781h-16.615v-16.615h16.615V262.781z"/>
	<polygon style="fill:#646B79;" points="317.711,365.181 345.854,434.013 355.687,403.158 386.543,392.985 	"/>
</g>
<g>
</g>
<g>
</g>
<g>
</g>
<g>
</g>
<g>
</g>
<g>
</g>
<g>
</g>
<g>
</g>
<g>
</g>
<g>
</g>
<g>
</g>
<g>
</g>
<g>
</g>
<g>
</g>
<g>
</g>
</svg>
