<?xml version="1.0" encoding="iso-8859-1"?>
<!-- Generator: Adobe Illustrator 19.0.0, SVG Export Plug-In . SVG Version: 6.00 Build 0)  -->
<svg version="1.1" id="Layer_1" xmlns="http://www.w3.org/2000/svg" xmlns:xlink="http://www.w3.org/1999/xlink" x="0px" y="0px"
	 viewBox="0 0 509.287 509.287" style="enable-background:new 0 0 509.287 509.287;" xml:space="preserve">
<circle style="fill:#FBD303;" cx="254.644" cy="254.644" r="254.644"/>
<path style="fill:#646B79;" d="M254.644,0c-0.678,0-1.356,0-2.034,0v60.016c0,20.683,16.615,37.298,37.298,37.298h44.758
	c14.919,0,27.126,12.207,27.126,27.126c0,14.919-12.207,27.126-27.126,27.126H148.853c-19.327,0-35.264,15.936-35.264,35.264
	s15.936,35.264,35.264,35.264h36.281c13.902,0,25.091,11.189,25.091,25.091v21.362h10.172v-21.362
	c0-19.327-15.936-35.264-35.264-35.264h-36.281c-13.902,0-25.091-11.189-25.091-25.091c0-13.902,11.189-25.091,25.091-25.091
	h185.812c20.683,0,37.298-16.615,37.298-37.298s-16.615-37.298-37.298-37.298h-44.758c-14.919,0-27.126-12.207-27.126-27.126V0.339
	C260.069,0.339,257.356,0,254.644,0z"/>
<path style="fill:#DEDEDF;" d="M476.058,255.322H33.229c-6.781,0-12.207,5.425-12.207,12.207v173.266
	c0,6.781,5.425,12.207,12.207,12.207h442.49c6.781,0,12.207-5.425,12.207-12.207V267.528
	C488.265,260.747,482.84,255.322,476.058,255.322z"/>
<g>
	<rect x="42.723" y="271.258" style="fill:#FFFFFF;" width="23.735" height="23.735"/>
	<rect x="79.343" y="271.258" style="fill:#FFFFFF;" width="23.735" height="23.735"/>
	<rect x="115.624" y="271.258" style="fill:#FFFFFF;" width="23.735" height="23.735"/>
	<rect x="151.905" y="271.258" style="fill:#FFFFFF;" width="23.735" height="23.735"/>
	<rect x="188.185" y="271.258" style="fill:#FFFFFF;" width="23.735" height="23.735"/>
	<rect x="224.466" y="271.258" style="fill:#FFFFFF;" width="23.735" height="23.735"/>
	<rect x="261.086" y="271.258" style="fill:#FFFFFF;" width="23.735" height="23.735"/>
	<rect x="297.367" y="271.258" style="fill:#FFFFFF;" width="23.735" height="23.735"/>
	<rect x="333.648" y="271.258" style="fill:#FFFFFF;" width="23.735" height="23.735"/>
	<rect x="369.928" y="271.258" style="fill:#FFFFFF;" width="23.735" height="23.735"/>
	<rect x="406.209" y="271.258" style="fill:#FFFFFF;" width="23.735" height="23.735"/>
	<rect x="442.829" y="271.258" style="fill:#FFFFFF;" width="23.735" height="23.735"/>
	<rect x="42.723" y="341.446" style="fill:#FFFFFF;" width="23.735" height="23.735"/>
	<rect x="79.343" y="341.446" style="fill:#FFFFFF;" width="23.735" height="23.735"/>
	<rect x="115.624" y="341.446" style="fill:#FFFFFF;" width="23.735" height="23.735"/>
	<rect x="151.905" y="341.446" style="fill:#FFFFFF;" width="23.735" height="23.735"/>
	<rect x="188.185" y="341.446" style="fill:#FFFFFF;" width="23.735" height="23.735"/>
	<rect x="224.466" y="341.446" style="fill:#FFFFFF;" width="23.735" height="23.735"/>
	<rect x="261.086" y="341.446" style="fill:#FFFFFF;" width="23.735" height="23.735"/>
	<rect x="297.367" y="341.446" style="fill:#FFFFFF;" width="23.735" height="23.735"/>
	<rect x="333.648" y="341.446" style="fill:#FFFFFF;" width="23.735" height="23.735"/>
	<rect x="369.928" y="341.446" style="fill:#FFFFFF;" width="23.735" height="23.735"/>
	<rect x="406.209" y="341.446" style="fill:#FFFFFF;" width="23.735" height="23.735"/>
	<rect x="42.723" y="412.991" style="fill:#FFFFFF;" width="23.735" height="23.735"/>
	<rect x="79.343" y="412.991" style="fill:#FFFFFF;" width="23.735" height="23.735"/>
	<rect x="115.624" y="412.991" style="fill:#FFFFFF;" width="169.197" height="23.735"/>
	<rect x="297.367" y="412.991" style="fill:#FFFFFF;" width="23.735" height="23.735"/>
	<rect x="333.648" y="412.991" style="fill:#FFFFFF;" width="23.735" height="23.735"/>
	<rect x="369.928" y="412.991" style="fill:#FFFFFF;" width="23.735" height="23.735"/>
	<rect x="406.209" y="412.991" style="fill:#FFFFFF;" width="23.735" height="23.735"/>
	<rect x="442.829" y="412.991" style="fill:#FFFFFF;" width="23.735" height="23.735"/>
	<rect x="42.723" y="306.522" style="fill:#FFFFFF;" width="41.028" height="23.735"/>
	<rect x="425.536" y="306.522" style="fill:#FFFFFF;" width="41.028" height="23.735"/>
	<rect x="97.314" y="306.522" style="fill:#FFFFFF;" width="23.735" height="23.735"/>
	<rect x="133.595" y="306.522" style="fill:#FFFFFF;" width="23.735" height="23.735"/>
	<rect x="170.215" y="306.522" style="fill:#FFFFFF;" width="23.735" height="23.735"/>
	<rect x="206.495" y="306.522" style="fill:#FFFFFF;" width="23.735" height="23.735"/>
	<rect x="242.776" y="306.522" style="fill:#FFFFFF;" width="23.735" height="23.735"/>
	<rect x="279.057" y="306.522" style="fill:#FFFFFF;" width="23.735" height="23.735"/>
	<rect x="315.338" y="306.522" style="fill:#FFFFFF;" width="23.735" height="23.735"/>
	<rect x="351.958" y="306.522" style="fill:#FFFFFF;" width="23.735" height="23.735"/>
	<rect x="388.238" y="306.522" style="fill:#FFFFFF;" width="23.735" height="23.735"/>
	<rect x="42.723" y="377.388" style="fill:#FFFFFF;" width="41.028" height="23.735"/>
	<polygon style="fill:#FFFFFF;" points="442.829,341.446 442.829,377.388 425.536,377.388 425.536,401.123 466.564,401.123 
		466.564,341.446 	"/>
	<rect x="97.314" y="377.388" style="fill:#FFFFFF;" width="23.735" height="23.735"/>
	<rect x="133.595" y="377.388" style="fill:#FFFFFF;" width="23.735" height="23.735"/>
	<rect x="170.215" y="377.388" style="fill:#FFFFFF;" width="23.735" height="23.735"/>
	<rect x="206.495" y="377.388" style="fill:#FFFFFF;" width="23.735" height="23.735"/>
	<rect x="242.776" y="377.388" style="fill:#FFFFFF;" width="23.735" height="23.735"/>
	<rect x="279.057" y="377.388" style="fill:#FFFFFF;" width="23.735" height="23.735"/>
	<rect x="315.338" y="377.388" style="fill:#FFFFFF;" width="23.735" height="23.735"/>
	<rect x="351.958" y="377.388" style="fill:#FFFFFF;" width="23.735" height="23.735"/>
	<rect x="388.238" y="377.388" style="fill:#FFFFFF;" width="23.735" height="23.735"/>
</g>
<g>
</g>
<g>
</g>
<g>
</g>
<g>
</g>
<g>
</g>
<g>
</g>
<g>
</g>
<g>
</g>
<g>
</g>
<g>
</g>
<g>
</g>
<g>
</g>
<g>
</g>
<g>
</g>
<g>
</g>
</svg>
