<?xml version="1.0" encoding="iso-8859-1"?>
<!-- Generator: Adobe Illustrator 19.0.0, SVG Export Plug-In . SVG Version: 6.00 Build 0)  -->
<svg version="1.1" id="Layer_1" xmlns="http://www.w3.org/2000/svg" xmlns:xlink="http://www.w3.org/1999/xlink" x="0px" y="0px"
	 viewBox="0 0 509.287 509.287" style="enable-background:new 0 0 509.287 509.287;" xml:space="preserve">
<circle style="fill:#71D456;" cx="254.644" cy="254.644" r="254.644"/>
<path style="fill:#646B79;" d="M272.615,432.318c-4.747,0-9.494-1.695-12.885-5.425c-7.121-7.121-7.121-18.988,0-26.109
	L402.14,258.374l-142.75-142.75c-7.121-7.121-7.121-18.988,0-26.109c7.121-7.121,18.988-7.121,26.109,0L441.134,245.15
	c3.391,3.391,5.425,8.138,5.425,12.885c0,4.747-2.034,9.494-5.425,12.885L285.499,426.554
	C281.77,430.623,277.022,432.318,272.615,432.318z"/>
<path style="fill:#DEDEDF;" d="M290.585,65.102c-13.224-13.224-34.585-13.224-47.809,0l-36.62,36.281l47.809,47.809l36.62-36.62
	C303.809,99.687,303.809,77.987,290.585,65.102z"/>
<path style="fill:#F1F3F7;" d="M250.575,258.374c38.654-42.723,37.637-108.503-3.73-149.531s-107.147-42.384-149.531-3.73
	L250.575,258.374z"/>
<path style="fill:#DEDEDF;" d="M382.135,454.358H126.813l0,0c0-34.924,28.143-63.068,63.068-63.068h129.187
	C353.992,390.951,382.135,419.433,382.135,454.358L382.135,454.358z"/>
<circle style="fill:#F0582F;" cx="407.566" cy="262.103" r="43.062"/>
<circle style="fill:#F1F3F7;" cx="407.566" cy="262.103" r="22.379"/>
<g>
</g>
<g>
</g>
<g>
</g>
<g>
</g>
<g>
</g>
<g>
</g>
<g>
</g>
<g>
</g>
<g>
</g>
<g>
</g>
<g>
</g>
<g>
</g>
<g>
</g>
<g>
</g>
<g>
</g>
</svg>
