<?xml version="1.0" encoding="iso-8859-1"?>
<!-- Generator: Adobe Illustrator 19.0.0, SVG Export Plug-In . SVG Version: 6.00 Build 0)  -->
<svg version="1.1" id="Layer_1" xmlns="http://www.w3.org/2000/svg" xmlns:xlink="http://www.w3.org/1999/xlink" x="0px" y="0px"
	 viewBox="0 0 509.287 509.287" style="enable-background:new 0 0 509.287 509.287;" xml:space="preserve">
<circle style="fill:#6EB1E1;" cx="254.644" cy="254.644" r="254.644"/>
<path style="fill:#646B79;" d="M433.674,106.808H75.613c-7.799,0-13.902,6.103-13.902,13.902v242.776h385.865V120.71
	C447.576,112.911,441.134,106.808,433.674,106.808z"/>
<rect x="79.682" y="124.101" style="fill:#F1F3F7;" width="349.584" height="239.385"/>
<path style="fill:#4F5565;" d="M24.413,363.486c0,21.701,17.632,38.993,38.993,38.993h381.796c21.701,0,38.993-17.632,38.993-38.993
	H24.413z"/>
<rect x="98.331" y="141.732" style="fill:#FFFFFC;" width="312.964" height="203.783"/>
<g>
	<rect x="319.068" y="230.909" style="fill:#646B79;" width="56.286" height="3.391"/>
	<rect x="253.966" y="230.909" style="fill:#646B79;" width="56.286" height="3.391"/>
	<path style="fill:#646B79;" d="M321.102,239.046h-12.207V226.84h12.207V239.046z M312.286,235.317h5.086v-5.086h-5.086V235.317z"/>
	<path style="fill:#646B79;" d="M256,239.046h-12.207V226.84H256V239.046z M247.184,235.317h5.086v-5.086h-5.086V235.317z"/>
	<path style="fill:#646B79;" d="M386.204,239.046h-12.207V226.84h12.207V239.046z M377.388,235.317h5.086v-5.086h-5.086V235.317z"/>
	<path style="fill:#646B79;" d="M260.069,173.944h-12.207v-12.546h12.207V173.944z M251.592,170.215h5.086v-5.086h-5.086V170.215z"
		/>
	<path style="fill:#646B79;" d="M381.796,304.148h-12.207v-12.207h12.207V304.148z M372.98,300.419h5.086v-5.086h-5.086V300.419z"/>
	<path style="fill:#646B79;" d="M309.913,234.299c-1.695,0-3.73-0.339-5.425-0.678l0.678-3.391c1.695,0.339,3.391,0.339,5.086,0.678
		L309.913,234.299z M299.062,232.604c-1.695-0.339-3.391-1.017-5.086-1.695l1.017-3.391c1.695,0.678,3.391,1.017,4.747,1.356
		L299.062,232.604z M288.89,228.874c-1.695-0.678-3.391-1.695-4.747-2.374l1.695-3.052c1.356,0.678,3.052,1.695,4.747,2.374
		L288.89,228.874z M279.396,223.449c-1.356-1.017-3.052-2.034-4.408-3.391l2.374-2.713c1.356,1.017,2.713,2.034,4.069,3.052
		L279.396,223.449z M270.919,216.668c-1.356-1.356-2.374-2.713-3.73-4.069l2.713-2.374c1.017,1.356,2.374,2.713,3.391,3.73
		L270.919,216.668z M264.138,208.53c-1.017-1.356-2.034-3.052-3.052-4.408l3.052-1.695c1.017,1.356,1.695,3.052,2.713,4.408
		L264.138,208.53z M258.374,199.036c-0.678-1.695-1.356-3.391-2.034-5.086l3.391-1.356c0.678,1.695,1.356,3.052,2.034,4.747
		L258.374,199.036z M254.644,188.864c-0.339-1.695-1.017-3.391-1.356-5.425l3.391-0.678c0.339,1.695,0.678,3.391,1.017,5.086
		L254.644,188.864z M252.609,178.013c-0.339-1.695-0.339-3.73-0.339-5.425h3.391c0,1.695,0,3.391,0.339,5.086L252.609,178.013z"/>
	<path style="fill:#646B79;" d="M373.658,292.959c0-1.695,0-3.391-0.339-5.086l3.391-0.339c0.339,1.695,0.339,3.73,0.339,5.425
		H373.658z M372.641,282.448c-0.339-1.695-0.678-3.391-1.017-5.086l3.391-1.017c0.339,1.695,1.017,3.391,1.356,5.425
		L372.641,282.448z M369.928,272.615c-0.678-1.695-1.356-3.052-2.034-4.747l3.052-1.695c0.678,1.695,1.356,3.391,2.034,5.086
		L369.928,272.615z M365.521,263.46c-1.017-1.356-1.695-3.052-2.713-4.408l2.713-2.034c1.017,1.356,2.034,3.052,3.052,4.408
		L365.521,263.46z M359.417,254.983c-1.017-1.356-2.373-2.713-3.391-3.73l2.374-2.374c1.356,1.356,2.374,2.713,3.73,4.069
		L359.417,254.983z M352.297,247.862c-1.356-1.017-2.713-2.034-4.069-3.052l2.034-3.052c1.356,1.017,3.052,2.034,4.408,3.391
		L352.297,247.862z M343.82,242.098c-1.356-0.678-3.052-1.695-4.408-2.374l1.356-3.052c1.695,0.678,3.391,1.695,4.747,2.374
		L343.82,242.098z M334.326,238.029c-1.695-0.678-3.391-1.017-4.747-1.356l1.017-3.391c1.695,0.339,3.391,1.017,5.086,1.695
		L334.326,238.029z M324.493,235.317c-1.695-0.339-3.391-0.339-5.086-0.678l0.339-3.391c1.695,0,3.73,0.339,5.425,0.678
		L324.493,235.317z"/>
</g>
<rect x="123.762" y="161.399" style="fill:#6EB1E1;" width="83.412" height="44.079"/>
<rect x="123.762" y="221.754" style="fill:#F8B517;" width="83.412" height="44.079"/>
<rect x="123.762" y="281.77" style="fill:#F0582F;" width="83.412" height="44.079"/>
<rect x="342.464" y="161.399" style="fill:#71D456;" width="43.74" height="8.477"/>
<rect x="239.724" y="320.763" style="fill:#DEDEDF;" width="149.87" height="5.086"/>
<g>
</g>
<g>
</g>
<g>
</g>
<g>
</g>
<g>
</g>
<g>
</g>
<g>
</g>
<g>
</g>
<g>
</g>
<g>
</g>
<g>
</g>
<g>
</g>
<g>
</g>
<g>
</g>
<g>
</g>
</svg>
