<?xml version="1.0" encoding="iso-8859-1"?>
<!-- Generator: Adobe Illustrator 19.0.0, SVG Export Plug-In . SVG Version: 6.00 Build 0)  -->
<svg version="1.1" id="Layer_1" xmlns="http://www.w3.org/2000/svg" xmlns:xlink="http://www.w3.org/1999/xlink" x="0px" y="0px"
	 viewBox="0 0 509.287 509.287" style="enable-background:new 0 0 509.287 509.287;" xml:space="preserve">
<circle style="fill:#FBD303;" cx="254.644" cy="254.644" r="254.644"/>
<path style="fill:#646B79;" d="M424.18,106.13H85.107c-8.138,0-14.919,6.781-14.919,14.919v236.334H438.76V121.049
	C438.76,112.911,432.318,106.13,424.18,106.13z"/>
<rect x="90.193" y="125.796" style="fill:#6EB1E1;" width="328.901" height="231.926"/>
<path style="fill:#414753;" d="M35.264,357.383c0,25.091,20.344,45.436,45.436,45.436h347.889c25.091,0,45.436-20.344,45.436-45.436
	H35.264z"/>
<rect x="202.426" y="357.383" style="fill:#646B79;" width="104.434" height="11.868"/>
<g>
	<path style="fill:#F1F3F7;" d="M254.644,325.51c-46.114,0-83.751-37.637-83.751-83.751s37.637-83.751,83.751-83.751v8.138
		c-41.706,0-75.613,33.907-75.613,75.613s33.907,75.613,75.613,75.613V325.51z"/>
	<path style="fill:#F1F3F7;" d="M259.391,165.807c-1.695,0-3.052,0-4.747,0v-8.138c1.695,0,3.73,0,5.425,0L259.391,165.807z"/>
	<path style="fill:#F1F3F7;" d="M270.919,323.815l-1.695-8.138c3.391-0.678,6.442-1.356,9.494-2.713l2.713,7.799
		C278.04,322.119,274.649,323.136,270.919,323.815z M291.603,316.694l-3.73-7.121c3.052-1.356,5.764-3.052,8.477-5.086l4.408,6.781
		C298.384,313.303,294.993,315.338,291.603,316.694z M309.913,304.487l-5.425-6.103c2.374-2.034,4.747-4.408,7.121-7.121
		l6.103,5.425C315.338,299.74,312.625,302.114,309.913,304.487z M324.493,288.212l-6.781-4.408c1.695-2.713,3.391-5.764,5.086-8.477
		l7.121,3.73C328.223,281.77,326.527,285.16,324.493,288.212z M333.987,268.546l-7.799-2.713c1.017-3.052,2.034-6.442,2.713-9.494
		l8.138,1.695C336.36,261.425,335.343,265.155,333.987,268.546z M338.395,246.845l-8.138-0.678c0-1.695,0-3.391,0-4.747
		c0-1.695,0-3.391,0-5.086l8.138-0.678c0,1.695,0.339,3.73,0.339,5.425C338.395,243.454,338.395,245.15,338.395,246.845z
		 M328.901,226.84c-0.678-3.391-1.356-6.442-2.713-9.494l7.799-2.713c1.017,3.391,2.034,7.121,2.713,10.511L328.901,226.84z
		 M322.458,207.852c-1.356-3.052-3.052-5.764-5.086-8.477l6.781-4.408c2.034,3.052,3.73,6.103,5.425,9.494L322.458,207.852z
		 M311.608,191.576c-2.034-2.374-4.408-4.747-7.121-7.121l5.425-6.103c2.713,2.374,5.425,5.086,7.799,7.799L311.608,191.576z
		 M296.689,178.352c-2.713-1.695-5.764-3.391-8.477-5.086l3.73-7.46c3.391,1.695,6.442,3.391,9.494,5.425L296.689,178.352z
		 M279.057,169.875c-3.052-1.017-6.442-2.034-9.494-2.713l1.695-8.138c3.73,0.678,7.121,1.695,10.511,2.713L279.057,169.875z"/>
	<path style="fill:#F1F3F7;" d="M254.644,325.51v-8.138c1.695,0,3.391,0,4.747,0l0.339,8.138
		C258.374,325.51,256.339,325.51,254.644,325.51z"/>
	<circle style="fill:#F1F3F7;" cx="254.644" cy="241.42" r="34.246"/>
</g>
<g>
</g>
<g>
</g>
<g>
</g>
<g>
</g>
<g>
</g>
<g>
</g>
<g>
</g>
<g>
</g>
<g>
</g>
<g>
</g>
<g>
</g>
<g>
</g>
<g>
</g>
<g>
</g>
<g>
</g>
</svg>
