<?xml version="1.0" encoding="iso-8859-1"?>
<!-- Generator: Adobe Illustrator 19.0.0, SVG Export Plug-In . SVG Version: 6.00 Build 0)  -->
<svg version="1.1" id="Layer_1" xmlns="http://www.w3.org/2000/svg" xmlns:xlink="http://www.w3.org/1999/xlink" x="0px" y="0px"
	 viewBox="0 0 509.287 509.287" style="enable-background:new 0 0 509.287 509.287;" xml:space="preserve">
<circle style="fill:#6EB1E1;" cx="254.644" cy="254.644" r="254.644"/>
<g>
	<path style="fill:#F1F3F7;" d="M383.152,370.268v14.241h15.258v-14.241c4.069-2.713,6.781-7.121,6.781-12.207
		c0-8.138-6.442-14.58-14.58-14.58s-14.58,6.442-14.58,14.58C376.032,363.147,378.744,367.894,383.152,370.268z"/>
	<path style="fill:#F1F3F7;" d="M111.216,370.268v14.241h15.258v-14.241c4.069-2.713,6.781-7.121,6.781-12.207
		c0-8.138-6.442-14.58-14.58-14.58c-8.138,0-14.58,6.442-14.58,14.58C104.434,363.147,107.147,367.894,111.216,370.268z"/>
</g>
<path style="fill:#FBD303;" d="M367.894,132.917c0-67.136-57.981-120.371-126.813-112.572c-50.183,5.764-91.55,46.114-98.67,96.636
	c-5.764,40.35,10.172,77.309,37.637,101.383c16.954,14.919,27.126,36.281,28.143,58.999c0,1.356,0,44.419,0,46.114l0,0h92.567l0,0
	c0-1.356,0-44.419,0-45.775c1.356-23.396,12.546-45.097,30.177-61.033C353.653,195.984,367.894,166.146,367.894,132.917z"/>
<path style="fill:#F0582F;" d="M459.444,395.698H329.918c-14.58,0-26.109-11.868-26.109-26.109v-57.981h-98.331v57.981
	c0,14.58-11.868,26.109-26.109,26.109H49.844c-2.034,0-4.069,1.356-4.747,3.052c45.775,66.458,122.744,110.199,209.886,110.199
	s163.772-43.74,209.886-110.199C463.513,397.054,461.817,395.698,459.444,395.698z"/>
<g>
	<path style="fill:#393D47;" d="M303.131,289.907h-96.975c-5.764,0-10.511,4.747-10.511,10.85c0,6.103,4.747,10.85,10.511,10.85
		h96.975c5.764,0,10.511-4.747,10.511-10.85S308.895,289.907,303.131,289.907z"/>
	<path style="fill:#393D47;" d="M423.163,380.101h-65.441c-2.034,0-3.73,1.695-3.73,3.73v11.868h73.24V383.83
		C427.232,381.796,425.536,380.101,423.163,380.101z"/>
	<path style="fill:#393D47;" d="M151.566,380.101H86.124c-2.034,0-3.73,1.695-3.73,3.73v11.868h73.24V383.83
		C155.295,381.796,153.6,380.101,151.566,380.101z"/>
</g>
<g>
</g>
<g>
</g>
<g>
</g>
<g>
</g>
<g>
</g>
<g>
</g>
<g>
</g>
<g>
</g>
<g>
</g>
<g>
</g>
<g>
</g>
<g>
</g>
<g>
</g>
<g>
</g>
<g>
</g>
</svg>
