<?xml version="1.0" encoding="iso-8859-1"?>
<!-- Generator: Adobe Illustrator 19.0.0, SVG Export Plug-In . SVG Version: 6.00 Build 0)  -->
<svg version="1.1" id="Layer_1" xmlns="http://www.w3.org/2000/svg" xmlns:xlink="http://www.w3.org/1999/xlink" x="0px" y="0px"
	 viewBox="0 0 509.287 509.287" style="enable-background:new 0 0 509.287 509.287;" xml:space="preserve">
<circle style="fill:#71D456;" cx="254.644" cy="254.644" r="254.644"/>
<polygon style="fill:#D54232;" points="205.139,189.881 304.148,189.881 424.18,22.379 325.171,22.379 "/>
<path style="fill:#FCFCFD;" d="M330.935,241.081H178.352c-5.086,0-9.155-4.069-9.155-9.155v-56.964c0-5.086,4.069-9.155,9.155-9.155
	h152.583c5.086,0,9.155,4.069,9.155,9.155v57.303C340.09,237.012,336.021,241.081,330.935,241.081z M187.168,223.11H321.78v-39.332
	H187.168V223.11z"/>
<circle style="fill:#FBD303;" cx="252.609" cy="345.515" r="141.393"/>
<circle style="fill:#F8B517;" cx="252.609" cy="345.515" r="101.722"/>
<polygon style="fill:#F0582F;" points="304.148,189.881 205.139,189.881 85.107,22.379 184.117,22.379 "/>
<polygon style="fill:#FCFCFD;" points="252.609,246.845 274.988,316.016 347.55,316.016 288.89,358.739 311.269,427.91 
	252.609,385.187 193.611,427.91 215.989,358.739 157.33,316.016 229.891,316.016 "/>
<g>
</g>
<g>
</g>
<g>
</g>
<g>
</g>
<g>
</g>
<g>
</g>
<g>
</g>
<g>
</g>
<g>
</g>
<g>
</g>
<g>
</g>
<g>
</g>
<g>
</g>
<g>
</g>
<g>
</g>
</svg>
