<?xml version="1.0" encoding="iso-8859-1"?>
<!-- Generator: Adobe Illustrator 19.0.0, SVG Export Plug-In . SVG Version: 6.00 Build 0)  -->
<svg version="1.1" id="Layer_1" xmlns="http://www.w3.org/2000/svg" xmlns:xlink="http://www.w3.org/1999/xlink" x="0px" y="0px"
	 viewBox="0 0 509.287 509.287" style="enable-background:new 0 0 509.287 509.287;" xml:space="preserve">
<circle style="fill:#71D456;" cx="254.644" cy="254.644" r="254.644"/>
<rect x="61.711" y="173.605" style="fill:#F5EA0A;" width="385.865" height="242.437"/>
<polygon style="fill:#F8B517;" points="254.644,28.143 61.711,173.605 254.644,319.407 447.576,173.605 "/>
<polygon style="fill:#FBD303;" points="280.752,298.045 228.535,298.045 61.711,416.381 447.576,416.381 "/>
<polygon style="fill:#646B79;" points="226.501,298.045 282.787,298.045 324.832,266.511 184.456,266.511 "/>
<polygon style="fill:#393D47;" points="300.758,284.482 309.913,277.701 199.375,277.701 208.53,284.482 "/>
<polygon style="fill:#FCFCFD;" points="411.974,80.699 97.314,80.699 97.314,200.731 184.456,266.511 324.832,266.511 
	411.974,200.731 "/>
<circle style="fill:#F0582F;" cx="254.644" cy="173.605" r="55.269"/>
<polygon style="fill:#FFFFFF;" points="232.265,135.29 232.265,212.26 290.585,173.605 "/>
<circle style="fill:#6EB1E1;" cx="231.587" cy="281.091" r="8.138"/>
<g>
</g>
<g>
</g>
<g>
</g>
<g>
</g>
<g>
</g>
<g>
</g>
<g>
</g>
<g>
</g>
<g>
</g>
<g>
</g>
<g>
</g>
<g>
</g>
<g>
</g>
<g>
</g>
<g>
</g>
</svg>
