<?xml version="1.0" encoding="iso-8859-1"?>
<!-- Generator: Adobe Illustrator 19.0.0, SVG Export Plug-In . SVG Version: 6.00 Build 0)  -->
<svg version="1.1" id="Layer_1" xmlns="http://www.w3.org/2000/svg" xmlns:xlink="http://www.w3.org/1999/xlink" x="0px" y="0px"
	 viewBox="0 0 509.287 509.287" style="enable-background:new 0 0 509.287 509.287;" xml:space="preserve">
<circle style="fill:#F0582F;" cx="254.644" cy="254.644" r="254.644"/>
<path style="fill:#414753;" d="M370.946,55.269H123.762c-5.086,0-8.816,4.069-8.816,8.816v380.779c0,5.086,4.069,8.816,8.816,8.816
	h247.184c5.086,0,8.816-4.069,8.816-8.816V64.085C379.762,59.338,376.032,55.269,370.946,55.269z"/>
<rect x="130.543" y="95.619" style="fill:#6EB1E1;" width="233.621" height="312.625"/>
<g>
	<rect x="213.616" y="71.883" style="fill:#333842;" width="67.476" height="9.494"/>
	<circle style="fill:#333842;" cx="247.184" cy="431.301" r="10.172"/>
</g>
<rect x="232.604" y="142.072" style="fill:#FFFFFF;" width="216.328" height="225.144"/>
<rect x="232.604" y="142.072" style="fill:#FBD303;" width="216.328" height="44.419"/>
<rect x="253.966" y="206.495" style="fill:#6EB1E1;" width="33.568" height="33.568"/>
<rect x="253.966" y="259.73" style="fill:#FBD303;" width="33.568" height="33.568"/>
<rect x="253.966" y="312.964" style="fill:#71D456;" width="33.568" height="33.568"/>
<g>
	<rect x="311.608" y="217.007" style="fill:#DEDEDF;" width="114.268" height="12.207"/>
	<rect x="311.608" y="270.241" style="fill:#DEDEDF;" width="114.268" height="12.207"/>
	<rect x="311.608" y="323.475" style="fill:#DEDEDF;" width="114.268" height="12.207"/>
</g>
<g>
</g>
<g>
</g>
<g>
</g>
<g>
</g>
<g>
</g>
<g>
</g>
<g>
</g>
<g>
</g>
<g>
</g>
<g>
</g>
<g>
</g>
<g>
</g>
<g>
</g>
<g>
</g>
<g>
</g>
</svg>
