<?xml version="1.0" encoding="iso-8859-1"?>
<!-- Generator: Adobe Illustrator 19.0.0, SVG Export Plug-In . SVG Version: 6.00 Build 0)  -->
<svg version="1.1" id="Layer_1" xmlns="http://www.w3.org/2000/svg" xmlns:xlink="http://www.w3.org/1999/xlink" x="0px" y="0px"
	 viewBox="0 0 509.287 509.287" style="enable-background:new 0 0 509.287 509.287;" xml:space="preserve">
<circle style="fill:#4484C5;" cx="254.644" cy="254.644" r="254.644"/>
<polygon style="fill:#FBD303;" points="285.838,55.608 348.228,55.608 348.228,303.809 285.838,303.809 "/>
<g>
	<rect x="285.838" y="287.534" style="fill:#F8B517;" width="31.195" height="4.408"/>
	<rect x="285.838" y="272.615" style="fill:#F8B517;" width="15.597" height="4.408"/>
	<rect x="285.838" y="256.339" style="fill:#F8B517;" width="31.195" height="4.408"/>
	<rect x="285.838" y="241.081" style="fill:#F8B517;" width="15.597" height="4.408"/>
	<rect x="285.838" y="224.805" style="fill:#F8B517;" width="31.195" height="4.408"/>
	<rect x="285.838" y="209.886" style="fill:#F8B517;" width="15.597" height="4.408"/>
	<rect x="285.838" y="193.272" style="fill:#F8B517;" width="31.195" height="4.408"/>
	<rect x="285.838" y="178.352" style="fill:#F8B517;" width="15.597" height="4.408"/>
	<rect x="285.838" y="162.077" style="fill:#F8B517;" width="31.195" height="4.408"/>
	<rect x="285.838" y="146.819" style="fill:#F8B517;" width="15.597" height="4.408"/>
	<rect x="285.838" y="130.543" style="fill:#F8B517;" width="31.195" height="4.408"/>
	<rect x="285.838" y="115.285" style="fill:#F8B517;" width="15.597" height="4.408"/>
	<rect x="285.838" y="99.009" style="fill:#F8B517;" width="31.195" height="4.408"/>
	<rect x="285.838" y="84.09" style="fill:#F8B517;" width="15.597" height="4.408"/>
	<rect x="285.838" y="67.475" style="fill:#F8B517;" width="31.195" height="4.408"/>
</g>
<rect x="237.69" y="67.136" style="fill:#D54232;" width="17.632" height="147.158"/>
<rect x="224.466" y="67.136" style="fill:#BF3025;" width="13.563" height="147.158"/>
<path style="fill:#F0582F;" d="M268.885,214.294V67.136h-13.563c0,25.091,0,83.073,0,147.158L268.885,214.294L268.885,214.294z"/>
<path style="fill:#FBD303;" d="M233.96,17.971h25.43c5.425,0,9.494,4.408,9.494,9.494v39.672h-44.419V27.465
	C224.466,22.379,228.874,17.971,233.96,17.971z"/>
<g>
	<path style="fill:#F8B517;" d="M222.432,50.861h48.487c1.695,0,3.052,1.356,3.052,3.052s-1.356,3.052-3.052,3.052h-48.487
		c-1.695,0-3.052-1.356-3.052-3.052C219.38,52.556,220.736,50.861,222.432,50.861z"/>
	<path style="fill:#F8B517;" d="M222.432,60.694h48.487c1.695,0,3.052,1.356,3.052,3.052s-1.356,3.052-3.052,3.052h-48.487
		c-1.695,0-3.052-1.356-3.052-3.052C219.38,62.05,220.736,60.694,222.432,60.694z"/>
</g>
<polygon style="fill:#F6CEB0;" points="207.174,102.061 205.817,103.417 163.772,103.417 162.755,102.061 175.64,74.257 
	193.95,74.257 "/>
<path style="fill:#414753;" d="M175.64,74.257l5.086-11.189c1.695-3.052,6.103-3.052,7.799,0l5.086,11.189H175.64z"/>
<path style="fill:#5AA1CC;" d="M193.611,214.294V102.061c-4.408-5.764-13.224-5.764-17.632,0v112.233H193.611z"/>
<path style="fill:#3C89AF;" d="M207.174,214.294V102.061c-3.391-5.764-9.833-5.764-13.563,0c0,20.344,0,62.728,0,112.233H207.174z"
	/>
<path style="fill:#6EB1E1;" d="M175.979,214.294V102.061c-3.391-5.764-9.833-5.764-13.563,0v112.233H175.979z"/>
<path style="fill:#DEDEDF;" d="M408.244,212.26h-46.792v29.838h46.792c9.155,0,16.276,7.46,16.276,16.276v111.216
	c0,9.155-7.46,16.276-16.276,16.276h-46.792v29.838h46.792c25.43,0,46.453-20.683,46.453-46.453V258.713
	C454.697,233.282,434.013,212.26,408.244,212.26z"/>
<path style="fill:#F1F3F7;" d="M143.767,188.185v252.609c0,16.276,13.224,29.16,29.16,29.16h164.789
	c16.276,0,29.16-13.224,29.16-29.16V188.185H143.767z"/>
<g>
</g>
<g>
</g>
<g>
</g>
<g>
</g>
<g>
</g>
<g>
</g>
<g>
</g>
<g>
</g>
<g>
</g>
<g>
</g>
<g>
</g>
<g>
</g>
<g>
</g>
<g>
</g>
<g>
</g>
</svg>
