<?xml version="1.0" encoding="iso-8859-1"?>
<!-- Generator: Adobe Illustrator 19.0.0, SVG Export Plug-In . SVG Version: 6.00 Build 0)  -->
<svg version="1.1" id="Layer_1" xmlns="http://www.w3.org/2000/svg" xmlns:xlink="http://www.w3.org/1999/xlink" x="0px" y="0px"
	 viewBox="0 0 509.287 509.287" style="enable-background:new 0 0 509.287 509.287;" xml:space="preserve">
<circle style="fill:#EE4A68;" cx="254.644" cy="254.644" r="254.644"/>
<path style="fill:#FCFCFD;" d="M254.644,462.834c-114.946,0-208.191-93.245-208.191-208.191S139.698,46.453,254.644,46.453
	s208.191,93.245,208.191,208.191S369.589,462.834,254.644,462.834z M254.644,60.355c-107.147,0-194.289,87.142-194.289,194.289
	s87.142,194.289,194.289,194.289s194.289-87.142,194.289-194.289S361.791,60.355,254.644,60.355z"/>
<g>
	<circle style="fill:#646B79;" cx="254.644" cy="53.234" r="43.062"/>
	<circle style="fill:#646B79;" cx="254.644" cy="456.053" r="43.062"/>
	<circle style="fill:#646B79;" cx="456.053" cy="254.644" r="43.062"/>
	<circle style="fill:#646B79;" cx="53.234" cy="254.644" r="43.062"/>
</g>
<path style="fill:#F1F3F7;" d="M211.581,252.27v-44.079c0-23.735,19.327-43.062,43.062-43.062s43.062,19.327,43.062,43.062v43.74
	h23.057v-43.74c0-36.62-29.838-66.119-66.119-66.119c-36.62,0-66.119,29.838-66.119,66.119v43.74h23.057V252.27z"/>
<rect x="168.18" y="249.897" style="fill:#FBD303;" width="173.266" height="117.319"/>
<g>
</g>
<g>
</g>
<g>
</g>
<g>
</g>
<g>
</g>
<g>
</g>
<g>
</g>
<g>
</g>
<g>
</g>
<g>
</g>
<g>
</g>
<g>
</g>
<g>
</g>
<g>
</g>
<g>
</g>
</svg>
