<?xml version="1.0" encoding="iso-8859-1"?>
<!-- Generator: Adobe Illustrator 19.0.0, SVG Export Plug-In . SVG Version: 6.00 Build 0)  -->
<svg version="1.1" id="Layer_1" xmlns="http://www.w3.org/2000/svg" xmlns:xlink="http://www.w3.org/1999/xlink" x="0px" y="0px"
	 viewBox="0 0 509.287 509.287" style="enable-background:new 0 0 509.287 509.287;" xml:space="preserve">
<circle style="fill:#F0582F;" cx="254.644" cy="254.644" r="254.644"/>
<path style="fill:#F1F3F7;" d="M248.54,383.491h-23.057v-73.918c0-22.379,17.971-40.35,40.35-40.35h168.519
	c9.494,0,16.954-7.799,16.954-16.954v-71.205c0-9.494-7.799-16.954-16.954-16.954H340.09v-23.057h94.262
	c22.379,0,40.35,17.971,40.35,40.35v71.205c0,22.379-17.971,40.35-40.35,40.35H265.833c-9.494,0-16.954,7.799-16.954,16.954v73.579
	H248.54z"/>
<rect x="68.493" y="89.176" style="fill:#FBD303;" width="337.038" height="126.474"/>
<rect x="205.478" y="352.975" style="fill:#4F5565;" width="61.372" height="131.899"/>
<g>
</g>
<g>
</g>
<g>
</g>
<g>
</g>
<g>
</g>
<g>
</g>
<g>
</g>
<g>
</g>
<g>
</g>
<g>
</g>
<g>
</g>
<g>
</g>
<g>
</g>
<g>
</g>
<g>
</g>
</svg>
