<?xml version="1.0" encoding="iso-8859-1"?>
<!-- Generator: Adobe Illustrator 19.0.0, SVG Export Plug-In . SVG Version: 6.00 Build 0)  -->
<svg version="1.1" id="Layer_1" xmlns="http://www.w3.org/2000/svg" xmlns:xlink="http://www.w3.org/1999/xlink" x="0px" y="0px"
	 viewBox="0 0 509.287 509.287" style="enable-background:new 0 0 509.287 509.287;" xml:space="preserve">
<circle style="fill:#76D95B;" cx="254.644" cy="254.644" r="254.644"/>
<rect x="239.724" y="45.775" style="fill:#646B79;" width="29.838" height="418.077"/>
<rect x="71.205" y="93.245" style="fill:#F1F3F7;" width="366.877" height="236.334"/>
<rect x="58.999" y="77.309" style="fill:#F0582F;" width="391.29" height="28.482"/>
<polygon style="fill:#646B79;" points="349.584,463.513 319.746,463.513 319.746,420.789 189.542,420.789 189.542,463.513 
	159.703,463.513 159.703,390.951 349.584,390.951 "/>
<polygon style="fill:#FBD303;" points="228.874,249.558 286.856,191.576 335.343,240.403 358.4,217.346 385.187,244.472 
	404.853,224.466 404.853,128.848 104.434,128.848 104.434,239.724 161.399,182.421 "/>
<polygon style="fill:#4F5565;" points="385.187,244.472 358.4,217.346 335.343,240.403 286.856,191.576 228.874,249.558 
	161.399,182.421 104.434,239.724 104.434,293.637 404.853,293.637 404.853,224.466 "/>
<circle style="fill:#FCFCFD;" cx="227.179" cy="177.674" r="18.988"/>
<g>
</g>
<g>
</g>
<g>
</g>
<g>
</g>
<g>
</g>
<g>
</g>
<g>
</g>
<g>
</g>
<g>
</g>
<g>
</g>
<g>
</g>
<g>
</g>
<g>
</g>
<g>
</g>
<g>
</g>
</svg>
