<?xml version="1.0" encoding="iso-8859-1"?>
<!-- Generator: Adobe Illustrator 19.0.0, SVG Export Plug-In . SVG Version: 6.00 Build 0)  -->
<svg version="1.1" id="Layer_1" xmlns="http://www.w3.org/2000/svg" xmlns:xlink="http://www.w3.org/1999/xlink" x="0px" y="0px"
	 viewBox="0 0 509.287 509.287" style="enable-background:new 0 0 509.287 509.287;" xml:space="preserve">
<circle style="fill:#FF553E;" cx="254.644" cy="254.644" r="254.644"/>
<rect x="198.697" y="32.56" transform="matrix(-0.7071 -0.7071 0.7071 -0.7071 254.6387 614.7764)" style="fill:#FBD303;" width="111.893" height="444.181"/>
<g>
	
		<rect x="385.604" y="131.169" transform="matrix(-0.7071 -0.7071 0.7071 -0.7071 610.5128 523.0183)" style="fill:#F8B517;" width="55.947" height="7.799"/>
	
		<rect x="390.47" y="160.387" transform="matrix(-0.7071 -0.7071 0.7071 -0.7071 574.1373 566.3885)" style="fill:#F8B517;" width="27.804" height="7.799"/>
	
		<rect x="345.739" y="171.182" transform="matrix(-0.7071 -0.7071 0.7071 -0.7071 514.1667 563.1365)" style="fill:#F8B517;" width="55.946" height="7.799"/>
	
		<rect x="350.605" y="199.921" transform="matrix(-0.7071 -0.7071 0.7071 -0.7071 478.1304 605.6882)" style="fill:#F8B517;" width="27.804" height="7.799"/>
	
		<rect x="306.115" y="210.955" transform="matrix(-0.7071 -0.7071 0.7071 -0.7071 418.3994 603.0148)" style="fill:#F8B517;" width="55.946" height="7.799"/>
	
		<rect x="310.981" y="239.697" transform="matrix(-0.7071 -0.7071 0.7071 -0.7071 382.3607 645.5723)" style="fill:#F8B517;" width="27.804" height="7.799"/>
	
		<rect x="266.477" y="250.725" transform="matrix(-0.7071 -0.7071 0.7071 -0.7071 322.6115 642.8779)" style="fill:#F8B517;" width="55.946" height="7.799"/>
	
		<rect x="271.117" y="279.707" transform="matrix(-0.7071 -0.7071 0.7071 -0.7071 286.0171 685.6848)" style="fill:#F8B517;" width="27.804" height="7.799"/>
	
		<rect x="226.352" y="290.494" transform="matrix(-0.7071 -0.7071 0.7071 -0.7071 225.9933 682.397)" style="fill:#F8B517;" width="55.946" height="7.799"/>
	
		<rect x="231.235" y="319.24" transform="matrix(-0.7071 -0.7071 0.7071 -0.7071 189.9812 724.9724)" style="fill:#F8B517;" width="27.804" height="7.799"/>
	
		<rect x="186.728" y="330.275" transform="matrix(-0.7071 -0.7071 0.7071 -0.7071 130.2213 722.287)" style="fill:#F8B517;" width="55.946" height="7.799"/>
	
		<rect x="191.594" y="359.01" transform="matrix(-0.7071 -0.7071 0.7071 -0.7071 94.1874 764.8329)" style="fill:#F8B517;" width="27.804" height="7.799"/>
	
		<rect x="147.103" y="370.038" transform="matrix(-0.7071 -0.7071 0.7071 -0.7071 34.4613 762.1481)" style="fill:#F8B517;" width="55.946" height="7.799"/>
	
		<rect x="151.969" y="398.784" transform="matrix(-0.7071 -0.7071 0.7071 -0.7071 -1.5798 804.7114)" style="fill:#F8B517;" width="27.804" height="7.799"/>
	
		<rect x="107.239" y="409.571" transform="matrix(-0.7071 -0.7071 0.7071 -0.7071 -61.5457 801.4476)" style="fill:#F8B517;" width="55.946" height="7.799"/>
</g>
<polygon style="fill:#F6CEB0;" points="363.825,423.841 363.825,420.45 420.45,363.825 423.841,363.825 443.846,419.094 
	419.094,443.846 "/>
<path style="fill:#4F5565;" d="M443.846,419.094l8.138,22.04c1.695,6.442-4.069,12.546-10.85,10.85l-22.04-8.138L443.846,419.094z"
	/>
<path style="fill:#4485C5;" d="M382.135,405.87c13.902,1.356,25.43-10.172,23.735-23.735
	c-82.734-82.734-165.468-165.468-248.201-248.201c-7.799,7.799-15.936,15.936-23.735,23.735
	C216.668,240.403,299.401,323.136,382.135,405.87z"/>
<path style="fill:#2F6FA5;" d="M363.825,423.841c12.207,3.052,21.022-5.764,17.971-17.971
	c-82.395-82.734-165.128-165.468-247.862-248.201c-6.103,6.103-12.207,12.207-17.971,17.971
	C198.358,258.374,281.091,341.107,363.825,423.841z"/>
<path style="fill:#6EB1E1;" d="M405.87,382.135c12.207,3.052,21.023-5.764,17.971-17.971
	c-82.734-83.073-165.468-165.807-248.201-248.54c-6.103,6.103-12.207,12.207-17.971,17.971
	C240.403,216.668,323.136,299.401,405.87,382.135z"/>
<path style="fill:#FBD303;" d="M62.389,96.636l34.246-34.246c7.121-7.121,18.649-7.121,25.77,0l53.234,53.234l-60.016,60.016
	l-53.234-53.234C55.269,115.285,55.269,103.756,62.389,96.636z"/>
<g>
	<path style="fill:#F8B517;" d="M91.211,156.652l65.441-65.441c2.374-2.374,6.103-2.374,8.477,0c2.374,2.374,2.374,6.103,0,8.477
		l-65.102,65.441c-2.374,2.374-6.103,2.374-8.477,0C89.176,162.755,89.176,159.025,91.211,156.652z"/>
	<path style="fill:#F8B517;" d="M104.434,169.875l65.441-65.441c2.374-2.374,6.103-2.374,8.477,0c2.374,2.374,2.374,6.103,0,8.477
		l-65.102,65.441c-2.374,2.374-6.103,2.374-8.477,0C102.061,175.979,102.061,172.249,104.434,169.875z"/>
</g>
<g>
</g>
<g>
</g>
<g>
</g>
<g>
</g>
<g>
</g>
<g>
</g>
<g>
</g>
<g>
</g>
<g>
</g>
<g>
</g>
<g>
</g>
<g>
</g>
<g>
</g>
<g>
</g>
<g>
</g>
</svg>
