<?xml version="1.0" encoding="iso-8859-1"?>
<!-- Generator: Adobe Illustrator 19.0.0, SVG Export Plug-In . SVG Version: 6.00 Build 0)  -->
<svg version="1.1" id="Layer_1" xmlns="http://www.w3.org/2000/svg" xmlns:xlink="http://www.w3.org/1999/xlink" x="0px" y="0px"
	 viewBox="0 0 509.287 509.287" style="enable-background:new 0 0 509.287 509.287;" xml:space="preserve">
<circle style="fill:#886C60;" cx="254.644" cy="254.644" r="254.644"/>
<circle style="fill:#FBD303;" cx="254.644" cy="201.748" r="122.744"/>
<g>
	<rect x="250.575" y="23.396" style="fill:#FCFCFD;" width="8.138" height="39.332"/>
	
		<rect x="196.303" y="32.894" transform="matrix(-0.9397 0.342 -0.342 -0.9397 406.6363 33.4245)" style="fill:#FCFCFD;" width="8.138" height="39.332"/>
	
		<rect x="148.656" y="60.7" transform="matrix(-0.766 0.6428 -0.6428 -0.766 321.3752 43.7526)" style="fill:#FCFCFD;" width="8.138" height="39.331"/>
	
		<rect x="113.247" y="102.672" transform="matrix(-0.5 0.866 -0.866 -0.5 281.9216 81.9098)" style="fill:#FCFCFD;" width="8.138" height="39.332"/>
	
		<rect x="94.474" y="154.599" transform="matrix(-0.1737 0.9848 -0.9848 -0.1737 287.2755 107.4899)" style="fill:#FCFCFD;" width="8.138" height="39.332"/>
	
		<rect x="94.336" y="209.667" transform="matrix(0.1737 0.9848 -0.9848 0.1737 307.1583 92.5893)" style="fill:#FCFCFD;" width="8.138" height="39.333"/>
	
		<rect x="113.226" y="261.256" transform="matrix(0.5 0.866 -0.866 0.5 301.9298 38.8783)" style="fill:#FCFCFD;" width="8.138" height="39.332"/>
	
		<rect x="148.638" y="303.676" transform="matrix(0.766 0.6428 -0.6428 0.766 243.5801 -22.5068)" style="fill:#FCFCFD;" width="8.138" height="39.331"/>
	
		<rect x="352.549" y="303.686" transform="matrix(0.766 -0.6428 0.6428 0.766 -124.4144 304.8978)" style="fill:#FCFCFD;" width="8.138" height="39.331"/>
	
		<rect x="387.941" y="261.239" transform="matrix(0.5 -0.866 0.866 0.5 -47.2685 479.9371)" style="fill:#FCFCFD;" width="8.138" height="39.332"/>
	
		<rect x="406.833" y="209.662" transform="matrix(0.1736 -0.9848 0.9848 0.1736 113.7219 594.1784)" style="fill:#FCFCFD;" width="8.138" height="39.332"/>
	
		<rect x="406.674" y="154.574" transform="matrix(-0.1736 -0.9848 0.9848 -0.1736 310.455 608.9947)" style="fill:#FCFCFD;" width="8.138" height="39.332"/>
	
		<rect x="387.903" y="102.658" transform="matrix(-0.5 -0.866 0.866 -0.5 482.0269 522.9421)" style="fill:#FCFCFD;" width="8.138" height="39.332"/>
	
		<rect x="352.46" y="60.695" transform="matrix(-0.766 -0.6428 0.6428 -0.766 577.9793 371.1021)" style="fill:#FCFCFD;" width="8.138" height="39.331"/>
	
		<rect x="304.853" y="32.887" transform="matrix(-0.9397 -0.342 0.342 -0.9397 581.2419 207.5896)" style="fill:#FCFCFD;" width="8.138" height="39.332"/>
	<polygon style="fill:#FCFCFD;" points="302.453,203.444 299.74,206.156 209.547,206.156 206.834,203.444 234.977,143.767 
		274.31,143.767 	"/>
</g>
<path style="fill:#4F5565;" d="M234.977,143.767l11.189-24.074c3.73-6.442,13.224-6.442,16.954,0l11.189,24.074H234.977z"/>
<path style="fill:#61BC42;" d="M273.632,203.444c-9.833-12.207-28.143-12.207-37.976,0c0,131.221,0,69.849,0,201.07
	c12.546,0,25.091,0,37.976,0C273.632,273.293,273.632,334.665,273.632,203.444z"/>
<path style="fill:#4DA02D;" d="M302.453,203.444c-7.46-12.207-21.362-12.207-28.821,0c0,131.221,0,69.849,0,201.07
	c9.494,0,19.327,0,28.821,0C302.453,273.293,302.453,334.665,302.453,203.444z"/>
<path style="fill:#71D456;" d="M235.656,203.444c-7.46-12.207-21.362-12.207-28.821,0c0,131.221,0,69.849,0,201.07
	c9.494,0,19.327,0,28.821,0C235.656,273.293,235.656,334.665,235.656,203.444z"/>
<path style="fill:#F1F3F7;" d="M281.77,485.891h-54.252c-11.189,0-20.683-9.155-20.683-20.683v-60.694h95.279v60.694
	C302.453,476.736,292.959,485.891,281.77,485.891z"/>
<g>
	<path style="fill:#646B79;" d="M306.522,438.76H202.766c-3.73,0-6.781-3.052-6.781-6.781c0-3.73,3.052-6.781,6.781-6.781h103.756
		c3.73,0,6.781,3.052,6.781,6.781C313.303,435.709,310.252,438.76,306.522,438.76z"/>
	<path style="fill:#646B79;" d="M306.522,418.077H202.766c-3.73,0-6.781-3.052-6.781-6.781s3.052-6.781,6.781-6.781h103.756
		c3.73,0,6.781,3.052,6.781,6.781C313.303,415.025,310.252,418.077,306.522,418.077z"/>
</g>
<g>
</g>
<g>
</g>
<g>
</g>
<g>
</g>
<g>
</g>
<g>
</g>
<g>
</g>
<g>
</g>
<g>
</g>
<g>
</g>
<g>
</g>
<g>
</g>
<g>
</g>
<g>
</g>
<g>
</g>
</svg>
