<?xml version="1.0" encoding="iso-8859-1"?>
<!-- Generator: Adobe Illustrator 19.0.0, SVG Export Plug-In . SVG Version: 6.00 Build 0)  -->
<svg version="1.1" id="Layer_1" xmlns="http://www.w3.org/2000/svg" xmlns:xlink="http://www.w3.org/1999/xlink" x="0px" y="0px"
	 viewBox="0 0 509.287 509.287" style="enable-background:new 0 0 509.287 509.287;" xml:space="preserve">
<circle style="fill:#29B36F;" cx="254.644" cy="254.644" r="254.644"/>
<path style="fill:#FBD303;" d="M297.706,64.085h-86.124v441.473c13.902,2.374,28.482,3.73,43.062,3.73
	c14.58,0,29.16-1.356,43.062-3.73V64.085z"/>
<path style="fill:#8E342D;" d="M382.135,64.085H127.152c-19.666,0-35.942,15.936-35.942,35.942v69.171h326.188v-69.171
	C417.738,80.021,401.801,64.085,382.135,64.085z"/>
<g>
	<rect x="252.609" y="188.185" style="fill:#F8B517;" width="45.097" height="10.85"/>
	<rect x="270.241" y="222.432" style="fill:#F8B517;" width="27.126" height="10.85"/>
	<rect x="252.609" y="257.017" style="fill:#F8B517;" width="45.097" height="10.85"/>
	<rect x="270.241" y="291.603" style="fill:#F8B517;" width="27.126" height="10.85"/>
	<rect x="252.609" y="325.849" style="fill:#F8B517;" width="45.097" height="10.85"/>
	<rect x="270.241" y="360.434" style="fill:#F8B517;" width="27.126" height="10.85"/>
	<rect x="252.609" y="395.02" style="fill:#F8B517;" width="45.097" height="10.85"/>
	<rect x="270.241" y="429.266" style="fill:#F8B517;" width="27.126" height="10.85"/>
	<rect x="252.609" y="463.852" style="fill:#F8B517;" width="45.097" height="10.85"/>
	<path style="fill:#F8B517;" d="M270.241,508.609c9.155-0.678,18.31-1.695,27.126-3.052v-7.121h-27.126V508.609z"/>
</g>
<g>
</g>
<g>
</g>
<g>
</g>
<g>
</g>
<g>
</g>
<g>
</g>
<g>
</g>
<g>
</g>
<g>
</g>
<g>
</g>
<g>
</g>
<g>
</g>
<g>
</g>
<g>
</g>
<g>
</g>
</svg>
