<?xml version="1.0" encoding="iso-8859-1"?>
<!-- Generator: Adobe Illustrator 19.0.0, SVG Export Plug-In . SVG Version: 6.00 Build 0)  -->
<svg version="1.1" id="Layer_1" xmlns="http://www.w3.org/2000/svg" xmlns:xlink="http://www.w3.org/1999/xlink" x="0px" y="0px"
	 viewBox="0 0 509.287 509.287" style="enable-background:new 0 0 509.287 509.287;" xml:space="preserve">
<circle style="fill:#4B5AA7;" cx="254.644" cy="254.644" r="254.644"/>
<path style="fill:#FFFFFF;" d="M406.548,254.644c-83.751-101.383-219.719-101.383-303.809,0l0,0l0,0
	C186.49,356.026,322.797,356.026,406.548,254.644L406.548,254.644L406.548,254.644z"/>
<circle style="fill:#6EB1E1;" cx="254.644" cy="254.644" r="66.458"/>
<circle style="fill:#4F5565;" cx="254.644" cy="254.644" r="38.315"/>
<g>
	<polygon style="fill:#F0582F;" points="423.502,423.502 346.193,423.502 346.193,402.14 402.14,402.14 402.14,346.193 
		423.502,346.193 	"/>
	<polygon style="fill:#F0582F;" points="163.094,423.502 85.785,423.502 85.785,346.193 107.147,346.193 107.147,402.14 
		163.094,402.14 	"/>
	<polygon style="fill:#F0582F;" points="107.147,163.094 85.785,163.094 85.785,85.785 163.094,85.785 163.094,107.147 
		107.147,107.147 	"/>
	<polygon style="fill:#F0582F;" points="423.502,163.094 402.14,163.094 402.14,107.147 346.193,107.147 346.193,85.785 
		423.502,85.785 	"/>
</g>
<circle style="fill:#FFFFFC;" cx="279.057" cy="231.587" r="13.902"/>
<g>
</g>
<g>
</g>
<g>
</g>
<g>
</g>
<g>
</g>
<g>
</g>
<g>
</g>
<g>
</g>
<g>
</g>
<g>
</g>
<g>
</g>
<g>
</g>
<g>
</g>
<g>
</g>
<g>
</g>
</svg>
