<?xml version="1.0" encoding="iso-8859-1"?>
<!-- Generator: Adobe Illustrator 19.0.0, SVG Export Plug-In . SVG Version: 6.00 Build 0)  -->
<svg version="1.1" id="Layer_1" xmlns="http://www.w3.org/2000/svg" xmlns:xlink="http://www.w3.org/1999/xlink" x="0px" y="0px"
	 viewBox="0 0 509.287 509.287" style="enable-background:new 0 0 509.287 509.287;" xml:space="preserve">
<circle style="fill:#FBD303;" cx="254.644" cy="254.644" r="254.644"/>
<path style="fill:#646B79;" d="M367.894,462.495H141.393c-8.816,0-15.936-7.121-15.936-15.936V62.728
	c0-8.816,7.121-15.936,15.936-15.936h226.501c8.816,0,15.936,7.121,15.936,15.936v383.83
	C384.17,455.375,376.71,462.495,367.894,462.495z"/>
<rect x="132.577" y="84.429" style="fill:#6EB1E1;" width="243.793" height="325.171"/>
<circle style="fill:#4F5565;" cx="257.695" cy="436.048" r="18.988"/>
<path style="fill:#FFFFFF;" d="M209.886,367.216l22.04-29.16l-27.465-27.465l-29.16,22.04c-5.764-3.052-11.528-5.764-17.971-7.46
	l-5.086-36.281h-19.666v78.326c23.396,0,42.384,18.988,42.384,42.384h78.326v-19.666l-35.942-4.747
	C215.65,379.083,212.938,372.98,209.886,367.216z"/>
<g>
	<path style="fill:#FFFFFC;" d="M300.079,242.098c-1.695,0-3.391-0.678-4.747-2.034c-2.713-2.713-2.713-7.121,0-9.833l43.401-43.401
		l-41.706-41.367c-2.713-2.713-2.713-7.121,0-9.833c2.713-2.713,7.121-2.713,9.833,0l46.453,46.453c2.713,2.713,2.713,7.121,0,9.833
		l-48.487,48.148C303.809,241.42,301.775,242.098,300.079,242.098z"/>
	<path style="fill:#FFFFFC;" d="M209.208,242.098c-1.695,0-3.391-0.678-4.747-2.034l-48.487-48.148
		c-2.713-2.713-2.713-7.121,0-9.833l46.453-46.453c2.713-2.713,7.121-2.713,9.833,0c2.713,2.713,2.713,7.121,0,9.833l-41.706,41.706
		l43.401,43.401c2.713,2.713,2.713,7.121,0,9.833C212.599,241.42,210.903,242.098,209.208,242.098z"/>
	<path style="fill:#FFFFFC;" d="M225.823,259.391c-1.017,0-2.034-0.339-2.713-0.678c-3.391-1.695-5.086-5.764-3.391-9.155
		l57.303-129.187c1.695-3.391,5.764-5.086,9.155-3.391c3.391,1.695,5.086,5.764,3.391,9.155l-57.303,129.187
		C230.909,258.034,228.535,259.391,225.823,259.391z"/>
</g>
<g>
</g>
<g>
</g>
<g>
</g>
<g>
</g>
<g>
</g>
<g>
</g>
<g>
</g>
<g>
</g>
<g>
</g>
<g>
</g>
<g>
</g>
<g>
</g>
<g>
</g>
<g>
</g>
<g>
</g>
</svg>
