<?xml version="1.0" encoding="iso-8859-1"?>
<!-- Generator: Adobe Illustrator 19.0.0, SVG Export Plug-In . SVG Version: 6.00 Build 0)  -->
<svg version="1.1" id="Layer_1" xmlns="http://www.w3.org/2000/svg" xmlns:xlink="http://www.w3.org/1999/xlink" x="0px" y="0px"
	 viewBox="0 0 509.287 509.287" style="enable-background:new 0 0 509.287 509.287;" xml:space="preserve">
<circle style="fill:#F0582F;" cx="254.644" cy="254.644" r="254.644"/>
<path style="fill:#4F5565;" d="M364.842,51.2H144.445c-8.477,0-15.258,6.781-15.258,15.258v376.371
	c0,8.477,6.781,15.258,15.258,15.258h220.397c8.477,0,15.258-6.781,15.258-15.258V66.458C380.101,57.981,373.319,51.2,364.842,51.2z
	"/>
<rect x="144.445" y="82.395" style="fill:#FCFCFD;" width="220.397" height="331.274"/>
<rect x="144.445" y="82.395" style="fill:#6EB1E1;" width="220.397" height="93.584"/>
<g>
	<circle style="fill:#393D47;" cx="254.644" cy="436.387" r="14.919"/>
	<path style="fill:#393D47;" d="M269.224,64.424h-29.499c-2.034,0-3.73,1.695-3.73,3.73c0,2.034,1.695,3.73,3.73,3.73h29.499
		c2.034,0,3.73-1.695,3.73-3.73C272.954,66.119,271.258,64.424,269.224,64.424z"/>
</g>
<circle style="fill:#4485C5;" cx="254.644" cy="164.789" r="43.062"/>
<path style="fill:#FFFFFC;" d="M224.127,189.203c0,2.034,0.339,4.408,0.678,6.442c7.799,7.46,18.31,12.207,29.838,12.207
	c11.528,0,22.04-4.747,29.838-12.207c0.339-2.034,0.678-4.069,0.678-6.442c0-14.919-10.85-27.465-25.091-30.177
	c6.781-2.374,11.868-8.816,11.868-16.275c0-9.494-7.799-17.293-17.293-17.293c-9.494,0-17.293,7.799-17.293,17.293
	c0,7.799,5.086,14.241,11.868,16.275C234.977,161.738,224.127,174.283,224.127,189.203z"/>
<g>
	<rect x="181.404" y="224.466" style="fill:#DEDEDF;" width="43.062" height="43.062"/>
	<rect x="248.54" y="231.248" style="fill:#DEDEDF;" width="79.343" height="8.816"/>
	<rect x="248.54" y="252.27" style="fill:#DEDEDF;" width="79.343" height="8.816"/>
	<rect x="181.404" y="285.499" style="fill:#DEDEDF;" width="43.062" height="43.062"/>
	<rect x="248.54" y="291.942" style="fill:#DEDEDF;" width="79.343" height="8.816"/>
	<rect x="248.54" y="313.303" style="fill:#DEDEDF;" width="79.343" height="8.816"/>
	<rect x="181.404" y="346.532" style="fill:#DEDEDF;" width="43.062" height="43.062"/>
	<rect x="248.54" y="352.975" style="fill:#DEDEDF;" width="79.343" height="8.816"/>
	<rect x="248.54" y="374.336" style="fill:#DEDEDF;" width="79.343" height="8.816"/>
</g>
<g>
</g>
<g>
</g>
<g>
</g>
<g>
</g>
<g>
</g>
<g>
</g>
<g>
</g>
<g>
</g>
<g>
</g>
<g>
</g>
<g>
</g>
<g>
</g>
<g>
</g>
<g>
</g>
<g>
</g>
</svg>
