<?xml version="1.0" encoding="iso-8859-1"?>
<!-- Generator: Adobe Illustrator 19.0.0, SVG Export Plug-In . SVG Version: 6.00 Build 0)  -->
<svg version="1.1" id="Layer_1" xmlns="http://www.w3.org/2000/svg" xmlns:xlink="http://www.w3.org/1999/xlink" x="0px" y="0px"
	 viewBox="0 0 509.287 509.287" style="enable-background:new 0 0 509.287 509.287;" xml:space="preserve">
<circle style="fill:#4F5565;" cx="254.644" cy="254.644" r="254.644"/>
<path style="fill:#DEDEDF;" d="M324.832,61.033H130.543c-12.207,0-22.379,10.172-22.379,22.379v342.803
	c0,12.207,10.172,22.379,22.379,22.379h194.289c12.207,0,22.379-10.172,22.379-22.379V83.073
	C347.211,70.866,337.038,61.033,324.832,61.033z"/>
<rect x="108.164" y="90.532" style="fill:#6EB1E1;" width="239.046" height="315.338"/>
<g>
	<rect x="149.531" y="120.032" style="fill:#4D95C1;" width="62.728" height="13.563"/>
	<rect x="149.531" y="148.514" style="fill:#4D95C1;" width="92.906" height="13.563"/>
</g>
<path style="fill:#FBD303;" d="M447.576,235.317c-2.713-13.902-8.138-26.787-15.597-37.976l10.511-18.649l-19.327-19.327
	l-18.649,10.511c-11.189-7.46-24.074-12.885-37.976-15.597l-5.764-20.683h-27.465l-5.764,20.683
	c-13.902,2.713-26.787,8.138-37.976,15.597l-18.649-10.511l-19.327,19.327l10.511,18.649c-7.46,11.189-12.885,24.074-15.597,37.976
	l-20.683,5.764v27.465l20.683,5.764c2.713,13.902,8.138,26.787,15.597,37.976l-10.511,18.649l19.327,19.327l18.649-10.511
	c11.189,7.46,24.074,12.885,37.976,15.597l5.764,20.683h27.465l5.764-20.683c13.902-2.713,26.787-8.138,37.976-15.597l18.649,10.511
	l19.327-19.327l-10.511-18.649c7.46-11.189,12.885-24.074,15.597-37.976l20.683-5.764v-27.465L447.576,235.317z M347.211,300.079
	c-25.091,0-45.436-20.344-45.436-45.436s20.344-45.436,45.436-45.436s45.436,20.344,45.436,45.436S372.302,300.079,347.211,300.079z
	"/>
<g>
</g>
<g>
</g>
<g>
</g>
<g>
</g>
<g>
</g>
<g>
</g>
<g>
</g>
<g>
</g>
<g>
</g>
<g>
</g>
<g>
</g>
<g>
</g>
<g>
</g>
<g>
</g>
<g>
</g>
</svg>
