<?xml version="1.0" encoding="iso-8859-1"?>
<!-- Generator: Adobe Illustrator 19.0.0, SVG Export Plug-In . SVG Version: 6.00 Build 0)  -->
<svg version="1.1" id="Layer_1" xmlns="http://www.w3.org/2000/svg" xmlns:xlink="http://www.w3.org/1999/xlink" x="0px" y="0px"
	 viewBox="0 0 509.287 509.287" style="enable-background:new 0 0 509.287 509.287;" xml:space="preserve">
<circle style="fill:#886C60;" cx="254.644" cy="254.644" r="254.644"/>
<path style="fill:#FBD303;" d="M388.238,63.407H121.049c-9.494,0-17.293,7.799-17.293,17.293v346.193
	c0,9.494,7.799,17.293,17.293,17.293h267.529c9.494,0,17.293-7.799,17.293-17.293V80.699
	C405.531,71.205,398.072,63.407,388.238,63.407z"/>
<rect x="131.221" y="85.785" style="fill:#FCFCFD;" width="247.184" height="336.021"/>
<path style="fill:#DDDEE6;" d="M336.699,82.734l-6.781-20.005c-2.374-7.46-9.494-12.207-17.293-12.207h-32.212V37.976
	c0-13.563-9.833-25.77-23.396-27.126c-15.597-1.356-28.482,10.85-28.482,25.77v13.563h-32.212c-7.799,0-14.58,5.086-17.293,12.207
	l-6.781,20.005c-3.052,9.155,3.73,18.31,13.224,18.31h138.003C333.309,101.044,339.751,91.889,336.699,82.734z M254.644,48.826
	c-6.103,0-11.189-5.086-11.189-11.189s5.086-11.189,11.189-11.189s11.189,5.086,11.189,11.189S260.747,48.826,254.644,48.826z"/>
<path style="fill:#646B79;" d="M174.962,320.763c-1.017,0-2.034-0.339-3.052-0.678c-3.052-1.695-4.408-5.764-2.713-8.816
	l51.878-96.636c1.017-1.695,2.713-3.052,4.747-3.391c2.034-0.339,4.069,0.339,5.425,2.034l60.016,63.068l35.942-106.808
	c1.017-3.391,4.747-5.086,8.138-4.069s5.086,4.747,4.069,8.138l-38.654,116.641c-0.678,2.034-2.374,3.73-4.747,4.408
	c-2.374,0.339-4.408-0.339-6.103-1.695l-61.372-64.424l-47.809,88.837C179.709,319.407,177.335,320.763,174.962,320.763z"/>
<circle style="fill:#F0582F;" cx="174.962" cy="314.321" r="26.109"/>
<circle style="fill:#FBD303;" cx="227.179" cy="217.346" r="26.109"/>
<circle style="fill:#71D456;" cx="294.654" cy="288.212" r="26.109"/>
<circle style="fill:#6EB1E1;" cx="334.326" cy="171.232" r="26.109"/>
<g>
	<rect x="164.45" y="353.314" style="fill:#DEDEDF;" width="180.048" height="12.207"/>
	<rect x="164.45" y="124.44" style="fill:#DEDEDF;" width="123.423" height="12.207"/>
	<rect x="164.45" y="152.583" style="fill:#DEDEDF;" width="81.717" height="12.207"/>
	<rect x="164.45" y="384.509" style="fill:#DEDEDF;" width="180.048" height="12.207"/>
</g>
<g>
</g>
<g>
</g>
<g>
</g>
<g>
</g>
<g>
</g>
<g>
</g>
<g>
</g>
<g>
</g>
<g>
</g>
<g>
</g>
<g>
</g>
<g>
</g>
<g>
</g>
<g>
</g>
<g>
</g>
</svg>
