<?xml version="1.0" encoding="iso-8859-1"?>
<!-- Generator: Adobe Illustrator 19.0.0, SVG Export Plug-In . SVG Version: 6.00 Build 0)  -->
<svg version="1.1" id="Layer_1" xmlns="http://www.w3.org/2000/svg" xmlns:xlink="http://www.w3.org/1999/xlink" x="0px" y="0px"
	 viewBox="0 0 509.287 509.287" style="enable-background:new 0 0 509.287 509.287;" xml:space="preserve">
<circle style="fill:#F1F3F7;" cx="254.644" cy="254.644" r="254.644"/>
<path style="fill:#646B79;" d="M441.812,119.015H67.475c-7.121,0-13.224,5.764-13.224,13.224v245.15
	c0,7.121,5.764,13.224,13.224,13.224h374.336c7.121,0,13.224-5.764,13.224-13.224V131.899
	C455.036,124.779,448.932,119.015,441.812,119.015z"/>
<g>
	<rect x="132.577" y="143.089" style="fill:#414753;" width="296.689" height="223.11"/>
	<circle style="fill:#414753;" cx="94.262" cy="254.644" r="22.379"/>
</g>
<g>
	<circle style="fill:#4F5565;" cx="94.262" cy="254.644" r="10.85"/>
	<path style="fill:#4F5565;" d="M112.233,143.089H76.291c-2.374,0-4.408,2.034-4.408,4.408v7.799c0,2.374,2.034,4.408,4.408,4.408
		h35.942c2.374,0,4.408-2.034,4.408-4.408v-7.799C116.641,145.123,114.607,143.089,112.233,143.089z"/>
	<path style="fill:#4F5565;" d="M112.233,172.927H76.291c-2.374,0-4.408,2.034-4.408,4.408v7.799c0,2.374,2.034,4.408,4.408,4.408
		h35.942c2.374,0,4.408-2.034,4.408-4.408v-7.799C116.641,174.962,114.607,172.927,112.233,172.927z"/>
	<path style="fill:#4F5565;" d="M112.233,202.766H76.291c-2.374,0-4.408,2.034-4.408,4.408v7.799c0,2.374,2.034,4.408,4.408,4.408
		h35.942c2.374,0,4.408-2.034,4.408-4.408v-7.799C116.641,204.461,114.607,202.766,112.233,202.766z"/>
	<path style="fill:#4F5565;" d="M112.233,290.246H76.291c-2.374,0-4.408,2.034-4.408,4.408v7.799c0,2.374,2.034,4.408,4.408,4.408
		h35.942c2.374,0,4.408-2.034,4.408-4.408v-7.799C116.641,291.942,114.607,290.246,112.233,290.246z"/>
	<path style="fill:#4F5565;" d="M112.233,319.746H76.291c-2.374,0-4.408,2.034-4.408,4.408v7.799c0,2.374,2.034,4.408,4.408,4.408
		h35.942c2.374,0,4.408-2.034,4.408-4.408v-7.799C116.641,321.78,114.607,319.746,112.233,319.746z"/>
	<path style="fill:#4F5565;" d="M112.233,349.584H76.291c-2.374,0-4.408,2.034-4.408,4.408v7.799c0,2.374,2.034,4.408,4.408,4.408
		h35.942c2.374,0,4.408-2.034,4.408-4.408v-7.799C116.641,351.619,114.607,349.584,112.233,349.584z"/>
</g>
<path style="fill:#080708;" d="M202.087,291.603c-0.339-0.339-1.017-0.339-1.356,0l-1.695,1.695c-0.339,0.339-0.339,1.017,0,1.356
	c0.339,0.339,1.017,0.339,1.356,0l1.695-1.695C202.426,292.62,202.426,291.942,202.087,291.603z"/>
<g>
	<path style="fill:#333842;" d="M366.199,127.152c-1.356-1.356-4.069-1.356-5.425,0l-4.408,4.408l5.425,5.425l4.408-4.408
		C367.894,131.221,367.894,128.509,366.199,127.152z"/>
	
		<rect x="276.006" y="136.98" transform="matrix(-0.7071 -0.7071 0.7071 -0.7071 341.9269 556.3038)" style="fill:#333842;" width="20.344" height="140.714"/>
</g>
<g>
	<path style="fill:#080708;" d="M243.454,264.477c-4.747-4.747-9.494-9.494-14.58-14.58c-12.207,10.85-20.005,27.126-29.16,41.367
		c0.678,0.678,1.695,1.695,2.374,2.374C216.328,284.482,232.604,276.683,243.454,264.477z"/>
	<path style="fill:#080708;" d="M365.86,133.595l-6.103-6.103c-2.374-2.374-6.442-2.374-8.816,0l-48.487,48.487l14.919,14.919
		l48.487-48.487C368.572,140.037,368.572,135.968,365.86,133.595z"/>
	<path style="fill:#080708;" d="M259.052,234.638c-1.356-1.356-3.73-1.356-5.086,0l-11.189,11.189c-1.356,1.356-1.356,3.73,0,5.086
		s3.73,1.356,5.086,0l11.189-11.189C260.408,238.029,260.408,235.995,259.052,234.638z"/>
</g>
<g>
	<polygon style="fill:#FBD303;" points="152.244,179.37 147.497,179.37 147.497,163.433 163.772,163.433 163.772,167.841 
		152.244,167.841 	"/>
	<polygon style="fill:#FBD303;" points="414.008,179.37 409.6,179.37 409.6,167.841 398.072,167.841 398.072,163.433 
		414.008,163.433 	"/>
	<polygon style="fill:#FBD303;" points="414.008,345.854 398.072,345.854 398.072,341.446 409.6,341.446 409.6,329.918 
		414.008,329.918 	"/>
	<polygon style="fill:#FBD303;" points="163.772,345.854 147.497,345.854 147.497,329.918 152.244,329.918 152.244,341.446 
		163.772,341.446 	"/>
</g>
<g>
</g>
<g>
</g>
<g>
</g>
<g>
</g>
<g>
</g>
<g>
</g>
<g>
</g>
<g>
</g>
<g>
</g>
<g>
</g>
<g>
</g>
<g>
</g>
<g>
</g>
<g>
</g>
<g>
</g>
</svg>
