<?xml version="1.0" encoding="iso-8859-1"?>
<!-- Generator: Adobe Illustrator 19.0.0, SVG Export Plug-In . SVG Version: 6.00 Build 0)  -->
<svg version="1.1" id="Layer_1" xmlns="http://www.w3.org/2000/svg" xmlns:xlink="http://www.w3.org/1999/xlink" x="0px" y="0px"
	 viewBox="0 0 509.287 509.287" style="enable-background:new 0 0 509.287 509.287;" xml:space="preserve">
<circle style="fill:#4F5565;" cx="254.644" cy="254.644" r="254.644"/>
<g>
	<path style="fill:#DEDEDF;" d="M197.34,103.417V87.82c0-14.58,11.868-26.448,26.448-26.448h61.372
		c14.58,0,26.448,11.868,26.448,26.448v15.597h20.344V87.82c0-25.77-21.023-46.792-46.792-46.792h-61.033
		c-25.77,0-46.792,21.023-46.792,46.792v15.597H197.34z"/>
	<path style="fill:#DEDEDF;" d="M94.262,156.313l33.568,285.16c1.695,15.258,14.919,26.787,30.177,26.787h193.272
		c15.597,0,28.482-11.528,30.177-26.787l33.568-285.16L94.262,156.313L94.262,156.313z"/>
</g>
<path style="fill:#FCFCFD;" d="M409.939,100.705H99.348c-15.258,0-27.804,12.546-27.804,27.804
	c0,15.258,12.546,27.804,27.804,27.804h310.591c15.258,0,27.804-12.546,27.804-27.804
	C437.743,113.25,425.197,100.705,409.939,100.705z"/>
<g>
	<path style="fill:#BDBDBE;" d="M187.168,416.042L187.168,416.042c-8.138,0-14.58-6.442-14.58-14.58V219.041
		c0-8.138,6.442-14.58,14.58-14.58l0,0c8.138,0,14.58,6.442,14.58,14.58v182.421C201.748,409.6,195.306,416.042,187.168,416.042z"/>
	<path style="fill:#BDBDBE;" d="M254.644,416.042L254.644,416.042c-8.138,0-14.58-6.442-14.58-14.58V219.041
		c0-8.138,6.442-14.58,14.58-14.58l0,0c8.138,0,14.58,6.442,14.58,14.58v182.421C269.224,409.6,262.781,416.042,254.644,416.042z"/>
	<path style="fill:#BDBDBE;" d="M322.119,416.042L322.119,416.042c-8.138,0-14.58-6.442-14.58-14.58V219.041
		c0-8.138,6.442-14.58,14.58-14.58l0,0c8.138,0,14.58,6.442,14.58,14.58v182.421C336.36,409.6,329.918,416.042,322.119,416.042z"/>
</g>
<g>
</g>
<g>
</g>
<g>
</g>
<g>
</g>
<g>
</g>
<g>
</g>
<g>
</g>
<g>
</g>
<g>
</g>
<g>
</g>
<g>
</g>
<g>
</g>
<g>
</g>
<g>
</g>
<g>
</g>
</svg>
