<?xml version="1.0" encoding="iso-8859-1"?>
<!-- Generator: Adobe Illustrator 19.0.0, SVG Export Plug-In . SVG Version: 6.00 Build 0)  -->
<svg version="1.1" id="Layer_1" xmlns="http://www.w3.org/2000/svg" xmlns:xlink="http://www.w3.org/1999/xlink" x="0px" y="0px"
	 viewBox="0 0 509.287 509.287" style="enable-background:new 0 0 509.287 509.287;" xml:space="preserve">
<circle style="fill:#FBD303;" cx="254.644" cy="254.644" r="254.644"/>
<path style="fill:#6EB1E1;" d="M388.238,164.111H121.049c-13.902,0-24.752,11.189-24.752,24.752v228.874
	c0,13.902,11.189,24.752,24.752,24.752h267.529c13.902,0,24.752-11.189,24.752-24.752V188.864
	C413.33,175.301,402.14,164.111,388.238,164.111z"/>
<path style="fill:#4F5565;" d="M385.187,318.389H124.101c-7.799,0-13.224,7.799-10.85,15.597l25.091,82.734
	c1.356,5.086,5.764,8.477,10.85,8.477h210.903c5.086,0,9.494-3.391,10.85-8.477l25.091-82.734
	C398.411,326.188,392.646,318.389,385.187,318.389z"/>
<path style="fill:#646B79;" d="M132.238,205.139c0,54.252,54.93,98.331,122.405,98.331c67.815,0,122.405-44.079,122.405-98.331
	c0-14.58-4.069-28.482-11.189-41.028H143.428C136.307,176.657,132.238,190.559,132.238,205.139z"/>
<g>
	<rect x="128.17" y="328.901" style="fill:#FCFCFD;" width="20.005" height="21.023"/>
	<rect x="161.399" y="328.901" style="fill:#FCFCFD;" width="20.005" height="21.023"/>
	<rect x="194.628" y="328.901" style="fill:#FCFCFD;" width="20.005" height="21.023"/>
	<rect x="227.857" y="328.901" style="fill:#FCFCFD;" width="20.005" height="21.023"/>
	<rect x="261.425" y="328.901" style="fill:#FCFCFD;" width="20.005" height="21.023"/>
	<rect x="294.654" y="328.901" style="fill:#FCFCFD;" width="20.005" height="21.023"/>
	<rect x="327.883" y="328.901" style="fill:#FCFCFD;" width="20.005" height="21.023"/>
	<rect x="361.113" y="328.901" style="fill:#FCFCFD;" width="20.005" height="21.023"/>
	<rect x="144.784" y="362.469" style="fill:#FCFCFD;" width="20.005" height="21.023"/>
	<rect x="178.013" y="362.469" style="fill:#FCFCFD;" width="20.005" height="21.023"/>
	<rect x="211.242" y="362.469" style="fill:#FCFCFD;" width="20.005" height="21.023"/>
	<rect x="244.811" y="362.469" style="fill:#FCFCFD;" width="20.005" height="21.023"/>
	<rect x="278.04" y="362.469" style="fill:#FCFCFD;" width="20.005" height="21.023"/>
	<rect x="311.269" y="362.469" style="fill:#FCFCFD;" width="20.005" height="21.023"/>
	<rect x="344.498" y="362.469" style="fill:#FCFCFD;" width="20.005" height="21.023"/>
	<rect x="161.399" y="395.02" style="fill:#FCFCFD;" width="20.005" height="21.023"/>
	<rect x="194.628" y="395.02" style="fill:#FCFCFD;" width="20.005" height="21.023"/>
	<rect x="227.857" y="395.02" style="fill:#FCFCFD;" width="20.005" height="21.023"/>
	<rect x="261.425" y="395.02" style="fill:#FCFCFD;" width="20.005" height="21.023"/>
	<rect x="294.654" y="395.02" style="fill:#FCFCFD;" width="20.005" height="21.023"/>
	<rect x="327.883" y="395.02" style="fill:#FCFCFD;" width="20.005" height="21.023"/>
</g>
<g>
	<path style="fill:#393D47;" d="M432.657,205.817H86.464v-42.384h346.193c5.425,0,10.172,4.408,10.172,10.172v22.04
		C442.829,201.409,438.421,205.817,432.657,205.817z"/>
	<path style="fill:#393D47;" d="M76.63,219.041L76.63,219.041c-5.425,0-10.172-4.408-10.172-10.172v-48.487
		c0-5.425,4.408-10.172,10.172-10.172l0,0c5.425,0,10.172,4.408,10.172,10.172v48.487C86.464,214.294,82.056,219.041,76.63,219.041z
		"/>
</g>
<rect x="160.381" y="39.332" style="fill:#F1F3F7;" width="188.185" height="224.805"/>
<g>
	<rect x="188.185" y="65.78" style="fill:#DEDEDF;" width="76.63" height="10.511"/>
	<rect x="188.185" y="93.245" style="fill:#DEDEDF;" width="133.256" height="10.511"/>
	<rect x="188.185" y="120.71" style="fill:#DEDEDF;" width="30.517" height="10.511"/>
	<rect x="273.293" y="120.71" style="fill:#DEDEDF;" width="47.809" height="10.511"/>
	<rect x="226.501" y="120.71" style="fill:#DEDEDF;" width="41.028" height="10.511"/>
	<rect x="188.185" y="147.836" style="fill:#DEDEDF;" width="102.4" height="10.511"/>
	<rect x="305.505" y="147.836" style="fill:#DEDEDF;" width="15.936" height="10.511"/>
	<rect x="250.236" y="175.301" style="fill:#DEDEDF;" width="71.205" height="10.511"/>
	<rect x="216.328" y="175.301" style="fill:#DEDEDF;" width="16.615" height="10.511"/>
	<rect x="188.185" y="175.301" style="fill:#DEDEDF;" width="14.241" height="10.511"/>
	<rect x="188.185" y="202.766" style="fill:#DEDEDF;" width="76.63" height="10.511"/>
	<rect x="286.517" y="202.766" style="fill:#DEDEDF;" width="34.585" height="10.511"/>
	<rect x="188.185" y="229.891" style="fill:#DEDEDF;" width="76.63" height="10.511"/>
</g>
<g>
</g>
<g>
</g>
<g>
</g>
<g>
</g>
<g>
</g>
<g>
</g>
<g>
</g>
<g>
</g>
<g>
</g>
<g>
</g>
<g>
</g>
<g>
</g>
<g>
</g>
<g>
</g>
<g>
</g>
</svg>
