<?xml version="1.0" encoding="iso-8859-1"?>
<!-- Generator: Adobe Illustrator 19.0.0, SVG Export Plug-In . SVG Version: 6.00 Build 0)  -->
<svg version="1.1" id="Layer_1" xmlns="http://www.w3.org/2000/svg" xmlns:xlink="http://www.w3.org/1999/xlink" x="0px" y="0px"
	 viewBox="0 0 509.287 509.287" style="enable-background:new 0 0 509.287 509.287;" xml:space="preserve">
<circle style="fill:#886C60;" cx="254.644" cy="254.644" r="254.644"/>
<path style="fill:#4F5565;" d="M454.358,112.233c0-7.46-6.103-13.224-13.224-13.224H68.493c-7.46,0-13.224,6.103-13.224,13.224
	v45.775h399.089V112.233z"/>
<circle style="fill:#F0582F;" cx="94.601" cy="128.509" r="9.494"/>
<circle style="fill:#FBD303;" cx="127.152" cy="128.509" r="9.494"/>
<circle style="fill:#71D456;" cx="159.364" cy="128.509" r="9.494"/>
<path style="fill:#333842;" d="M385.187,119.015H207.513c-5.425,0-9.494,4.408-9.494,9.494c0,5.425,4.408,9.494,9.494,9.494h177.674
	c5.425,0,9.494-4.408,9.494-9.494C395.02,123.083,390.612,119.015,385.187,119.015z"/>
<path style="fill:#29A2DB;" d="M54.93,397.054c0,7.46,6.103,13.224,13.224,13.224h372.641c7.46,0,13.224-6.103,13.224-13.224v-7.46
	H54.93V397.054z"/>
<rect x="54.93" y="318.05" style="fill:#70CCE3;" width="399.089" height="71.544"/>
<g>
	<rect x="54.93" y="158.008" style="fill:#F1F3F7;" width="399.089" height="159.703"/>
	<rect x="204.461" y="333.309" style="fill:#F1F3F7;" width="100.366" height="12.885"/>
</g>
<g>
	<rect x="113.25" y="357.044" style="fill:#56B6CC;" width="282.787" height="6.442"/>
	<rect x="113.25" y="371.963" style="fill:#56B6CC;" width="282.787" height="6.442"/>
	<rect x="113.25" y="194.967" style="fill:#56B6CC;" width="281.77" height="57.303"/>
</g>
<rect x="113.25" y="267.189" style="fill:#F0582F;" width="59.677" height="37.298"/>
<rect x="187.168" y="267.189" style="fill:#FBD303;" width="59.677" height="37.298"/>
<rect x="261.086" y="267.189" style="fill:#71D456;" width="59.677" height="37.298"/>
<rect x="335.343" y="267.189" style="fill:#886C60;" width="59.677" height="37.298"/>
<g>
	<rect x="113.25" y="170.215" style="fill:#BDBDBE;" width="70.527" height="13.902"/>
	<rect x="379.083" y="170.215" style="fill:#BDBDBE;" width="15.936" height="13.902"/>
	<rect x="354.331" y="170.215" style="fill:#BDBDBE;" width="15.936" height="13.902"/>
	<rect x="329.918" y="170.215" style="fill:#BDBDBE;" width="15.936" height="13.902"/>
</g>
<g>
</g>
<g>
</g>
<g>
</g>
<g>
</g>
<g>
</g>
<g>
</g>
<g>
</g>
<g>
</g>
<g>
</g>
<g>
</g>
<g>
</g>
<g>
</g>
<g>
</g>
<g>
</g>
<g>
</g>
</svg>
