<?xml version="1.0" encoding="iso-8859-1"?>
<!-- Generator: Adobe Illustrator 19.0.0, SVG Export Plug-In . SVG Version: 6.00 Build 0)  -->
<svg version="1.1" id="Layer_1" xmlns="http://www.w3.org/2000/svg" xmlns:xlink="http://www.w3.org/1999/xlink" x="0px" y="0px"
	 viewBox="0 0 509.287 509.287" style="enable-background:new 0 0 509.287 509.287;" xml:space="preserve">
<circle style="fill:#F0582F;" cx="254.644" cy="254.644" r="254.644"/>
<path style="fill:#4F5565;" d="M402.479,72.901c0-5.425-4.408-9.833-9.833-9.833H116.641c-5.425,0-9.833,4.408-9.833,9.833v33.907
	h296.011V72.901H402.479z"/>
<circle style="fill:#F0582F;" cx="135.968" cy="85.107" r="7.121"/>
<circle style="fill:#FBD303;" cx="160.042" cy="85.107" r="7.121"/>
<circle style="fill:#71D456;" cx="184.117" cy="85.107" r="7.121"/>
<path style="fill:#333842;" d="M351.279,77.648h-131.56c-4.069,0-7.121,3.052-7.121,7.121s3.052,7.121,7.121,7.121h131.56
	c4.069,0,7.121-3.052,7.121-7.121C358.739,81.038,355.348,77.648,351.279,77.648z"/>
<path style="fill:#FCFCFD;" d="M106.808,106.808v329.579c0,5.425,4.408,9.833,9.833,9.833h276.005c5.425,0,9.833-4.408,9.833-9.833
	V106.808H106.808z"/>
<g>
	<path style="fill:#DEDEDF;" d="M106.808,424.18v12.207c0,5.425,4.408,9.833,9.833,9.833h276.005c5.425,0,9.833-4.408,9.833-9.833
		V424.18L106.808,424.18L106.808,424.18z"/>
	<rect x="133.256" y="127.152" style="fill:#DEDEDF;" width="70.188" height="18.988"/>
	<rect x="295.672" y="127.152" style="fill:#DEDEDF;" width="80.36" height="9.494"/>
	<rect x="295.672" y="146.479" style="fill:#DEDEDF;" width="61.372" height="9.494"/>
	<rect x="295.672" y="165.468" style="fill:#DEDEDF;" width="30.856" height="9.494"/>
</g>
<rect x="133.256" y="193.272" style="fill:#6EB1E1;" width="242.437" height="102.4"/>
<rect x="133.256" y="311.269" style="fill:#71D456;" width="64.085" height="55.608"/>
<rect x="222.432" y="311.269" style="fill:#F0582F;" width="64.085" height="55.608"/>
<rect x="311.947" y="311.269" style="fill:#257DC0;" width="64.085" height="55.608"/>
<g>
	<rect x="133.256" y="384.17" style="fill:#F1F3F7;" width="64.085" height="6.781"/>
	<rect x="133.256" y="402.14" style="fill:#F1F3F7;" width="64.085" height="6.781"/>
	<rect x="222.432" y="384.17" style="fill:#F1F3F7;" width="64.085" height="6.781"/>
	<rect x="222.432" y="402.14" style="fill:#F1F3F7;" width="64.085" height="6.781"/>
	<rect x="311.947" y="384.17" style="fill:#F1F3F7;" width="64.085" height="6.781"/>
	<rect x="311.947" y="402.14" style="fill:#F1F3F7;" width="64.085" height="6.781"/>
</g>
<g>
</g>
<g>
</g>
<g>
</g>
<g>
</g>
<g>
</g>
<g>
</g>
<g>
</g>
<g>
</g>
<g>
</g>
<g>
</g>
<g>
</g>
<g>
</g>
<g>
</g>
<g>
</g>
<g>
</g>
</svg>
