<?xml version="1.0" encoding="iso-8859-1"?>
<!-- Generator: Adobe Illustrator 19.0.0, SVG Export Plug-In . SVG Version: 6.00 Build 0)  -->
<svg version="1.1" id="Layer_1" xmlns="http://www.w3.org/2000/svg" xmlns:xlink="http://www.w3.org/1999/xlink" x="0px" y="0px"
	 viewBox="0 0 509.287 509.287" style="enable-background:new 0 0 509.287 509.287;" xml:space="preserve">
<circle style="fill:#6EB1E1;" cx="254.644" cy="254.644" r="254.644"/>
<path style="fill:#F1F3F7;" d="M52.217,156.652v242.437c0,7.46,6.103,13.563,13.563,13.563h378.066
	c7.46,0,13.563-6.103,13.563-13.563V156.652H52.217z"/>
<path style="fill:#4F5565;" d="M457.07,110.199c0-7.46-6.103-13.563-13.563-13.563H65.78c-7.46,0-13.563,6.103-13.563,13.563v46.453
	h405.192v-46.453H457.07z"/>
<circle style="fill:#F0582F;" cx="92.228" cy="126.813" r="9.833"/>
<circle style="fill:#FBD303;" cx="125.118" cy="126.813" r="9.833"/>
<circle style="fill:#71D456;" cx="158.008" cy="126.813" r="9.833"/>
<path style="fill:#333842;" d="M387.221,116.98H206.834c-5.425,0-9.833,4.408-9.833,9.833c0,5.425,4.408,9.833,9.833,9.833h180.387
	c5.425,0,9.833-4.408,9.833-9.833C397.054,121.388,392.646,116.98,387.221,116.98z"/>
<rect x="150.887" y="156.652" style="fill:#BDBDBE;" width="7.121" height="256"/>
<rect x="74.596" y="175.979" style="fill:#6EB1E1;" width="59.677" height="143.767"/>
<g>
	<rect x="74.596" y="334.326" style="fill:#DEDEDF;" width="59.677" height="10.85"/>
	<rect x="74.596" y="358.4" style="fill:#DEDEDF;" width="59.677" height="10.85"/>
	<rect x="74.596" y="382.474" style="fill:#DEDEDF;" width="59.677" height="10.85"/>
</g>
<rect x="187.168" y="176.657" style="fill:#71D456;" width="60.355" height="11.189"/>
<g>
	<rect x="187.168" y="204.8" style="fill:#DEDEDF;" width="140.715" height="10.85"/>
	<rect x="348.567" y="204.8" style="fill:#DEDEDF;" width="27.126" height="10.85"/>
</g>
<rect x="393.324" y="204.8" style="fill:#646B79;" width="33.907" height="10.85"/>
<rect x="217.346" y="230.909" style="fill:#F7CFA2;" width="85.107" height="10.85"/>
<rect x="316.355" y="230.909" style="fill:#DEDEDF;" width="37.637" height="10.85"/>
<rect x="367.894" y="230.909" style="fill:#FBD303;" width="33.907" height="10.85"/>
<rect x="217.346" y="256.678" style="fill:#6EB1E1;" width="110.538" height="10.85"/>
<g>
	<rect x="341.785" y="256.678" style="fill:#DEDEDF;" width="13.563" height="10.85"/>
	<rect x="367.894" y="256.678" style="fill:#DEDEDF;" width="59.338" height="10.85"/>
	<rect x="217.346" y="282.448" style="fill:#DEDEDF;" width="50.522" height="10.85"/>
	<rect x="283.804" y="282.448" style="fill:#DEDEDF;" width="96.297" height="10.85"/>
	<rect x="393.324" y="282.448" style="fill:#DEDEDF;" width="33.907" height="10.85"/>
</g>
<rect x="187.168" y="308.556" style="fill:#71D456;" width="140.715" height="10.85"/>
<rect x="217.346" y="334.326" style="fill:#DEDEDF;" width="55.269" height="10.85"/>
<rect x="283.804" y="334.326" style="fill:#FBD303;" width="91.889" height="10.85"/>
<rect x="393.324" y="334.326" style="fill:#DEDEDF;" width="33.907" height="10.85"/>
<rect x="217.346" y="360.095" style="fill:#F0582F;" width="110.538" height="10.85"/>
<rect x="348.567" y="360.095" style="fill:#DEDEDF;" width="27.126" height="10.85"/>
<rect x="393.324" y="360.095" style="fill:#71D456;" width="33.907" height="10.85"/>
<rect x="217.346" y="386.204" style="fill:#646B79;" width="89.515" height="10.85"/>
<g>
	<rect x="318.389" y="386.204" style="fill:#DEDEDF;" width="27.126" height="10.85"/>
	<rect x="362.13" y="386.204" style="fill:#DEDEDF;" width="65.441" height="10.85"/>
</g>
<g>
</g>
<g>
</g>
<g>
</g>
<g>
</g>
<g>
</g>
<g>
</g>
<g>
</g>
<g>
</g>
<g>
</g>
<g>
</g>
<g>
</g>
<g>
</g>
<g>
</g>
<g>
</g>
<g>
</g>
</svg>
