<?xml version="1.0" encoding="iso-8859-1"?>
<!-- Generator: Adobe Illustrator 19.0.0, SVG Export Plug-In . SVG Version: 6.00 Build 0)  -->
<svg version="1.1" id="Layer_1" xmlns="http://www.w3.org/2000/svg" xmlns:xlink="http://www.w3.org/1999/xlink" x="0px" y="0px"
	 viewBox="0 0 509.287 509.287" style="enable-background:new 0 0 509.287 509.287;" xml:space="preserve">
<circle style="fill:#EE4A68;" cx="254.644" cy="254.644" r="254.644"/>
<path style="fill:#F1F3F7;" d="M52.217,156.652v242.437c0,7.46,6.103,13.563,13.563,13.563h378.066
	c7.46,0,13.563-6.103,13.563-13.563V156.652H52.217z"/>
<path style="fill:#4F5565;" d="M457.07,110.199c0-7.46-6.103-13.563-13.563-13.563H65.78c-7.46,0-13.563,6.103-13.563,13.563v46.453
	h405.192v-46.453H457.07z"/>
<circle style="fill:#F0582F;" cx="92.228" cy="126.813" r="9.833"/>
<circle style="fill:#FBD303;" cx="125.118" cy="126.813" r="9.833"/>
<circle style="fill:#71D456;" cx="158.008" cy="126.813" r="9.833"/>
<path style="fill:#333842;" d="M387.221,116.98H206.834c-5.425,0-9.833,4.408-9.833,9.833c0,5.425,4.408,9.833,9.833,9.833h180.387
	c5.425,0,9.833-4.408,9.833-9.833C397.054,121.388,392.646,116.98,387.221,116.98z"/>
<g>
	<polygon style="fill:#4F5565;" points="423.163,269.224 407.905,269.224 407.905,255.661 409.6,255.661 409.6,253.966 
		423.163,253.966 	"/>
	<path style="fill:#4F5565;" d="M391.968,269.224h-16.276v-13.563h16.276V269.224z M359.417,269.224h-16.275v-13.563h16.275V269.224
		z M327.205,269.224H310.93v-13.563h16.276V269.224z M294.993,269.224h-16.276v-13.563h16.276V269.224z M262.781,269.224h-16.276
		v-13.563h16.276V269.224z M230.57,269.224h-16.275v-13.563h16.275V269.224z M198.019,269.224h-16.275v-13.563h16.275V269.224z
		 M165.807,269.224h-16.275v-13.563h16.275V269.224z M133.595,269.224h-16.275v-13.563h16.275V269.224z"/>
	<polygon style="fill:#4F5565;" points="101.383,269.224 86.124,269.224 86.124,253.966 99.687,253.966 99.687,255.661 
		101.383,255.661 	"/>
	<rect x="86.124" y="217.685" style="fill:#4F5565;" width="13.563" height="17.971"/>
	<polygon style="fill:#4F5565;" points="99.687,199.375 86.124,199.375 86.124,184.117 101.383,184.117 101.383,197.679 
		99.687,197.679 	"/>
	<path style="fill:#4F5565;" d="M391.968,197.679h-16.276v-13.563h16.276V197.679z M359.417,197.679h-16.275v-13.563h16.275V197.679
		z M327.205,197.679H310.93v-13.563h16.276V197.679z M294.993,197.679h-16.276v-13.563h16.276V197.679z M262.781,197.679h-16.276
		v-13.563h16.276V197.679z M230.57,197.679h-16.275v-13.563h16.275V197.679z M198.019,197.679h-16.275v-13.563h16.275V197.679z
		 M165.807,197.679h-16.275v-13.563h16.275V197.679z M133.595,197.679h-16.275v-13.563h16.275V197.679z"/>
	<polygon style="fill:#4F5565;" points="423.163,199.375 409.6,199.375 409.6,197.679 407.905,197.679 407.905,184.117 
		423.163,184.117 	"/>
	<rect x="409.6" y="217.685" style="fill:#4F5565;" width="13.563" height="17.971"/>
</g>
<rect x="86.124" y="293.976" style="fill:#6EB1E1;" width="89.176" height="91.211"/>
<rect x="198.697" y="293.976" style="fill:#71D456;" width="224.466" height="91.211"/>
<g>
</g>
<g>
</g>
<g>
</g>
<g>
</g>
<g>
</g>
<g>
</g>
<g>
</g>
<g>
</g>
<g>
</g>
<g>
</g>
<g>
</g>
<g>
</g>
<g>
</g>
<g>
</g>
<g>
</g>
</svg>
