<?xml version="1.0" encoding="iso-8859-1"?>
<!-- Generator: Adobe Illustrator 19.0.0, SVG Export Plug-In . SVG Version: 6.00 Build 0)  -->
<svg version="1.1" id="Layer_1" xmlns="http://www.w3.org/2000/svg" xmlns:xlink="http://www.w3.org/1999/xlink" x="0px" y="0px"
	 viewBox="0 0 509.287 509.287" style="enable-background:new 0 0 509.287 509.287;" xml:space="preserve">
<circle style="fill:#6EB1E1;" cx="254.644" cy="254.644" r="254.644"/>
<g>
	<path style="fill:#F1F3F7;" d="M452.662,94.94c-0.678-1.017-1.695-2.034-2.374-3.052C450.967,93.245,451.645,94.262,452.662,94.94z
		"/>
	<path style="fill:#F1F3F7;" d="M499.454,265.494c-0.678-3.391-2.374-6.442-3.73-9.494c-0.678-1.695-0.678-3.391-1.356-5.086
		c-3.391-7.121-6.442-13.902-9.833-21.023c0.678-0.678,1.017-1.017,1.695-1.695c2.034,1.356,4.747,2.034,5.425,3.73
		c3.391,7.46,10.172,13.224,10.172,22.04c0,0.678,0.339,1.695,1.017,2.034c2.374,2.374,4.408,5.086,6.103,8.138
		c0-3.052,0.339-6.442,0.339-9.494c0-27.126-4.069-52.895-11.868-77.309c-1.695-0.339-3.052-0.678-4.408-1.356
		c-4.408-2.034-8.138-1.695-12.885,0.339c-2.713,1.356-7.121,1.017-9.833-0.339c-3.391-1.695-2.034-5.086,0-8.138
		c2.713-4.069,5.086-8.816,7.121-12.885c6.781,0.678,6.781,5.764,8.816,9.155c2.034-1.017,4.069-1.695,5.764-2.374
		c-0.339-0.678-0.339-1.017-0.678-1.695c-1.017-0.678-2.373-1.356-4.408-2.374c1.017-0.339,2.034-0.678,2.713-1.017
		c-8.477-20.683-20.005-40.011-33.568-57.303c0,0,0,0-0.339,0c1.017,4.069,1.695,7.121,2.374,10.172
		c-0.678,0.339-1.017,0.339-1.695,0.678c-1.356-1.017-2.713-2.374-5.764-4.747c-1.017,5.086-1.695,9.155-2.713,13.563
		c-2.374,0.678-4.747,5.086-8.477,1.017c-0.339-0.339-1.356,0-1.695,0.339c-5.086,4.747-11.528,1.695-16.954,2.713
		c-1.356,0.339-3.391-2.374-5.086-3.73c0,0,0-0.678,0.339-1.017c0.678,0.339,1.356,0.339,2.034,0.678
		c-0.339-3.73-0.339-7.46-0.678-11.189c-11.868,2.713-3.052,10.85-4.408,14.919c-4.747,2.713-9.155,4.747-12.546,7.46
		c-4.408,3.391-8.138,7.799-12.207,11.868c-1.017,1.017-3.052,1.017-4.408,1.695c-0.678,0.339-1.356,0.678-1.695,1.017
		c-1.017,0.678-2.374,1.695-3.391,2.034c-1.695,0.339-3.391,0.339-6.442,0.339c1.695,1.695,2.034,2.713,2.713,3.052
		c2.373,2.034,6.103,3.73,7.121,6.442c1.356,3.052,1.017,7.121,0.339,10.511c0,0.678-4.069,1.017-6.442,1.356
		c-5.086,0.339-10.511,0-15.258,0c0,9.494,0,17.632,0,24.074c4.408,2.034,7.121,3.391,10.172,5.086
		c1.017-0.339,3.052-1.356,5.086-1.695c7.121-1.017,9.155-3.391,10.172-10.511c0.339-2.374,2.373-5.425,4.408-6.781
		c3.052-2.034,6.442-2.713,5.764-7.46c0-0.339,3.052-2.374,4.069-2.034c4.747,2.374,7.799-0.678,11.189-2.713
		c1.356-0.678,3.73-0.678,4.747,0.339c5.086,4.408,9.833,9.155,14.241,14.241c1.695,2.034,2.374,4.408,3.73,6.781
		c-2.713,1.017-5.086,2.034-7.799,3.052c-0.678,0.339-1.695,0.339-3.73,0.678c3.391,2.034,5.764,3.052,8.138,4.408
		c2.373-4.747,4.408-9.155,7.121-14.241c0,0,1.695,0.339,4.069,0.678c-1.695-1.356-2.374-2.034-3.391-2.713
		c-4.747-4.408-9.833-8.477-14.241-13.224c-1.017-1.017-1.695-4.408-0.678-5.764c1.695-2.374,2.374,0.339,4.069,1.356
		c4.747,4.069,9.833,7.799,14.58,11.528c1.017,0.678,1.356,1.695,2.034,2.713c2.374,5.764,4.408,11.868,6.781,17.632
		c0.339,0.678,1.695,1.017,2.373,1.356c1.695-2.374,3.052-4.069,4.408-5.764c-1.356-2.374-3.052-5.086-4.408-7.799
		c1.695-0.339,2.713,0,3.391-0.678c4.069-2.713,7.121-4.747,7.799,2.713c0,2.713,1.017,6.103,3.052,7.799
		c2.374,2.374,5.764,3.73,9.155,5.086c1.695,0.678,3.391,0.339,5.425,0.339c1.695,0,3.391,0.339,4.747,0.339
		c2.034-0.339,4.069-1.356,7.46-2.374c-2.034,7.46-3.052,12.885-5.086,18.649c-0.339,1.695-2.374,3.391-3.73,3.73
		c-4.747,0.678-9.494,1.695-13.902,0.678c-5.764-1.017-11.528-3.391-16.954-6.103c-4.408-2.034-7.799-0.339-8.816,4.408
		c-0.339,1.356-3.052,4.069-3.391,3.73c-3.73-2.034-7.121-4.747-10.85-6.781c-1.356-1.017-3.052-1.695-4.747-2.374
		c-3.391-1.356-7.121-2.374-10.511-3.73c0.678-0.339,1.017-0.678,1.695-1.356c0-3.391,0.678-7.121,0-10.511
		c0-0.678-4.408-0.339-7.121-0.678c-0.678,0-1.695-0.339-2.374-0.339c-7.799,1.695-16.276,2.034-23.735,5.086
		c-5.764,2.374-10.172,2.034-13.902,0.339c-3.391,3.391-6.442,6.103-8.816,9.155c-1.695,2.374-3.73,5.425-3.73,8.477
		c0.339,5.764-3.052,8.477-7.121,11.189c-1.356,0.678-2.713,1.695-3.391,3.052c-3.391,6.103-6.442,12.207-9.833,18.649
		c-0.678,1.356-1.017,3.052-1.017,4.408c0.339,5.764,1.695,11.868,0.678,17.632c-1.356,7.46-1.017,13.902,4.747,19.327
		c2.034,2.034,3.391,4.747,5.086,7.121c3.052,3.73,6.781,7.46,9.494,11.189c4.069,5.425,8.477,5.086,13.902,2.374
		c0.678-0.339,2.034-0.678,3.052-0.339c6.103,2.034,11.189-0.678,16.615-3.052c4.747-2.034,10.172-3.052,12.207,4.408
		c0.339,0.678,2.034,1.695,3.052,1.695c8.816,0,10.511,1.356,8.477,9.833c-2.034,7.799-1.017,13.902,4.747,19.666
		c1.695,1.695,2.374,4.069,3.052,6.103c1.695,6.103,3.391,11.868,4.408,17.971c0.339,2.034-0.678,4.408-1.356,6.442
		c-3.391,7.799-6.442,15.258-1.695,24.074c3.052,5.425,3.73,12.207,5.764,18.31c1.695,5.425,4.069,10.85,5.764,16.615
		c40.35-40.689,66.797-94.601,72.562-154.956C504.201,274.988,500.811,271.258,499.454,265.494z"/>
	<path style="fill:#F1F3F7;" d="M411.974,78.665c-10.511,6.781-11.189,7.121-9.494,18.649c0,1.017,1.017,1.695,1.356,2.713
		c1.356,5.086,4.069,6.442,8.477,3.391c2.034-1.356,4.069-2.713,6.103-4.408c2.034,4.747,4.069,9.155,6.103,13.563
		c-1.356,1.017-3.052,2.374-4.408,3.73c0.678,1.356,1.017,2.713,1.695,4.747c1.017-2.034,1.695-3.73,2.373-5.425
		c2.374,1.356,10.172-1.356,11.189-4.069c2.034-5.086,4.069-10.511,6.442-15.936c-4.069-2.034-5.425-6.103-2.713-10.85
		c0.678-1.017,1.695-2.034,2.713-2.713c-5.086-5.425-10.511-10.85-16.275-15.936c-0.339,0.678-1.017,1.017-1.356,1.695
		C420.111,71.205,416.381,75.613,411.974,78.665z"/>
	<path style="fill:#F1F3F7;" d="M277.701,347.211c-1.356-0.678-2.713-2.374-4.069-3.391c-2.034-1.356-4.069-3.73-5.764-3.391
		c-9.494,1.017-15.597-7.121-24.074-9.155c-6.442-1.356-4.747-7.799-6.781-12.207c-2.713-6.103-6.781-9.833-13.563-10.172
		c-3.052-0.339-6.103-2.034-8.477-4.069c-4.069-3.052-7.46-6.781-11.528-10.172c-1.017-1.017-3.052-2.374-4.069-2.034
		c-5.764,2.374-10.172,0.339-15.258-2.713c-2.034-1.356-5.764,0.339-8.816,0.339c0.339-1.356,1.017-2.373,1.356-3.73
		c-0.339-0.339-1.017-0.678-1.356-1.017c-5.425,4.408-10.511,9.155-16.275,13.902c-2.374-2.713-5.425-4.747-10.172-1.356
		c-1.017,0.678-3.73-0.339-5.086-1.356c-5.425-4.069-3.73-9.833-3.052-15.258c0.678-6.103-1.017-8.138-7.121-8.138
		c-2.713,0-5.425,0-8.138,0c1.695-6.781,3.391-13.224,5.086-19.327c-6.442-2.034-9.155-1.017-10.511,5.086
		c-1.356,5.086-5.764,5.086-9.155,5.425c-2.374,0.339-6.103-1.017-6.781-2.713c-2.374-4.747-4.069-10.172-5.086-15.258
		c-0.678-3.052,1.356-6.442,1.356-9.833c0-11.189,6.781-16.276,17.971-12.885c1.356,0.339,3.052-0.678,4.408-1.017
		c1.695-0.678,3.391-2.374,5.086-2.374c3.052,0,6.103,2.374,8.816,1.695c5.764-1.017,5.764,2.373,6.781,6.103
		c1.017,4.069,3.052,7.46,4.747,11.528c1.017-0.339,2.034-0.339,2.713-0.678c-0.678-3.73-0.339-8.138-1.695-11.189
		c-3.73-8.138-1.695-14.241,5.086-19.666c2.034-1.695,4.408-2.713,6.103-4.747c1.356-1.356,2.374-3.391,2.713-5.086
		c0.678-3.052-1.356-5.764,2.034-9.494c4.069-4.747,5.764-11.868,13.563-12.546c-1.017-8.138,6.781-14.919,16.615-15.597
		c-1.017,2.034-2.034,4.069-3.052,6.442c0.339,0,1.017,0.339,1.356,0.339c5.425-3.052,10.85-6.103,16.615-9.494
		c-1.017-1.695-1.356-2.713-1.356-2.713c-2.713,1.017-5.764,3.391-7.46,2.713c-2.374-1.017-3.73-4.069-5.764-6.103
		c-0.678-1.017-1.356-1.695-2.034-2.374c1.356-1.017,2.713-2.034,5.086-3.391c-6.781-4.069-10.85,0.339-15.597,1.695
		c4.747-5.086,9.833-9.833,17.971-8.138c5.086,1.017,9.833,1.017,13.563-3.73c0.678-1.017,2.713-0.678,4.408-0.678
		c4.069-3.391,5.086-7.799,2.373-9.833c-3.391-2.713-7.46-4.747-10.511-7.46c-2.034-1.356-3.73-3.73-4.747-5.764
		c-3.052-6.103-5.764-12.207-8.477-18.31c-3.391,4.069-5.764,7.46-8.477,10.511c-0.678,0-1.695,0-2.374,0
		c-2.034-4.069-4.069-8.138-6.442-13.224c-5.764-5.086-13.563-8.477-22.379-6.781c0,6.103,0,11.868,0,18.649
		c7.121,6.442,6.442,10.511-4.069,17.293c-0.678,5.086,6.103,10.85-3.391,15.936c-2.374-6.103-4.747-11.868-6.781-17.293
		c-9.155-3.73-18.31-7.46-28.143-11.528c-1.017-1.356-2.374-3.391-4.069-5.764c-1.017-1.695-2.713-3.052-2.713-4.747
		c-0.339-6.103,10.172-18.649,15.936-20.683c2.374-1.017,4.408-3.391,6.781-5.425c1.356-1.356,2.374-2.713,3.73-4.069l-0.339,0.339
		c-0.339-1.017-0.678-2.034-1.695-4.069c7.121,3.73,11.528,1.356,14.58-2.713c-0.339-2.713-0.678-4.747-1.017-6.442
		c-0.339-1.695,0-4.069-1.017-4.747c-2.713-1.356-5.764-2.374-7.46-2.713c-2.713,5.425-4.408,9.494-6.442,13.224
		c-0.678,0-1.017,0.339-1.695,0.339c-0.678-1.695-1.356-3.391-2.034-5.425c-0.678-1.695-1.356-3.73-2.374-6.781
		c-2.034,3.052-2.713,4.408-4.069,6.442c-0.678-4.069-0.339-8.138-5.425-6.781c0.339-2.374-0.339-4.069-1.017-5.764
		c-3.052,2.034-6.103,4.069-8.816,6.103c2.034,1.356,3.73,2.713,5.764,4.069c-2.713,2.713-4.747,4.747-7.121,7.46
		c-3.052-4.069-0.339-7.46,1.017-11.528c-2.374,1.695-4.408,3.391-6.781,5.086c-1.017,1.695-2.713,2.713-4.408,3.391
		c-31.873,25.77-56.964,58.66-73.24,95.958c1.017,3.73,1.017,7.46,0,11.868c-2.713,12.885,1.695,24.413,8.477,34.924
		c1.695,2.713,4.747,4.408,6.781,6.442c1.695,2.034,3.73,3.73,5.086,6.103c2.374,3.73,4.069,7.799,6.103,11.868
		c1.017,2.374,2.034,4.408,2.713,6.781c1.356,2.713,3.73,4.408,5.764,6.781c2.374,3.391,4.069,6.781,6.103,10.511
		c0.678-0.339,1.017-0.678,1.695-1.017c-5.425-10.172-11.189-20.344-16.615-30.517c0.678-0.678,1.356-1.017,2.034-1.695
		c1.356,1.356,3.052,2.713,4.069,4.408c1.356,2.374,1.695,5.086,3.391,7.121c4.747,6.442,10.511,12.546,14.919,18.988
		c2.034,3.391,2.374,7.799,3.73,11.529c0.678,1.695,1.356,3.391,2.374,4.408c4.747,3.391,9.833,6.442,14.919,9.155
		c4.408,2.374,8.477,3.73,14.241,2.374c3.391-0.678,7.799,5.425,12.207,7.799c5.086,2.374,10.511,4.069,13.224,9.494
		c0.678,1.695,0.678,4.069,2.034,5.086c4.408,3.391,9.494,6.442,13.563,9.155c1.356-2.034,2.713-3.73,4.069-5.425
		c0,0,2.034,0.678,2.374,1.356c1.356,3.391,2.374,6.781,3.391,10.511c1.695,6.442-2.034,11.528-6.103,15.936
		c-4.069,4.747-4.747,9.833-1.695,14.919c-4.408,3.052-4.069,7.121-2.034,11.189c2.374,4.408,5.086,8.477,7.121,12.546
		c4.747,9.494,6.781,21.022,18.649,26.109c4.069,1.695,5.764,6.103,5.425,10.85c-1.695,16.615-2.374,33.568-4.747,50.183
		c-1.356,9.155-5.086,17.632-5.764,27.126c-0.339,3.73-0.678,7.46-1.017,11.189c0.339,0,0.678,0,1.017,0
		c0.678-2.034,1.017-4.069,1.695-6.103c0.678,0,1.356,0.339,1.695,0.339c-0.678,3.391-1.356,6.442-2.034,10.172
		c5.764,2.034,11.868,3.73,17.971,5.425c0.678-0.678,1.695-1.695,3.052-2.713c1.017-1.017,2.034-2.374,2.374-3.73
		c0.678-4.408,1.017-8.816,1.356-12.207c2.374-0.339,5.425,0.339,6.781-1.017c1.356-1.356,1.017-4.408,1.695-7.121
		c0.339,0.339,0.678,1.017,1.017,1.356c4.408-2.374,9.494-3.73,12.546-7.121c4.069-4.408-0.678-8.477-2.713-12.885
		c12.207,3.391,14.241,2.374,18.31-9.494c0.678-2.373,3.391-3.73,4.408-6.103c2.034-3.391,5.086-6.781,5.425-10.511
		c1.017-9.494,6.442-15.597,15.936-17.293c2.374-0.339,5.086-2.713,6.442-4.747c4.408-8.138,6.781-16.615,6.103-25.77
		c0-1.695,0.339-3.73,1.017-5.086c2.713-4.069,6.442-7.46,8.138-11.868c1.695-3.73,1.695-8.138,2.374-12.207
		C284.143,348.228,280.074,348.567,277.701,347.211z"/>
	<path style="fill:#F1F3F7;" d="M219.041,134.951L219.041,134.951C218.702,134.951,218.702,134.951,219.041,134.951L219.041,134.951
		z"/>
	<path style="fill:#F1F3F7;" d="M183.099,10.172C183.438,10.172,183.438,10.172,183.099,10.172c1.695,1.017,3.391,2.374,5.086,2.374
		c3.73,0,7.799-1.356,11.189-0.678c5.425,0.339,11.528,0.678,15.258,3.73c6.781,5.425,10.85,12.885,8.816,21.023
		c4.747,1.695,8.816,3.052,13.224,4.747c-0.339,0.678-0.339,1.017-0.678,1.695c-8.477-1.017-8.477-1.017-10.85,5.425
		c3.052,0.339,5.425,0.678,8.138,1.017c0.339-0.678,0.678-1.356,1.017-2.034c-1.356-0.339-2.373-0.678-3.73-1.356
		c0.678-0.678,1.017-1.017,1.695-1.695c1.695,1.695,4.069,3.052,4.408,5.086c0.678,2.713-1.017,4.069-4.408,4.408
		c-1.356,0-3.391,5.086-3.052,7.799c0.339,3.73,2.374,7.121,4.069,10.511c4.069,8.816,6.103,18.988,18.31,20.344
		c1.017,0,1.695,1.356,2.713,2.034c2.713,2.374,4.747,2.374,6.103-1.695c1.695-5.086,2.034-11.189,6.442-15.258
		c0.678-0.678,0.339-2.374,0.678-3.391c0.339-4.408,2.713-6.442,6.781-6.442c6.103-0.339,10.511-3.391,14.241-7.799
		c1.695-2.034,4.747-3.391,7.46-4.069c8.138-2.374,16.615-3.391,23.396-10.172c-3.391-0.678-6.442-1.356-9.494-2.034
		c1.017-1.695,2.034-3.391,2.713-4.408c3.052,1.695,6.442,3.052,10.511,5.086c-1.356-6.781-2.374-11.528-3.052-15.597
		c3.391-2.713,6.781-5.086,10.172-7.46c-1.356-1.356-2.374-2.713-3.391-3.73c1.017-0.678,2.034-1.356,2.713-1.695
		c-1.695-2.034-3.73-4.069-5.764-6.442C301.775,3.391,278.718,0,254.644,0C229.891,0,205.817,3.73,183.099,10.172z"/>
</g>
<rect x="299.062" y="169.197" style="fill:#4F5565;" width="210.225" height="340.09"/>
<g>
	<rect x="334.326" y="202.427" style="fill:#646B79;" width="139.359" height="38.654"/>
	<rect x="334.326" y="251.592" style="fill:#646B79;" width="139.359" height="38.654"/>
	<rect x="334.326" y="300.419" style="fill:#646B79;" width="139.359" height="38.654"/>
</g>
<circle style="fill:#FBD303;" cx="404.175" cy="435.03" r="20.344"/>
<g>
</g>
<g>
</g>
<g>
</g>
<g>
</g>
<g>
</g>
<g>
</g>
<g>
</g>
<g>
</g>
<g>
</g>
<g>
</g>
<g>
</g>
<g>
</g>
<g>
</g>
<g>
</g>
<g>
</g>
</svg>
