<?xml version="1.0" ?><!DOCTYPE svg  PUBLIC '-//W3C//DTD SVG 1.1//EN'  'http://www.w3.org/Graphics/SVG/1.1/DTD/svg11.dtd'><svg enable-background="new 0 0 256 256" id="Layer_1" version="1.1" viewBox="0 0 256 256" xml:space="preserve" xmlns="http://www.w3.org/2000/svg" xmlns:xlink="http://www.w3.org/1999/xlink"><g><circle cx="128" cy="128" fill="#EFEFEF" r="127"/><g><g><polygon fill="#F2CD56" points="225.8,172.5 30.2,172.5 72.8,65.6 183.1,65.6    "/><g><path d="M213,140.3c-28.2-10-52.8-21.1-73.3-32.8c-2.4-1.4-4.7-2.8-7-4.1c-6.7-3.9-13.3-7.8-20.3-10.9      c-10.9-4.9-22.9-7.9-34.1-10.7L67.3,79l-2,5.1l8.8,2.3c11,2.9,22.9,5.9,33.3,10.8c6.7,3.1,13.1,7.1,19.6,11.1      c2.4,1.5,4.7,2.9,7.2,4.4c22.8,13.7,50.8,26.7,83.2,38.3L213,140.3z" fill="#EDF0F2"/><path d="M143.8,112.5c-16.9,3.9-34.3,9.4-52.1,15.1c-15.6,4.9-32.3,10.3-49.9,14.8l-4.1,10.3      c20.2-5.3,39.2-11.6,56.7-17.4c18.1-6,35.8-11.9,52.8-15.9L143.8,112.5z" fill="#EDF0F2"/></g><rect fill="#C39C30" height="9" width="195.7" x="30.2" y="172.5"/></g><g><path d="M139.2,69.7c0,15.4-27.9,46.5-27.9,46.5S83.4,85.1,83.4,69.7s12.5-27.9,27.9-27.9S139.2,54.3,139.2,69.7z     " fill="#E65336"/><circle cx="111.3" cy="69.7" fill="#EDF0F2" r="16.7"/></g></g></g></svg>
