<?xml version="1.0" ?><!DOCTYPE svg  PUBLIC '-//W3C//DTD SVG 1.1//EN'  'http://www.w3.org/Graphics/SVG/1.1/DTD/svg11.dtd'><svg height="167px" style="shape-rendering:geometricPrecision; text-rendering:geometricPrecision; image-rendering:optimizeQuality; fill-rule:evenodd; clip-rule:evenodd" version="1.1" viewBox="0 0 22560 20968" width="180px" xml:space="preserve" xmlns="http://www.w3.org/2000/svg" xmlns:xlink="http://www.w3.org/1999/xlink"><defs><style type="text/css">
   <![CDATA[
    .fil0 {fill:#5D718F}
    .fil5 {fill:#83CF8F}
    .fil2 {fill:#8597B1}
    .fil4 {fill:#B9C1C9}
    .fil1 {fill:#F2F2F2}
    .fil3 {fill:#FF7069}
    .fil6 {fill:#FFE356}
    .fil8 {fill:white}
    .fil7 {fill:white}
   ]]>
  </style></defs><g id="Layer_x0020_1"><g id="_457965392"><g><rect class="fil0" height="20968" rx="303" ry="303" width="11207" x="5863"/><rect class="fil1" height="15309" rx="235" ry="190" width="10142" x="6395" y="2830"/><rect class="fil2" height="423" rx="102" ry="212" width="5514" x="8709" y="1295"/><circle class="fil2" cx="11424" cy="19616" r="703"/><circle class="fil2" cx="7259" cy="1524" r="240"/></g><rect class="fil3" height="2241" rx="336" ry="336" width="2241" x="7205" y="3837"/><rect class="fil4" height="2241" rx="336" ry="336" width="2241" x="10345" y="3837"/><rect class="fil5" height="2241" rx="336" ry="336" width="2241" x="13486" y="3837"/><g><rect class="fil5" height="2241" rx="336" ry="336" width="2241" x="7205" y="6620"/><rect class="fil6" height="2241" rx="336" ry="336" width="2241" x="10345" y="6620"/><rect class="fil4" height="2241" rx="336" ry="336" width="2241" x="13486" y="6620"/></g><rect class="fil6" height="2241" rx="336" ry="336" width="2241" x="7205" y="9402"/><rect class="fil3" height="2241" rx="336" ry="336" width="2241" x="10345" y="9402"/><path class="fil3" d="M2633 5319c762,0 1449,324 1930,842l3261 -828 -2768 1586c135,317 210,666 210,1033 0,1454 -1179,2633 -2633,2633 -1454,0 -2633,-1179 -2633,-2633 0,-1454 1179,-2633 2633,-2633z"/><path class="fil6" d="M17144 8920c1630,-765 3572,-63 4338,1567 765,1631 63,3573 -1567,4338 -1631,765 -3573,64 -4338,-1567 -246,-524 -340,-1081 -301,-1620l-3227 -3186 3703 1712c321,-524 794,-963 1392,-1244z"/><path class="fil5" d="M20256 711c1273,0 2304,1031 2304,2304 0,1272 -1031,2304 -2304,2304 -883,0 -1651,-498 -2037,-1228l0 1 -2301 763 2106 -1269 0 0c-47,-182 -72,-374 -72,-571 0,-1273 1032,-2304 2304,-2304z"/><path class="fil7" d="M19793 12591l-1998 0 -840 -1920 -522 0 0 -240 679 0 840 1920 1841 0 0 240zm384 -1440l96 -240 -2640 0 96 240 2448 0zm-2160 720l96 240 1680 0 96 -240 -1872 0zm2064 -480l-2256 0 96 240 2064 0 96 -240zm-288 1800c0,198 -161,360 -360,360 -199,0 -360,-162 -360,-360 0,-199 161,-360 360,-360 199,0 360,161 360,360zm-1200 0c0,198 -161,360 -360,360 -199,0 -360,-162 -360,-360 0,-199 161,-360 360,-360 199,0 360,161 360,360z"/><polygon class="fil8" points="19862,1918 19862,3902 21248,2910 "/><path class="fil8" d="M2019 7136c-5,-66 -6,-132 4,-198 378,33 753,91 1131,132 123,14 247,23 368,49 19,188 20,378 34,566 13,257 37,513 44,769 5,139 34,281 -8,417 -24,82 -69,165 -143,211 -135,79 -306,102 -454,47 -103,-31 -193,-110 -230,-212 -57,-112 -29,-258 59,-346 157,-172 466,-151 605,34 -14,-304 -23,-607 -36,-911 -396,-37 -793,-71 -1188,-107 -4,64 0,127 5,190 11,186 20,372 32,557 4,122 24,247 -13,366 -21,83 -78,152 -143,206 -72,56 -166,64 -253,70 -106,8 -212,-21 -301,-76 -87,-59 -151,-157 -154,-264 -11,-128 63,-263 182,-313 155,-81 374,-60 485,84 8,-3 15,-5 23,-7 -16,-421 -31,-843 -49,-1264z"/></g></g></svg>