<?xml version="1.0" ?><!DOCTYPE svg  PUBLIC '-//W3C//DTD SVG 1.1//EN'  'http://www.w3.org/Graphics/SVG/1.1/DTD/svg11.dtd'><svg height="180px" style="shape-rendering:geometricPrecision; text-rendering:geometricPrecision; image-rendering:optimizeQuality; fill-rule:evenodd; clip-rule:evenodd" version="1.1" viewBox="0 0 150406 206295" width="131px" xml:space="preserve" xmlns="http://www.w3.org/2000/svg" xmlns:xlink="http://www.w3.org/1999/xlink"><defs><style type="text/css">
   <![CDATA[
    .fil2 {fill:#596366}
    .fil3 {fill:#6C7678}
    .fil4 {fill:#C6CBD6}
    .fil1 {fill:#FCCE44}
    .fil0 {fill:#FFE356}
    .fil5 {fill:white}
   ]]>
  </style></defs><g id="Layer_x0020_1"><g id="_448337528"><path class="fil0" d="M34718 57711c-4197,-3337 -9485,-5928 -14153,-8217 -2787,-1366 -5419,-2657 -7337,-3879 -4458,-2840 -7709,-10114 -7247,-16212 198,-2609 1186,-6047 4764,-7627 3805,-1682 6671,1347 7613,2342 1981,2093 3715,5138 4756,8355 786,2426 918,4151 836,5061 -1385,-199 -2761,607 -3229,1980 -532,1550 294,3241 1847,3771 2445,836 4696,222 6056,-1632 2024,6245 4539,12024 7464,17220 -437,-392 -889,-781 -1370,-1162zm40485 107446l0 0 24852 0 0 -2606c-7305,-471 -16845,-16807 -17417,-25637l-3286 -50577c10956,-1357 20960,-8026 28974,-18379 -316,1231 -469,2498 -464,3805 23,4057 2248,7509 5945,9243 1541,721 3190,1074 4816,1074 2479,0 4910,-820 6838,-2409 4297,-3541 4762,-7966 3004,-10506 -1491,-2152 -4199,-2695 -6589,-1321 -1419,817 -1910,2636 -1093,4056 518,902 1438,1427 2403,1484 -258,466 -714,1056 -1503,1705 -1410,1161 -3562,1378 -5356,537 -938,-438 -2512,-1527 -2525,-3896 -19,-3346 1756,-6325 5583,-9372 3690,-2935 8672,-5377 13068,-7531 2940,-1439 5718,-2800 7916,-4202 3085,-1966 5802,-5303 7648,-9394 1800,-3987 2628,-8348 2328,-12278 -454,-5973 -3396,-10451 -8286,-12611 -5275,-2330 -10852,-582 -15297,4793 -160,195 -320,392 -474,594 750,-5494 1157,-11190 1176,-17029l-52261 0 -52261 0c17,5839 426,11535 1176,17029 -156,-202 -313,-399 -474,-594 -4445,-5375 -10024,-7123 -15300,-4793 -4889,2160 -7831,6638 -8283,12611 -301,3930 526,8291 2326,12278 1847,4091 4563,7428 7650,9394 2198,1402 4975,2763 7915,4202 4397,2154 9380,4596 13067,7531 3830,3047 5601,6026 5585,9372 -13,2369 -1589,3458 -2525,3896 -1793,841 -3946,624 -5358,-537 -787,-649 -1243,-1239 -1502,-1705 965,-57 1884,-582 2404,-1484 816,-1420 327,-3239 -1095,-4056 -2390,-1374 -5099,-831 -6588,1321 -1759,2540 -1291,6965 3006,10506 1927,1589 4357,2409 6836,2409 1628,0 3277,-353 4817,-1074 3698,-1734 5919,-5186 5944,-9243 6,-1307 -147,-2574 -464,-3805 8014,10353 18020,17022 28975,18379l-3286 50577c-572,8830 -10114,25166 -17418,25637l0 2606 24853 0zm40485 -107446l0 0c-482,381 -932,770 -1371,1162 2925,-5196 5440,-10975 7463,-17220 1363,1854 3611,2468 6056,1632 1552,-530 2380,-2221 1850,-3771 -471,-1373 -1844,-2179 -3233,-1980 -78,-910 52,-2635 836,-5061 1042,-3217 2777,-6262 4758,-8355 942,-995 3807,-4024 7614,-2342 3578,1580 4566,5018 4762,7627 464,6098 -2786,13372 -7247,16212 -1915,1222 -4548,2513 -7336,3879 -4666,2289 -9957,4880 -14152,8217z"/><path class="fil1" d="M116522 4700c0,0 10141,68639 -39035,80763l3016 51357c-123,13663 11104,28337 19552,28337l0 -2606c-7303,-471 -16844,-16807 -17417,-25637l-3285 -50577c10891,-1350 20844,-7950 28837,-18204 47,-70 94,-131 138,-175 0,0 3825,-4493 6667,-9676 -231,196 -455,394 -677,591 833,-1478 1633,-3005 2398,-4577 2561,-6093 5066,-12643 5066,-12643 1511,-4823 3525,-12901 4507,-19924 750,-5494 1157,-11190 1176,-17029l-10943 0z"/><path class="fil2" d="M39401 203278l0 -32859c0,-2899 2363,-5260 5258,-5260l61089 0c2896,0 5258,2361 5258,5260l0 32859c0,1661 -1355,3017 -3017,3017l-65571 0c-1661,0 -3017,-1356 -3017,-3017z"/><path class="fil0" d="M128747 4700l-107083 0c-1285,0 -2327,-1042 -2327,-2326l0 -48c0,-1285 1042,-2326 2327,-2326l107083 0c1284,0 2325,1041 2325,2326l0 48c0,1284 -1041,2326 -2325,2326z"/><polygon class="fil3" points="58081,179473 92060,179473 92060,182709 58081,182709 "/><polygon class="fil3" points="58081,186987 92060,186987 92060,190222 58081,190222 "/><polygon class="fil4" points="65039,194499 85106,194499 85106,197736 65039,197736 "/><polygon class="fil5" points="75204,16182 80355,32138 97121,32106 83539,41936 88749,57872 75204,47990 61659,57872 66871,41936 53287,32106 70054,32138 "/></g></g></svg>