<?xml version="1.0" ?><!DOCTYPE svg  PUBLIC '-//W3C//DTD SVG 1.1//EN'  'http://www.w3.org/Graphics/SVG/1.1/DTD/svg11.dtd'><svg height="160px" style="shape-rendering:geometricPrecision; text-rendering:geometricPrecision; image-rendering:optimizeQuality; fill-rule:evenodd; clip-rule:evenodd" version="1.1" viewBox="0 0 491774 436416" width="180px" xml:space="preserve" xmlns="http://www.w3.org/2000/svg" xmlns:xlink="http://www.w3.org/1999/xlink"><defs><style type="text/css">
   <![CDATA[
    .fil2 {fill:#666666}
    .fil3 {fill:#6B7F9E}
    .fil5 {fill:#83CF8F}
    .fil0 {fill:#B9C1C9}
    .fil1 {fill:#CCD2D9}
    .fil4 {fill:#F2F2F2}
    .fil6 {fill:#FFE356}
    .fil7 {fill:white}
    .fil8 {fill:white;fill-rule:nonzero}
   ]]>
  </style></defs><g id="Layer_x0020_1"><g id="_351080344"><g><g><polygon class="fil0" points="202645,343391 189988,393091 147445,428771 147445,436416 245888,436416 344328,436416 344328,428771 301789,393091 289132,343391 245888,342755 "/><polygon class="fil1" points="147445,428771 147445,436416 245888,436416 344328,436416 344328,428771 "/></g><path class="fil2" d="M26238 0l439295 0c14430,0 26241,11807 26241,26235l0 270607 -491774 0 0 -270607c0,-14428 11807,-26235 26238,-26235z"/><path class="fil3" d="M17817 279028l456136 0 0 -252790c0,-4598 -3822,-8421 -8420,-8421l-439292 0c-4598,0 -8424,3823 -8424,8421l0 252790z"/><path class="fil4" d="M491774 296845l0 28697c0,14437 -13019,26244 -28930,26244l-433915 0c-15914,0 -28929,-11807 -28929,-26244l0 -28697 491774 0z"/></g><g><g><rect class="fil5" height="58936" width="20231" x="273918" y="195222"/><rect class="fil6" height="112132" width="20231" x="313958" y="142026"/><rect class="fil5" height="85533" width="20231" x="353997" y="168625"/><rect class="fil6" height="153332" width="20231" x="394037" y="100826"/></g><g><g><path class="fil6" d="M147303 54178l-36659 35954 38827 33605c7800,-9005 12521,-20754 12521,-33605 0,-14001 -5603,-26690 -14689,-35954z"/><path class="fil5" d="M112141 30991l0 51348 36658 -35954c-9319,-9500 -22299,-15394 -36658,-15394z"/><path class="fil7" d="M107817 41266c-28357,0 -51348,22991 -51348,51348 0,28361 22991,51348 51348,51348 15510,0 29414,-6876 38827,-17746l-38827 -33602 0 -51348z"/></g><path class="fil6" d="M70671 166119l114683 0 0 5205 -114683 0 0 -5205zm0 34147l66011 0 0 5203 -66011 0 0 -5203zm0 -11383l114683 0 0 5202 -114683 0 0 -5202zm0 -11381l114683 0 0 5203 -114683 0 0 -5203z"/><path class="fil5" d="M70674 225574l97070 0 0 5205 -97070 0 0 -5205zm0 34147l46685 0 0 5199 -46685 0 0 -5199zm0 -11383l82274 0 0 5202 -82274 0 0 -5202zm0 -11381l114680 0 0 5203 -114680 0 0 -5203z"/></g></g><polygon class="fil8" points="413577,48727 404000,77447 402430,62017 327484,113821 325620,115142 323839,113711 301996,96168 245885,142795 300713,87389 302493,88821 325842,107572 396978,54640 383145,50437 "/><circle class="fil0" cx="245886" cy="321660" r="9738"/></g></g></svg>