<?xml version="1.0" ?><!DOCTYPE svg  PUBLIC '-//W3C//DTD SVG 1.1//EN'  'http://www.w3.org/Graphics/SVG/1.1/DTD/svg11.dtd'><svg height="154px" style="shape-rendering:geometricPrecision; text-rendering:geometricPrecision; image-rendering:optimizeQuality; fill-rule:evenodd; clip-rule:evenodd" version="1.1" viewBox="0 0 57295 48979" width="180px" xml:space="preserve" xmlns="http://www.w3.org/2000/svg" xmlns:xlink="http://www.w3.org/1999/xlink"><defs><style type="text/css">
   <![CDATA[
    .fil0 {fill:#6C7678}
    .fil12 {fill:#83CF8F}
    .fil3 {fill:#CCD2D9}
    .fil1 {fill:#E4E7ED}
    .fil4 {fill:#E5E8ED}
    .fil9 {fill:#ECF0F1}
    .fil2 {fill:#E5E8ED}
    .fil7 {fill:#F7635B}
    .fil6 {fill:#FCD34E}
    .fil8 {fill:#FF7069}
    .fil5 {fill:#FFE356}
    .fil10 {fill:white}
    .fil11 {fill:white}
   ]]>
  </style></defs><g id="Layer_x0020_1"><g id="_196874928"><path class="fil0" d="M3015 0l50477 0c1658,0 3015,1357 3015,3015l0 31094 -56507 0 0 -31094c0,-1658 1357,-3015 3015,-3015z"/><path class="fil1" d="M2047 32062l52412 0 0 -29047c0,-528 -439,-967 -968,-967l-50476 0c-528,0 -968,439 -968,967l0 29047z"/><path class="fil2" d="M56507 34109l0 3298c0,1658 -1496,3015 -3324,3015l-49859 0c-1829,0 -3324,-1357 -3324,-3015l0 -3298 56507 0z"/><circle class="fil3" cx="28253" cy="37134" r="1038"/><polygon class="fil4" points="34770,45165 39565,46701 16942,46701 20810,45165 20810,40422 34770,40422 "/><polygon class="fil3" points="20810,45165 34770,45165 39565,46701 39565,47363 28253,47363 16942,47363 16942,46701 "/><rect class="fil3" height="477" width="13960" x="20806" y="40423"/><polygon class="fil5" points="45439,34138 51117,34138 56796,34138 55574,48539 51161,48539 51117,48504 51074,48539 46661,48539 "/><polygon class="fil6" points="45439,34138 56796,34138 56723,34995 45512,34995 "/><path class="fil7" d="M47770 31799l6695 0c326,0 592,266 592,592l0 593 -7879 0 0 -593c0,-326 266,-592 592,-592z"/><path class="fil8" d="M45595 32403l11045 0c360,0 655,295 655,656l0 1471c0,8 -6,14 -14,14l-12328 0c-8,0 -14,-6 -14,-14l0 -1471c0,-361 295,-656 656,-656z"/><path class="fil6" d="M46655 48519l8913 26 12 349c1,46 -39,85 -85,85l-8744 -26c-46,0 -84,-38 -85,-85l-11 -349z"/><path class="fil9" d="M45881 39287l10455 0c269,0 341,241 298,526l-480 3219c-43,285 -59,432 -327,432l-9418 0c-269,0 -295,-101 -336,-387l-476 -3264c-41,-286 15,-526 284,-526z"/><path class="fil6" d="M50052 39977c0,0 410,165 212,773 -197,608 -253,898 -13,1178 241,280 -156,296 -369,133 -915,-699 -423,-2230 170,-2084zm2056 1228c0,0 84,434 -534,597 -246,66 -437,122 -585,190 205,-212 327,-596 311,-994 371,-109 721,-47 808,207zm-1359 939c-81,76 -136,168 -171,287 -98,332 -305,68 -314,-187 85,-20 147,-68 157,-141 26,17 55,32 86,45 85,21 166,18 242,-4zm-126 604c0,0 -83,-435 534,-598 617,-164 892,-275 996,-629 105,-354 334,-29 313,238 -91,1148 -1644,1566 -1843,989zm-81 -686c0,0 -410,-165 -213,-773 198,-608 254,-898 13,-1178 -240,-280 157,-296 369,-133 915,699 423,2230 -169,2084z"/><path class="fil10" d="M2048 3015l0 29047 45231 0c106,-159 286,-263 491,-263l6689 0 0 -28784c0,-528 -439,-967 -968,-967l-50476 0c-528,0 -967,439 -967,967z"/><path class="fil1" d="M2048 3015l0 29047 11905 0 0 -30014 -10938 0c-528,0 -967,439 -967,967z"/><g><path class="fil11" d="M4526 5209l6120 0 0 750 -6120 0 0 -750zm0 18057l6120 0 0 751 -6120 0 0 -751zm0 -3611l5135 0 0 750 -5135 0 0 -750zm0 -3612l6120 0 0 751 -6120 0 0 -751zm0 -3611l3822 0 0 750 -3822 0 0 -750zm0 -3612l4197 0 0 751 -4197 0 0 -751z"/><rect class="fil5" height="742" width="5676" x="14399" y="5140"/><rect class="fil8" height="742" width="8424" x="21151" y="5140"/><rect class="fil12" height="742" width="5676" x="14399" y="7543"/><rect class="fil8" height="742" width="10152" x="21151" y="7543"/><rect class="fil5" height="742" width="1475" x="32104" y="7543"/><rect class="fil8" height="742" width="3752" x="14399" y="9947"/><rect class="fil12" height="742" width="7581" x="19247" y="9947"/><rect class="fil5" height="742" width="5676" x="27904" y="9947"/><rect class="fil5" height="742" width="5676" x="14399" y="12350"/><rect class="fil8" height="742" width="11923" x="21489" y="12350"/><rect class="fil12" height="742" width="4974" x="34001" y="12350"/><rect class="fil8" height="742" width="6974" x="14399" y="14753"/><rect class="fil12" height="742" width="6974" x="22695" y="14753"/><rect class="fil5" height="742" width="6974" x="30990" y="14753"/><rect class="fil5" height="742" width="5676" x="14399" y="17157"/><rect class="fil12" height="742" width="3404" x="21151" y="17157"/><rect class="fil8" height="742" width="3404" x="25201" y="17157"/></g></g></g></svg>
