<?xml version="1.0" ?><!DOCTYPE svg  PUBLIC '-//W3C//DTD SVG 1.1//EN'  'http://www.w3.org/Graphics/SVG/1.1/DTD/svg11.dtd'><svg height="174px" style="shape-rendering:geometricPrecision; text-rendering:geometricPrecision; image-rendering:optimizeQuality; fill-rule:evenodd; clip-rule:evenodd" version="1.1" viewBox="0 0 30355 29358" width="180px" xml:space="preserve" xmlns="http://www.w3.org/2000/svg" xmlns:xlink="http://www.w3.org/1999/xlink"><defs><style type="text/css">
   <![CDATA[
    .fil7 {fill:#596366}
    .fil1 {fill:#6B7F9E}
    .fil11 {fill:#75BD80}
    .fil10 {fill:#83CF8F}
    .fil5 {fill:#8597B1}
    .fil0 {fill:#ECF0F1}
    .fil2 {fill:#F0BA7D}
    .fil3 {fill:#F2F2F2}
    .fil6 {fill:#FED298}
    .fil4 {fill:#FF7069}
    .fil8 {fill:white}
    .fil9 {fill:#6C7678;fill-rule:nonzero}
   ]]>
  </style></defs><g id="Layer_x0020_1"><g id="_435010792"><circle class="fil0" cx="14920" cy="11134" r="10500"/><path class="fil1" d="M13258 12973l-1473 426 -3035 720c0,0 -370,-259 -596,434 -102,313 -390,1932 -674,3616 1977,1761 4583,2832 7440,2832 2857,0 5463,-1071 7441,-2832 -285,-1684 -573,-3303 -675,-3616 -225,-693 -596,-434 -596,-434l-3035 -720 -1473 -426 -1662 74 -1662 -74z"/><polygon class="fil2" points="13536,10236 14086,10236 15754,10236 16304,10236 16528,12623 16926,12950 17766,13497 14920,20374 12075,13497 12914,12950 13313,12623 "/><polygon class="fil3" points="12624,13126 12078,13304 14920,20374 17788,13320 17205,13132 15778,14162 14067,14162 "/><polygon class="fil4" points="14408,14068 14604,14563 14168,20203 14920,20792 15672,20203 15236,14563 15432,14068 14920,14047 "/><path class="fil5" d="M12663 13113l-875 286 -168 2272c0,0 46,187 185,170l790 304c0,0 51,53 5,120l-676 473 1927 4212c345,33 694,50 1047,51l-2235 -7888zm3327 7837l1926 -4212 -676 -473c-46,-67 6,-120 6,-120l789 -304c139,17 185,-170 185,-170l-167 -2264 -848 -275 -2262 7869c353,-1 702,-18 1047,-51z"/><g><path class="fil6" d="M18143 6004c0,207 79,410 73,608 741,-131 383,1972 -36,2261 -33,23 -116,-28 -185,-70 -145,773 -1387,2840 -2177,3710 -219,242 -1560,238 -1777,9 -809,-850 -2050,-2941 -2196,-3719 -69,42 -151,93 -184,70 -420,-289 -778,-2392 -37,-2261 -5,-198 74,-401 74,-608 41,-1633 1590,-2448 3222,-2455 1632,7 3182,822 3223,2455z"/><path class="fil7" d="M17149 3911c234,-26 1079,221 1180,1074 101,854 53,1640 53,1640 0,0 -495,119 -557,604 -62,484 -18,484 -18,484l-179 -38 -128 -831c-740,-443 6,-1099 -735,-1252 -2000,1360 -3764,1128 -4560,487 0,0 186,670 42,909 -143,239 -57,615 -57,615l-186 -9c0,0 33,-986 -379,-982 -1570,-2473 3398,-5546 5524,-2701z"/></g><g><path class="fil8" d="M13293 12282c58,4 -677,853 -677,853l626 2193 1678 -1281c-923,-464 -1474,-1064 -1627,-1765z"/><path class="fil8" d="M16547 12282c-58,4 677,853 677,853l-626 2193 -1678 -1281c923,-464 1474,-1064 1627,-1765z"/></g><path class="fil1" d="M2933 12762l-748 216 -1540 366c0,0 -188,-132 -303,220 -51,159 -197,981 -342,1835 1004,894 2327,1437 3777,1437 735,0 1438,-139 2082,-394 -652,-1111 -1106,-2353 -1313,-3677l-769 34 -844 -37z"/><path class="fil2" d="M3074 11373l279 0 847 0 223 0c20,910 156,1792 394,2631l-1040 2514 -1445 -3490 426 -278 203 -166 113 -1211z"/><path class="fil3" d="M2611 12840l-277 90 1443 3588 1033 -2541c-83,-293 -152,-591 -209,-893l-389 282 -868 0 -733 -526z"/><polygon class="fil4" points="3517,13317 3616,13569 3395,16431 3777,16730 4158,16431 3937,13569 4036,13317 3777,13307 "/><path class="fil5" d="M2631 12833l-444 145 -86 1153c0,0 24,95 94,86l401 155c0,0 27,27 3,60l-343 241 978 2138c175,16 352,25 531,25l-1134 -4003zm1688 3978l832 -1819c-176,-446 -322,-907 -436,-1380l-927 3224c179,0 356,-9 531,-25z"/><g><path class="fil6" d="M2141 8910c0,112 -40,223 -37,330 -377,-71 -195,1073 18,1230 17,13 59,-15 94,-38 74,421 704,1545 1105,2018 111,131 792,129 902,5 76,-85 159,-194 245,-317 -31,-330 -48,-665 -48,-1004 0,-1119 175,-2196 499,-3207 -305,-233 -718,-351 -1142,-353 -829,4 -1615,447 -1636,1336z"/><path class="fil7" d="M2645 7771c-119,-14 -547,120 -599,584 -51,465 -27,892 -27,892 0,0 252,65 283,329 32,263 9,263 9,263l91 -21 65 -451c376,-241 -3,-598 373,-682 675,493 1298,601 1758,516 101,-545 245,-1075 427,-1586 -670,-560 -1761,-730 -2380,156z"/></g><g><path class="fil8" d="M2951 12411c29,2 -344,433 -344,433l318 1113 852 -650c-469,-236 -749,-540 -826,-896z"/><path class="fil8" d="M4720 13635l-92 322 -851 -650c369,-186 621,-415 749,-678 49,341 114,676 194,1006z"/></g><path class="fil1" d="M25735 12762l-463 134c-203,1203 -611,2337 -1187,3365 752,368 1599,575 2493,575 1450,0 2773,-543 3777,-1437 -145,-854 -291,-1676 -342,-1835 -115,-352 -303,-220 -303,-220l-1540 -366 -748 -216 -844 37 -843 -37z"/><path class="fil2" d="M25876 11373l279 0 847 0 279 0 113 1211 203 166 426 278 -1445 3490 -1365 -3300c18,-91 36,-183 52,-275l296 -193 202 -166 113 -1211z"/><path class="fil3" d="M25413 12840l-139 45c-15,90 -31,179 -48,268l1352 3365 1456 -3580 -296 -96 -724 524 -868 0 -733 -526z"/><polygon class="fil4" points="26319,13317 26418,13569 26197,16431 26578,16730 26960,16431 26739,13569 26838,13317 26578,13307 "/><path class="fil5" d="M25433 12833l-159 52c-76,453 -181,896 -313,1327 11,5 22,7 36,5l401 155c0,0 26,27 3,60l-343 241 978 2138c175,16 352,25 531,25l-1134 -4003zm1688 3978l978 -2138 -343 -241c-24,-33 3,-60 3,-60l401 -155c70,9 94,-86 94,-86l-85 -1149 -431 -140 -1148 3994c179,0 356,-9 531,-25z"/><g><path class="fil6" d="M25417 11366c223,410 496,836 706,1084 111,131 792,129 902,5 410,-462 1040,-1600 1114,-2023 35,23 77,51 94,38 213,-157 395,-1301 18,-1230 3,-107 -37,-218 -37,-330 -21,-889 -807,-1332 -1636,-1336 -647,3 -1269,275 -1520,818 236,874 362,1793 362,2742 0,77 -1,155 -3,232z"/><path class="fil7" d="M25447 7771c-86,-10 -338,59 -488,277 132,428 236,868 312,1317 372,-241 -4,-596 371,-680 1015,740 1911,614 2315,265 0,0 -95,365 -22,495 73,129 29,334 29,334l95 -5c0,0 -17,-536 192,-534 796,-1345 -1724,-3016 -2804,-1469z"/></g><g><path class="fil8" d="M25753 12411c29,2 -344,433 -344,433l318 1113 851 -650c-468,-236 -748,-540 -825,-896z"/><path class="fil8" d="M27404 12411c-29,2 344,433 344,433l-318 1113 -852 -650c469,-236 749,-540 826,-896z"/></g><path class="fil7" d="M15701 22157l0 2040 -1562 0 0 -2040c258,19 519,28 781,28 262,0 523,-9 781,-28z"/><path class="fil9" d="M14920 0c3074,0 5858,1246 7873,3261 2014,2015 3261,4798 3261,7873 0,3074 -1247,5857 -3261,7872 -2015,2015 -4799,3261 -7873,3261 -3074,0 -5858,-1246 -7873,-3261 -2014,-2015 -3260,-4798 -3260,-7872 0,-3075 1246,-5858 3260,-7873 2015,-2015 4799,-3261 7873,-3261zm6977 4157c-1785,-1786 -4252,-2890 -6977,-2890 -2725,0 -5191,1104 -6977,2890 -1785,1785 -2890,4252 -2890,6977 0,2724 1105,5191 2890,6977 1786,1785 4252,2889 6977,2889 2725,0 5192,-1104 6977,-2889 1786,-1786 2890,-4253 2890,-6977 0,-2725 -1104,-5192 -2890,-6977z"/><path class="fil10" d="M13468 24197l2904 0c320,0 581,261 581,580l0 4581 -4066 0 0 -4581c0,-319 261,-580 581,-580z"/><path class="fil11" d="M12887 24911l4066 0 0 317 -4066 0 0 -317zm0 615l4066 0 0 316 -4066 0 0 -316z"/><path class="fil8" d="M11887 20551c-3943,-1313 -6787,-5033 -6787,-9417 0,-4385 2844,-8105 6787,-9418 -3405,1764 -5732,5319 -5732,9417 0,4100 2327,7655 5732,9418z"/><path class="fil8" d="M18991 19631c3166,-1185 5449,-4541 5449,-8497 0,-3957 -2283,-7313 -5449,-8498 362,211 708,450 1038,715 2404,1541 4025,4449 4025,7783 0,3333 -1621,6241 -4026,7783 -329,264 -676,503 -1037,714z"/></g></g></svg>