<?xml version="1.0" ?><!DOCTYPE svg  PUBLIC '-//W3C//DTD SVG 1.1//EN'  'http://www.w3.org/Graphics/SVG/1.1/DTD/svg11.dtd'><svg height="180px" style="shape-rendering:geometricPrecision; text-rendering:geometricPrecision; image-rendering:optimizeQuality; fill-rule:evenodd; clip-rule:evenodd" version="1.1" viewBox="0 0 19672 21111" width="167px" xml:space="preserve" xmlns="http://www.w3.org/2000/svg" xmlns:xlink="http://www.w3.org/1999/xlink"><defs><style type="text/css">
   <![CDATA[
    .fil2 {fill:#596366}
    .fil1 {fill:#B9C1C9}
    .fil0 {fill:#E5E8ED}
    .fil4 {fill:#FCCE44}
    .fil3 {fill:#FFE356}
    .fil5 {fill:white}
   ]]>
  </style></defs><g id="Layer_x0020_1"><g id="_427775744"><g><g><path class="fil0" d="M7420 6307l480 -796 1374 623 -283 887c272,184 527,393 760,624l815 -450 878 1227 -687 626c143,292 259,600 346,921l930 18 147 1501 -908 199c-23,332 -77,657 -160,971l795 480 -622 1374 -887 -282c-184,272 -393,527 -624,760l449 814 -1226 879 -626 -687c-292,142 -600,259 -921,345l-18 931 -1502 147 -198 -909c-332,-22 -657,-77 -971,-160l-480 796 -1374 -623 282 -887c-272,-183 -527,-392 -760,-624l-815 450 -878 -1226 687 -626c-142,-292 -259,-600 -345,-922l-931 -18 -147 -1501 909 -198c22,-333 77,-658 160,-972l-796 -480 623 -1374 886 283c184,-272 393,-527 625,-760l-450 -815 1226 -878 626 687c292,-143 600,-259 922,-346l18 -930 1501 -147 198 908c332,23 657,77 972,160zm-1527 3011c1110,-109 2099,703 2208,1813 109,1111 -703,2100 -1813,2209 -1111,109 -2100,-703 -2209,-1814 -109,-1110 703,-2099 1814,-2208z"/><path class="fil1" d="M5814 8517c1553,-152 2935,983 3088,2536 152,1552 -983,2935 -2536,3087 -1552,153 -2935,-982 -3087,-2535 -153,-1553 982,-2935 2535,-3088zm79 801c1110,-109 2099,703 2208,1813 109,1111 -703,2100 -1813,2209 -1111,109 -2100,-703 -2209,-1814 -109,-1110 703,-2099 1814,-2208z"/></g><g><path class="fil0" d="M17817 16473l187 -310 535 242 -110 346c106,71 206,153 296,243l318 -175 342 477 -268 244c56,114 101,234 135,359l362 7 58 585 -354 78c-9,129 -30,255 -63,378l310 187 -242 535 -346 -110c-71,106 -153,205 -243,296l175 317 -477 343 -244 -268c-114,55 -234,101 -359,135l-7 362 -585 57 -77 -354c-130,-8 -256,-30 -379,-62l-187 310 -535 -243 110 -345c-106,-72 -205,-153 -296,-243l-317 175 -342 -478 267 -244c-55,-113 -101,-233 -134,-359l-363 -7 -57 -584 354 -78c9,-129 30,-256 62,-378l-310 -187 243 -535 345 110c72,-106 153,-205 243,-296l-175 -318 478 -342 244 268c113,-56 233,-101 359,-135l7 -362 584 -57 78 354c129,8 256,29 378,62zm-595 1173c433,-43 818,273 861,706 42,433 -274,818 -707,860 -432,43 -818,-274 -860,-706 -42,-433 274,-818 706,-860z"/><path class="fil1" d="M17192 17334c605,-60 1143,382 1203,987 59,605 -383,1144 -988,1203 -605,60 -1144,-383 -1203,-988 -59,-604 383,-1143 988,-1202zm30 312c433,-43 818,273 861,706 42,433 -274,818 -707,860 -432,43 -818,-274 -860,-706 -42,-433 274,-818 706,-860z"/></g></g><g><path class="fil2" d="M10416 20388l3324 0c41,940 -3357,988 -3324,0z"/><path class="fil3" d="M11898 0c3919,0 7096,3247 7096,7252 0,5610 -3610,3495 -3610,9643 0,396 -317,720 -705,720l-5202 0c-389,0 -705,-324 -705,-720 0,-6048 -3971,-3629 -3971,-9643 0,-4005 3177,-7252 7097,-7252z"/><path class="fil0" d="M9614 17615l4928 0 0 2066c0,389 -318,707 -707,707l-3514 0c-389,0 -707,-318 -707,-707l0 -2066z"/><path class="fil1" d="M9614 19150l4928 0 0 146 -4928 0 0 -146zm0 365l4928 0 0 147 -4928 0 0 -147z"/><path class="fil4" d="M18974 7928c-103,832 -538,2302 -2223,3644 -2532,2016 -1622,4831 -1916,5437 -284,587 -2141,606 -2256,606l2100 0c388,0 705,-324 705,-720 0,-5886 3308,-4199 3590,-8967z"/><path class="fil4" d="M9530 8352c190,0 343,197 343,342 0,146 -45,194 -116,257l1145 3307 8 23 0 20 0 5314 -262 0 0 -5294 -1137 -3284c-181,-11 -323,-157 -323,-343 0,-186 153,-342 342,-342zm4735 0c-190,0 -343,197 -343,342 0,146 45,194 116,257l-1145 3307 -8 23 0 20 0 5314 262 0 0 -5294 1137 -3284c181,-11 323,-157 323,-343 0,-186 -153,-342 -342,-342z"/><polygon class="fil5" points="12297,7893 11956,8382 14445,8053 11395,9001 11513,8427 9983,8554 "/><path class="fil1" d="M9614 18167l4928 0 0 146 -4928 0 0 -146zm0 365l4928 0 0 147 -4928 0 0 -147z"/></g></g></g></svg>