<?xml version="1.0" ?><!DOCTYPE svg  PUBLIC '-//W3C//DTD SVG 1.1//EN'  'http://www.w3.org/Graphics/SVG/1.1/DTD/svg11.dtd'><svg height="151px" style="shape-rendering:geometricPrecision; text-rendering:geometricPrecision; image-rendering:optimizeQuality; fill-rule:evenodd; clip-rule:evenodd" version="1.1" viewBox="0 0 57187 47933" width="180px" xml:space="preserve" xmlns="http://www.w3.org/2000/svg" xmlns:xlink="http://www.w3.org/1999/xlink"><defs><style type="text/css">
   <![CDATA[
    .fil0 {fill:#596366}
    .fil1 {fill:#6B7F9E}
    .fil3 {fill:#B9C1C9}
    .fil13 {fill:#C6CBD6}
    .fil4 {fill:#CCD2D9}
    .fil7 {fill:#E4E7ED}
    .fil2 {fill:#E5E8ED}
    .fil5 {fill:#ECF0F1}
    .fil8 {fill:#F7635B}
    .fil10 {fill:#FCD34E}
    .fil6 {fill:#FF7069}
    .fil9 {fill:#FFE356}
    .fil12 {fill:white}
    .fil11 {fill:#37414C;fill-rule:nonzero}
   ]]>
  </style></defs><g id="Layer_x0020_1"><g id="_450704976"><path class="fil0" d="M3051 0l51085 0c1678,0 3051,1373 3051,3051l0 31468 -57187 0 0 -31468c0,-1678 1373,-3051 3051,-3051z"/><path class="fil1" d="M2072 32447l53042 0 0 -29396c0,-534 -444,-979 -979,-979l-51084 0c-534,0 -979,445 -979,979l0 29396z"/><path class="fil2" d="M57186 34520l0 3337c0,1678 -1513,3051 -3363,3051l-50459 0c-1850,0 -3364,-1373 -3364,-3051l0 -3337 57186 0z"/><circle class="fil3" cx="28593" cy="37580" r="1050"/><polygon class="fil2" points="35188,45709 40040,47263 17146,47263 21060,45709 21060,40908 35188,40908 "/><polygon class="fil4" points="21060,45709 35188,45709 40040,47263 40040,47933 28593,47933 17146,47933 17146,47263 "/><path class="fil5" d="M2098 2083l5888 0 0 3108c0,1332 -1325,2422 -2944,2422l0 0c-1619,0 -2944,-1090 -2944,-2422l0 -3108z"/><path class="fil6" d="M7986 2083l5888 0 0 3108c0,1332 -1325,2422 -2944,2422l0 0c-1619,0 -2944,-1090 -2944,-2422l0 -3108z"/><path class="fil5" d="M13874 2083l5888 0 0 3108c0,1332 -1325,2422 -2944,2422l0 0c-1620,0 -2944,-1090 -2944,-2422l0 -3108z"/><path class="fil6" d="M19762 2083l5887 0 0 3108c0,1332 -1325,2422 -2943,2422l0 0c-1620,0 -2944,-1090 -2944,-2422l0 -3108z"/><path class="fil5" d="M25649 2083l5888 0 0 3108c0,1332 -1325,2422 -2944,2422l0 0c-1619,0 -2944,-1090 -2944,-2422l0 -3108z"/><path class="fil6" d="M31537 2083l5888 0 0 3108c0,1332 -1325,2422 -2944,2422l0 0c-1619,0 -2944,-1090 -2944,-2422l0 -3108z"/><path class="fil5" d="M37425 2083l5888 0 0 3108c0,1332 -1325,2422 -2945,2422l0 0c-1619,0 -2943,-1090 -2943,-2422l0 -3108z"/><path class="fil6" d="M43313 2083l5887 0 0 3108c0,1332 -1325,2422 -2943,2422l0 0c-1620,0 -2944,-1090 -2944,-2422l0 -3108z"/><path class="fil5" d="M49200 2083l5888 0 0 3108c0,1332 -1325,2422 -2944,2422l0 0c-1619,0 -2944,-1090 -2944,-2422l0 -3108z"/><rect class="fil7" height="902" width="5888" x="2098" y="2083"/><rect class="fil8" height="902" width="5888" x="7986" y="2083"/><rect class="fil7" height="902" width="5888" x="13873" y="2083"/><rect class="fil8" height="902" width="5888" x="19761" y="2083"/><rect class="fil7" height="902" width="5888" x="25648" y="2083"/><rect class="fil8" height="902" width="5888" x="31536" y="2083"/><rect class="fil7" height="902" width="5888" x="37424" y="2083"/><rect class="fil8" height="902" width="5888" x="43311" y="2083"/><rect class="fil7" height="902" width="5888" x="49199" y="2083"/><g><rect class="fil9" height="7804" rx="2899" ry="2899" width="16947" x="33924" y="16206"/><path class="fil10" d="M50871 20220l0 892c0,1594 -1305,2899 -2899,2899l-11149 0c-1595,0 -2899,-1305 -2899,-2899l0 -892 16947 0z"/><path class="fil11" d="M40069 19943c380,-143 599,-447 599,-794 0,-366 -191,-908 -1298,-908 -323,0 -647,33 -851,76l0 3579c157,19 399,43 723,43 599,0 998,-109 1240,-342 133,-124 314,-347 314,-732 0,-509 -347,-813 -727,-908l0 -14zm-1003 -157l0 -1098c66,-14 176,-29 356,-29 342,0 694,110 694,547 0,337 -275,580 -713,580l-337 0zm0 408l318 0c423,0 837,176 837,656 0,480 -380,666 -822,666 -143,0 -252,-5 -333,-19l0 -1303zm4871 -1929l-551 0 0 2204c0,724 -285,1037 -741,1037 -418,0 -718,-309 -718,-1037l0 -2204 -551 0 0 2170c0,1085 503,1523 1250,1523 774,0 1311,-456 1311,-1537l0 -2156zm2553 0l-433 947c-118,271 -228,513 -318,757l-10 0c-95,-258 -199,-486 -318,-752l-428 -952 -623 0 1070 2117 0 1524 551 0 0 -1538 1127 -2103 -618 0z"/><rect class="fil12" height="91464" transform="matrix(0.0316935 -0.0141579 0.0141581 0.0316932 37406 12723.1)" width="20878"/><rect class="fil12" height="91464" transform="matrix(0.0347101 0.000366537 -0.00036654 0.0347098 42066.4 11296.8)" width="20878"/><rect class="fil12" height="91464" transform="matrix(0.0320025 0.0134448 -0.0134449 0.0320022 46720.4 12414.1)" width="20878"/><rect class="fil12" height="91464" transform="matrix(0.0316935 0.0141579 0.0141581 -0.0316932 37406 27223.2)" width="20878"/><rect class="fil12" height="91464" transform="matrix(0.0347101 -0.000366537 -0.00036654 -0.0347098 42066.4 28649.6)" width="20878"/><rect class="fil12" height="91464" transform="matrix(0.0320025 -0.0134448 -0.0134449 -0.0320022 46720.4 27532.2)" width="20878"/><polygon class="fil5" points="47556,20027 47556,20027 51121,22186 49783,22305 51392,25086 50087,25823 48491,23067 47777,24104 "/><polygon class="fil12" points="47556,20027 47556,20027 51121,22186 49783,22305 51392,25086 50699,25487 47559,20064 "/><path class="fil5" d="M29676 16736c-2984,-311 -5970,-620 -8954,-932 -2984,-311 -5970,-622 -8956,-933 -505,-53 -822,342 -703,877 402,1804 805,3609 1207,5412 402,1802 804,3607 1206,5410 120,534 508,971 865,971 2102,0 4205,0 6306,0l4633 0 0 690c0,101 -82,183 -183,183l-9595 0c-101,0 -183,82 -183,183l0 605c0,101 82,183 183,183l9778 0 787 0c101,0 183,-82 183,-183l0 -788 0 -873 702 0c356,0 750,-365 875,-814 424,-1513 847,-3027 1270,-4540 422,-1511 848,-3026 1270,-4539 125,-449 -186,-859 -691,-912zm-2060 1229c-18,-1 -38,-4 -55,-6 -214,-20 -416,129 -455,333 -226,1210 -453,2418 -679,3627 -226,1209 -449,2418 -675,3627 -38,202 65,369 229,373 16,0 29,1 43,1 166,3 337,-158 379,-358 254,-1199 507,-2398 761,-3597 253,-1199 507,-2399 762,-3598 43,-202 -99,-382 -310,-402zm-14015 -1263c-18,-2 -36,-5 -56,-7 -211,-20 -353,152 -311,382 246,1377 492,2754 738,4129 246,1374 494,2749 741,4124 41,230 211,422 377,425 14,1 29,0 41,0 166,4 270,-181 233,-408 -218,-1366 -439,-2731 -657,-4096 -219,-1365 -434,-2732 -654,-4098 -37,-228 -239,-430 -452,-451zm2782 88c-18,-2 -37,-4 -55,-6 -215,-19 -367,147 -342,371 153,1343 304,2686 457,4029 151,1342 303,2683 456,4025 25,224 182,411 347,415 14,0 30,0 44,0 166,3 285,-175 264,-399 -125,-1331 -249,-2664 -373,-3995 -125,-1333 -250,-2666 -373,-3998 -21,-224 -211,-422 -425,-442zm2814 268c-18,-2 -37,-4 -55,-5 -215,-19 -381,143 -371,360 58,1311 116,2619 174,3928 57,1308 114,2617 171,3925 10,219 154,402 320,405 14,0 30,1 42,1 167,4 299,-171 294,-389 -30,-1298 -59,-2597 -89,-3896 -29,-1299 -60,-2598 -89,-3899 -5,-216 -183,-410 -397,-430zm2815 268c-19,-2 -38,-3 -56,-5 -215,-20 -395,136 -401,349 -37,1277 -73,2554 -110,3829 -38,1275 -75,2551 -111,3826 -6,213 124,390 290,393 16,1 30,1 44,1 166,4 309,-166 320,-377 64,-1265 130,-2531 195,-3797 65,-1265 128,-2532 194,-3798 11,-212 -152,-401 -365,-421zm2814 267c-20,-2 -40,-4 -58,-6 -211,-19 -407,135 -428,342 -132,1243 -262,2485 -393,3727 -131,1244 -265,2484 -395,3726 -22,209 97,381 261,385 15,0 31,1 45,1 164,4 323,-162 349,-369 159,-1232 318,-2464 478,-3696 160,-1232 319,-2465 478,-3698 27,-207 -126,-392 -337,-412z"/><path class="fil13" d="M29958 17498l-648 2246 -1642 -163c86,-405 172,-809 258,-1214 43,-202 -99,-382 -310,-402 -18,-1 -38,-4 -55,-6 -214,-20 -416,129 -455,333 -75,404 -151,807 -226,1210l-1886 -187 169 -1310c27,-207 -126,-392 -337,-412 -20,-2 -40,-4 -58,-6 -211,-19 -407,135 -428,342 -47,435 -93,871 -139,1307l-1891 -188c22,-433 44,-867 67,-1301 11,-212 -152,-401 -365,-421 -19,-2 -38,-3 -56,-5 -215,-20 -395,136 -401,349 -12,434 -25,867 -37,1300l-1895 -188c-10,-431 -19,-863 -29,-1294 -5,-216 -183,-410 -397,-430 -18,-2 -37,-4 -55,-5 -215,-19 -381,143 -371,360 19,430 38,860 57,1290l-1901 -189c-40,-428 -79,-855 -119,-1282 -21,-224 -211,-422 -425,-442 -18,-2 -37,-4 -55,-6 -215,-19 -367,147 -342,371 49,426 97,853 145,1280l-1903 -190c-58,-363 -116,-727 -175,-1092 -37,-228 -239,-430 -452,-451 -18,-2 -36,-5 -56,-7 -211,-20 -353,152 -311,382 65,363 130,726 195,1089l-1357 -134 -1009 -2284 18895 1750z"/><path class="fil5" d="M30693 16466l-23530 -2255 -8 -3259c-1,-201 -163,-369 -363,-374l-631 -16c-200,-5 -367,154 -366,355l11 4299c1,201 162,369 363,374l27 1c37,17 78,27 121,32l24194 2318c218,21 418,-138 445,-355l84 -685c26,-217 -130,-414 -347,-435z"/><path class="fil12" d="M30429 16757l-16149 -1595c-115,-12 -218,73 -229,188l0 0c-11,115 73,219 188,230l16149 1595c115,11 218,-73 230,-188l0 -1c11,-115 -74,-218 -189,-229z"/></g><rect class="fil3" height="482" width="14128" x="21061" y="40908"/></g></g></svg>