<?xml version="1.0" ?><!DOCTYPE svg  PUBLIC '-//W3C//DTD SVG 1.1//EN'  'http://www.w3.org/Graphics/SVG/1.1/DTD/svg11.dtd'><svg height="173px" style="shape-rendering:geometricPrecision; text-rendering:geometricPrecision; image-rendering:optimizeQuality; fill-rule:evenodd; clip-rule:evenodd" version="1.1" viewBox="0 0 34634 33346" width="180px" xml:space="preserve" xmlns="http://www.w3.org/2000/svg" xmlns:xlink="http://www.w3.org/1999/xlink"><defs><style type="text/css">
   <![CDATA[
    .fil0 {fill:#6C7678}
    .fil1 {fill:#83CF8F}
    .fil7 {fill:#B9C1C9}
    .fil8 {fill:#C6CBD6}
    .fil10 {fill:#CCD2D9}
    .fil9 {fill:#E5E8ED}
    .fil2 {fill:#E7E9EF}
    .fil3 {fill:#F2F2F2}
    .fil4 {fill:#FFE356}
    .fil5 {fill:#6B7F9E;fill-rule:nonzero}
    .fil6 {fill:#B9C1C9;fill-rule:nonzero}
   ]]>
  </style></defs><g id="Layer_x0020_1"><g id="_469477600"><g><path class="fil0" d="M1848 4249l30939 0c1016,0 1847,832 1847,1848l0 19059 -34634 0 0 -19059c0,-1016 832,-1848 1848,-1848z"/><path class="fil1" d="M1255 23901l32125 0 0 -17803c0,-324 -270,-594 -593,-594l-30939 0c-324,0 -593,270 -593,594l0 17803z"/><path class="fil2" d="M34634 25156l0 2021c0,1017 -916,1848 -2037,1848l-30560 0c-1120,0 -2037,-831 -2037,-1848l0 -2021 34634 0z"/><polygon class="fil3" points="7721,0 23363,0 26913,3551 26913,23901 7721,23901 "/><polygon class="fil4" points="23363,0 26913,3551 23363,3551 "/><polygon class="fil2" points="26913,7101 23363,3551 26913,3551 "/></g><path class="fil5" d="M23904 22088l-847 -1618 1150 -602 -3482 -2743 272 4424 1150 -602 847 1617 910 -476zm-423 -809m151 -1110m-1166 -1672m-1605 840m711 1911m998 508m879 570"/><path class="fil6" d="M17472 16933c-106,-48 -152,-173 -104,-279 49,-105 174,-151 279,-103l1520 701c106,49 152,174 104,279 -49,106 -174,152 -279,103l-1520 -701zm1793 1838c103,-51 229,-9 281,94 52,104 10,230 -94,282l-2120 1058c-104,52 -230,10 -282,-94 -51,-103 -9,-229 94,-281l2121 -1059zm5862 -2712c104,-51 230,-9 282,94 51,104 9,230 -94,282l-2121 1059c-104,51 -230,9 -281,-94 -52,-104 -10,-230 94,-282l2120 -1059zm-2819 -1598c23,-113 133,-187 247,-165 114,23 188,134 165,247l-327 1642c-22,114 -133,188 -247,165 -113,-22 -187,-133 -165,-247l327 -1642zm-3075 -272c-43,-108 9,-230 116,-273 108,-44 231,8 274,116l901 2238c43,108 -9,230 -116,274 -108,43 -230,-9 -274,-117l-901 -2238z"/><path class="fil7" d="M9208 5246l14669 0 0 403 -14669 0 0 -403zm0 4340l0 0 14669 0 0 403 -14669 0 0 -403zm0 747l0 0 14669 0 0 403 -14669 0 0 -403zm0 747l0 0 14669 0 0 403 -14669 0 0 -403zm0 748l0 0 14670 0 0 403 -14670 0 0 -403zm0 -5835l0 0 14669 0 0 403 -14669 0 0 -403zm0 747l0 0 14669 0 0 403 -14669 0 0 -403zm0 748l0 0 14670 0 0 403 -14670 0 0 -403zm0 747l0 0 11236 0 0 403 -11236 0 0 -403zm0 4340l0 0 11236 0 0 403 -11236 0 0 -403z"/><g><circle class="fil8" cx="17317" cy="26978" r="646"/><g><polygon class="fil9" points="21374,31978 24359,32935 10276,32935 12684,31978 12684,29025 21374,29025 "/><polygon class="fil10" points="12684,31978 21374,31978 24359,32935 24359,33346 17317,33346 10276,33346 10276,32935 "/></g></g><rect class="fil7" height="292" width="8691" x="12684" y="29025"/></g></g></svg>