<?xml version="1.0" ?><!DOCTYPE svg  PUBLIC '-//W3C//DTD SVG 1.1//EN'  'http://www.w3.org/Graphics/SVG/1.1/DTD/svg11.dtd'><svg height="176px" style="shape-rendering:geometricPrecision; text-rendering:geometricPrecision; image-rendering:optimizeQuality; fill-rule:evenodd; clip-rule:evenodd" version="1.1" viewBox="0 0 22560 22098" width="180px" xml:space="preserve" xmlns="http://www.w3.org/2000/svg" xmlns:xlink="http://www.w3.org/1999/xlink"><defs><style type="text/css">
   <![CDATA[
    .fil8 {fill:#807D7D}
    .fil4 {fill:#83CF8F}
    .fil5 {fill:#B9C1C9}
    .fil11 {fill:#C6CBD6}
    .fil0 {fill:#F2F2F2}
    .fil6 {fill:#FF7069}
    .fil10 {fill:#FFE356}
    .fil9 {fill:white}
    .fil7 {fill:#807D7D;fill-rule:nonzero}
    .fil3 {fill:#83CF8F;fill-rule:nonzero}
    .fil2 {fill:#B9C1C9;fill-rule:nonzero}
    .fil1 {fill:#FF7069;fill-rule:nonzero}
   ]]>
  </style></defs><g id="Layer_x0020_1"><g id="_469490800"><rect class="fil0" height="22098" width="16777"/><polygon class="fil1" points="3183,9607 5997,9542 8159,6986 8179,6962 8210,6963 12606,7028 12606,5111 12736,5111 12736,7094 12736,7159 12670,7158 8239,7093 6077,9648 6058,9670 6028,9671 3186,9737 "/><polygon class="fil2" points="3486,11999 4908,7636 4925,7584 4979,7592 9063,8180 10464,5182 10581,5237 9160,8278 9140,8322 9092,8315 5014,7728 3610,12039 "/><polygon class="fil3" points="2879,7341 4763,5788 4788,5767 4820,5775 7523,6459 9282,4211 9296,4193 9317,4188 11202,3733 11487,3004 11608,3052 11310,3812 11298,3843 11265,3851 9370,4309 7599,6572 7573,6605 7532,6595 4820,5909 2961,7441 "/><g><circle class="fil4" cx="11547" cy="3028" r="163"/><circle class="fil4" cx="11250" cy="3788" r="163"/><circle class="fil4" cx="9333" cy="4251" r="163"/><circle class="fil4" cx="7548" cy="6532" r="163"/><circle class="fil4" cx="4804" cy="5838" r="163"/></g><circle class="fil5" cx="4969" cy="7656" r="163"/><circle class="fil5" cx="9101" cy="8251" r="163"/><circle class="fil5" cx="10523" cy="5210" r="163"/><circle class="fil6" cx="12671" cy="5110" r="163"/><circle class="fil6" cx="12671" cy="7094" r="163"/><circle class="fil6" cx="8209" cy="7028" r="163"/><polygon class="fil7" points="3144,11123 7495,10530 8579,9153 8600,9126 8634,9128 11287,9287 12412,8207 12502,8300 11356,9400 11336,9420 11307,9418 8660,9260 7581,10631 7565,10652 7538,10655 3161,11251 "/><circle class="fil8" cx="8636" cy="9200" r="163"/><circle class="fil8" cx="11329" cy="9343" r="163"/><circle class="fil8" cx="12453" cy="8274" r="163"/><polygon class="fil2" points="2053,12614 2053,2922 1946,2922 1946,12614 "/><circle class="fil9" cx="18695" cy="14887" r="3865"/><circle class="fil6" cx="18695" cy="14887" r="3651"/><path class="fil4" d="M16719 11816c511,-329 1109,-534 1753,-573l223 3644 -1976 -3071z"/><path class="fil5" d="M18695 11236c243,0 479,24 708,69l-708 3582 -223 -3644c74,-5 148,-7 223,-7z"/><path class="fil10" d="M22344 15004c-62,1962 -1672,3533 -3649,3533 -2016,0 -3651,-1634 -3651,-3650 0,-1289 668,-2421 1675,-3071l1976 3071 3649 117z"/><circle class="fil6" cx="6027" cy="9606" r="163"/><polygon class="fil2" points="1939,12506 14270,12506 14270,12614 1939,12614 "/><path class="fil5" d="M7792 13174l5398 0 0 115 -5398 0 0 -115zm0 396l3083 0 0 115 -3083 0 0 -115z"/><path class="fil5" d="M7792 14428l4035 0 0 115 -4035 0 0 -115zm0 395l3083 0 0 115 -3083 0 0 -115z"/><path class="fil5" d="M7792 15682l4944 0 0 115 -4944 0 0 -115zm0 395l3083 0 0 115 -3083 0 0 -115z"/><path class="fil11" d="M7792 16936l4489 0 0 115 -4489 0 0 -115zm0 395l3083 0 0 115 -3083 0 0 -115z"/><rect class="fil5" height="604" width="604" x="6776" y="13128"/><rect class="fil6" height="604" width="604" x="6776" y="14381"/><rect class="fil4" height="604" width="604" x="6776" y="15635"/><rect class="fil8" height="604" width="604" x="6776" y="16889"/><circle class="fil8" cx="7540" cy="10593" r="163"/></g></g></svg>