<?xml version="1.0" ?><!DOCTYPE svg  PUBLIC '-//W3C//DTD SVG 1.1//EN'  'http://www.w3.org/Graphics/SVG/1.1/DTD/svg11.dtd'><svg height="177px" style="shape-rendering:geometricPrecision; text-rendering:geometricPrecision; image-rendering:optimizeQuality; fill-rule:evenodd; clip-rule:evenodd" version="1.1" viewBox="0 0 20214 31559" width="113px" xml:space="preserve" xmlns="http://www.w3.org/2000/svg" xmlns:xlink="http://www.w3.org/1999/xlink"><defs><style type="text/css">
   <![CDATA[
    .fil4 {fill:#5FDC68}
    .fil3 {fill:#6C7678}
    .fil1 {fill:#CCD2D9}
    .fil2 {fill:#E5E9EC}
    .fil0 {fill:#F2F2F2}
    .fil7 {fill:#F7635B}
    .fil6 {fill:#FF7069}
    .fil5 {fill:#5D718F;fill-rule:nonzero}
   ]]>
  </style></defs><g id="Layer_x0020_1"><g id="_417002488"><path class="fil0" d="M20214 10049c0,2704 -649,4048 -1494,5166 -473,781 -1050,1492 -1711,2114 -1104,1544 -2081,3790 -2134,8734 -2,237 -197,430 -434,430l-8668 0c-238,0 -432,-193 -434,-430 -53,-4944 -1030,-7190 -2134,-8734 -661,-622 -1237,-1333 -1711,-2114 -845,-1118 -1494,-2462 -1494,-5166 0,-13399 20214,-13399 20214,0z"/><path class="fil1" d="M6635 26493l6943 0 0 3676c0,219 -178,398 -397,398l-6148 0c-219,0 -398,-179 -398,-398l0 -3676z"/><rect class="fil2" height="839" rx="513" ry="420" width="7826" x="6194" y="27329"/><path class="fil3" d="M7302 30567l5610 0 -281 487c-184,318 -525,505 -923,505l-3202 0c-398,0 -739,-187 -923,-505l-281 -487z"/><rect class="fil2" height="839" rx="513" ry="420" width="7826" x="6194" y="28835"/><path class="fil4" d="M16956 6218c-12430,-997 -9065,10572 -3259,6968 2662,-1653 1764,-5887 3259,-6968z"/><path class="fil5" d="M15338 7288c-6732,1132 -5353,12518 -5228,17425l-669 5c-124,-4871 -1128,-16731 5897,-17430z"/><path class="fil4" d="M3272 12103c8027,-1134 6288,5818 2699,3897 -1764,-945 -1643,-3371 -2699,-3897z"/><path class="fil5" d="M9743 18753l-195 11c-710,-4897 -4125,-5283 -4137,-5288 2457,381 4143,2187 4332,5277z"/><path class="fil6" d="M6253 24559c244,0 471,72 662,197 306,-485 847,-807 1463,-807 472,0 900,189 1212,496 176,-100 379,-157 596,-157 176,0 343,37 494,105 306,-276 711,-444 1156,-444 616,0 1157,322 1464,807 190,-125 417,-197 661,-197 380,0 719,175 941,449 -14,338 -23,688 -27,1055 -2,237 -197,430 -434,430l-8668 0c-238,0 -432,-193 -434,-430 -4,-367 -13,-718 -26,-1055 221,-274 560,-449 940,-449z"/><path class="fil7" d="M14897 25123c-11,302 -19,615 -22,940 -2,237 -197,430 -434,430l-8668 0c-238,0 -432,-193 -434,-430 -3,-325 -11,-638 -22,-940 217,-180 495,-288 798,-288 254,0 489,75 686,204 317,-502 877,-836 1515,-836 489,0 932,196 1255,514 183,-104 393,-163 618,-163 182,0 355,39 511,109 317,-286 737,-460 1198,-460 638,0 1198,334 1515,836 197,-129 433,-204 686,-204 303,0 581,108 798,288z"/></g></g></svg>
