<?xml version="1.0" ?><!DOCTYPE svg  PUBLIC '-//W3C//DTD SVG 1.1//EN'  'http://www.w3.org/Graphics/SVG/1.1/DTD/svg11.dtd'><svg height="180px" style="shape-rendering:geometricPrecision; text-rendering:geometricPrecision; image-rendering:optimizeQuality; fill-rule:evenodd; clip-rule:evenodd" version="1.1" viewBox="0 0 57188 57187" width="180px" xml:space="preserve" xmlns="http://www.w3.org/2000/svg" xmlns:xlink="http://www.w3.org/1999/xlink"><defs><style type="text/css">
   <![CDATA[
    .fil0 {fill:#3A7DD7}
    .fil1 {fill:#4B8EE8}
    .fil2 {fill:#F2F2F2}
    .fil3 {fill:#FFE356}
    .fil4 {fill:#FF7069}
    .fil5 {fill:#CCD2D9}
    .fil6 {fill:#FCD34E}
    .fil7 {fill:white}
    .fil8 {fill:#CDCDCD}
    .fil9 {fill:#7EFF94}
   ]]>
  </style></defs><g id="Layer_x0020_1"><g id="_351099304"><g><path class="fil0" d="M21374 14439c11805,0 21375,9569 21375,21374 0,11805 -9570,21374 -21375,21374 -11804,0 -21374,-9569 -21374,-21374 0,-11805 9570,-21374 21374,-21374z"/><path class="fil1" d="M21374 14439c6202,0 11786,2642 15690,6861 2033,3343 3203,7268 3203,11467 0,12208 -9896,22105 -22105,22105 -3782,0 -7341,-951 -10454,-2625 -4710,-3921 -7708,-9827 -7708,-16434 0,-11805 9570,-21374 21374,-21374z"/><path class="fil9" d="M34728 19125c3975,3185 6788,7759 7701,12987 -65,-99 -131,-229 -197,-421 -417,136 -431,147 -924,230l-21 30c-196,279 10,160 -335,452 -410,345 -677,816 -1135,1095 -55,488 40,598 -82,1179 -49,214 -288,789 -569,745 -89,-16 -465,-948 -554,-1205 -151,-439 -322,-762 -431,-1266 -61,-269 -103,-784 -164,-965 -295,44 -281,231 -562,33 -198,-142 -109,-230 -219,-443 -232,-220 -472,-439 -711,-658 -185,-60 -897,44 -1198,11 -541,-50 -588,-17 -910,-450 -568,28 -520,241 -1075,-236 -363,-307 -294,-799 -821,-520 -20,449 199,549 397,756 144,159 322,269 397,483 7,5 41,208 48,235 513,33 636,-213 917,-421 274,257 7,301 404,503 314,160 253,66 458,324 103,345 -705,1282 -972,1452 -205,131 -314,55 -499,208 -273,230 34,197 -445,373 -513,186 -1020,581 -1560,613 -116,-318 -233,-640 -349,-964 -342,-1102 -328,-674 -678,-1244 -164,-247 -95,-406 -205,-625 -76,-164 -192,-235 -295,-438 -157,-312 -341,-800 -704,-751 -76,247 335,1079 438,1282 103,203 266,291 315,582 68,399 -14,350 205,618 458,554 -21,456 691,998 534,406 397,526 623,1069 349,98 1389,-367 1567,-231 212,378 -246,981 -363,1310 -383,1102 -1054,1085 -1567,1929 -280,455 -411,515 -670,1063 -295,619 595,2335 61,3053 -116,164 -493,263 -965,761 -499,543 14,449 -178,1353 -150,209 -335,220 -520,368 -68,213 -14,383 -130,647 -123,317 -143,147 -322,405 -130,203 -116,285 -267,471 -130,170 -198,219 -321,329 -596,548 -1875,565 -1985,488 -301,-258 -95,-324 -170,-685 -74,-318 -242,-584 -383,-830l-15 -26c-68,-119 -130,-235 -164,-344 -246,-779 -157,-1370 -588,-2159 -541,-1020 300,-1551 266,-2127 -13,-153 -68,-246 -82,-367 -102,-635 -164,-1205 -588,-1704 -466,-542 -404,-351 -253,-1244 191,-1024 -247,-762 -862,-789 -302,-931 -891,-477 -1479,-203 -369,170 -506,-49 -924,11 -931,126 -198,527 -1444,-460 -520,-411 -171,-203 -479,-718 -102,-186 -417,-433 -561,-619 -472,-592 89,-1189 7,-1869 -144,-1260 -349,-164 355,-1688 370,-810 931,-816 1075,-1178 123,-323 41,-554 274,-849 205,-241 499,-192 616,-570 164,-466 -151,-526 -493,-537 -144,-488 -144,-367 -34,-817 61,-252 7,-373 61,-625 137,-630 1211,-5 1520,-263 143,-268 164,-531 0,-789 -172,-257 -397,-224 -513,-471 260,-175 68,-22 294,-71 267,-60 232,-137 547,-197 281,-55 459,-313 732,-488 390,-252 205,-477 678,-553 760,-132 267,-110 349,-817 116,-44 226,-94 335,-143 240,313 -61,187 226,395 75,-44 164,-88 246,-131 -41,-341 -198,-274 -301,-696 -376,60 -513,378 -814,263 -294,-110 -308,-532 -294,-883 109,-262 656,-405 869,-471 342,-115 294,-345 609,-657 411,-412 109,5 308,-526 451,-17 240,-34 506,-170l14 -6 27 -11c158,-71 363,-87 568,-158 753,-252 1061,-126 1608,98 424,175 1704,181 1800,718 -308,323 -602,87 -1047,115 82,416 117,416 493,531 62,-197 -28,-120 75,-246 124,27 247,49 369,71 124,-422 268,-362 685,-411 -68,-291 -144,-208 14,-439 431,45 82,6 294,352 301,-39 596,-373 1013,-417 260,-27 247,71 616,33 301,-33 287,-143 589,-17 109,-202 0,-197 267,-246 410,-71 766,180 1163,236 -294,-362 -575,-291 -212,-894 458,-93 499,-27 697,318 113,-63 161,-127 216,-159zm-34228 12079c963,-4381 3269,-8258 6465,-11178 249,86 577,30 824,20 88,-165 143,-308 301,-368 62,-21 137,-27 239,-21 14,81 34,164 55,246 0,6 14,61 7,50 7,-12 14,32 20,49 432,-252 69,-258 302,-712 -363,-72 -315,-28 -541,-259 219,-240 643,-323 958,-301 -21,220 -123,214 -41,400 247,-153 418,-563 814,-487 75,54 165,104 247,153 -206,192 -513,203 -780,312 -117,1190 376,192 212,1009 294,-22 582,-236 691,-455 -109,-142 -267,-142 -356,-312 69,-220 217,-385 424,-484 141,-67 310,-103 500,-103 2176,17 1142,116 1814,422 150,66 417,99 506,230 137,209 7,406 226,570 191,143 219,-5 472,313 -55,180 -185,367 -451,372 -370,6 -151,-246 -548,-208 7,373 377,515 34,718 -301,181 -110,-66 -335,60 -7,6 -28,17 -35,22 -13,11 -27,27 -34,38 -41,45 -76,83 -109,121 -548,-148 -445,-82 -774,-444 -123,-136 -143,-170 -362,-153 -137,5 -315,65 -446,-55 268,-334 398,-11 788,-208 68,-33 499,-367 568,-444 -116,-263 -14,-44 -185,-214 -383,-389 -493,-291 -1012,-291 -244,281 -426,627 -691,779 -160,92 -351,113 -603,6 116,471 417,109 444,679 -198,-38 -301,-137 -506,-66 -438,164 -48,148 -13,236 0,5 205,27 0,104 -226,82 -35,-44 -473,-302 62,-109 124,-224 185,-339 -356,109 -801,285 -1218,487 -472,236 -917,505 -1184,751 -7,411 69,137 110,625 636,38 431,230 1067,411 123,33 281,66 473,99 0,307 -274,537 -83,854 445,312 458,-296 568,-684 1507,-315 781,-758 1170,-1586 58,-124 141,-256 261,-398 116,5 588,55 691,77 342,60 157,142 527,306 -7,296 -158,680 280,609 336,-60 261,-324 671,-390 184,433 137,620 219,1140 986,384 547,696 355,1414 124,60 254,115 384,170 -7,208 -14,411 -21,614 -20,0 -1054,-225 -1122,-247 157,-450 445,-454 630,-915 -370,66 -343,181 -609,263 -240,72 -425,22 -678,55 -89,296 -7,-258 21,120 13,143 82,6 -14,159 -342,-159 -226,-531 -862,-186 144,66 287,126 438,186 -21,422 -55,104 -144,384 -219,718 595,273 808,236 -56,378 -288,378 -617,482 -362,109 -471,257 -759,324 0,-451 -68,-72 130,-385 -288,28 -500,159 -773,275l-28 10c-351,143 -405,165 -445,614 -301,93 -650,198 -862,417 -212,202 -424,405 -630,602 -20,17 -34,33 -47,44 75,565 0,576 -343,795 -287,186 -383,181 -650,416 -855,768 -444,411 -397,1732 -178,-55 -349,-115 -513,-175 -130,-877 48,-586 -657,-789 -759,-219 -657,153 -972,219 -349,76 -520,-318 -1026,11 -281,191 -548,317 -616,657 -82,411 -267,712 -239,1168 48,1232 1170,1303 1457,728 191,-383 144,-592 767,-493 61,329 -35,570 -117,822 -54,148 -205,416 -130,620 445,180 459,-160 1047,191 41,586 -266,1244 185,1584 349,257 370,27 677,-27 343,-61 281,153 596,202 178,-219 103,-82 219,-351 206,-465 260,-246 746,-531 48,-27 89,-55 137,-88 54,115 116,225 171,334 356,-422 397,-11 807,105 177,48 303,66 400,67 298,4 329,-141 736,3 48,23 110,39 165,56 7,0 27,11 27,21 7,6 27,22 34,28 68,77 76,154 130,236 281,268 562,537 835,800 540,214 540,-187 1157,411 260,246 143,241 287,559 21,49 62,98 89,159 55,148 117,290 178,432 281,368 664,138 1054,516 226,219 55,153 554,240 774,126 473,56 1061,499 226,165 281,71 493,214 294,411 219,855 -27,1217 -760,1107 -500,925 -534,1802 -28,504 -172,1546 -644,1671 -1717,483 -719,817 -1170,1666 -130,242 -226,302 -308,494 -342,799 -103,1068 -1115,888 96,170 34,55 130,208 301,465 349,817 -267,931 -513,99 -295,0 -342,570 -199,82 -288,0 -418,132 178,328 14,55 315,241 -55,181 -96,356 -144,531 -116,428 -150,34 -191,532 178,82 301,66 458,280 -20,164 -185,613 -233,871 254,378 459,784 1000,822 -7,317 68,285 -206,350 -232,55 -725,-164 -931,-273 -355,-192 -684,-444 -923,-806 -137,-203 -82,-104 -226,-295 -260,-335 -157,-489 -233,-713 -41,-132 -253,-274 -164,-702 21,-120 212,-696 -20,-597 -233,93 177,55 -144,208 -76,-208 -137,-515 -178,-772 -82,-433 -185,-450 -233,-713 -102,-608 158,-674 -130,-1688 -189,-671 -113,-2259 -313,-3074 -31,-129 -70,-240 -118,-323 -185,-307 -637,-449 -999,-696 -21,-5 -34,-11 -41,-22 -500,-351 -972,-1726 -1369,-2241 -185,-247 -301,-138 -383,-527 -89,-355 48,-295 164,-592 -609,-1117 787,-1101 500,-2444 -62,-246 -240,-591 -390,-700 -288,126 -151,197 -302,438 -232,-132 -465,-264 -691,-394 -705,-680 -328,-187 -527,-631 -424,-931 -828,-411 -1334,-871 -226,-192 -268,-494 -644,-438 -567,76 -253,164 -841,-111 -500,-235 -1020,-509 -1369,-827 -14,-493 164,-515 -144,-975 -54,-85 -116,-165 -178,-240zm6701 -11388c129,-115 260,-228 392,-340l11 22c27,44 48,44 75,159 -346,84 -346,142 -478,159zm18292 6354c189,121 421,214 561,336 178,488 -47,252 301,762 199,274 158,471 363,625 377,-49 48,60 280,-170 42,-44 158,-181 192,-236 -123,-186 -198,-203 -308,-395 424,-563 609,-240 712,133 267,1035 677,734 1020,684 349,-49 47,12 362,93 301,77 158,0 369,-54 719,-176 165,1216 90,1370 -390,49 -315,-39 -596,-66 -568,-60 34,340 -1307,-99 -1287,-411 -1013,-504 -1280,389 -294,-21 -280,-77 -554,-169 -104,-40 -164,-61 -205,-73l-14 -5c-109,-38 0,-4 -225,-218 -199,-187 -685,-231 -1027,-412 0,-295 260,-542 -55,-893 -102,-27 -1560,34 -1793,82 -472,99 -554,499 -1204,412 -356,-50 -233,-17 -322,-225 116,-115 0,-55 199,-126 75,-27 102,-17 178,-27 1053,-159 512,-691 1170,-1201 547,-438 116,6 417,-526 370,-33 322,148 637,-5 260,-132 177,-247 547,-258 329,329 260,526 794,778 212,99 342,154 479,335 246,350 34,235 130,476 20,-11 48,-22 75,-32l14 -7c288,-137 -144,-181 322,-591 -137,-99 -236,-168 -322,-217l-14 -7c-362,-214 -219,-17 -684,-598 -123,-165 -158,-175 -150,-428 335,-59 396,182 698,450 41,39 88,71 136,104l14 9zm7309 14754c-301,153 -343,504 -568,701 -247,225 -575,121 -671,538 -123,520 206,361 -157,1041 -130,252 -137,881 61,1069 596,574 918,-877 1054,-1332 103,-324 199,-691 308,-992 110,-324 267,-608 -27,-1025zm-986 -15289c48,669 445,926 726,1233 -34,318 -110,235 -103,679 336,242 582,389 1020,269 61,-537 -110,-510 -274,-877 27,-44 103,-98 116,-109 124,-164 62,65 124,-214 -322,-104 -842,-433 -883,-866 157,-126 109,-49 225,-126 254,-164 62,88 212,-192 -129,-251 -273,-296 -588,-169 -136,54 -499,312 -575,372zm-2799 175c-212,-295 -198,-443 -609,-454 -164,175 -356,438 -445,706 -136,406 -41,126 -27,565 -7,16 0,39 0,55 -7,263 -69,-49 -27,192 321,-66 75,-61 314,-137 226,-77 918,-286 1116,-236 472,110 869,482 1403,110 -27,-477 -603,-658 -999,-866 20,-439 137,-93 109,-516 -137,-5 -219,-27 -349,28 -308,137 -137,175 -137,225 14,235 308,-50 -7,241 -88,76 -232,76 -342,87zm-7993 -3320c-13,767 253,509 506,888 -116,323 -137,71 -266,405 -117,279 27,28 -48,515 198,11 492,-60 752,-82 370,-33 363,-66 493,-444 -205,-252 -410,-504 -622,-756 -268,-406 0,-126 -83,-466 -61,-121 -116,-241 -171,-362 -355,121 -321,88 -561,302z"/></g><g><path class="fil3" d="M32493 26264c146,-145 -842,2521 -1571,3505 -729,984 -1694,1949 -1694,1949l278 -1092 -2642 2310 82 -946c0,0 -1074,653 -2334,1200 -1212,527 -1239,500 -712,-712 547,-1260 1200,-2334 1200,-2334l-946 81 2310 -2641 -1092 278c0,0 965,-965 1949,-1694 984,-730 3650,-1717 3505,-1572l799 869 868 799z"/><g><polygon class="fil4" points="39116,22153 40284,27192 33679,34133 34383,25526 "/><polygon class="fil4" points="34937,17974 29899,16806 22957,23411 31564,22707 "/></g><path class="fil2" d="M34092 26860l-1931 -1931 -1931 -1930c4011,-4360 9642,-24439 26778,-22917 2343,16795 -18896,23181 -22916,26778z"/><path class="fil5" d="M30588 23356l-358 -357c3417,-3714 8011,-18831 19889,-22289l353 676c-10450,3630 -13863,13656 -19749,21955l-135 15z"/><path class="fil5" d="M57008 83l0 -1c-623,13736 -13148,19615 -23882,25813l966 965c4020,-3597 25259,-9983 22916,-26777z"/><path class="fil0" d="M56546 7178c-2508,-1207 -5292,-4053 -6427,-6468 2066,-602 4350,-853 6889,-628 363,2607 158,4962 -462,7096z"/><path class="fil1" d="M50472 1386c-130,-228 -249,-454 -353,-676 2234,-653 4574,-833 6888,-628 -2456,185 -4613,637 -6535,1304z"/><rect class="fil0" height="1094" transform="matrix(-0.373488 -0.373488 -1.26421 1.26421 34167 26784.6)" width="10367"/><circle class="fil0" r="4573" transform="matrix(-0.638011 -0.638011 -0.638011 0.638011 47784.4 9682.5)"/><circle class="fil3" r="4573" transform="matrix(-0.451135 -0.451135 -0.451135 0.451135 47784.2 9682.41)"/><path class="fil8" d="M18256 5397c1973,0 3573,1576 3573,3520 0,1943 -1600,3519 -3573,3519l-9486 0c-1607,0 -2910,-1283 -2910,-2867 0,-1583 1303,-2866 2910,-2866 180,0 355,16 525,47 301,-2244 2251,-3975 4612,-3975 1858,0 3462,1073 4207,2625 47,-2 94,-3 142,-3z"/><path class="fil8" d="M52207 27477c1446,0 2619,1173 2619,2619 0,1447 -1173,2620 -2619,2620l-6953 0c-1178,0 -2133,-956 -2133,-2134 0,-1178 955,-2133 2133,-2133 132,0 260,12 384,34 221,-1670 1651,-2958 3381,-2958 1362,0 2538,799 3084,1954 34,-1 69,-2 104,-2z"/><path class="fil6" d="M47727 7344c771,-23 1550,260 2139,849 477,476 753,1077 828,1698 58,-814 -224,-1649 -847,-2272 -733,-733 -1759,-994 -2701,-784 -522,117 -1018,378 -1425,784 -707,707 -975,1687 -804,2601 5,-735 288,-1467 848,-2027 544,-544 1249,-827 1962,-849z"/></g><g><path class="fil7" d="M23551 32034c-2407,1799 -7727,9047 -7407,20148 566,-4632 1918,-14261 8864,-18224l-1995 318 538 -2242z"/><path class="fil7" d="M24360 36219c-1590,962 -5152,5121 -7001,12476 2097,-5566 4322,-9905 7394,-12067l-393 -409z"/><path class="fil7" d="M23115 30592c-1432,736 -5006,4491 -6204,10791 1504,-4768 3859,-8819 6563,-10441l-359 -350z"/></g></g></g></svg>