<?xml version="1.0" ?><!DOCTYPE svg  PUBLIC '-//W3C//DTD SVG 1.1//EN'  'http://www.w3.org/Graphics/SVG/1.1/DTD/svg11.dtd'><svg height="140px" style="shape-rendering:geometricPrecision; text-rendering:geometricPrecision; image-rendering:optimizeQuality; fill-rule:evenodd; clip-rule:evenodd" version="1.1" viewBox="0 0 30358 23563" width="180px" xml:space="preserve" xmlns="http://www.w3.org/2000/svg" xmlns:xlink="http://www.w3.org/1999/xlink"><defs><style type="text/css">
   <![CDATA[
    .fil1 {fill:#6C7678}
    .fil3 {fill:#83CF8F}
    .fil8 {fill:#B9C1C9}
    .fil6 {fill:#CCD2D9}
    .fil9 {fill:#DCE3DB}
    .fil10 {fill:#ECF0F1}
    .fil0 {fill:#E5E8ED}
    .fil7 {fill:#FAD24D}
    .fil5 {fill:#FF5B62}
    .fil4 {fill:#FFE356}
    .fil2 {fill:white}
   ]]>
  </style></defs><g id="Layer_x0020_1"><g id="_415795768"><path class="fil0" d="M1513 0l8326 0 1239 0c151,0 273,123 273,273l0 1625 0 5935 -11351 0 0 0 0 -5935 0 -1625c0,-150 123,-273 273,-273l1240 0z"/><path class="fil1" d="M273 0l10805 0c151,0 273,123 273,273l0 546 -11351 0 0 -546c0,-150 123,-273 273,-273z"/><path class="fil2" d="M5054 283l5483 0c40,0 73,33 73,73l0 136c0,41 -33,74 -73,74l-5483 0c-41,0 -74,-33 -74,-74l0 -136c0,-40 33,-73 74,-73z"/><path class="fil3" d="M545 234c87,0 157,71 157,157 0,87 -70,158 -157,158 -87,0 -158,-71 -158,-158 0,-86 71,-157 158,-157z"/><path class="fil4" d="M1165 234c87,0 158,71 158,157 0,87 -71,158 -158,158 -86,0 -157,-71 -157,-158 0,-86 71,-157 157,-157z"/><path class="fil5" d="M1786 234c87,0 157,71 157,157 0,87 -70,158 -157,158 -87,0 -157,-71 -157,-158 0,-86 70,-157 157,-157z"/><polygon class="fil6" points="614,1119 10737,1119 10737,4459 614,4459 "/><path class="fil4" d="M2116 4946c372,0 673,302 673,673 0,372 -301,673 -673,673 -371,0 -673,-301 -673,-673 0,-371 302,-673 673,-673z"/><path class="fil3" d="M5676 4946c371,0 673,302 673,673 0,372 -302,673 -673,673 -372,0 -673,-301 -673,-673 0,-371 301,-673 673,-673z"/><path class="fil7" d="M9235 4946c372,0 673,302 673,673 0,372 -301,673 -673,673 -371,0 -673,-301 -673,-673 0,-371 302,-673 673,-673z"/><path class="fil8" d="M1151 6517l1931 0 0 136 -1931 0 0 -136zm0 858l1297 0 0 136 -1297 0 0 -136zm0 -429l1931 0 0 136 -1931 0 0 -136z"/><path class="fil8" d="M4710 6517l1931 0 0 136 -1931 0 0 -136zm0 858l1297 0 0 136 -1297 0 0 -136zm0 -429l1931 0 0 136 -1931 0 0 -136z"/><path class="fil9" d="M8270 6517l1931 0 0 136 -1931 0 0 -136zm0 858l1297 0 0 136 -1297 0 0 -136zm0 -429l1931 0 0 136 -1931 0 0 -136z"/><polygon class="fil10" points="564,4672 10737,4672 10737,4714 564,4714 "/><path class="fil6" d="M7738 4967l102 0c-203,2 -353,164 -353,353l0 2513 -135 0 0 -2480c0,-212 173,-386 386,-386z"/><path class="fil0" d="M9442 4967l10762 0 1601 0c195,0 353,159 353,353l0 2100 0 7671 -14671 0 0 0 0 -7671 0 -2100c0,-194 159,-353 353,-353l1602 0z"/><path class="fil1" d="M7840 4967l13965 0c195,0 353,159 353,353l0 706 -14671 0 0 -706c0,-194 159,-353 353,-353z"/><path class="fil2" d="M14019 5332l7087 0c52,0 94,43 94,95l0 176c0,52 -42,95 -94,95l-7087 0c-53,0 -95,-43 -95,-95l0 -176c0,-52 42,-95 95,-95z"/><path class="fil3" d="M8191 5270c112,0 203,90 203,203 0,112 -91,203 -203,203 -112,0 -203,-91 -203,-203 0,-113 91,-203 203,-203z"/><path class="fil4" d="M8993 5270c113,0 203,90 203,203 0,112 -90,203 -203,203 -112,0 -203,-91 -203,-203 0,-113 91,-203 203,-203z"/><path class="fil5" d="M9796 5270c112,0 203,90 203,203 0,112 -91,203 -203,203 -113,0 -204,-91 -204,-203 0,-113 91,-203 204,-203z"/><path class="fil6" d="M8496 7352l2569 0 0 2569 -2569 0 0 -2569zm0 3607l2569 0 0 2569 -2569 0 0 -2569zm10085 0l2568 0 0 2569 -2568 0 0 -2569zm-3362 0l2569 0 0 2569 -2569 0 0 -2569zm-3361 0l2568 0 0 2569 -2568 0 0 -2569zm6723 -3607l2568 0 0 2569 -2568 0 0 -2569zm-3362 0l2569 0 0 2569 -2569 0 0 -2569zm-3361 0l2568 0 0 2569 -2568 0 0 -2569z"/><path class="fil6" d="M13053 11509l102 0c-202,2 -352,164 -352,353l-1 3229 -135 0 0 -3196c0,-212 174,-386 386,-386z"/><path class="fil0" d="M15142 11448l12877 0 1917 0c232,0 422,191 422,423l0 2513 0 9179 -17556 0 0 0 0 -9179 0 -2513c0,-232 191,-423 423,-423l1917 0z"/><path class="fil1" d="M13225 11448l16711 0c232,0 422,191 422,423l0 844 -17556 0 0 -844c0,-232 191,-423 423,-423z"/><path class="fil2" d="M20618 11886l8481 0c62,0 113,51 113,113l0 211c0,62 -51,113 -113,113l-8481 0c-62,0 -113,-51 -113,-113l0 -211c0,-62 51,-113 113,-113z"/><path class="fil3" d="M13645 11811c134,0 243,108 243,243 0,134 -109,243 -243,243 -134,0 -244,-109 -244,-243 0,-135 110,-243 244,-243z"/><path class="fil4" d="M14605 11811c134,0 243,108 243,243 0,134 -109,243 -243,243 -135,0 -243,-109 -243,-243 0,-135 108,-243 243,-243z"/><path class="fil5" d="M15565 11811c134,0 243,108 243,243 0,134 -109,243 -243,243 -135,0 -244,-109 -244,-243 0,-135 109,-243 244,-243z"/><rect class="fil6" height="9009" width="7536" x="13786" y="13727"/><rect class="fil3" height="651" width="3905" x="22179" y="13727"/><path class="fil8" d="M22179 15097l6818 0 0 335 -6818 0 0 -335zm0 3129l3992 0 0 335 -3992 0 0 -335zm0 -782l6818 0 0 335 -6818 0 0 -335zm0 -782l6818 0 0 335 -6818 0 0 -335zm0 -782l6818 0 0 335 -6818 0 0 -335z"/><rect class="fil3" height="651" width="2673" x="22179" y="19191"/><path class="fil1" d="M19312 6553c246,43 433,258 433,517 0,290 -235,525 -525,525 -290,0 -525,-235 -525,-525 0,-259 187,-474 433,-517l0 -3471 -7777 0 0 -184 7869 0 92 0 0 93 0 3562z"/><path class="fil1" d="M28477 13563c246,44 433,259 433,517 0,290 -235,525 -525,525 -290,0 -525,-235 -525,-525 0,-258 187,-473 433,-517l0 -3470 -6135 0 0 -184 6227 0 92 0 0 92 0 3562z"/></g></g></svg>
