<?xml version="1.0" ?><!DOCTYPE svg  PUBLIC '-//W3C//DTD SVG 1.1//EN'  'http://www.w3.org/Graphics/SVG/1.1/DTD/svg11.dtd'><svg height="179px" style="shape-rendering:geometricPrecision; text-rendering:geometricPrecision; image-rendering:optimizeQuality; fill-rule:evenodd; clip-rule:evenodd" version="1.1" viewBox="0 0 30096 29982" width="179px" xml:space="preserve" xmlns="http://www.w3.org/2000/svg" xmlns:xlink="http://www.w3.org/1999/xlink"><defs><style type="text/css">
   <![CDATA[
    .fil0 {fill:#6C7678}
    .fil1 {fill:#73C3E8}
    .fil7 {fill:#CCD2D9}
    .fil8 {fill:#E5E8ED}
    .fil3 {fill:#ECF0F1}
    .fil2 {fill:#E5E8ED}
    .fil5 {fill:#FF7069}
    .fil6 {fill:#FFE356}
    .fil4 {fill:white}
   ]]>
  </style></defs><g id="Layer_x0020_1"><g id="_427788128"><g><path class="fil0" d="M1606 4755l26884 0c884,0 1606,723 1606,1606l0 16561 -30096 0 0 -16561c0,-883 723,-1606 1606,-1606z"/><path class="fil1" d="M1091 21832l27915 0 0 -15471c0,-281 -234,-515 -516,-515l-26884 0c-281,0 -515,234 -515,515l0 15471z"/><path class="fil2" d="M30096 22922l0 1757c0,883 -796,1606 -1770,1606l-26556 0c-973,0 -1770,-723 -1770,-1606l0 -1757 30096 0z"/><path class="fil3" d="M3017 12468c2553,0 4710,1697 5405,4024 1138,513 1972,1583 2155,2861 201,-48 410,-74 626,-74 619,0 1189,212 1642,566 142,-898 920,-1585 1858,-1585 118,0 233,11 345,32 112,-21 227,-32 345,-32 938,0 1716,687 1858,1585 453,-354 1023,-566 1643,-566 215,0 425,26 625,74 184,-1278 1017,-2348 2155,-2861 695,-2327 2852,-4024 5405,-4024 677,0 1326,120 1927,338l0 9026 -12777 0 1 -4 -9 4 -2345 0 -9 -4 0 4 -12776 0 0 -9026c601,-218 1250,-338 1926,-338z"/><path class="fil4" d="M3017 12801c2553,0 4710,1696 5405,4023 1138,514 1972,1583 2155,2862 201,-48 410,-74 626,-74 619,0 1189,211 1642,565 142,-898 920,-1585 1858,-1585 118,0 233,11 345,32 112,-21 227,-32 345,-32 938,0 1716,687 1858,1585 453,-354 1023,-565 1643,-565 215,0 425,26 625,74 184,-1279 1017,-2348 2155,-2862 695,-2327 2852,-4023 5405,-4023 677,0 1326,119 1927,337l0 8694 -27915 0 0 -8694c601,-218 1250,-337 1926,-337z"/><path class="fil4" d="M18028 9366c48,-52 -260,882 -499,1231 -240,349 -561,695 -561,695l82 -381 -883 831 16 -328c0,0 -363,239 -791,444 -412,198 -422,189 -255,-237 173,-442 385,-821 385,-821l-326 40 765 -942 -374 110c0,0 321,-346 652,-610 331,-264 1240,-639 1191,-587l287 290 311 265z"/><polygon class="fil5" points="20264,7862 20731,9588 18536,12070 18671,9087 "/><polygon class="fil5" points="18767,6471 17012,6131 14697,8501 17662,8149 "/><path class="fil6" d="M18587 9552l-691 -643 -692 -643c1331,-1557 3023,-8565 8963,-8256 1022,5773 -6236,8248 -7580,9542z"/><path class="fil5" d="M26097 2468c-882,-386 -1880,-1334 -2302,-2154 706,-234 1492,-350 2372,-304 158,896 117,1713 -70,2458z"/><rect class="fil0" height="577" transform="matrix(-0.253471 -0.235594 -0.797459 0.857965 18612.3 9524.52)" width="5471"/><circle class="fil4" r="2413" transform="matrix(-0.323175 -0.300382 -0.300383 0.323174 23101.3 3443.56)"/><circle class="fil1" r="2413" transform="matrix(-0.26531 -0.246598 -0.246599 0.265309 23101.3 3443.53)"/><path class="fil4" d="M14733 10520c-1093,789 -3006,6254 1348,9149 0,0 -3325,-3872 -187,-7587 -553,239 -1580,1144 -1161,-1562z"/><circle class="fil4" cx="12353" cy="18209" r="634"/><circle class="fil4" cx="15236" cy="17017" r="202"/><circle class="fil4" cx="12775" cy="16348" r="276"/><circle class="fil4" cx="17580" cy="18713" r="274"/><circle class="fil7" cx="15048" cy="24533" r="553"/><polygon class="fil8" points="18519,28811 21073,29629 9024,29629 11084,28811 11084,26285 18519,26285 "/><polygon class="fil7" points="11084,28811 18519,28811 21073,29629 21073,29982 15048,29982 9024,29982 9024,29629 "/></g><rect class="fil7" height="260" width="7435" x="11084" y="26285"/></g></g></svg>
