<?xml version="1.0" ?><!DOCTYPE svg  PUBLIC '-//W3C//DTD SVG 1.1//EN'  'http://www.w3.org/Graphics/SVG/1.1/DTD/svg11.dtd'><svg height="172px" style="shape-rendering:geometricPrecision; text-rendering:geometricPrecision; image-rendering:optimizeQuality; fill-rule:evenodd; clip-rule:evenodd" version="1.1" viewBox="0 0 491749 471445" width="180px" xml:space="preserve" xmlns="http://www.w3.org/2000/svg" xmlns:xlink="http://www.w3.org/1999/xlink"><defs><style type="text/css">
   <![CDATA[
    .fil8 {fill:#6B7F9E}
    .fil2 {fill:#6C7678}
    .fil4 {fill:#83CF8F}
    .fil0 {fill:#B9C1C9}
    .fil7 {fill:#E5E8ED}
    .fil9 {fill:#ECF0F1}
    .fil1 {fill:#F2F2F2}
    .fil6 {fill:#FF7069}
    .fil5 {fill:#FFE356}
    .fil3 {fill:white}
    .fil10 {fill:white}
   ]]>
  </style></defs><g id="Layer_x0020_1"><g id="_469485568"><g><path class="fil0" d="M479917 0c6508,0 11832,5344 11832,11826l0 435276c0,13409 -10934,24343 -24343,24343l-443063 0c-13406,0 -24343,-10934 -24343,-24343l0 -435276c0,-6501 5322,-11826 11829,-11826l468088 0z"/><path class="fil1" d="M476595 10372l-461444 0c-2537,0 -4634,2097 -4634,4633l0 429098c0,9338 7629,16970 16970,16970l436775 0c9341,0 16970,-7632 16970,-16970l0 -429098c0,-2526 -2113,-4633 -4637,-4633z"/></g><g><path class="fil2" d="M11836 0l468084 0c6508,0 11829,5322 11829,11829l0 23655 -491743 0 0 -23655c0,-6507 5322,-11829 11830,-11829z"/><rect class="fil3" height="12251" rx="4277" ry="3178" width="243894" x="215750" y="12250"/><circle class="fil4" cx="23600" cy="16952" r="6812"/><circle class="fil5" cx="50488" cy="16952" r="6812"/><circle class="fil6" cx="77376" cy="16952" r="6812"/></g><path class="fil0" d="M49433 340888l78707 0 0 4792 -78707 0 0 -4792zm0 23364l55750 0 0 4795 -55750 0 0 -4795zm0 -11680l78707 0 0 4791 -78707 0 0 -4791z"/><path class="fil0" d="M192892 340888l78707 0 0 4792 -78707 0 0 -4792zm0 23364l55753 0 0 4795 -55753 0 0 -4795zm0 -11680l78707 0 0 4791 -78707 0 0 -4791z"/><polygon class="fil5" points="181380,243237 283115,243237 283115,324112 181380,324112 "/><polygon class="fil4" points="37917,243237 139656,243237 139656,324112 37917,324112 "/><rect class="fil7" height="135656" width="432186" x="29782" y="52793"/><g><polygon class="fil8" points="353680,237892 364210,237892 364210,208518 353680,208518 "/><path class="fil6" d="M343615 208518l30660 0c1777,0 3238,1457 3238,3238l0 13389 -37136 0 0 -13389c0,-1781 1458,-3238 3238,-3238z"/><ellipse class="fil2" cx="358945" cy="339281" rx="107437" ry="107436"/><ellipse class="fil9" cx="358945" cy="339281" rx="98518" ry="98517"/><ellipse class="fil10" cx="358945" cy="339281" rx="94268" ry="94267"/><path class="fil2" d="M330542 256116l2497 -811 2214 6814 -2495 811 -2216 -6814zm56806 166332l-2497 811 -2214 -6818 2495 -811 2216 6818zm54765 -111568l811 2495 -6818 2213 -811 -2494 6818 -2214zm-57262 -55575l2497 811 -2216 6814 -2495 -811 2214 -6814zm24686 12113l2119 1542 -4210 5799 -2123 -1541 4214 -5800zm19729 19151l1541 2123 -5797 4214 -1541 -2127 5797 -4210zm13658 78617l-811 2498 -6818 -2217 811 -2494 6818 2213zm-12117 24683l-1541 2122 -5797 -4213 1541 -2123 5797 4214zm-19151 19732l-2119 1541 -4214 -5796 2123 -1545 4210 5800zm-78617 13658l-2497 -811 2216 -6818 2495 811 -2214 6818zm-24682 -12117l-2123 -1541 4213 -5800 2123 1545 -4213 5796zm-19733 -19151l-1541 -2122 5797 -4214 1544 2123 -5800 4213zm-12847 -24307l-811 -2498 6818 -2213 811 2494 -6818 2217zm-811 -54309l811 -2495 6818 2214 -811 2494 -6818 -2213zm12117 -24683l1541 -2123 5800 4210 -1544 2127 -5797 -4214zm19151 -19732l2123 -1542 4213 5800 -2123 1541 -4213 -5799z"/><polygon class="fil8" points="356158,280117 359137,277138 362052,280117 362052,339411 356158,339411 "/><polygon class="fil6" points="304819,382052 300760,382847 302680,379196 355932,339282 358071,342138 "/><polygon class="fil8" points="413314,336038 416703,338991 413359,341931 359205,342436 359160,336542 "/><circle class="fil9" cx="358945" cy="339281" r="9921"/><path class="fil6" d="M429198 337007l13803 0 0 4546 -13803 0 0 -4546zm-154309 0l13803 0 0 4546 -13803 0 0 -4546z"/><path class="fil6" d="M356672 269027l0 -13803 4546 0 0 13803 -4546 0zm0 154306l0 -13800 4546 0 0 13800 -4546 0z"/><circle class="fil4" cx="358945" cy="339281" r="7881"/></g></g></g></svg>