<?xml version="1.0" ?><!DOCTYPE svg  PUBLIC '-//W3C//DTD SVG 1.1//EN'  'http://www.w3.org/Graphics/SVG/1.1/DTD/svg11.dtd'><svg height="178px" style="shape-rendering:geometricPrecision; text-rendering:geometricPrecision; image-rendering:optimizeQuality; fill-rule:evenodd; clip-rule:evenodd" version="1.1" viewBox="0 0 26204 27784" width="168px" xml:space="preserve" xmlns="http://www.w3.org/2000/svg" xmlns:xlink="http://www.w3.org/1999/xlink"><defs><style type="text/css">
   <![CDATA[
    .fil4 {fill:#6B7F9E}
    .fil5 {fill:#75BD80}
    .fil0 {fill:#83CF8F}
    .fil7 {fill:#B9C1C9}
    .fil1 {fill:#E5E8ED}
    .fil9 {fill:#F2F2F2}
    .fil11 {fill:#F7635B}
    .fil8 {fill:#FED298}
    .fil2 {fill:#FF7069}
    .fil10 {fill:white}
    .fil6 {fill:white}
    .fil3 {fill:#B9C1C9;fill-rule:nonzero}
   ]]>
  </style></defs><g id="Layer_x0020_1"><g id="_347146176"><g><path class="fil0" d="M7283 10669c62,-399 552,-611 776,-318l7363 9623c224,293 -109,711 -510,666 -4649,-520 -7252,387 -8710,1578l-2720 -3554c1532,-1096 3087,-3371 3801,-7995z"/><path class="fil1" d="M63 22729l547 -419 1322 1727 -548 418c-70,54 -172,41 -226,-30l-1125 -1471c-54,-70 -40,-172 30,-225z"/><path class="fil0" d="M274 21849l1354 -1036 2014 2633 -1354 1036c-174,134 -426,100 -559,-74l-1530 -2000c-133,-174 -100,-426 75,-559z"/><path class="fil1" d="M1565 19870l3071 -2350 2971 3883 -3071 2350c-395,302 -966,226 -1268,-169l-1871 -2446c-303,-395 -227,-966 168,-1268z"/><rect class="fil1" height="23631" rx="1340" ry="1340" transform="matrix(0.243345 -0.186189 0.348738 0.455801 7089.17 10183.4)" width="2680"/></g><path class="fil2" d="M11161 14155c533,-80 1091,124 1441,582 350,457 401,1050 185,1543l-1626 -2125z"/><path class="fil3" d="M15254 14343l-1512 516 -64 -190 1511 -515 65 189zm79 2832l-1497 -557 -70 188 1497 557 70 -188zm-481 -631l-868 -323 -70 188 868 322 70 -187zm-3833 -5007l146 1590 -200 19 -146 -1591 200 -18zm484 629l84 922 -199 19 -85 -922 200 -19zm2072 58l-910 1312 -165 -114 911 -1312 164 114zm-34 793l-527 761 -165 -114 527 -761 165 114zm1214 1944l-876 299 -64 -190 876 -298 64 189z"/><path class="fil4" d="M6541 22219c207,249 227,632 730,1458 283,463 760,253 864,894 104,642 620,610 827,860 207,249 86,519 509,895l-1455 1114c-625,-514 -1539,-1402 -2423,-2754 -322,-492 -571,-869 -764,-1157l1712 -1310z"/><rect class="fil1" height="2826" rx="708" ry="708" transform="matrix(0.210556 -0.161101 0.0940043 0.122864 7961.91 27480.9)" width="7796"/><polygon class="fil2" points="6651,22134 7823,23239 7271,23677 6437,22299 "/><g><rect class="fil5" height="23874" transform="matrix(-0.147091 -0.0586851 -0.0586847 0.147092 25744 20305.3)" width="37517"/><polygon class="fil0" points="25744,20305 20226,18104 23662,17507 "/><path class="fil6" d="M25209 19362l-3946 -1574c-205,-82 -439,19 -521,224l-1503 3769 4690 1871 1504 -3769c81,-205 -20,-439 -224,-521z"/><polygon class="fil0" points="25744,20305 22343,20984 24343,23817 "/><polygon class="fil5" points="24343,23817 18825,21615 22285,20958 "/><polygon class="fil0" points="20226,18104 22225,20937 18825,21615 "/><path class="fil7" d="M21633 18377l3087 1201 -37 94 -3087 -1201 37 -94zm-309 793l1993 775 -37 94 -1992 -775 36 -94zm103 -265l3087 1201 -36 95 -3088 -1201 37 -95zm103 -264l3087 1201 -36 94 -3088 -1201 37 -94z"/></g><g><path class="fil8" d="M20094 8856l-2268 744 -638 -2290 2415 -525c38,-237 199,-593 356,-688l350 -672 13 -462 -77 -534c-30,-205 272,-310 475,-170 228,158 382,654 381,897l-7 808 1114 -282 364 -119c388,-129 627,503 206,642l-330 109 6 56 375 -141c319,-121 551,485 188,622l-497 188 6 63 367 -139c125,-47 275,55 323,229l0 0c48,174 -14,337 -138,387l-421 172 10 32 281 -91c296,-95 458,436 185,544l-347 138 1 2 -59 21 -2 1 0 0 -549 196 -1273 402c-266,84 -529,20 -694,-62 -47,-24 -86,-50 -116,-78z"/><polygon class="fil0" points="18430,6866 19135,9289 17873,9770 17143,7146 "/><polygon class="fil9" points="18909,6848 19566,9057 19115,9211 18441,6940 "/><path class="fil10" d="M20534 4400l64 313c-81,-4 -161,5 -239,40l-52 -287c-33,-178 191,-242 227,-66z"/></g><path class="fil2" d="M11915 3494c-1449,347 -2377,1654 -2074,2919 155,647 603,1158 1196,1456 -478,640 -1071,737 -1071,737 655,298 1492,-134 1991,-466 340,40 697,21 1056,-65 1449,-348 2378,-1655 2074,-2920 -303,-1264 -1723,-2008 -3172,-1661z"/><path class="fil11" d="M11915 3494c-247,59 -478,146 -691,256 536,901 1726,1372 2936,1082 247,-59 479,-146 692,-256 -536,-901 -1727,-1372 -2937,-1082z"/><path class="fil0" d="M13116 85c1449,-347 2869,397 3173,1662 155,647 -12,1304 -406,1839 716,354 1289,171 1289,171 -449,563 -1391,558 -1986,489 -285,189 -612,334 -971,420 -1449,347 -2869,-396 -3172,-1661 -304,-1265 625,-2572 2073,-2920z"/><path class="fil10" d="M12243 1781l2691 0c121,0 121,184 0,184l-2691 0c-121,0 -121,-184 0,-184zm-37 1191l1598 0c72,0 72,183 0,183l-1598 0c-71,0 -71,-183 0,-183zm37 -595l2691 0c121,0 121,183 0,183l-2691 0c-121,0 -121,-183 0,-183z"/><path class="fil10" d="M11201 5511l2690 0c122,0 122,183 0,183l-2690 0c-121,0 -121,-183 0,-183zm-37 1190l1597 0c72,0 72,184 0,184l-1597 0c-72,0 -72,-184 0,-184zm37 -595l2690 0c122,0 122,183 0,183l-2690 0c-121,0 -121,-183 0,-183z"/><rect class="fil2" height="9819" transform="matrix(0.353044 -0.0464786 0.0494663 0.375743 19707.4 11428.5)" width="17026"/><g><polygon class="fil11" points="22288,12110 23570,12832 22519,13860 "/><polygon class="fil9" points="22226,12049 23508,12770 22457,13798 "/></g></g></g></svg>