<?xml version="1.0" ?><!DOCTYPE svg  PUBLIC '-//W3C//DTD SVG 1.1//EN'  'http://www.w3.org/Graphics/SVG/1.1/DTD/svg11.dtd'><svg height="174px" style="shape-rendering:geometricPrecision; text-rendering:geometricPrecision; image-rendering:optimizeQuality; fill-rule:evenodd; clip-rule:evenodd" version="1.1" viewBox="0 0 74504 72245" width="180px" xml:space="preserve" xmlns="http://www.w3.org/2000/svg" xmlns:xlink="http://www.w3.org/1999/xlink"><defs><style type="text/css">
   <![CDATA[
    .fil5 {fill:#21D0C3}
    .fil0 {fill:#6C7678}
    .fil9 {fill:#83CF8F}
    .fil11 {fill:#B9C1C9}
    .fil10 {fill:#DCE3DB}
    .fil1 {fill:#E5E8ED}
    .fil13 {fill:#E7E9EF}
    .fil8 {fill:#ECF0F1}
    .fil2 {fill:#F2F2F2}
    .fil7 {fill:#FF7069}
    .fil6 {fill:#FFE356}
    .fil4 {fill:white}
    .fil3 {fill:white}
    .fil14 {fill:#E5E8ED;fill-rule:nonzero}
    .fil12 {fill:#E7E9EF;fill-rule:nonzero}
   ]]>
  </style></defs><g id="Layer_x0020_1"><g id="_347501712"><path class="fil0" d="M21251 27272l32002 0c1052,0 1911,860 1911,1911l0 19713 -35824 0 0 -19713c0,-1051 860,-1911 1911,-1911z"/><path class="fil1" d="M20638 47599l33228 0 0 -18415c0,-335 -278,-614 -613,-614l-32001 0c-335,0 -614,279 -614,614l0 18415z"/><path class="fil2" d="M55164 48897l0 2090c0,1052 -948,1912 -2107,1912l-31610 0c-1159,0 -2107,-860 -2107,-1912l0 -2090 35824 0z"/><path class="fil3" d="M28289 30735l17926 0 2668 0c324,0 588,264 588,587l0 3499 0 12778 -24438 0 0 0 0 -12778 0 -3499c0,-323 264,-587 588,-587l2668 0z"/><path class="fil0" d="M25621 30735l23262 0c324,0 588,264 588,587l0 1176 -24438 0 0 -1176c0,-323 264,-587 588,-587z"/><path class="fil4" d="M35913 31344l11805 0c87,0 157,71 157,158l0 293c0,87 -70,158 -157,158l-11805 0c-87,0 -158,-71 -158,-158l0 -293c0,-87 71,-158 158,-158z"/><path class="fil5" d="M26206 31239c186,0 338,151 338,338 0,187 -152,339 -338,339 -187,0 -339,-152 -339,-339 0,-187 152,-338 339,-338z"/><path class="fil6" d="M27542 31239c187,0 338,151 338,338 0,187 -151,339 -338,339 -187,0 -339,-152 -339,-339 0,-187 152,-338 339,-338z"/><path class="fil7" d="M28878 31239c187,0 339,151 339,338 0,187 -152,339 -339,339 -187,0 -338,-152 -338,-339 0,-187 151,-338 338,-338z"/><polygon class="fil8" points="26356,33145 48149,33145 48149,40334 26356,40334 "/><path class="fil7" d="M29589 41384c800,0 1448,648 1448,1448 0,800 -648,1449 -1448,1449 -800,0 -1449,-649 -1449,-1449 0,-800 649,-1448 1449,-1448z"/><path class="fil9" d="M37252 41384c800,0 1449,648 1449,1448 0,800 -649,1449 -1449,1449 -800,0 -1448,-649 -1448,-1449 0,-800 648,-1448 1448,-1448z"/><path class="fil6" d="M44915 41384c800,0 1449,648 1449,1448 0,800 -649,1449 -1449,1449 -800,0 -1448,-649 -1448,-1449 0,-800 648,-1448 1448,-1448z"/><path class="fil10" d="M27510 44764l4158 0 0 225 -4158 0 0 -225zm0 1417l2793 0 0 225 -2793 0 0 -225zm0 -708l4158 0 0 225 -4158 0 0 -225z"/><path class="fil10" d="M35173 44764l4158 0 0 225 -4158 0 0 -225zm0 1417l2793 0 0 225 -2793 0 0 -225zm0 -708l4158 0 0 225 -4158 0 0 -225z"/><path class="fil10" d="M42837 44764l4157 0 0 225 -4157 0 0 -225zm0 1417l2792 0 0 225 -2792 0 0 -225zm0 -708l4157 0 0 225 -4157 0 0 -225z"/><polygon class="fil8" points="26247,40793 48149,40793 48149,40883 26247,40883 "/><circle class="fil11" cx="37252" cy="50814" r="658"/><g><polygon class="fil2" points="41384,55906 44423,56880 30081,56880 32533,55906 32533,52899 41384,52899 "/><polygon class="fil11" points="41384,55906 32533,52899 41384,52899 "/><polygon class="fil11" points="32533,55906 41384,55906 44423,56880 44423,57300 37252,57300 30081,57300 30081,56880 "/></g><g><path class="fil11" d="M4938 64399l391 0 2287 -1248 372 -1455c-544,-550 -1107,-1482 -1620,-2627 -42,7 -84,10 -128,10 -604,0 -1203,-658 -1338,-1470 -105,-635 106,-1176 492,-1381 -511,-2609 -852,-6615 3642,-7605 2695,-593 3658,1487 3775,1715 1632,-915 2668,457 2934,1184 482,1313 325,3755 79,4834 271,258 403,723 315,1253 -133,799 -714,1448 -1308,1470 -480,1054 -1124,1959 -1778,2616l371 1456 32 0 2224 1248 423 0c1962,0 3684,1031 4613,2553 -5091,6753 -15234,7054 -20716,626 803,-1861 2717,-3179 4938,-3179z"/><path class="fil11" d="M58726 64399l391 0 2288 -1248 372 -1455c-545,-550 -1107,-1482 -1621,-2627 -41,7 -83,10 -127,10 -604,0 -1203,-658 -1338,-1470 -106,-635 106,-1176 491,-1381 -511,-2609 -851,-6615 3642,-7605 2695,-593 3659,1487 3776,1715 1631,-915 2668,457 2934,1184 481,1313 325,3755 79,4834 271,258 402,723 315,1253 -133,799 -715,1448 -1308,1470 -480,1054 -1125,1959 -1779,2616l372 1456 32 0 2224 1248 423 0c1961,0 3683,1031 4612,2553 -2423,3214 -6273,5293 -10609,5293 -4047,0 -7671,-1812 -10107,-4667 803,-1861 2718,-3179 4938,-3179z"/></g><path class="fil11" d="M31832 15882l391 0 2287 -1248 373 -1455c-545,-550 -1108,-1482 -1621,-2627 -41,7 -83,10 -127,10 -604,0 -1204,-658 -1338,-1470 -106,-635 105,-1177 491,-1381 -511,-2609 -851,-6615 3642,-7605 2695,-594 3658,1487 3775,1715 1632,-915 2668,458 2935,1183 481,1314 324,3756 79,4835 270,259 402,723 314,1253 -132,799 -714,1448 -1308,1470 -480,1054 -1124,1959 -1778,2616l372 1456 32 0 2224 1248 423 0c1961,0 3683,1030 4612,2552 -5091,6754 -15234,7054 -20716,627 803,-1862 2718,-3179 4938,-3179z"/><polygon class="fil12" points="37665,19527 37665,26069 37211,26069 37211,19527 "/><circle class="fil13" cx="37438" cy="19527" r="1061"/><path class="fil14" d="M9595 54737l0 -16230 0 -227 227 0 7858 0 0 454 -7631 0 0 16003 -454 0zm54860 0l0 -16003 -8231 0 0 -454 8458 0 227 0 0 227 0 16230 -454 0z"/><circle class="fil13" cx="9822" cy="54737" r="1061"/><circle class="fil13" cx="64682" cy="54737" r="1061"/></g></g></svg>