<?xml version="1.0" ?><!DOCTYPE svg  PUBLIC '-//W3C//DTD SVG 1.1//EN'  'http://www.w3.org/Graphics/SVG/1.1/DTD/svg11.dtd'><svg height="143px" style="shape-rendering:geometricPrecision; text-rendering:geometricPrecision; image-rendering:optimizeQuality; fill-rule:evenodd; clip-rule:evenodd" version="1.1" viewBox="0 0 34634 27494" width="180px" xml:space="preserve" xmlns="http://www.w3.org/2000/svg" xmlns:xlink="http://www.w3.org/1999/xlink"><defs><style type="text/css">
   <![CDATA[
    .fil9 {fill:#5D718F}
    .fil2 {fill:#666666}
    .fil11 {fill:#6B7F9E}
    .fil3 {fill:#807E7E}
    .fil0 {fill:#B9C1C9}
    .fil7 {fill:#CCD2D9}
    .fil4 {fill:#F2F2F2}
    .fil6 {fill:#F2F4F7}
    .fil13 {fill:#F7635B}
    .fil12 {fill:#FCD34E}
    .fil10 {fill:#FF7069}
    .fil8 {fill:#FFE356}
    .fil1 {fill:white}
    .fil5 {fill:#CCD2D9;fill-rule:nonzero}
    .fil14 {fill:white;fill-rule:nonzero}
    .fil15 {fill:#E5E8ED}
   ]]>
 </style></defs><g id="Layer_x0020_1"><g id="_348235560"><g><polygon class="fil0" points="14787,20621 14046,23250 11556,25136 11556,25541 17317,25541 23078,25541 23078,25136 20589,23250 19848,20621 17317,20588 "/><polygon class="fil1" points="11556,25136 11556,25541 17318,25541 23078,25541 23078,25136 "/></g><path class="fil2" d="M4463 0l25709 0c844,0 1535,691 1535,1536l0 15836 -28780 0 0 -15836c0,-845 691,-1536 1536,-1536z"/><polygon class="fil3" points="21224,17373 11101,17373 11066,16330 20136,16330 "/><path class="fil4" d="M3970 16330l26695 0 0 -14794c0,-269 -224,-493 -493,-493l-25709 0c-269,0 -493,224 -493,493l0 14794z"/><path class="fil5" d="M25821 1735c836,0 1593,338 2141,886 547,548 886,1305 886,2141 0,836 -339,1593 -886,2140 -548,548 -1305,887 -2141,887 -836,0 -1593,-339 -2141,-887 -548,-547 -886,-1304 -886,-2140 0,-836 338,-1593 886,-2141 548,-548 1305,-886 2141,-886zm2169 4700c-191,-91 -436,-163 -714,-218 -26,54 -53,108 -81,161 -225,419 -545,795 -959,1091 590,-89 1119,-367 1522,-770 82,-83 160,-172 232,-264zm-2584 1034c-414,-296 -734,-672 -959,-1091 -28,-53 -55,-106 -80,-160 -278,55 -523,127 -715,217 72,93 149,181 232,264 404,403 932,681 1522,770zm-1919 -1274c206,-102 469,-184 767,-247 -122,-334 -191,-687 -207,-1041l-961 0c25,471 168,910 401,1288zm-401 -1576l961 0c15,-387 94,-772 238,-1133 -288,-59 -546,-135 -752,-231 -260,395 -421,862 -447,1364zm622 -1600c192,82 431,148 697,199 16,-31 32,-61 48,-91 224,-412 541,-781 949,-1072 -589,90 -1116,368 -1518,770 -61,62 -120,126 -176,194zm2532 -964c409,291 725,660 949,1072 16,30 32,61 48,92 267,-51 506,-117 697,-200 -56,-67 -115,-132 -176,-194 -403,-402 -929,-679 -1518,-770zm1869 1201c-205,96 -462,173 -751,231 143,361 222,745 237,1132l961 0c-26,-502 -187,-968 -447,-1363zm447 1651l-961 0c-16,354 -85,706 -207,1040 299,63 562,145 767,248 233,-378 376,-817 401,-1288zm-2591 -2691l0 1121c336,-5 667,-28 973,-70l-1 -2c-224,-411 -547,-774 -972,-1049zm0 1410l0 993 1342 0c-15,-370 -95,-738 -239,-1080 -345,52 -722,81 -1103,87zm0 1281l0 896c392,6 781,36 1135,92 122,-317 191,-651 207,-988l-1342 0zm0 1184l0 1215c427,-280 753,-649 976,-1065 13,-24 26,-49 39,-74 -317,-45 -664,-70 -1015,-76zm-288 1215l0 -1215c-351,6 -697,32 -1014,77 12,25 25,49 38,73 223,416 549,785 976,1065zm0 -1503l0 -896 -1342 0c16,337 85,672 207,989 355,-56 743,-87 1135,-93zm0 -1184l0 -994c-380,-6 -757,-35 -1102,-88 -145,344 -225,711 -240,1082l1342 0zm0 -1282l0 -1121c-425,275 -748,638 -972,1049l0 1c305,42 637,65 972,71z"/><polygon class="fil6" points="11066,16330 20136,16330 15368,11787 11057,16067 "/><path class="fil15" d="M31707 17373l0 1679c0,845 -761,1536 -1693,1536l-25394 0c-931,0 -1693,-691 -1693,-1536l0 -1679 28780 0z"/><g><rect class="fil7" height="2210" width="796" x="22420" y="13640"/><rect class="fil7" height="4205" width="796" x="23995" y="11645"/><rect class="fil7" height="3208" width="796" x="25570" y="12642"/><rect class="fil7" height="5750" width="796" x="27145" y="10100"/></g><g><path class="fil7" d="M8320 3194l-1390 1363 1472 1274c296,-341 475,-787 475,-1274 0,-531 -212,-1012 -557,-1363z"/><path class="fil7" d="M6987 2315l0 1947 1390 -1364c-354,-360 -846,-583 -1390,-583z"/><path class="fil7" d="M6823 2704c-1075,0 -1947,872 -1947,1947 0,1076 872,1947 1947,1947 588,0 1115,-261 1472,-673l-1472 -1274 0 -1947z"/></g><rect class="fil7" height="1433" width="34634" y="25541"/><g><path class="fil8" d="M14073 14794c572,-568 565,-1502 -15,-2087 -393,-396 -948,-530 -1443,-399l-481 -485c-58,-58 -151,-60 -208,-3l-759 753c-57,57 -56,150 2,208l453 457c-172,513 -50,1108 364,1525 581,585 1515,598 2087,31z"/><path class="fil9" d="M12190 10734l-1098 -1106c-376,-379 -993,-381 -1372,-5l-786 780c-379,376 -381,994 -5,1372l1098 1106c-254,978 -10,2138 1030,3186l4311 -4280c-1041,-1048 -2199,-1300 -3178,-1053z"/></g><path class="fil10" d="M11392 24687l-7806 0c-576,0 -1272,872 -696,872l8966 0c577,0 113,-872 -464,-872z"/><polygon class="fil11" points="6142,16440 5243,16440 5649,24687 7787,24687 "/><path class="fil11" d="M6188 17061l-657 -441 3454 -4923c-4,-28 -7,-57 -7,-86 0,-292 236,-528 527,-528 280,0 509,218 527,494l3 2 -3 4c0,9 1,18 1,28 0,238 -158,439 -375,504l-3470 4946z"/><path class="fil10" d="M5820 16088c-427,0 -774,346 -774,774 0,427 347,774 774,774 428,0 774,-347 774,-774 0,-428 -346,-774 -774,-774z"/><path class="fil1" d="M5820 16428c-239,0 -434,194 -434,434 0,240 195,434 434,434 240,0 434,-194 434,-434 0,-240 -194,-434 -434,-434z"/><polygon class="fil1" points="10431,24421 8827,24154 8827,24687 10431,24687 "/><path class="fil1" d="M9505 11359c-118,0 -214,96 -214,215 0,118 96,215 214,215 119,0 215,-97 215,-215 0,-119 -96,-215 -215,-215z"/><path class="fil7" d="M9903 3261l9342 0 0 316 -9342 0 0 -316zm0 2075l5163 0 0 316 -5163 0 0 -316zm0 -692l8115 0 0 316 -8115 0 0 -316zm0 -691l10803 0 0 316 -10803 0 0 -316z"/><path class="fil8" d="M24227 18944l4527 0c253,0 461,207 461,461l0 5675c0,253 -208,461 -461,461l-4527 0c-253,0 -461,-208 -461,-461l0 -5675c0,-254 208,-461 461,-461z"/><path class="fil12" d="M29215 20241l1274 0c421,0 765,298 765,663l0 3135c0,364 -344,663 -765,663l-1274 0 0 -528 1274 0c72,0 229,-46 229,-135l0 -3135c0,-89 -157,-136 -229,-136l-1274 0 0 -527z"/><path class="fil12" d="M28594 25541l0 -6597 160 0c253,0 461,204 461,453l0 5690c0,250 -208,454 -461,454l-160 0z"/><polygon class="fil10" points="25568,22034 26940,22034 26940,23252 25568,23252 "/><polygon class="fil13" points="25568,22034 26940,22034 26863,21781 25680,21781 "/><path class="fil14" d="M26310 18944l0 2958c0,40 -95,42 -96,0l0 -2958 96 0z"/><rect class="fil0" height="520" width="29088" x="2773" y="26974"/><polygon class="fil5" points="28639,7954 28073,9237 28067,8518 24385,10582 24293,10635 24217,10561 23286,9657 20495,11564 23265,9246 23341,9320 24337,10286 27848,8154 27228,7900 "/><circle class="fil0" cx="17317" cy="18913" r="485"/></g></g></svg>
