<?xml version="1.0" ?><!DOCTYPE svg  PUBLIC '-//W3C//DTD SVG 1.1//EN'  'http://www.w3.org/Graphics/SVG/1.1/DTD/svg11.dtd'><svg height="172px" style="shape-rendering:geometricPrecision; text-rendering:geometricPrecision; image-rendering:optimizeQuality; fill-rule:evenodd; clip-rule:evenodd" version="1.1" viewBox="0 0 22560 21629" width="180px" xml:space="preserve" xmlns="http://www.w3.org/2000/svg" xmlns:xlink="http://www.w3.org/1999/xlink"><defs><style type="text/css">
   <![CDATA[
    .fil2 {fill:#6C7678}
    .fil4 {fill:#83CF8F}
    .fil7 {fill:#B9C1C9}
    .fil0 {fill:#CCD2D9}
    .fil10 {fill:#ECF0F1}
    .fil1 {fill:#F2F2F2}
    .fil6 {fill:#FF7069}
    .fil5 {fill:#FFE356}
    .fil8 {fill:#FFE45E}
    .fil3 {fill:white}
    .fil9 {fill:white}
   ]]>
  </style></defs><g id="Layer_x0020_1"><g id="_452888760"><g><path class="fil0" d="M22017 0c299,0 543,245 543,543l0 19969c0,615 -501,1117 -1117,1117l-20326 0c-615,0 -1117,-502 -1117,-1117l0 -19969c0,-299 244,-543 543,-543l21474 0z"/><path class="fil1" d="M21865 476l-21170 0c-116,0 -212,96 -212,212l0 19686c0,429 349,779 778,779l20038 0c429,0 779,-350 779,-779l0 -19686c0,-116 -97,-212 -213,-212z"/></g><g><g><path class="fil2" d="M543 0l21474 0c299,0 543,244 543,543l0 1085 -22560 0 0 -1085c0,-299 244,-543 543,-543z"/><rect class="fil3" height="562" rx="196" ry="146" width="11189" x="9898" y="562"/><circle class="fil4" cx="1083" cy="778" r="312"/><circle class="fil5" cx="2316" cy="778" r="312"/><circle class="fil6" cx="3550" cy="778" r="312"/></g><g><circle class="fil4" cx="4181" cy="12480" r="1342"/><circle class="fil5" cx="11280" cy="12480" r="1342"/><circle class="fil6" cx="18379" cy="12480" r="1342"/></g><path class="fil7" d="M2256 15048l2587 0 0 272 -2587 0 0 -272zm0 -856l3851 0 0 272 -3851 0 0 -272z"/><path class="fil7" d="M9355 15048l2586 0 0 272 -2586 0 0 -272zm0 -856l3851 0 0 272 -3851 0 0 -272z"/><path class="fil7" d="M16454 15048l2586 0 0 272 -2586 0 0 -272zm0 -856l3850 0 0 272 -3850 0 0 -272z"/><polygon class="fil0" points="8798,20205 8798,16315 13763,16315 13763,20205 "/><rect class="fil7" height="83.7017" width="19714.9" x="1423" y="10663"/><g><path class="fil8" d="M10159 5485c19,-253 24,-531 14,-835 160,46 355,67 590,67l385 0 386 0c240,0 439,-22 600,-70 -10,305 -5,584 14,838l-1989 0z"/><path class="fil4" d="M9203 8905c0,96 -108,162 -242,149 -134,-13 -242,-101 -242,-196 0,-37 16,-70 44,-95l1383 -3252 0 0 3 -26 2009 0 3 26 -1 0 1384 3252c28,25 44,58 44,95 0,95 -109,183 -242,196 -134,13 -242,-53 -242,-149 0,-61 0,-47 0,0 0,96 -109,184 -242,197 -134,13 -242,-53 -242,-149 0,-63 0,-49 0,0 0,96 -108,184 -242,197 -134,13 -242,-54 -242,-149 0,-65 0,-50 0,0 0,95 -108,183 -242,197 -134,13 -242,-54 -242,-149 0,-66 0,-52 0,0 0,95 -108,183 -242,196 -134,14 -242,-53 -242,-149 0,-67 0,-53 0,0 0,21 -5,42 -15,61 -9,-19 -14,-40 -14,-61 0,-53 0,-67 0,0 0,96 -109,163 -242,149 -134,-13 -242,-101 -242,-196 0,-52 0,-66 0,0 0,95 -108,162 -242,149 -134,-14 -242,-102 -242,-197 0,-50 0,-65 0,0 0,95 -108,162 -242,149 -134,-13 -242,-101 -242,-197 0,-49 0,-63 0,0 0,96 -108,162 -242,149 -134,-13 -242,-101 -242,-197 0,-47 0,-61 0,0z"/><path class="fil6" d="M11148 4715l-336 0c-654,0 -956,-115 -1002,-436 -40,-275 56,-571 224,-814l57 -858 144 0 0 860c205,222 562,328 913,320 361,9 728,-104 930,-338l0 -842 145 0 57 883c157,238 246,523 207,789 -46,321 -348,436 -1002,436l-337 0z"/><path class="fil3" d="M8858 8539c3,11 4,22 4,34 0,49 -27,92 -67,115l63 -149zm3299 -2877c30,0 57,10 79,26l51 122c-8,64 -63,114 -130,114 -72,0 -131,-59 -131,-131 0,-72 59,-131 131,-131zm-571 0c73,0 131,59 131,131 0,72 -58,131 -131,131 -72,0 -131,-59 -131,-131 0,-72 59,-131 131,-131zm-571 0c73,0 131,59 131,131 0,72 -58,131 -131,131 -72,0 -131,-59 -131,-131 0,-72 59,-131 131,-131zm-571 0c73,0 131,59 131,131 0,72 -58,131 -131,131 -72,0 -131,-59 -131,-131 0,-72 59,-131 131,-131zm2080 703c-24,23 -56,36 -91,36 -72,0 -131,-58 -131,-131 0,-70 56,-127 126,-130l96 225zm-662 -226c73,0 131,59 131,131 0,73 -58,131 -131,131 -72,0 -131,-58 -131,-131 0,-72 59,-131 131,-131zm-571 0c73,0 131,59 131,131 0,73 -58,131 -131,131 -72,0 -131,-58 -131,-131 0,-72 59,-131 131,-131zm-571 0c73,0 131,59 131,131 0,73 -58,131 -131,131 -72,0 -131,-58 -131,-131 0,-72 59,-131 131,-131zm-571 0c73,0 131,59 131,131 0,73 -58,131 -131,131 -72,0 -130,-58 -130,-131 0,-72 58,-131 130,-131zm2581 712l-2 0c-72,0 -131,-59 -131,-131 0,-36 15,-69 38,-93l95 224zm-573 -262c73,0 131,58 131,131 0,72 -58,131 -131,131 -72,0 -131,-59 -131,-131 0,-73 59,-131 131,-131zm-571 0c73,0 131,58 131,131 0,72 -58,131 -131,131 -72,0 -131,-59 -131,-131 0,-73 59,-131 131,-131zm-571 0c73,0 131,58 131,131 0,72 -58,131 -131,131 -72,0 -131,-59 -131,-131 0,-73 59,-131 131,-131zm-571 0c73,0 131,58 131,131 0,72 -58,131 -131,131 -72,0 -131,-59 -131,-131 0,-73 59,-131 131,-131zm-571 0c73,0 131,58 131,131 0,72 -58,131 -131,131 -72,0 -131,-59 -131,-131 0,-73 59,-131 131,-131zm3048 709c-29,-24 -48,-60 -48,-101 0,-3 1,-6 1,-10l47 111zm-488 -232c73,0 131,59 131,131 0,72 -58,131 -131,131 -72,0 -131,-59 -131,-131 0,-72 59,-131 131,-131zm-571 0c73,0 131,59 131,131 0,72 -58,131 -131,131 -72,0 -131,-59 -131,-131 0,-72 59,-131 131,-131zm-571 0c73,0 131,59 131,131 0,72 -58,131 -131,131 -72,0 -131,-59 -131,-131 0,-72 59,-131 131,-131zm-571 0c73,0 131,59 131,131 0,72 -58,131 -131,131 -72,0 -131,-59 -131,-131 0,-72 59,-131 131,-131zm-571 0c73,0 131,59 131,131 0,72 -58,131 -131,131 -72,0 -130,-59 -130,-131 0,-72 58,-131 130,-131zm-570 0c72,0 130,59 130,131 0,72 -58,131 -130,131 -73,0 -131,-59 -131,-131 0,-72 58,-131 131,-131zm3149 449c73,0 131,59 131,131 0,73 -58,131 -131,131 -72,0 -131,-58 -131,-131 0,-72 59,-131 131,-131zm-571 0c73,0 131,59 131,131 0,73 -58,131 -131,131 -72,0 -131,-58 -131,-131 0,-72 59,-131 131,-131zm-571 0c73,0 131,59 131,131 0,73 -58,131 -131,131 -72,0 -131,-58 -131,-131 0,-72 59,-131 131,-131zm-571 0c73,0 131,59 131,131 0,73 -58,131 -131,131 -72,0 -131,-58 -131,-131 0,-72 59,-131 131,-131zm-571 0c73,0 131,59 131,131 0,73 -58,131 -131,131 -72,0 -131,-58 -131,-131 0,-72 59,-131 131,-131zm-571 0c73,0 131,59 131,131 0,73 -58,131 -131,131 -72,0 -131,-58 -131,-131 0,-72 59,-131 131,-131zm-571 0c73,0 131,59 131,131 0,73 -58,131 -131,131 -40,0 -76,-18 -100,-47l92 -214c3,-1 5,-1 8,-1zm3702 477c73,0 131,59 131,132 0,72 -58,131 -131,131 -72,0 -131,-59 -131,-131 0,-73 59,-132 131,-132zm-571 0c73,0 131,59 131,132 0,72 -58,131 -131,131 -72,0 -131,-59 -131,-131 0,-73 59,-132 131,-132zm-571 0c73,0 131,59 131,132 0,72 -58,131 -131,131 -72,0 -131,-59 -131,-131 0,-73 59,-132 131,-132zm-571 0c73,0 131,59 131,132 0,72 -58,131 -131,131 -72,0 -131,-59 -131,-131 0,-73 59,-132 131,-132zm-571 0c73,0 131,59 131,132 0,72 -58,131 -131,131 -72,0 -131,-59 -131,-131 0,-73 59,-132 131,-132zm-571 0c73,0 131,59 131,132 0,72 -58,131 -131,131 -72,0 -130,-59 -130,-131 0,-73 58,-132 130,-132zm-570 0c72,0 130,59 130,132 0,72 -58,131 -130,131 -73,0 -131,-59 -131,-131 0,-73 58,-132 131,-132zm-498 23c35,24 58,63 58,109 0,72 -59,131 -131,131 -10,0 -19,-1 -28,-3l101 -237zm4218 427c73,0 131,58 131,131 0,72 -58,131 -131,131 -72,0 -131,-59 -131,-131 0,-73 59,-131 131,-131zm-571 0c73,0 131,58 131,131 0,72 -58,131 -131,131 -72,0 -131,-59 -131,-131 0,-73 59,-131 131,-131zm-571 0c73,0 131,58 131,131 0,72 -58,131 -131,131 -72,0 -131,-59 -131,-131 0,-73 59,-131 131,-131zm-571 0c73,0 131,58 131,131 0,72 -58,131 -131,131 -72,0 -131,-59 -131,-131 0,-73 59,-131 131,-131zm-571 0c73,0 131,58 131,131 0,72 -58,131 -131,131 -72,0 -131,-59 -131,-131 0,-73 59,-131 131,-131zm-571 0c73,0 131,58 131,131 0,72 -58,131 -131,131 -72,0 -131,-59 -131,-131 0,-73 59,-131 131,-131zm-571 0c73,0 131,58 131,131 0,72 -58,131 -131,131 -72,0 -131,-59 -131,-131 0,-73 59,-131 131,-131zm-571 0c73,0 131,58 131,131 0,72 -58,131 -131,131 -72,0 -131,-59 -131,-131 0,-73 59,-131 131,-131z"/></g><path class="fil7" d="M20551 5039l341 0 533 888 -533 887 -341 0 532 -887 -532 -888zm-18542 0l-341 0 -532 888 532 887 341 0 -532 -887 532 -888z"/><path class="fil3" d="M6335 6028l374 0c15,0 28,13 28,28l0 0c0,15 -13,27 -28,27l-374 0c-15,0 -27,-12 -27,-27l0 0c0,-15 12,-28 27,-28z"/><g><path class="fil8" d="M18369 4416c0,0 447,325 512,719 40,236 37,382 28,462 -358,164 -975,455 -1080,563 -330,340 -911,1708 -1147,1778 -206,61 -1577,26 -1577,26 0,0 -264,-1 -320,-55 -22,-123 412,-140 412,-140l-18 -219c-6,-78 236,-221 306,-206 0,0 218,549 667,371l-414 -548c8,-12 13,-20 13,-20l233 -410c0,0 69,-120 415,139 346,258 473,385 473,385l429 -692c0,0 180,-1068 504,-1616 324,-547 564,-537 564,-537z"/><path class="fil7" d="M18909 5597c-6,53 -14,76 -14,76 0,0 -101,154 -250,986 -149,832 -92,1414 -92,1414l-267 0 99 -1995c-150,9 -364,64 -510,225 -490,537 -884,1727 -1211,1781 -28,5 -185,6 -225,7l-510 0c-398,-9 -1273,-18 -1144,-182 56,54 320,55 320,55 0,0 1371,35 1577,-26 236,-70 817,-1438 1147,-1778 105,-108 722,-399 1080,-563z"/><path class="fil6" d="M16016 6728c68,-14 187,2 383,148 346,258 473,385 473,385 0,0 -59,73 -409,-107 -249,-128 -388,-324 -447,-426z"/><path class="fil6" d="M15485 7344c74,186 251,389 462,405 -158,-160 -353,-431 -462,-405z"/></g><g><path class="fil6" d="M3769 5605l2455 0c283,0 474,173 515,379l374 1897c40,206 -233,379 -515,379l-3204 0c-282,0 -555,-173 -515,-379l375 -1897c40,-206 231,-379 515,-379z"/><path class="fil8" d="M6816 6374l98 497c-52,0 -104,-9 -155,-30 -426,-175 -996,-47 -1025,299 -30,347 74,504 35,606l-773 0 -772 0c-40,-102 64,-259 34,-606 -29,-346 -599,-474 -1025,-299 -51,21 -103,30 -154,30l98 -497 1819 22 1820 -22z"/><path class="fil9" d="M4687 7559l618 0 0 242c0,94 -76,170 -169,170l-280 0c-93,0 -169,-76 -169,-170l0 -242z"/><path class="fil7" d="M4304 4073c-141,258 -297,1433 -297,1433l220 0c0,0 -6,-940 211,-1386 155,-312 352,-443 558,-439 207,-4 403,127 558,439 217,446 211,1386 211,1386l220 0c0,0 -156,-1175 -297,-1433 -135,-311 -407,-484 -692,-480 -285,-4 -557,169 -692,480z"/><path class="fil8" d="M3975 5455l294 0 0 735 -294 0 0 -735zm1748 0l294 0 0 735 -294 0 0 -735z"/><path class="fil9" d="M3910 6036l21 0 0 42c-12,5 -20,17 -20,30l0 109c0,19 15,33 34,33l350 0c19,0 33,-14 33,-33l0 -109c0,-18 -14,-33 -32,-33l0 -39 34 0c26,0 48,21 48,48l0 157c0,27 -22,48 -48,48l-420 0c-26,0 -48,-21 -48,-48l0 -157c0,-27 22,-48 48,-48zm1752 0l21 0 0 42c-11,5 -19,17 -19,30l0 109c0,19 15,33 33,33l351 0c18,0 33,-14 33,-33l0 -109c0,-18 -15,-33 -33,-33l0 -39 34 0c26,0 48,21 48,48l0 157c0,27 -22,48 -48,48l-420 0c-26,0 -47,-21 -47,-48l0 -157c0,-27 21,-48 47,-48z"/><circle class="fil10" cx="4996" cy="7832" r="90"/><rect class="fil10" height="56.8126" width="702.745" x="4645" y="7538"/></g><rect class="fil7" height="83.7017" width="19714.9" x="1423" y="2006"/><rect class="fil6" height="723" rx="242" ry="362" width="2157" x="10075" y="9698"/><polygon class="fil0" points="2256,20205 2256,16315 7221,16315 7221,20205 "/><polygon class="fil0" points="15339,20205 15339,16315 20304,16315 20304,20205 "/></g></g></g></svg>