<?xml version="1.0" ?><!DOCTYPE svg  PUBLIC '-//W3C//DTD SVG 1.1//EN'  'http://www.w3.org/Graphics/SVG/1.1/DTD/svg11.dtd'><svg height="170px" style="shape-rendering:geometricPrecision; text-rendering:geometricPrecision; image-rendering:optimizeQuality; fill-rule:evenodd; clip-rule:evenodd" version="1.1" viewBox="0 0 30358 28794" width="180px" xml:space="preserve" xmlns="http://www.w3.org/2000/svg" xmlns:xlink="http://www.w3.org/1999/xlink"><defs><style type="text/css">
   <![CDATA[
    .fil3 {fill:#596366}
    .fil2 {fill:#6C7678}
    .fil12 {fill:#75BD80}
    .fil6 {fill:#83CF8F}
    .fil1 {fill:#C6CBD6}
    .fil5 {fill:#E4E7ED}
    .fil15 {fill:#E5E9EC}
    .fil4 {fill:#F2F2F2}
    .fil8 {fill:#F7635B}
    .fil13 {fill:#F9F9F9}
    .fil10 {fill:#FCD34E}
    .fil0 {fill:#FED298}
    .fil9 {fill:#FF7069}
    .fil11 {fill:#FFE356}
    .fil14 {fill:#FFF7DF}
    .fil7 {fill:white}
   ]]>
  </style></defs><g id="Layer_x0020_1"><g id="_434816584"><path class="fil0" d="M15747 10035c1364,-1287 5381,-2507 5857,-3079 476,-572 2139,-3632 2139,-3632l2604 2270c174,410 335,854 482,1327l-2132 2793c-274,359 -2388,4850 -5438,4791l-814 -878 58 -1037c-1778,-76 -3040,248 -3501,2563l571 454c3,1034 -438,957 -1198,527 -690,-391 -1017,-889 -1098,-1436 0,-581 1397,-3650 2470,-4663z"/><path class="fil1" d="M8456 12033c0,0 -6829,739 -7322,903 -492,164 -361,3103 -361,3103 0,0 7043,7273 8110,9588 1067,2315 2496,2216 4023,1773 1526,-443 7601,-2208 7790,-3086 189,-879 197,-2496 -58,-3062 -254,-567 -7240,-6617 -9062,-7618 -1823,-1002 -3120,-1601 -3120,-1601z"/><path class="fil2" d="M9264 11817c0,0 -7842,1023 -8130,1119 -288,96 -148,134 -199,292 66,100 4378,4195 5510,5770 1133,1576 3202,4351 3202,4351 0,0 1018,1379 2315,1199 1297,-181 8455,-1970 8652,-2627 52,-175 71,-364 70,-547 -25,-1583 -5292,-5644 -8862,-7822 -1970,-1202 -2558,-1735 -2558,-1735z"/><path class="fil3" d="M20178 22242c115,-56 211,-109 283,-159 2,-17 58,-495 -242,-991 -300,-496 -2570,-2646 -2701,-2766l-4535 -4101 -408 -202 4991 4804 2285 2339c19,19 352,408 327,1076zm-7598 -8121c62,30 44,21 0,0z"/><path class="fil4" d="M0 9010l6781 -743c1918,968 2804,3121 2965,4976l-6222 1038c335,-2769 -1174,-4714 -3524,-5271z"/><polygon class="fil5" points="3402,14718 6528,18186 14045,16335 10501,13330 "/><polygon class="fil6" points="4279,15005 6719,17788 13452,16179 10443,13700 "/><path class="fil5" d="M773 16039l36 1726c1,55 -3,229 40,325 449,994 2995,3856 3427,3882 1281,607 643,-766 3302,3141 2003,2942 2160,4464 5851,3275 1938,-624 7021,-2498 7021,-2498 0,0 557,-657 246,-1576 -189,878 -6264,2643 -7790,3086 -1527,443 -2956,542 -4023,-1773 -1067,-2315 -8110,-9588 -8110,-9588z"/><path class="fil6" d="M12898 14192l-112 -3125c0,0 17,-443 460,-49 443,394 4752,3986 4797,4025 29,44 291,195 279,624 -12,429 4,3704 4,3704l-5428 -5179z"/><path class="fil5" d="M8821 18925c362,-100 751,-195 871,-93 226,191 -352,617 -708,678 -438,76 -811,85 -856,-76 -12,-42 -23,-157 10,-205 92,-136 367,-216 683,-304z"/><ellipse class="fil7" rx="8620" ry="3255" transform="matrix(0.0901432 -0.0241526 0.0241526 0.090143 8913.09 19012.9)"/><path class="fil5" d="M11300 18121c362,-101 751,-196 871,-93 226,191 -352,617 -708,678 -438,75 -811,85 -856,-77 -12,-42 -23,-156 10,-205 92,-136 367,-215 683,-303z"/><ellipse class="fil7" rx="8620" ry="3255" transform="matrix(0.0898841 -0.0250995 0.0250996 0.0898839 11392.2 18208.4)"/><path class="fil5" d="M13817 17428c361,-100 750,-195 871,-93 226,191 -352,617 -708,679 -438,75 -812,84 -856,-77 -12,-42 -23,-157 10,-205 92,-136 367,-216 683,-304z"/><ellipse class="fil7" rx="8620" ry="3255" transform="matrix(0.0907449 -0.021783 0.0217831 0.0907447 13909 17515.9)"/><path class="fil5" d="M9921 20158c362,-101 751,-196 872,-94 225,192 -353,618 -709,679 -437,75 -811,85 -856,-77 -12,-42 -22,-157 10,-205 93,-136 367,-215 683,-303z"/><ellipse class="fil7" rx="8620" ry="3255" transform="matrix(0.0901432 -0.0241526 0.0241526 0.090143 10013.4 20245.2)"/><path class="fil5" d="M12400 19353c362,-100 751,-196 872,-93 225,191 -353,617 -709,678 -437,76 -811,85 -856,-76 -12,-43 -22,-157 10,-205 93,-136 367,-216 683,-304z"/><ellipse class="fil7" rx="8620" ry="3255" transform="matrix(0.0898841 -0.0250995 0.0250996 0.0898839 12492.5 19440.7)"/><path class="fil5" d="M14917 18661c362,-101 751,-196 872,-94 225,192 -353,618 -709,679 -438,75 -811,85 -856,-77 -12,-42 -22,-157 10,-205 93,-136 367,-215 683,-303z"/><ellipse class="fil7" rx="8620" ry="3255" transform="matrix(0.0907449 -0.021783 0.0217831 0.0907447 15009.3 18748.2)"/><path class="fil5" d="M11040 21473c362,-101 751,-196 872,-93 225,191 -353,617 -709,678 -438,75 -811,85 -856,-76 -12,-43 -22,-157 10,-205 93,-137 367,-216 683,-304z"/><ellipse class="fil7" rx="8620" ry="3255" transform="matrix(0.0901432 -0.0241526 0.0241526 0.090143 11132.4 21560.5)"/><path class="fil5" d="M13520 20669c361,-101 750,-196 871,-94 225,191 -353,618 -709,679 -437,75 -811,85 -856,-77 -12,-42 -22,-157 11,-205 92,-136 367,-215 683,-303z"/><ellipse class="fil7" rx="8620" ry="3255" transform="matrix(0.0898841 -0.0250995 0.0250996 0.0898839 13611.5 20756.1)"/><path class="fil5" d="M16036 19976c362,-101 751,-196 872,-93 225,191 -353,617 -709,678 -438,75 -811,85 -856,-76 -12,-43 -22,-157 10,-206 93,-135 367,-215 683,-303z"/><ellipse class="fil7" rx="8620" ry="3255" transform="matrix(0.0907449 -0.021783 0.0217831 0.0907447 16128.3 20063.6)"/><path class="fil8" d="M10839 22848c0,0 -137,70 -24,355 113,285 449,354 449,354 0,0 179,164 753,48 575,-115 1556,-421 1556,-421 0,0 304,-33 290,-319 -14,-286 -97,-344 -97,-344l-2927 327z"/><path class="fil9" d="M11009 22696c-65,43 -212,54 -170,152 19,43 71,101 180,186 363,281 547,453 1029,252 483,-201 1580,-517 1580,-517 0,0 343,-261 -48,-459 -391,-199 -235,-355 -2571,386z"/><path class="fil10" d="M13939 21894c0,0 -52,286 7,383 60,98 451,732 1049,538 400,-129 1491,-371 1199,-846 -24,-38 -26,-115 -62,-146 -382,-337 -2037,54 -2037,54l-156 17z"/><path class="fil11" d="M14359 21674c0,0 756,-126 969,-251 212,-125 718,-364 733,27 15,391 249,523 -146,699 -395,176 -1123,541 -1459,257 -197,-166 -482,-362 -517,-512 -24,-105 76,-187 420,-220z"/><path class="fil12" d="M16654 21241c0,0 -173,385 -55,722 117,338 501,236 707,190 206,-45 856,-327 1168,-380 312,-53 662,-223 594,-660 -67,-437 -79,-494 -79,-494l-2335 622z"/><path class="fil6" d="M16655 21678c0,0 27,319 843,62 817,-256 1518,-297 1516,-850 -2,-553 -158,-388 -533,-294 -376,94 -937,418 -1280,367 -658,-98 -547,314 -546,715z"/><path class="fil1" d="M2387 9465l4586 -602 205 175 -4514 598 -277 -171zm2449 3886l4405 -702 59 175 -4410 742 -54 -215zm-361 -1179l4409 -600 89 186 -4390 620 -108 -206zm-503 -992l4419 -618 112 194 -4409 640 -122 -216zm-677 -886l4412 -630 147 177 -4359 665 -200 -212z"/><path class="fil13" d="M14992 15187l2850 2468 0 485 -2850 -2469 0 -484zm323 -1103l2574 2239 0 485 -2574 -2240 0 -484z"/><path class="fil0" d="M15455 14309l2157 -990 349 -1815c398,-2068 3906,1842 2460,2843 -147,102 -1115,712 -1356,731l-1723 141 -1265 612c-1532,906 -2123,-833 -622,-1522z"/><path class="fil14" d="M15420 15969c-293,129 -781,-355 -558,-591l759 -453c0,0 332,665 566,703l-767 341z"/><polygon class="fil9" points="27319,8525 21572,3514 24788,0 30358,4358 "/><polygon class="fil15" points="27319,8525 21865,3769 21245,4481 26699,9237 "/><path class="fil13" d="M14080 12564c51,15 101,35 149,60l0 0 3 2c5,3 10,6 16,9l1 0 3 2c5,3 9,5 14,8l3 2c6,3 11,7 17,10l3 2c5,4 11,7 16,11l4 2c4,3 8,6 13,9l3 2 3 2c5,3 9,6 13,9l3 3 1 0c5,4 10,8 15,11l0 0 3 3 0 0c5,4 10,7 15,11l1 1 3 3c4,3 8,6 12,10l1 0 3 2 3 3c4,3 8,7 12,10l0 1 3 2c5,5 10,9 15,13l0 0 3 3c260,237 438,622 438,1006 0,385 -178,666 -438,752l-3 1 0 0c-5,2 -10,4 -15,5l-3 1 0 0c-4,1 -8,2 -12,3l-3 1 -3 1 -1 0c-4,1 -8,2 -12,3l-3 0 -1 1c-5,1 -10,2 -15,3l0 0 -3 0 0 0c-5,1 -10,2 -15,3l-1 0 -3 0c-4,1 -8,1 -13,2l-3 0 -3 1c-5,0 -9,1 -13,1l-4 0c-5,1 -11,1 -16,1l-3 0c-6,1 -11,1 -17,1l-3 0c-5,0 -9,0 -14,0l-3 0 -1 0c-6,0 -11,-1 -16,-1l-3 0 0 0c-48,-3 -98,-11 -149,-26 -38,-11 -75,-25 -112,-42l0 0 0 0c-12,-6 -24,-12 -36,-18l-5 -3c-4,-2 -9,-4 -13,-7l-5 -2 0 -1c-31,-17 -61,-36 -91,-58l0 0 -5 -3c-4,-3 -8,-7 -12,-10l-5 -3c-297,-228 -508,-647 -508,-1065 0,-419 211,-715 508,-771l5 0c6,-1 11,-2 17,-3 30,-4 60,-6 91,-6l0 0 5 0c4,1 9,1 13,1l5 0c12,1 24,2 36,3l0 0c33,10 74,12 112,23zm-110 228c-23,71 -43,147 -58,229 -42,-17 -82,-35 -122,-55 48,-74 110,-133 180,-174zm-267 128c-56,-31 -111,-66 -164,-103 108,-125 258,-190 429,-174 11,5 21,11 32,16 -122,47 -224,137 -297,261zm-221 -25c56,42 115,82 175,119 -40,96 -64,206 -70,329l-216 -63c8,-151 48,-282 111,-385zm257 165c50,26 102,51 155,73 -13,92 -21,190 -23,292l-203 -58c6,-116 31,-219 71,-307zm132 486c2,87 7,174 17,259 -57,-9 -112,-15 -165,-17 -30,-97 -49,-198 -55,-300l203 58zm-228 242c-63,2 -122,9 -179,20 -53,-128 -86,-267 -93,-407l216 63c5,110 24,219 56,324zm-128 131c54,-8 111,-12 169,-12 73,185 183,352 316,480 -11,0 -21,-1 -32,-2 -184,-89 -344,-259 -453,-466zm253 -9c44,3 90,9 136,17 16,107 39,211 66,310 -81,-94 -150,-206 -202,-327zm425 446c34,-96 62,-203 82,-318 63,26 123,56 182,89 -65,109 -157,188 -264,229zm347 -179c35,22 70,46 104,71 -99,130 -241,205 -404,204 124,-49 228,-145 300,-275zm155 -10c-36,-29 -74,-56 -112,-82 36,-92 58,-198 64,-314l142 42c-7,136 -41,256 -94,354zm-192 -132c-68,-41 -138,-78 -212,-110 10,-81 16,-165 18,-251l256 74c-6,106 -27,203 -62,287zm-194 -483c-2,-104 -10,-207 -23,-308 69,10 136,14 201,14 44,117 72,243 78,369l-256 -75zm258 -297c38,-3 74,-8 110,-15 64,141 104,296 112,452l-142 -41c-7,-135 -35,-270 -80,-396zm53 -125c-33,4 -66,6 -100,8 -71,-155 -167,-294 -280,-404 151,86 283,227 380,396zm-185 8c-54,-2 -110,-8 -168,-17 -19,-110 -44,-217 -74,-319 96,93 179,207 242,336zm-428 -82c24,8 47,15 71,22 32,10 63,18 94,25 -20,-121 -48,-239 -82,-349 -35,91 -62,192 -83,302zm184 170c-37,-7 -75,-17 -113,-28 -30,-9 -60,-18 -89,-29 -12,91 -20,185 -22,284l245 71c-2,-100 -9,-200 -21,-298zm-224 348c2,84 8,167 16,249 32,7 63,15 95,24 40,12 79,25 118,39 9,-77 14,-157 16,-241l-245 -71zm32 372c26,6 53,13 79,21 35,10 68,21 102,33 -21,127 -51,242 -90,345 -39,-126 -70,-260 -91,-399z"/></g></g></svg>