<?xml version="1.0" ?><!DOCTYPE svg  PUBLIC '-//W3C//DTD SVG 1.1//EN'  'http://www.w3.org/Graphics/SVG/1.1/DTD/svg11.dtd'><svg enable-background="new 0 0 256 256" id="Layer_1" version="1.1" viewBox="0 0 256 256" xml:space="preserve" xmlns="http://www.w3.org/2000/svg" xmlns:xlink="http://www.w3.org/1999/xlink"><g><circle cx="128" cy="128" fill="#EFEFEF" r="127"/><g><path d="M154.4,98.8h-1.7c-2.2,0-4.1,1.5-4.6,3.6l-3,12.2h-34.2l-3-12.2c-0.5-2.1-2.4-3.6-4.6-3.6h-1.7    c-1.9,0-3.7,1.1-4.4,2.9l-18.4,43.5h98.4l-18.4-43.5C158.1,99.9,156.3,98.8,154.4,98.8z" fill="#BF4028"/><polygon fill="#E65336" points="193.8,163.4 62.2,163.4 88.4,116.9 167.6,116.9   "/><path d="M191.8,181.7H64.2c-1.1,0-2-0.9-2-2v-16.3h131.6v16.3C193.8,180.8,192.9,181.7,191.8,181.7z" fill="#BF4028"/><path d="M202.9,103.2l-11.2-19c-3.6-6.1-10.2-9.9-17.3-9.9h-43.9h-5.1H81.6c-7.1,0-13.7,3.8-17.3,9.9l-11.2,19    c-2.3,4,0.5,9,5.1,9h28c3.1,0,5.8-2.2,6.4-5.3l1.6-8.6c0.5-2.8,3-4.8,5.8-4.8h25.3h5.1h25.3c2.9,0,5.3,2,5.8,4.8l1.6,8.6    c0.6,3.1,3.3,5.3,6.4,5.3h28C202.3,112.2,205.2,107.2,202.9,103.2z" fill="#E15D4A"/><g><g><polygon fill="#EDF0F2" points="117,130 109.9,130 110.7,125.6 117.4,125.6     "/><polygon fill="#EDF0F2" points="126.8,130 119.7,130 120,125.6 126.7,125.6     "/><polygon fill="#EDF0F2" points="136.6,130 129.5,130 129.3,125.6 136,125.6     "/><polygon fill="#EDF0F2" points="146.4,130 139.3,130 138.6,125.6 145.3,125.6     "/></g><g><polygon fill="#EDF0F2" points="116.3,136.9 108.7,136.9 109.6,131.8 116.8,131.8     "/><polygon fill="#EDF0F2" points="126.9,136.9 119.3,136.9 119.6,131.8 126.8,131.8     "/><polygon fill="#EDF0F2" points="137.5,136.9 129.9,136.9 129.6,131.8 136.8,131.8     "/><polygon fill="#EDF0F2" points="148.1,136.9 140.5,136.9 139.6,131.8 146.8,131.8     "/></g><g><polygon fill="#EDF0F2" points="115.6,145 107.3,145 108.3,139.1 116.1,139.1     "/><polygon fill="#EDF0F2" points="127.1,145 118.8,145 119.2,139.1 127,139.1     "/><polygon fill="#EDF0F2" points="138.6,145 130.3,145 130,139.1 137.8,139.1     "/><polygon fill="#EDF0F2" points="150.1,145 141.8,145 140.8,139.1 148.6,139.1     "/></g><g><polygon fill="#EDF0F2" points="114.7,154.7 105.6,154.7 106.9,147.6 115.3,147.6     "/><polygon fill="#EDF0F2" points="127.3,154.7 118.2,154.7 118.7,147.6 127.1,147.6     "/><polygon fill="#EDF0F2" points="139.9,154.7 130.8,154.7 130.4,147.6 138.9,147.6     "/><polygon fill="#EDF0F2" points="152.5,154.7 143.4,154.7 142.2,147.6 150.7,147.6     "/></g></g></g></g></svg>
