<?xml version="1.0" ?><!DOCTYPE svg  PUBLIC '-//W3C//DTD SVG 1.1//EN'  'http://www.w3.org/Graphics/SVG/1.1/DTD/svg11.dtd'><svg height="180px" style="shape-rendering:geometricPrecision; text-rendering:geometricPrecision; image-rendering:optimizeQuality; fill-rule:evenodd; clip-rule:evenodd" version="1.1" viewBox="0 0 41390 47591" width="156px" xml:space="preserve" xmlns="http://www.w3.org/2000/svg" xmlns:xlink="http://www.w3.org/1999/xlink"><defs><style type="text/css">
   <![CDATA[
    .fil0 {fill:black}
    .fil7 {fill:#6C7678}
    .fil2 {fill:#F7635B}
    .fil3 {fill:#FF7069}
    .fil1 {fill:#FFE356}
    .fil6 {fill:white}
    .fil4 {fill:white}
    .fil5 {fill:white;fill-rule:nonzero}
   ]]>
  </style></defs><g id="Layer_x0020_1"><g id="_450683472"><path class="fil0" d="M30288 14331c0,-397 -148,-699 -440,-905 -169,-122 -453,-236 -849,-345l0 2509c543,-24 919,-224 1125,-596 110,-189 164,-413 164,-663z"/><path class="fil0" d="M28547 9855c-422,15 -717,142 -898,381 -180,239 -268,489 -268,749 0,315 104,560 314,741 212,176 495,302 849,372l3 -2243 0 0z"/><path class="fil1" d="M28768 18347c3028,0 5486,-2455 5486,-5484 0,-3028 -2458,-5484 -5486,-5484 -3028,0 -5483,2456 -5483,5484 0,3030 2453,5484 5483,5484z"/><path class="fil0" d="M19375 5214c0,-297 -111,-525 -330,-681 -126,-90 -339,-175 -638,-258l0 1882c406,-18 692,-167 846,-447 80,-140 122,-306 122,-496z"/><path class="fil1" d="M18232 8228c2270,0 4113,-1843 4113,-4115 0,-2272 -1843,-4113 -4113,-4113 -2270,0 -4113,1841 -4113,4113 0,2274 1843,4115 4113,4115z"/><path class="fil2" d="M40530 36663c866,-904 945,-2578 804,-4817 -1018,-70 -2520,101 -3051,0 -1290,-2565 -3142,-4566 -5780,-5782 89,-1674 313,-3213 1281,-4014 -2353,-163 -4348,1430 -5616,2890 -1142,-1183 -2828,-2127 -4818,-2791 -5078,-1122 -9796,-1021 -14229,52 -2521,834 -4839,2141 -6644,4023 -1174,-90 -1041,-2470 482,-2086 -2478,-1689 -3845,2940 -1446,3531 -1999,2856 -2191,8988 482,11238 389,3381 988,6555 2632,8683l5393 1c-142,-1098 -285,-2267 -161,-3546 3278,743 7170,961 11075,643 602,999 1185,2016 1906,2901l5344 0c-194,-1414 -410,-2895 -23,-4348 1286,-242 7899,-1922 12369,-6578z"/><path class="fil3" d="M41336 34538c81,-767 62,-1671 -2,-2692 -1018,-70 -2519,101 -3051,0 -1289,-2565 -3142,-4566 -5780,-5782 89,-1674 313,-3213 1281,-4014 -2353,-163 -4348,1430 -5616,2890 -1142,-1183 -2828,-2127 -4818,-2791 -5078,-1122 -9796,-1021 -14229,52 -2521,834 -4839,2141 -6644,4023 -1174,-90 -1041,-2470 482,-2086 -2478,-1689 -3845,2940 -1446,3531 -1999,2856 -2191,8988 482,11238 30,260 61,520 94,778 4470,2240 10089,3575 16193,3575 9911,0 18545,-3520 23054,-8722z"/><path class="fil2" d="M16195 22841c2555,0 4922,494 6860,1334l-908 1201c-1649,-777 -3712,-1238 -5952,-1238 -2240,0 -4303,461 -5952,1238l-908 -1201c1939,-840 4305,-1334 6860,-1334z"/><path class="fil1" d="M21560 24166c1186,-1270 1914,-2971 1914,-4845 0,-3916 -3178,-7090 -7091,-7090 -3915,0 -7090,3174 -7090,7090 0,1939 780,3691 2042,4969 3302,-1070 6888,-1112 10225,-124z"/><path class="fil4" d="M16042 23466c239,-9 478,-12 717,-11l0 -8c540,-44 1005,-185 1398,-422 392,-239 689,-544 891,-920 203,-374 303,-775 303,-1205 0,-344 -64,-658 -189,-947 -127,-287 -309,-536 -542,-742 -218,-201 -466,-353 -744,-458 -276,-105 -650,-223 -1117,-350l0 -2351c475,154 773,469 899,939 108,399 349,600 719,600 197,0 363,-70 502,-207 136,-137 206,-300 206,-489 0,-170 -47,-355 -139,-560 -93,-202 -224,-400 -394,-593 -215,-253 -466,-440 -755,-566 -288,-123 -635,-206 -1038,-248l0 -612c0,-308 -119,-462 -361,-462 -237,0 -356,158 -356,474l0 600c-779,67 -1375,308 -1788,723 -412,413 -619,945 -619,1593 0,498 106,904 317,1220 210,317 485,560 825,731 339,172 760,326 1265,467l0 2626c-252,-71 -455,-175 -608,-311 -152,-134 -266,-284 -343,-448 -75,-165 -164,-402 -264,-710 -46,-143 -127,-255 -243,-334 -117,-79 -260,-117 -430,-117 -210,0 -385,73 -526,217 -143,145 -212,309 -212,488 0,246 51,496 157,751 105,252 269,497 488,734 220,235 496,432 826,590 329,159 715,263 1155,311l0 7zm0 -5274l0 -2163c-316,95 -563,218 -741,372 -177,154 -266,390 -266,702 0,297 83,523 249,675 166,152 418,291 758,414zm717 1678l0 2476c380,-75 673,-228 881,-457 207,-232 311,-497 311,-804 0,-328 -100,-581 -303,-760 -200,-179 -497,-332 -889,-455z"/><path class="fil5" d="M18411 1557l0 292c193,20 358,60 495,119 138,60 258,149 361,269 81,93 143,187 188,284 44,97 66,186 66,267 0,90 -33,168 -98,234 -67,65 -146,98 -240,98 -176,0 -291,-96 -343,-286 -60,-225 -203,-375 -429,-448l0 1121c223,61 401,117 533,168 132,50 251,122 355,218 111,98 198,217 259,354 59,138 90,288 90,452 0,205 -48,397 -144,575 -97,180 -239,325 -426,439 -187,113 -409,181 -667,202l0 671c0,106 -10,184 -31,232 -20,49 -66,73 -136,73 -65,0 -110,-19 -136,-59 -26,-39 -39,-101 -39,-184l0 -728c-210,-23 -394,-72 -551,-148 -158,-75 -289,-169 -394,-282 -105,-113 -183,-230 -233,-350 -51,-122 -75,-241 -75,-358 0,-86 33,-164 101,-233 67,-69 151,-104 251,-104 81,0 149,19 205,56 55,38 94,91 116,160 48,146 91,260 126,338 37,78 91,150 164,214 73,65 170,115 290,149l0 -1254c-241,-67 -442,-140 -604,-222 -162,-82 -293,-198 -394,-349 -100,-151 -151,-345 -151,-583 0,-309 99,-563 296,-760 197,-198 481,-312 853,-345l0 -286c0,-151 57,-227 170,-227 115,0 172,74 172,221zm-342 1850l0 -1032c-151,45 -269,103 -353,177 -85,74 -127,186 -127,335 0,142 39,250 118,322 79,73 200,139 362,198zm342 801l0 1181c181,-36 321,-108 421,-218 98,-110 148,-237 148,-384 0,-156 -48,-277 -145,-362 -95,-86 -237,-158 -424,-217z"/><path class="fil5" d="M29060 8727l0 472c311,32 579,96 801,192 223,96 417,241 583,436 131,149 232,302 304,458 71,158 107,301 107,432 0,146 -53,273 -159,378 -107,106 -235,159 -387,159 -286,0 -472,-154 -556,-463 -96,-363 -327,-605 -693,-724l0 1814c360,99 649,190 862,271 214,81 406,198 574,353 180,160 321,352 419,573 96,224 146,466 146,731 0,332 -78,642 -234,931 -156,290 -386,526 -688,710 -303,183 -662,292 -1079,326l0 1087c0,171 -16,296 -51,375 -33,79 -106,118 -220,118 -104,0 -177,-31 -220,-96 -42,-64 -63,-163 -63,-297l0 -1178c-340,-37 -637,-118 -892,-240 -254,-122 -467,-274 -637,-455 -170,-183 -296,-372 -377,-567 -82,-197 -122,-390 -122,-580 0,-138 54,-265 164,-376 109,-112 244,-169 406,-169 132,0 242,30 332,91 90,61 152,148 188,258 77,238 146,421 204,548 60,126 147,243 265,347 118,104 274,184 469,240l0 -2028c-390,-109 -715,-228 -977,-361 -262,-132 -475,-320 -637,-564 -162,-244 -244,-558 -244,-942 0,-501 159,-912 478,-1230 318,-320 779,-506 1380,-558l0 -463c0,-245 92,-367 275,-367 187,0 279,119 279,358zm-554 2992l0 -1670c-244,73 -435,168 -572,287 -137,119 -205,301 -205,542 0,229 64,403 192,521 128,118 323,225 585,320zm554 1295l0 1912c293,-58 520,-176 680,-353 159,-178 240,-384 240,-621 0,-253 -77,-448 -234,-586 -155,-139 -384,-256 -686,-352z"/><path class="fil6" d="M33158 29495c734,0 1327,594 1327,1325 0,736 -593,1328 -1327,1328 -731,0 -1326,-596 -1326,-1328 -2,-729 596,-1325 1326,-1325z"/><path class="fil7" d="M33371 29951c297,0 538,241 538,538 0,298 -241,538 -538,538 -296,0 -538,-242 -538,-538 0,-296 242,-538 538,-538z"/></g></g></svg>