<?xml version="1.0" ?><!DOCTYPE svg  PUBLIC '-//W3C//DTD SVG 1.1//EN'  'http://www.w3.org/Graphics/SVG/1.1/DTD/svg11.dtd'><svg height="180px" style="shape-rendering:geometricPrecision; text-rendering:geometricPrecision; image-rendering:optimizeQuality; fill-rule:evenodd; clip-rule:evenodd" version="1.1" viewBox="0 0 435703 447084" width="175px" xml:space="preserve" xmlns="http://www.w3.org/2000/svg" xmlns:xlink="http://www.w3.org/1999/xlink"><defs><style type="text/css">
   <![CDATA[
    .fil6 {fill:#6B7F9E}
    .fil8 {fill:#75BD80}
    .fil1 {fill:#83CF8F}
    .fil5 {fill:#8597B1}
    .fil2 {fill:#B9C1C9}
    .fil7 {fill:#E5E8ED}
    .fil0 {fill:#F2F2F2}
    .fil3 {fill:#FF7069}
    .fil4 {fill:#FFE356}
    .fil9 {fill:#F2F2F2;fill-rule:nonzero}
   ]]>
  </style></defs><g id="Layer_x0020_1"><g id="_351076792"><rect class="fil0" height="395255" width="312971" y="51829"/><rect class="fil1" height="28749" width="267290" x="21701" y="72170"/><rect class="fil2" height="7628" width="156750" x="21701" y="291018"/><rect class="fil2" height="7628" width="156750" x="21701" y="312140"/><rect class="fil2" height="7628" width="156750" x="21701" y="333261"/><rect class="fil2" height="7628" width="156750" x="21701" y="354383"/><rect class="fil2" height="7628" width="156750" x="21701" y="375505"/><rect class="fil2" height="7628" width="156750" x="21701" y="396627"/><rect class="fil2" height="7628" width="105574" x="21701" y="417749"/><rect class="fil2" height="7628" width="90359" x="198631" y="291018"/><rect class="fil1" height="49580" width="90359" x="198631" y="309500"/><rect class="fil2" height="7628" width="90359" x="198631" y="375505"/><rect class="fil2" height="7628" width="90359" x="198631" y="396627"/><g><polygon class="fil2" points="53527,201836 70791,201836 70791,251554 53527,251554 "/><polygon class="fil1" points="84968,191964 102235,191964 102235,251554 84968,251554 "/><polygon class="fil3" points="116409,211963 133676,211963 133676,251554 116409,251554 "/><polygon class="fil2" points="147853,170747 165120,170747 165120,251554 147853,251554 "/><polygon class="fil1" points="179294,201574 196561,201574 196561,251554 179294,251554 "/><polygon class="fil3" points="210738,185891 228002,185891 228002,251554 210738,251554 "/><polygon class="fil2" points="242179,152118 259445,152118 259445,251554 242179,251554 "/></g><rect class="fil4" height="11127" width="267290" x="21701" y="113838"/><path class="fil5" d="M235814 15760l125593 60767c6641,5078 4714,36452 3910,42293 -808,5839 -4770,3795 -9135,-760 -4364,-4553 9287,-31068 -1853,-35914l-138766 -60383c1360,-2487 3440,-5037 5866,-5830 3483,-1142 7421,-1433 14385,-173z"/><path class="fil5" d="M402353 72847l-136402 -29038c-8350,-62 -25966,25934 -28892,31047 -2925,5116 1457,5930 7690,5008 6229,-923 11607,-30272 23372,-27268l146585 37427c443,-2802 352,-6094 -1078,-8212 -2062,-3040 -4999,-5686 -11275,-8964z"/><path class="fil6" d="M213502 1339c15237,326 78718,20695 85200,27975 722,808 15046,10327 15034,10356l6051 2570 6350 1680c8,-29 17146,1237 18209,1040 9540,-1774 71814,20935 84337,30090 3507,1395 7078,2990 6993,3671 420,1742 -4379,12430 -4864,12782 -381,135 -2114,118 -4793,-3 -587,523 -1201,1254 -1806,2247 -2517,4144 -12532,22330 -15942,28554 -13428,24512 -56488,17273 -74410,2394 -16174,-13431 -12885,-46062 -13440,-52291 -109,-1222 50,-3078 373,-5261 -2388,-2772 -5448,-5756 -7539,-5727 -1639,-1310 -5877,-825 -9457,-100 -1078,1927 -2083,3490 -2917,4391 -4235,4585 -21540,32413 -42528,33106 -23250,767 -61719,-19942 -57390,-47571 1099,-7013 4274,-27546 4808,-32369 135,-1216 141,-2232 62,-3057 -1862,-1328 -3025,-2223 -3225,-2535 -170,-575 2555,-11974 3950,-13093 321,-549 3589,206 6944,1151zm-285 27312c-420,2813 -870,5627 -1290,8406 -787,5180 -1583,10361 -2396,15536 -3372,21523 30844,38105 48537,37524 772,-27 1539,-109 2297,-241 4931,-858 9657,-3818 13501,-6914 4655,-3747 8803,-8291 12568,-12923 2347,-2887 4687,-6323 7119,-9157 4227,-9079 3387,-15978 1566,-20545 -14330,-9630 -61793,-31250 -74698,-23919 -3280,1862 -6370,6755 -7204,12233zm199145 68259c-1383,2485 -2746,4987 -4109,7443 -2538,4579 -5066,9163 -7583,13757 -10462,19093 -47639,11204 -61276,-118 -596,-493 -1151,-1031 -1671,-1600 -3374,-3707 -5307,-8947 -6461,-13755 -1395,-5824 -1903,-11962 -2056,-17939 -94,-3724 150,-7874 -44,-11610 2194,-9774 7069,-14717 11296,-17211 17208,1178 67933,13217 73669,26938 1457,3484 916,9252 -1765,14095z"/><path class="fil7" d="M209651 51830l44663 0c-7586,8071 -15392,19775 -17252,23026 -2925,5116 1457,5930 7687,5008 6229,-920 11610,-30272 23372,-27271l26137 6676c-217,526 -452,1069 -708,1613 -2432,2834 -4769,6267 -7113,9157 -3771,4635 -7916,9176 -12571,12923 -3844,3096 -8573,6054 -13501,6914 -758,129 -1525,214 -2297,238 -17693,584 -51909,-15998 -48537,-37521l120 -763z"/><path class="fil8" d="M238725 72169c-743,1145 -1310,2070 -1663,2687 -2925,5116 1457,5930 7687,5008 2003,-297 3921,-3536 5988,-7695l33932 0c-3290,3882 -6864,7621 -10803,10793 -3844,3096 -8573,6054 -13501,6914 -758,129 -1525,214 -2297,238 -11742,388 -30757,-6785 -41236,-17945l21893 0z"/><rect class="fil2" height="4732" width="267290" x="21701" y="261057"/><path class="fil9" d="M343262 62926c-6993,9431 -7724,26968 -8488,41635 -4097,-24016 -575,-41030 8488,-41635z"/><path class="fil9" d="M227508 23940c-6993,9428 -7724,26965 -8488,41632 -4097,-24016 -575,-41030 8488,-41632z"/></g></g></svg>