<?xml version="1.0" ?><!DOCTYPE svg  PUBLIC '-//W3C//DTD SVG 1.1//EN'  'http://www.w3.org/Graphics/SVG/1.1/DTD/svg11.dtd'><svg height="100px" style="shape-rendering:geometricPrecision; text-rendering:geometricPrecision; image-rendering:optimizeQuality; fill-rule:evenodd; clip-rule:evenodd" version="1.1" viewBox="0 0 491770 272579" width="180px" xml:space="preserve" xmlns="http://www.w3.org/2000/svg" xmlns:xlink="http://www.w3.org/1999/xlink"><defs><style type="text/css">
   <![CDATA[
    .fil0 {fill:#596366}
    .fil5 {fill:#6C7678}
    .fil9 {fill:#83CF8F}
    .fil7 {fill:#8597B1}
    .fil6 {fill:#B6B6B8}
    .fil4 {fill:#B9C1C9}
    .fil3 {fill:#CCD2D9}
    .fil12 {fill:#DCE3DB}
    .fil2 {fill:#E4E7ED}
    .fil11 {fill:#FF7069}
    .fil10 {fill:#FFE356}
    .fil8 {fill:white}
    .fil1 {fill:white}
   ]]>
  </style></defs><g id="Layer_x0020_1"><g id="_406113576"><path class="fil0" d="M41757 0l366017 0c12024,0 21859,9836 21859,21859l0 225467 -409735 0 0 -225467c0,-12023 9836,-21859 21859,-21859z"/><path class="fil1" d="M34746 232479l380043 0 0 -210616c0,-3833 -3189,-7019 -7018,-7019l-366010 0c-3829,0 -7015,3186 -7015,7019l0 210616z"/><polygon class="fil2" points="42610,44892 406924,44892 406924,129224 42610,129224 "/><path class="fil3" d="M0 247326l449535 0 0 12628c0,6944 -5681,12625 -12625,12625l-424286 0c-6943,0 -12624,-5681 -12624,-12625l0 -12628z"/><polygon class="fil4" points="179900,251941 269635,251941 260022,258322 189513,258322 "/><rect class="fil0" height="193189" rx="7719" ry="7719" width="149875" x="312381" y="79388"/><rect class="fil1" height="161432" rx="897" ry="845" width="132901" x="320868" y="93061"/><circle class="fil2" cx="387319" cy="263209" r="5035"/><polygon class="fil2" points="327862,113055 446775,113055 446775,183138 327862,183138 "/><rect class="fil5" height="124044" rx="3917" ry="5376" width="70118" x="421653" y="148533"/><rect class="fil1" height="100821" rx="386" ry="528" width="57220" x="428103" y="160145"/><circle class="fil2" cx="456712" cy="266246" r="3541"/><rect class="fil6" height="1733" rx="867" ry="867" width="20683" x="446371" y="154927"/><path class="fil7" d="M414789 38329l-380043 0 0 -16466c0,-3833 3186,-7019 7015,-7019l366010 0c3829,0 7018,3186 7018,7019l0 16466z"/><path class="fil8" d="M196932 21565l194679 0c1435,0 2605,1170 2605,2605l0 4834c0,1431 -1170,2604 -2605,2604l-194679 0c-1435,0 -2605,-1173 -2605,-2604l0 -4834c0,-1435 1170,-2605 2605,-2605z"/><path class="fil9" d="M50915 21388c3250,0 5890,2633 5890,5890 0,3254 -2640,5888 -5890,5888 -3254,0 -5894,-2634 -5894,-5888 0,-3257 2640,-5890 5894,-5890z"/><path class="fil10" d="M74164 21388c3257,0 5890,2633 5890,5890 0,3254 -2633,5888 -5890,5888 -3251,0 -5891,-2634 -5891,-5888 0,-3257 2640,-5890 5891,-5890z"/><path class="fil11" d="M97419 21388c3251,0 5887,2633 5887,5890 0,3254 -2636,5888 -5887,5888 -3257,0 -5897,-2634 -5897,-5888 0,-3257 2640,-5890 5897,-5890z"/><path class="fil9" d="M83043 149571c9387,0 16996,7607 16996,16993 0,9387 -7609,16994 -16996,16994 -9383,0 -16993,-7607 -16993,-16994 0,-9386 7610,-16993 16993,-16993z"/><path class="fil10" d="M170843 149571c9383,0 16993,7607 16993,16993 0,9387 -7610,16994 -16993,16994 -9387,0 -16994,-7607 -16994,-16994 0,-9386 7607,-16993 16994,-16993z"/><path class="fil2" d="M58660 190844l48769 0 0 2646 -48769 0 0 -2646zm0 16628l32759 0 0 2643 -32759 0 0 -2643zm0 -8314l48769 0 0 2643 -48769 0 0 -2643z"/><path class="fil2" d="M146460 190844l48766 0 0 2646 -48766 0 0 -2646zm0 16628l32758 0 0 2643 -32758 0 0 -2643zm0 -8314l48766 0 0 2643 -48766 0 0 -2643z"/><path class="fil11" d="M264038 149571c9384,0 16993,7607 16993,16993 0,9387 -7609,16994 -16993,16994 -9386,0 -16993,-7607 -16993,-16994 0,-9386 7607,-16993 16993,-16993z"/><path class="fil2" d="M239652 190844l48769 0 0 2646 -48769 0 0 -2646zm0 16628l32759 0 0 2643 -32759 0 0 -2643zm0 -8314l48769 0 0 2643 -48769 0 0 -2643z"/><path class="fil9" d="M351547 193238c5826,0 10547,4725 10547,10550 0,5823 -4721,10547 -10547,10547 -5826,0 -10547,-4724 -10547,-10547 0,-5825 4721,-10550 10547,-10550z"/><path class="fil12" d="M336412 218859l30270 0 0 2139 -30270 0 0 -2139zm0 13452l20334 0 0 2139 -20334 0 0 -2139zm0 -6728l30270 0 0 2139 -30270 0 0 -2139z"/><path class="fil10" d="M392716 193238c5826,0 10547,4725 10547,10550 0,5823 -4721,10547 -10547,10547 -5826,0 -10546,-4724 -10546,-10547 0,-5825 4720,-10550 10546,-10550z"/><path class="fil2" d="M377581 218859l30271 0 0 2139 -30271 0 0 -2139zm0 13452l20334 0 0 2139 -20334 0 0 -2139zm0 -6728l30271 0 0 2139 -30271 0 0 -2139z"/><path class="fil7" d="M453771 108415l-132905 0 0 -14457c0,-494 404,-898 899,-898l131108 0c494,0 898,404 898,898l0 14457z"/><path class="fil9" d="M330718 97429c1910,0 3458,1547 3458,3457 0,1910 -1548,3458 -3458,3458 -1909,0 -3457,-1548 -3457,-3458 0,-1910 1548,-3457 3457,-3457z"/><path class="fil10" d="M340448 97429c1913,0 3457,1547 3457,3457 0,1910 -1544,3458 -3457,3458 -1907,0 -3454,-1548 -3454,-3458 0,-1910 1547,-3457 3454,-3457z"/><path class="fil11" d="M350180 97429c1913,0 3458,1547 3458,3457 0,1910 -1545,3458 -3458,3458 -1909,0 -3457,-1548 -3457,-3458 0,-1910 1548,-3457 3457,-3457z"/><path class="fil8" d="M369581 98201l79033 0c581,0 1056,627 1056,1393l0 2585c0,769 -475,1392 -1056,1392l-79033 0c-585,0 -1060,-623 -1060,-1392l0 -2585c0,-766 475,-1393 1060,-1393z"/><path class="fil7" d="M485324 166852l-57222 0 0 -6320c0,-217 174,-388 388,-388l56446 0c214,0 388,171 388,388l0 6320z"/><path class="fil9" d="M432144 161281c1092,0 1978,883 1978,1975 0,1092 -886,1977 -1978,1977 -1089,0 -1974,-885 -1974,-1977 0,-1092 885,-1975 1974,-1975z"/><path class="fil10" d="M437708 161281c1092,0 1975,883 1975,1975 0,1092 -883,1977 -1975,1977 -1092,0 -1977,-885 -1977,-1977 0,-1092 885,-1975 1977,-1975z"/><path class="fil11" d="M443269 161281c1092,0 1978,883 1978,1975 0,1092 -886,1977 -1978,1977 -1089,0 -1974,-885 -1974,-1977 0,-1092 885,-1975 1974,-1975z"/><rect class="fil8" height="3611" rx="772" ry="772" width="33361" x="450534" y="161536"/><polygon class="fil2" points="430877,169017 482548,169017 482548,199472 430877,199472 "/><path class="fil9" d="M458230 205721c5296,0 9590,4294 9590,9590 0,5296 -4294,9590 -9590,9590 -5296,0 -9590,-4294 -9590,-9590 0,-5296 4294,-9590 9590,-9590z"/><path class="fil2" d="M441586 231887l33291 0 0 2353 -33291 0 0 -2353zm0 14793l22360 0 0 2352 -22360 0 0 -2352zm0 -7396l33291 0 0 2352 -33291 0 0 -2352z"/><rect class="fil6" height="1733" rx="1482" ry="867" width="35349" x="369645" y="84881"/></g></g></svg>