<?xml version="1.0" ?><!DOCTYPE svg  PUBLIC '-//W3C//DTD SVG 1.1//EN'  'http://www.w3.org/Graphics/SVG/1.1/DTD/svg11.dtd'><svg height="151px" style="shape-rendering:geometricPrecision; text-rendering:geometricPrecision; image-rendering:optimizeQuality; fill-rule:evenodd; clip-rule:evenodd" version="1.1" viewBox="0 0 74517 62459" width="180px" xml:space="preserve" xmlns="http://www.w3.org/2000/svg" xmlns:xlink="http://www.w3.org/1999/xlink"><defs><style type="text/css">
   <![CDATA[
    .fil11 {fill:#21D0C3}
    .fil0 {fill:#6C7678}
    .fil9 {fill:#83CF8F}
    .fil10 {fill:#C6CBD6}
    .fil13 {fill:#CCD2D9}
    .fil3 {fill:#E4E7ED}
    .fil12 {fill:#E5E8ED}
    .fil2 {fill:#F2F2F2}
    .fil8 {fill:#FF7069}
    .fil1 {fill:white}
    .fil7 {fill:#6C7678;fill-rule:nonzero}
    .fil6 {fill:#83CF8F;fill-rule:nonzero}
    .fil4 {fill:#FF7069;fill-rule:nonzero}
    .fil5 {fill:#FFE356;fill-rule:nonzero}
   ]]>
  </style></defs><g id="Layer_x0020_1"><g id="_438733920"><path class="fil0" d="M3976 0l66566 0c2186,0 3975,1789 3975,3976l0 41005 -74517 0 0 -41005c0,-2187 1789,-3976 3976,-3976z"/><path class="fil1" d="M2700 42280l69118 0 0 -38304c0,-697 -580,-1276 -1277,-1276l-66565 0c-696,0 -1276,579 -1276,1276l0 38304z"/><path class="fil2" d="M74517 44981l0 4348c0,2187 -1972,3976 -4383,3976l-65751 0c-2411,0 -4383,-1789 -4383,-3976l0 -4348 74517 0z"/><rect class="fil3" height="4062" width="47489" x="22205" y="4983"/><rect class="fil3" height="7611" width="55414" x="5302" y="12176"/><rect class="fil3" height="7611" width="55414" x="5302" y="22081"/><rect class="fil3" height="7611" width="55414" x="5302" y="31985"/><path class="fil4" d="M6647 5225c-20,35 -41,60 -63,75 -22,16 -51,24 -84,24 -34,0 -72,-13 -113,-38 -40,-26 -89,-54 -145,-86 -57,-31 -122,-60 -198,-86 -74,-26 -164,-38 -267,-38 -92,0 -174,11 -243,33 -70,22 -128,54 -175,94 -47,39 -83,86 -106,142 -23,56 -35,117 -35,183 0,85 24,155 71,211 47,57 110,105 187,144 78,40 167,76 266,107 100,32 202,65 306,100 104,36 206,77 305,125 100,47 188,107 266,179 78,72 141,160 188,264 48,105 71,232 71,381 0,162 -28,313 -83,455 -55,142 -137,265 -243,370 -108,106 -238,188 -392,249 -154,60 -331,91 -529,91 -115,0 -227,-12 -338,-34 -111,-23 -218,-54 -319,-95 -102,-42 -198,-92 -287,-149 -90,-59 -170,-123 -239,-194l196 -321c17,-23 38,-43 65,-59 26,-15 55,-23 84,-23 42,0 87,17 135,51 48,34 105,72 171,113 66,42 144,79 233,113 88,34 194,51 318,51 191,0 339,-45 443,-135 104,-91 156,-220 156,-389 0,-94 -23,-171 -70,-231 -47,-59 -110,-110 -188,-151 -78,-40 -167,-74 -266,-102 -100,-29 -201,-59 -303,-92 -103,-33 -204,-73 -303,-119 -100,-47 -188,-108 -266,-182 -78,-74 -140,-168 -187,-280 -47,-112 -71,-249 -71,-413 0,-131 26,-258 78,-383 52,-124 128,-234 227,-330 100,-96 222,-173 368,-231 145,-58 313,-87 502,-87 212,0 407,33 586,99 179,66 331,159 457,279l-166 315z"/><path class="fil5" d="M8997 6596c0,-79 -11,-154 -33,-225 -22,-70 -56,-131 -101,-185 -45,-52 -101,-95 -170,-125 -69,-31 -149,-46 -240,-46 -177,0 -316,51 -418,152 -102,101 -168,244 -196,429l1158 0zm-1170 370c10,132 33,244 69,339 37,96 85,175 145,236 59,62 130,109 212,139 82,31 173,47 272,47 99,0 185,-11 257,-35 72,-23 136,-49 189,-77 54,-28 101,-54 142,-77 41,-23 79,-35 117,-35 52,0 90,19 115,57l176 224c-68,79 -144,146 -228,199 -85,55 -173,97 -264,130 -92,32 -186,55 -281,69 -95,13 -188,19 -277,19 -178,0 -343,-30 -495,-88 -152,-59 -285,-146 -398,-261 -112,-115 -201,-258 -265,-427 -65,-170 -97,-367 -97,-590 0,-174 28,-338 84,-491 56,-153 137,-287 243,-400 105,-114 233,-203 385,-269 151,-66 322,-100 512,-100 161,0 310,26 445,77 136,52 253,126 350,225 98,98 175,219 231,363 55,143 83,307 83,490 0,93 -11,156 -30,187 -20,33 -58,49 -114,49l-1578 0z"/><path class="fil6" d="M11355 7076c-177,8 -327,23 -448,46 -120,22 -217,51 -290,86 -73,35 -125,75 -157,121 -31,47 -47,97 -47,152 0,107 33,185 96,231 64,47 147,70 250,70 125,0 235,-23 327,-69 92,-46 181,-114 269,-207l0 -430zm-1406 -1106c293,-268 646,-402 1058,-402 149,0 282,24 400,73 118,48 217,117 298,204 81,86 144,191 186,312 42,121 63,253 63,397l0 1610 -279 0c-58,0 -103,-9 -134,-26 -31,-18 -56,-53 -74,-106l-55 -183c-65,58 -128,108 -189,152 -61,44 -125,81 -191,111 -66,30 -137,52 -212,68 -76,15 -159,24 -250,24 -108,0 -208,-15 -299,-44 -91,-29 -169,-72 -236,-130 -66,-58 -117,-130 -153,-216 -37,-86 -55,-187 -55,-301 0,-64 11,-129 32,-193 22,-63 57,-124 106,-182 49,-58 112,-113 190,-164 78,-51 174,-96 287,-134 113,-38 246,-70 396,-94 151,-23 323,-38 517,-43l0 -149c0,-170 -37,-297 -109,-379 -74,-82 -178,-123 -316,-123 -99,0 -181,12 -247,35 -65,24 -123,49 -173,78 -50,29 -94,56 -135,79 -40,23 -86,35 -136,35 -43,0 -79,-12 -109,-34 -30,-23 -54,-48 -72,-78l-109 -197z"/><path class="fil4" d="M13109 6057c80,-152 174,-272 283,-359 109,-87 239,-130 388,-130 117,0 212,26 283,77l-40 460c-8,30 -20,50 -35,62 -16,13 -38,19 -64,19 -25,0 -61,-3 -110,-12 -49,-8 -97,-13 -144,-13 -67,0 -128,11 -181,30 -53,20 -100,49 -142,86 -42,37 -80,82 -112,136 -33,53 -63,113 -91,181l0 1570 -614 0 0 -2549 360 0c63,0 107,11 132,33 25,22 41,63 50,121l37 288z"/><path class="fil5" d="M16138 6154c-18,24 -36,42 -54,55 -17,13 -43,20 -76,20 -31,0 -62,-10 -92,-29 -30,-19 -65,-41 -106,-65 -42,-24 -91,-45 -148,-65 -57,-19 -128,-28 -213,-28 -107,0 -201,20 -283,58 -81,39 -148,96 -202,168 -54,73 -94,161 -121,265 -26,103 -40,221 -40,352 0,136 16,256 44,362 29,106 71,195 125,267 55,72 121,127 199,164 78,38 166,56 264,56 97,0 177,-12 237,-36 60,-24 111,-50 152,-80 42,-29 79,-55 109,-79 31,-24 65,-36 103,-36 49,0 86,19 111,57l177 224c-68,79 -142,146 -221,199 -80,55 -162,97 -247,130 -86,32 -173,55 -263,69 -91,13 -181,19 -271,19 -157,0 -305,-30 -444,-88 -139,-59 -261,-144 -365,-257 -105,-113 -186,-251 -247,-414 -60,-163 -91,-349 -91,-557 0,-187 27,-361 81,-521 54,-160 132,-298 237,-415 104,-117 234,-208 387,-274 155,-66 332,-100 532,-100 190,0 358,31 501,92 143,62 272,149 386,264l-161 223z"/><path class="fil6" d="M17320 5888c99,-92 209,-168 328,-225 119,-59 259,-88 420,-88 139,0 262,23 370,71 108,47 198,113 270,199 72,85 127,187 164,305 37,118 56,249 56,392l0 1622 -614 0 0 -1622c0,-156 -36,-277 -107,-362 -71,-86 -180,-128 -325,-128 -107,0 -206,24 -298,72 -94,48 -181,114 -264,197l0 1843 -613 0 0 -3692 613 0 0 1416z"/><path class="fil7" d="M67035 8584l-754 -954c-137,57 -287,89 -445,89 -316,0 -603,-129 -811,-336l-1 0c-209,-208 -337,-496 -337,-814 0,-316 128,-603 337,-811l1 -1c208,-209 495,-337 811,-337 318,0 606,128 814,337l0 1c207,208 336,495 336,811 0,254 -82,488 -221,678l754 954 -484 383zm-823 -2390l-1 0c-96,-95 -228,-155 -375,-155 -146,0 -279,59 -375,154l-1 1c-95,96 -154,229 -154,375 0,147 60,279 155,375l0 1c96,95 229,155 375,155 147,0 279,-60 375,-156 96,-96 156,-228 156,-375 0,-146 -60,-279 -155,-375z"/><rect class="fil8" height="737" width="9875" x="7034" y="13548"/><rect class="fil9" height="698" width="6869" x="7034" y="15250"/><path class="fil10" d="M7034 16686l33434 0 0 549 -33434 0 0 -549zm0 1544l26511 0 0 549 -26511 0 0 -549z"/><rect class="fil8" height="737" width="9875" x="7034" y="23585"/><rect class="fil11" height="698" width="6869" x="7034" y="25288"/><path class="fil10" d="M7034 26724l33434 0 0 549 -33434 0 0 -549zm0 1544l26511 0 0 549 -26511 0 0 -549z"/><rect class="fil8" height="737" width="9875" x="7034" y="33623"/><rect class="fil9" height="698" width="6869" x="7034" y="35325"/><path class="fil10" d="M7034 36761l33434 0 0 549 -33434 0 0 -549zm0 1544l26511 0 0 549 -26511 0 0 -549z"/><circle class="fil10" cx="37259" cy="48969" r="1369"/><polygon class="fil12" points="45853,59560 52175,61586 22342,61586 27443,59560 27443,53305 45853,53305 "/><polygon class="fil13" points="27443,59560 45853,59560 52175,61586 52175,62459 37259,62459 22342,62459 22342,61586 "/><rect class="fil13" height="629" width="18410" x="27444" y="53305"/></g></g></svg>