<?xml version="1.0" ?><!DOCTYPE svg  PUBLIC '-//W3C//DTD SVG 1.1//EN'  'http://www.w3.org/Graphics/SVG/1.1/DTD/svg11.dtd'><svg height="171px" style="shape-rendering:geometricPrecision; text-rendering:geometricPrecision; image-rendering:optimizeQuality; fill-rule:evenodd; clip-rule:evenodd" version="1.1" viewBox="0 0 491753 467060" width="180px" xml:space="preserve" xmlns="http://www.w3.org/2000/svg" xmlns:xlink="http://www.w3.org/1999/xlink"><defs><style type="text/css">
   <![CDATA[
    .fil0 {fill:#5D718F}
    .fil1 {fill:#6B7F9E}
    .fil3 {fill:#E4E7ED}
    .fil2 {fill:#E5E8ED}
    .fil6 {fill:#FCD34E}
    .fil5 {fill:#FFE356}
    .fil4 {fill:white}
   ]]>
  </style></defs><g id="Layer_x0020_1"><g id="_427787408"><g><path class="fil0" d="M204857 0c113141,0 204860,91716 204860,204857 0,113138 -91719,204857 -204860,204857 -113138,0 -204857,-91719 -204857,-204857 0,-113141 91719,-204857 204857,-204857z"/><path class="fil1" d="M204857 0c81147,0 151266,47181 184440,115604 4995,18575 7674,38098 7674,58254 0,123607 -100208,223817 -223824,223817 -18395,0 -36266,-2236 -53372,-6423 -70668,-32309 -119775,-103613 -119775,-186395 0,-113141 91719,-204857 204857,-204857z"/><path class="fil2" d="M332849 44913c38092,30524 65052,74364 73799,124473 -617,-953 -1247,-2197 -1881,-4042 -4000,1311 -4132,1418 -8856,2206l-207 288c-1877,2675 97,1541 -3205,4333 -3933,3309 -6495,7826 -10883,10501 -530,4679 388,5729 -788,11296 -462,2049 -2756,7561 -5448,7144 -850,-158 -4459,-9089 -5312,-11558 -1444,-4200 -3082,-7302 -4129,-12129 -591,-2579 -989,-7513 -1577,-9248 -2821,417 -2692,2210 -5380,320 -1900,-1370 -1047,-2207 -2100,-4255 -2226,-2100 -4524,-4201 -6818,-6304 -1774,-575 -8595,420 -11480,106 -5183,-478 -5635,-158 -8721,-4307 -5447,265 -4985,2307 -10301,-2258 -3476,-2944 -2820,-7668 -7867,-4992 -194,4307 1903,5257 3803,7250 1373,1525 3082,2576 3803,4621 67,55 394,1993 462,2255 4917,320 6097,-2042 8785,-4039 2627,2466 65,2892 3871,4831 3015,1525 2427,633 4391,3098 986,3309 -6753,12288 -9312,13920 -1968,1260 -3018,524 -4785,1991 -2621,2210 326,1893 -4262,3573 -4918,1790 -9778,5567 -14954,5881 -1118,-3047 -2233,-6139 -3344,-9241 -3283,-10556 -3150,-6459 -6498,-11923 -1573,-2365 -918,-3887 -1968,-5987 -723,-1574 -1835,-2259 -2820,-4198 -1506,-2995 -3277,-7667 -6753,-7199 -724,2362 3214,10347 4194,12288 988,1946 2559,2789 3021,5574 652,3829 -133,3354 1964,5926 4395,5306 -194,4365 6627,9561 5112,3887 3800,5044 5968,10246 3344,940 13312,-3519 15018,-2207 2033,3622 -2358,9396 -3473,12550 -3674,10556 -10104,10401 -15022,18485 -2685,4365 -3935,4940 -6426,10194 -2824,5933 5706,22373 591,29255 -1118,1574 -4724,2520 -9248,7299 -4791,5199 130,4304 -1709,12970 -1441,1997 -3212,2100 -4985,3522 -653,2045 -130,3670 -1244,6194 -1183,3047 -1377,1418 -3086,3890 -1244,1939 -1112,2727 -2556,4514 -1247,1632 -1903,2097 -3079,3154 -5713,5254 -17975,5409 -19022,4672 -2892,-2469 -918,-3099 -1641,-6566 -701,-3047 -2317,-5596 -3668,-7948l-139 -246c-652,-1150 -1247,-2258 -1573,-3309 -2362,-7460 -1506,-13124 -5638,-20689 -5183,-9774 2882,-14863 2552,-20378 -129,-1470 -653,-2362 -785,-3522 -982,-6091 -1570,-11552 -5638,-16334 -4463,-5195 -3871,-3363 -2427,-11919 1832,-9820 -2362,-7303 -8265,-7561 -2889,-8928 -8527,-4575 -14166,-1945 -3541,1625 -4853,-472 -8859,103 -8921,1209 -1900,5044 -13839,-4410 -4983,-3942 -1638,-1946 -4588,-6879 -986,-1787 -4004,-4149 -5383,-5939 -4521,-5671 856,-11393 71,-17907 -1380,-12078 -3348,-1577 3408,-16175 3542,-7774 8918,-7826 10298,-11296 1183,-3096 391,-5306 2624,-8140 1967,-2310 4788,-1838 5903,-5460 1570,-4466 -1444,-5041 -4724,-5151 -1376,-4672 -1376,-3515 -329,-7822 591,-2417 64,-3577 591,-5991 1312,-6035 11609,-48 14563,-2520 1376,-2572 1573,-5089 0,-7564 -1642,-2465 -3800,-2152 -4918,-4514 2491,-1677 652,-210 2821,-685 2555,-575 2226,-1312 5244,-1887 2688,-527 4400,-2995 7018,-4672 3738,-2417 1964,-4575 6494,-5306 7283,-1266 2556,-1050 3348,-7829 1108,-420 2161,-895 3211,-1366 2298,2995 -588,1790 2165,3780 721,-417 1574,-837 2362,-1254 -397,-3263 -1900,-2630 -2888,-6669 -3606,572 -4918,3622 -7804,2517 -2820,-1050 -2950,-5095 -2820,-8456 1047,-2520 6294,-3883 8326,-4517 3286,-1102 2824,-3308 5842,-6304 3936,-3938 1047,55 2950,-5037 4330,-162 2298,-320 4853,-1632l130 -51 265 -104c1512,-685 3476,-843 5447,-1522 7212,-2413 10162,-1208 15410,941 4064,1683 16333,1735 17251,6885 -2950,3092 -5771,837 -10036,1102 785,3987 1114,3987 4724,5089 591,-1890 -265,-1147 720,-2362 1183,262 2365,472 3538,685 1186,-4045 2563,-3464 6566,-3939 -659,-2788 -1383,-1997 126,-4203 4136,423 788,58 2821,3366 2885,-371 5709,-3576 9709,-3993 2491,-262 2362,685 5900,313 2889,-313 2756,-1363 5645,-155 1047,-1945 0,-1893 2559,-2365 3932,-685 7345,1732 11148,2258 -2818,-3467 -5510,-2785 -2033,-8562 4395,-892 4789,-262 6689,3050 1082,-607 1541,-1215 2071,-1528zm-328057 115765c9228,-41986 31332,-79147 61966,-107125 2379,827 5529,281 7894,184 847,-1574 1373,-2944 2882,-3519 592,-210 1315,-261 2294,-210 133,785 330,1574 524,2362 0,58 136,582 71,478 65,-109 129,314 194,469 4136,-2414 656,-2465 2885,-6824 -3477,-685 -3014,-268 -5183,-2475 2104,-2307 6165,-3099 9183,-2886 -197,2104 -1179,2052 -391,3832 2362,-1466 4001,-5402 7804,-4672 720,524 1580,999 2362,1470 -1971,1839 -4918,1946 -7474,2992 -1118,11403 3606,1842 2032,9665 2818,-207 5577,-2256 6621,-4356 -1044,-1367 -2556,-1367 -3409,-2998 662,-2101 2074,-3687 4068,-4634 1347,-643 2963,-982 4789,-982 20857,155 10950,1102 17383,4045 1438,627 3997,947 4853,2204 1309,1997 65,3884 2159,5464 1838,1363 2103,-55 4526,2995 -520,1729 -1770,3516 -4323,3571 -3544,51 -1444,-2366 -5250,-1997 67,3567 3609,4937 326,6879 -2885,1732 -1050,-630 -3215,578 -65,52 -265,158 -326,210 -130,104 -262,262 -330,365 -394,424 -724,789 -1047,1160 -5247,-1421 -4262,-788 -7412,-4255 -1179,-1312 -1373,-1632 -3477,-1467 -1312,45 -3014,620 -4265,-530 2562,-3202 3806,-103 7545,-1997 656,-316 4788,-3515 5448,-4255 -1118,-2517 -136,-420 -1771,-2049 -3677,-3725 -4731,-2785 -9710,-2785 -2333,2688 -4081,6007 -6620,7464 -1535,885 -3361,1082 -5778,55 1118,4514 3997,1050 4262,6511 -1900,-372 -2885,-1319 -4853,-634 -4197,1574 -459,1419 -129,2259 0,52 1968,262 0,998 -2168,785 -330,-423 -4527,-2888 588,-1054 1183,-2149 1771,-3257 -3409,1050 -7674,2733 -11674,4672 -4527,2258 -8792,4834 -11348,7196 -68,3942 656,1311 1050,5990 6100,365 4129,2201 10230,3936 1182,320 2691,633 4530,946 0,2944 -2627,5148 -792,8198 4265,2989 4395,-2840 5448,-6566 14433,-3018 7477,-7260 11209,-15199 559,-1186 1354,-2453 2501,-3816 1108,52 5635,527 6620,737 3280,575 1512,1363 5054,2937 -68,2837 -1509,6514 2688,5832 3212,-575 2494,-3099 6427,-3732 1767,4152 1312,5939 2097,10924 9448,3681 5247,6669 3412,13555 1182,575 2423,1102 3674,1625 -65,1997 -133,3942 -197,5884 -194,0 -10104,-2158 -10760,-2362 1509,-4310 4265,-4359 6039,-8769 -3541,627 -3283,1729 -5839,2520 -2294,685 -4068,207 -6494,527 -853,2834 -65,-2472 200,1150 129,1370 785,55 -136,1525 -3279,-1525 -2161,-5095 -8262,-1787 1377,634 2750,1206 4197,1787 -197,4039 -526,992 -1376,3674 -2103,6879 5706,2624 7739,2259 -527,3628 -2757,3628 -5907,4620 -3473,1050 -4524,2472 -7280,3105 0,-4310 -652,-685 1248,-3680 -2757,262 -4789,1522 -7409,2630l-262 100c-3373,1373 -3884,1577 -4265,5884 -2886,889 -6230,1894 -8262,3994 -2036,1938 -4068,3884 -6039,5774 -197,158 -330,317 -456,420 721,5409 0,5512 -3283,7619 -2756,1783 -3674,1732 -6229,3990 -8198,7354 -4262,3936 -3807,16595 -1706,-523 -3344,-1105 -4914,-1676 -1251,-8408 455,-5623 -6301,-7565 -7280,-2103 -6297,1467 -9312,2101 -3344,730 -4989,-3047 -9842,103 -2685,1835 -5244,3044 -5900,6301 -788,3939 -2559,6824 -2297,11189 462,11816 11215,12498 13971,6983 1835,-3674 1380,-5671 7348,-4724 591,3150 -330,5460 -1118,7877 -524,1415 -1968,3987 -1244,5936 4265,1732 4394,-1525 10036,1835 394,5619 -2556,11923 1770,15180 3344,2465 3542,258 6492,-262 3282,-575 2691,1467 5709,1942 1706,-2100 982,-785 2100,-3363 1968,-4459 2491,-2362 7151,-5093 455,-261 846,-526 1308,-840 524,1102 1118,2152 1638,3202 3413,-4045 3807,-103 7742,1002 1693,462 2899,630 3826,640 2863,42 3154,-1348 7060,38 462,214 1050,369 1577,527 68,0 261,104 261,210 68,52 262,210 327,265 653,734 724,1470 1247,2259 2692,2572 5380,5150 8004,7667 5179,2049 5179,-1787 11082,3936 2492,2362 1377,2316 2757,5357 197,478 588,947 853,1528 523,1415 1114,2779 1706,4146 2688,3522 6358,1315 10097,4937 2165,2100 530,1470 5312,2310 7415,1209 4530,527 10171,4782 2162,1574 2689,682 4721,2046 2821,3942 2097,8194 -258,11661 -7283,10608 -4792,8876 -5118,17280 -265,4830 -1642,14808 -6169,16013 -16462,4627 -6888,7833 -11215,15969 -1247,2316 -2165,2891 -2953,4730 -3277,7664 -982,10239 -10692,8511 924,1625 330,520 1250,1990 2883,4466 3345,7829 -2559,8928 -4921,947 -2820,0 -3279,5460 -1903,792 -2756,0 -4004,1261 1706,3153 133,529 3021,2316 -529,1729 -920,3412 -1379,5093 -1115,4097 -1441,316 -1835,5095 1702,782 2885,627 4391,2682 -194,1573 -1771,5877 -2230,8346 2430,3628 4398,7512 9580,7884 -67,3040 653,2727 -1971,3354 -2229,526 -6950,-1574 -8921,-2624 -3409,-1842 -6559,-4255 -8853,-7719 -1312,-1945 -785,-999 -2168,-2834 -2491,-3205 -1506,-4678 -2226,-6834 -395,-1257 -2427,-2623 -1574,-6720 197,-1154 2032,-6669 -194,-5723 -2232,895 1703,524 -1379,1997 -727,-1997 -1312,-4940 -1707,-7406 -788,-4152 -1770,-4310 -2232,-6827 -982,-5832 1509,-6466 -1247,-16182 -1810,-6430 -1083,-21648 -2992,-29458 -307,-1244 -679,-2300 -1138,-3105 -1770,-2937 -6100,-4304 -9574,-6669 -197,-48 -329,-107 -394,-210 -4788,-3360 -9315,-16543 -13122,-21477 -1767,-2369 -2885,-1319 -3670,-5044 -853,-3412 456,-2834 1573,-5677 -5835,-10708 7545,-10553 4789,-23423 -588,-2362 -2291,-5670 -3738,-6714 -2757,1205 -1445,1887 -2889,4197 -2230,-1260 -4459,-2523 -6621,-3780 -6759,-6511 -3153,-1787 -5050,-6042 -4068,-8928 -7939,-3936 -12792,-8346 -2168,-1842 -2562,-4731 -6165,-4204 -5441,733 -2427,1573 -8068,-1054 -4789,-2258 -9774,-4882 -13118,-7929 -178,-6378 1764,-5764 -3086,-11651zm64219 -109141c1240,-1102 2497,-2185 3764,-3257l103 206c259,420 459,420 724,1522 -3325,811 -3322,1361 -4591,1529zm175318 60903c1816,1160 4039,2042 5383,3218 1703,4673 -459,2414 2885,7303 1903,2623 1509,4514 3474,5984 3612,-472 462,581 2691,-1625 394,-420 1509,-1736 1832,-2259 -1176,-1787 -1900,-1945 -2947,-3784 4065,-5405 5839,-2310 6821,1267 2559,9923 6492,7034 9774,6559 3345,-472 456,107 3474,892 2889,737 1506,0 3541,-520 6886,-1684 1577,11658 857,13128 -3739,472 -3018,-365 -5710,-633 -5444,-576 326,3263 -12527,-947 -12333,-3936 -9706,-4827 -12265,3735 -2821,-210 -2689,-740 -5309,-1628 -1002,-382 -1580,-585 -1974,-698l-130 -42c-1046,-366 0,-49 -2161,-2097 -1907,-1787 -6559,-2207 -9842,-3942 0,-2834 2491,-5196 -524,-8560 -982,-261 -14957,317 -17183,789 -4523,946 -5315,4775 -11548,3938 -3409,-474 -2226,-155 -3082,-2151 1114,-1102 0,-527 1906,-1209 720,-258 982,-155 1706,-258 10097,-1529 4915,-6624 11212,-11506 5247,-4204 1118,51 4003,-5044 3542,-314 3083,1415 6101,-52 2494,-1260 1703,-2362 5247,-2472 3147,3157 2488,5044 7606,7458 2036,953 3280,1473 4592,3208 2362,3364 329,2259 1250,4569 194,-103 452,-213 717,-313l130 -62c2759,-1318 -1377,-1735 3085,-5667 -1308,-947 -2261,-1609 -3085,-2081l-130 -71c-3473,-2045 -2097,-158 -6559,-5726 -1179,-1576 -1509,-1677 -1438,-4097 3209,-575 3800,1735 6686,4307 394,372 853,685 1311,999l130 90zm70051 141401c-2879,1467 -3280,4834 -5442,6721 -2362,2152 -5512,1160 -6430,5150 -1179,4986 1971,3464 -1509,9978 -1240,2414 -1308,8449 595,10243 5703,5509 8789,-8404 10101,-12763 982,-3099 1903,-6618 2950,-9509 1050,-3099 2555,-5829 -265,-9820zm-9442 -146535c459,6414 4259,8879 6954,11816 -330,3050 -1050,2259 -986,6514 3215,2317 5574,3726 9774,2579 588,-5151 -1050,-4889 -2623,-8408 261,-423 982,-943 1111,-1050 1183,-1573 595,627 1183,-2048 -3083,-992 -8068,-4149 -8459,-8295 1505,-1208 1047,-475 2158,-1208 2430,-1577 595,837 2036,-1839 -1241,-2413 -2624,-2840 -5639,-1631 -1312,529 -4788,2995 -5509,3570zm-26828 1683c-2032,-2833 -1903,-4255 -5839,-4358 -1570,1683 -3408,4200 -4261,6772 -1312,3890 -395,1208 -262,5412 -68,155 0,369 0,527 -68,2517 -659,-475 -265,1838 3086,-633 724,-578 3018,-1318 2165,-737 8792,-2733 10695,-2255 4520,1050 8330,4623 13445,1050 -265,-4569 -5774,-6304 -9577,-8301 197,-4197 1311,-888 1046,-4934 -1311,-52 -2097,-262 -3344,262 -2950,1312 -1312,1683 -1312,2155 133,2255 2954,-472 -64,2314 -853,730 -2233,730 -3280,836zm-76613 -31826c-123,7354 2426,4882 4856,8511 -1115,3098 -1312,685 -2556,3880 -1114,2682 262,268 -462,4941 1903,106 4721,-576 7219,-789 3541,-313 3476,-633 4720,-4255 -1964,-2414 -3935,-4831 -5968,-7244 -2562,-3891 0,-1212 -788,-4469 -588,-1157 -1115,-2304 -1638,-3467 -3409,1163 -3083,843 -5383,2892z"/></g><g><ellipse class="fil3" cx="384243" cy="359553" rx="107508" ry="107507"/><path class="fil4" d="M384243 263512c53039,0 96039,43000 96039,96042 0,53039 -43000,96039 -96039,96039 -53042,0 -96042,-43000 -96042,-96039 0,-53042 43000,-96042 96042,-96042z"/></g><g><path class="fil5" d="M340759 327588l86966 0c6811,0 12378,5571 12378,12382l0 75412 -111720 0 0 -75412c0,-6811 5568,-12382 12376,-12382z"/><path class="fil1" d="M348920 303714l0 23874 13910 0 0 -24420c0,-16247 42823,-16599 42823,0l0 24420 13910 0 0 -23874c0,-36105 -70643,-36105 -70643,0z"/><path class="fil1" d="M384243 361063c4973,0 8996,4023 8996,8996 0,3593 -2107,6694 -5151,8132l0 18974 -7690 0 0 -18974c-3040,-1438 -5150,-4539 -5150,-8132 0,-4973 4026,-8996 8995,-8996z"/></g><rect class="fil6" height="6083" width="111720" x="328383" y="415383"/></g></g></svg>