<?xml version="1.0" ?><!DOCTYPE svg  PUBLIC '-//W3C//DTD SVG 1.1//EN'  'http://www.w3.org/Graphics/SVG/1.1/DTD/svg11.dtd'><svg height="172px" style="shape-rendering:geometricPrecision; text-rendering:geometricPrecision; image-rendering:optimizeQuality; fill-rule:evenodd; clip-rule:evenodd" version="1.1" viewBox="0 0 22560 21628" width="180px" xml:space="preserve" xmlns="http://www.w3.org/2000/svg" xmlns:xlink="http://www.w3.org/1999/xlink"><defs><style type="text/css">
   <![CDATA[
    .fil2 {fill:#6C7678}
    .fil4 {fill:#83CF8F}
    .fil7 {fill:#B9C1C9}
    .fil0 {fill:#CCD2D9}
    .fil8 {fill:#E4E7ED}
    .fil11 {fill:#E5E8ED}
    .fil1 {fill:#F2F2F2}
    .fil6 {fill:#FF7069}
    .fil5 {fill:#FFE356}
    .fil3 {fill:white}
    .fil9 {fill:white}
    .fil10 {fill:white;fill-rule:nonzero}
   ]]>
  </style></defs><g id="Layer_x0020_1"><g id="_347161848"><g><path class="fil0" d="M22017 0c299,0 543,245 543,543l0 19969c0,615 -502,1116 -1117,1116l-20326 0c-615,0 -1117,-501 -1117,-1116l0 -19969c0,-299 244,-543 543,-543l21474 0z"/><path class="fil1" d="M21865 476l-21170 0c-116,0 -213,96 -213,212l0 19686c0,428 350,779 779,779l20038 0c428,0 778,-351 778,-779l0 -19686c0,-116 -97,-212 -212,-212z"/></g><g><g><path class="fil2" d="M543 0l21474 0c299,0 543,244 543,543l0 1085 -22560 0 0 -1085c0,-299 244,-543 543,-543z"/><rect class="fil3" height="562" rx="196" ry="146" width="11189" x="9898" y="562"/><circle class="fil4" cx="1083" cy="778" r="312"/><circle class="fil5" cx="2316" cy="778" r="312"/><circle class="fil6" cx="3550" cy="778" r="312"/></g><path class="fil7" d="M2268 15639l3611 0 0 220 -3611 0 0 -220zm0 1072l2557 0 0 220 -2557 0 0 -220zm0 -536l3611 0 0 220 -3611 0 0 -220z"/><path class="fil7" d="M8849 15639l3611 0 0 220 -3611 0 0 -220zm0 1072l2558 0 0 220 -2558 0 0 -220zm0 -536l3611 0 0 220 -3611 0 0 -220z"/><polygon class="fil5" points="8321,11159 12988,11159 12988,14869 8321,14869 "/><polygon class="fil6" points="1740,11159 6407,11159 6407,14869 1740,14869 "/><g><path class="fil6" d="M17470 10700l503 -675 1182 683 -333 774c230,189 440,400 630,630l774 -334 683 1183 -675 503c103,276 180,564 230,861l836 98 0 1366 -836 98c-50,298 -127,585 -230,861l675 503 -683 1182 -774 -333c-190,230 -400,440 -630,630l333 774 -1182 683 -503 -675c-276,103 -564,180 -861,230l-98 836 -1366 0 -98 -836c-298,-50 -585,-127 -861,-230l-503 675 -1183 -683 334 -774c-230,-190 -441,-401 -630,-630l-774 333 -683 -1182 675 -503c-103,-276 -180,-564 -230,-861l-836 -98 0 -1366 836 -98c50,-298 127,-585 230,-861l-675 -503 683 -1183 774 334c189,-230 400,-441 630,-630l-334 -774 1183 -683 503 675c276,-103 563,-180 861,-230l98 -837 1366 0 98 837c297,50 585,127 861,230z"/><circle class="fil8" cx="15828" cy="15106" r="4049"/><circle class="fil9" cx="15828" cy="15106" r="3875"/><path class="fil4" d="M13191 13297c52,1728 662,4184 2637,4539 1975,-355 2585,-2811 2637,-4539 -921,-50 -1889,-382 -2637,-921 -748,539 -1716,871 -2637,921z"/><path class="fil10" d="M14489 15186c-86,-84 -87,-223 -2,-309 84,-86 223,-87 309,-2l773 762 1414 -1721c77,-93 215,-107 308,-30 93,76 106,214 30,307l-1561 1899c-5,8 -12,15 -18,22 -85,86 -223,87 -309,3l-944 -931z"/></g></g><rect class="fil11" height="6223" width="19827" x="1366" y="2210"/></g></g></svg>