<?xml version="1.0" ?><!DOCTYPE svg  PUBLIC '-//W3C//DTD SVG 1.1//EN'  'http://www.w3.org/Graphics/SVG/1.1/DTD/svg11.dtd'><svg height="178px" style="shape-rendering:geometricPrecision; text-rendering:geometricPrecision; image-rendering:optimizeQuality; fill-rule:evenodd; clip-rule:evenodd" version="1.1" viewBox="0 0 57186 56593" width="180px" xml:space="preserve" xmlns="http://www.w3.org/2000/svg" xmlns:xlink="http://www.w3.org/1999/xlink"><defs><style type="text/css">
   <![CDATA[
    .fil1 {fill:#6B7F9E}
    .fil8 {fill:#75BD80}
    .fil5 {fill:#83CF8F}
    .fil0 {fill:#8597B1}
    .fil7 {fill:#C6CBD6}
    .fil6 {fill:#E7E9EF}
    .fil2 {fill:#ECF0F1}
    .fil3 {fill:#FF7069}
    .fil4 {fill:#FFE356}
   ]]>
  </style></defs><g id="Layer_x0020_1"><g id="_472202472"><path class="fil0" d="M3667 0l51202 0c1275,0 2317,1095 2317,2433l0 7033c0,1339 -1042,2433 -2317,2433l-51202 0c-1273,0 -2314,-1094 -2314,-2433l0 -7033c0,-1338 1041,-2433 2314,-2433z"/><path class="fil1" d="M56902 10630c-395,755 -1159,1269 -2033,1269l-51202 0c-873,0 -1636,-514 -2030,-1269l55265 0z"/><path class="fil2" d="M3551 1544l1713 0 0 941 -1713 0 0 -941zm7507 3119l1712 0 0 941 -1712 0 0 -941zm-2503 0l1713 0 0 941 -1713 0 0 -941zm-2502 0l1713 0 0 941 -1713 0 0 -941zm-2502 0l1713 0 0 941 -1713 0 0 -941zm7507 -1560l1712 0 0 942 -1712 0 0 -942zm-2503 0l1713 0 0 942 -1713 0 0 -942zm-2502 0l1713 0 0 942 -1713 0 0 -942zm-2502 0l1713 0 0 942 -1713 0 0 -942zm7507 -1559l1712 0 0 941 -1712 0 0 -941zm-2503 0l1713 0 0 941 -1713 0 0 -941zm-2502 0l1713 0 0 941 -1713 0 0 -941z"/><path class="fil2" d="M45748 2069l1405 0 0 1256 -1405 0 0 -1256zm6767 0l1404 0 0 1256 -1404 0 0 -1256zm-2255 0l1404 0 0 1256 -1404 0 0 -1256zm-2256 0l1404 0 0 1256 -1404 0 0 -1256z"/><path class="fil3" d="M36124 1696c569,0 1031,462 1031,1032 0,570 -462,1031 -1031,1031 -570,0 -1032,-461 -1032,-1031 0,-570 462,-1032 1032,-1032z"/><path class="fil4" d="M30749 1696c569,0 1032,462 1032,1032 0,570 -463,1031 -1032,1031 -570,0 -1032,-461 -1032,-1031 0,-570 462,-1032 1032,-1032z"/><path class="fil5" d="M25373 1696c571,0 1032,462 1032,1032 0,570 -461,1031 -1032,1031 -569,0 -1031,-461 -1031,-1031 0,-570 462,-1032 1031,-1032z"/><path class="fil2" d="M32603 8919l22330 0c336,0 336,507 0,507l-22330 0c-336,0 -336,-507 0,-507z"/><path class="fil0" d="M3667 13714l51202 0c1275,0 2317,1094 2317,2433l0 7032c0,1339 -1042,2434 -2317,2434l-51202 0c-1273,0 -2314,-1095 -2314,-2434l0 -7032c0,-1339 1041,-2433 2314,-2433z"/><path class="fil1" d="M56902 24343c-395,755 -1159,1270 -2033,1270l-51202 0c-873,0 -1636,-515 -2030,-1270l55265 0z"/><path class="fil2" d="M3551 15257l1713 0 0 941 -1713 0 0 -941zm7507 3119l1712 0 0 942 -1712 0 0 -942zm-2503 0l1713 0 0 942 -1713 0 0 -942zm-2502 0l1713 0 0 942 -1713 0 0 -942zm-2502 0l1713 0 0 942 -1713 0 0 -942zm7507 -1559l1712 0 0 941 -1712 0 0 -941zm-2503 0l1713 0 0 941 -1713 0 0 -941zm-2502 0l1713 0 0 941 -1713 0 0 -941zm-2502 0l1713 0 0 941 -1713 0 0 -941zm7507 -1560l1712 0 0 941 -1712 0 0 -941zm-2503 0l1713 0 0 941 -1713 0 0 -941zm-2502 0l1713 0 0 941 -1713 0 0 -941z"/><path class="fil2" d="M45748 15782l1405 0 0 1257 -1405 0 0 -1257zm6767 0l1404 0 0 1257 -1404 0 0 -1257zm-2255 0l1404 0 0 1257 -1404 0 0 -1257zm-2256 0l1404 0 0 1257 -1404 0 0 -1257z"/><path class="fil3" d="M36124 15410c569,0 1031,462 1031,1032 0,569 -462,1031 -1031,1031 -570,0 -1032,-462 -1032,-1031 0,-570 462,-1032 1032,-1032z"/><path class="fil4" d="M30749 15410c569,0 1032,462 1032,1032 0,569 -463,1031 -1032,1031 -570,0 -1032,-462 -1032,-1031 0,-570 462,-1032 1032,-1032z"/><path class="fil5" d="M25373 15410c571,0 1032,462 1032,1032 0,569 -461,1031 -1032,1031 -569,0 -1031,-462 -1031,-1031 0,-570 462,-1032 1031,-1032z"/><path class="fil2" d="M32603 22632l22330 0c336,0 336,508 0,508l-22330 0c-336,0 -336,-508 0,-508z"/><path class="fil0" d="M3667 27427l51202 0c1275,0 2317,1094 2317,2433l0 7033c0,1338 -1042,2433 -2317,2433l-51202 0c-1273,0 -2314,-1095 -2314,-2433l0 -7033c0,-1339 1041,-2433 2314,-2433z"/><path class="fil1" d="M56902 38057c-395,755 -1159,1269 -2033,1269l-51202 0c-873,0 -1636,-514 -2030,-1269l55265 0z"/><path class="fil2" d="M3551 28971l1713 0 0 941 -1713 0 0 -941zm7507 3119l1712 0 0 941 -1712 0 0 -941zm-2503 0l1713 0 0 941 -1713 0 0 -941zm-2502 0l1713 0 0 941 -1713 0 0 -941zm-2502 0l1713 0 0 941 -1713 0 0 -941zm7507 -1560l1712 0 0 942 -1712 0 0 -942zm-2503 0l1713 0 0 942 -1713 0 0 -942zm-2502 0l1713 0 0 942 -1713 0 0 -942zm-2502 0l1713 0 0 942 -1713 0 0 -942zm7507 -1559l1712 0 0 941 -1712 0 0 -941zm-2503 0l1713 0 0 941 -1713 0 0 -941zm-2502 0l1713 0 0 941 -1713 0 0 -941z"/><path class="fil2" d="M45748 29496l1405 0 0 1256 -1405 0 0 -1256zm6767 0l1404 0 0 1256 -1404 0 0 -1256zm-2255 0l1404 0 0 1256 -1404 0 0 -1256zm-2256 0l1404 0 0 1256 -1404 0 0 -1256z"/><path class="fil3" d="M36124 29123c569,0 1031,462 1031,1032 0,569 -462,1031 -1031,1031 -570,0 -1032,-462 -1032,-1031 0,-570 462,-1032 1032,-1032z"/><path class="fil4" d="M30749 29123c569,0 1032,462 1032,1032 0,569 -463,1031 -1032,1031 -570,0 -1032,-462 -1032,-1031 0,-570 462,-1032 1032,-1032z"/><path class="fil5" d="M25373 29123c571,0 1032,462 1032,1032 0,569 -461,1031 -1032,1031 -569,0 -1031,-462 -1031,-1031 0,-570 462,-1032 1031,-1032z"/><path class="fil2" d="M32603 36346l22330 0c336,0 336,508 0,508l-22330 0c-336,0 -336,-508 0,-508z"/><g><polygon class="fil6" points="0,52726 55768,52726 55768,55619 0,55619 "/><polygon class="fil7" points="0,55172 55768,55172 55768,55619 0,55619 "/></g><polygon class="fil6" points="27380,39326 31158,39326 31158,52726 27380,52726 "/><polygon class="fil7" points="27380,39326 31158,39326 31158,43232 "/><polygon class="fil7" points="30749,39326 31158,39326 31158,52726 30749,52726 "/><path class="fil5" d="M26169 51753l6200 0c368,0 668,300 668,667l0 3505c0,368 -300,668 -668,668l-6200 0c-367,0 -667,-300 -667,-668l0 -3505c0,-367 300,-667 667,-667z"/><path class="fil8" d="M33006 56125c-85,270 -339,468 -637,468l-6200 0c-297,0 -551,-198 -636,-468l7473 0z"/></g></g></svg>