<?xml version="1.0" ?><!DOCTYPE svg  PUBLIC '-//W3C//DTD SVG 1.1//EN'  'http://www.w3.org/Graphics/SVG/1.1/DTD/svg11.dtd'><svg height="151px" style="shape-rendering:geometricPrecision; text-rendering:geometricPrecision; image-rendering:optimizeQuality; fill-rule:evenodd; clip-rule:evenodd" version="1.1" viewBox="0 0 34635 29030" width="180px" xml:space="preserve" xmlns="http://www.w3.org/2000/svg" xmlns:xlink="http://www.w3.org/1999/xlink"><defs><style type="text/css">
   <![CDATA[
    .fil0 {fill:#596366}
    .fil5 {fill:#83CF8F}
    .fil3 {fill:#CCD2D9}
    .fil4 {fill:#E5E8ED}
    .fil2 {fill:#F2F2F2}
    .fil7 {fill:#FF7069}
    .fil6 {fill:#FFE356}
    .fil1 {fill:white}
   ]]>
  </style></defs><g id="Layer_x0020_1"><g id="_347144328"><path class="fil0" d="M1848 0l30939 0c1016,0 1848,832 1848,1848l0 19058 -34635 0 0 -19058c0,-1016 832,-1848 1848,-1848z"/><path class="fil1" d="M1255 19651l32125 0 0 -17803c0,-324 -270,-593 -594,-593l-30938 0c-324,0 -593,269 -593,593l0 17803z"/><path class="fil2" d="M34635 20906l0 2022c0,1016 -917,1848 -2038,1848l-30560 0c-1120,0 -2037,-832 -2037,-1848l0 -2022 34635 0z"/><circle class="fil3" cx="17317" cy="22760" r="636"/><g><polygon class="fil4" points="21312,27683 24250,28625 10384,28625 12755,27683 12755,24776 21312,24776 "/><polygon class="fil3" points="12755,27683 21312,27683 24250,28625 24250,29030 17318,29030 10384,29030 10384,28625 "/></g><polygon class="fil5" points="27117,15374 31696,15374 31696,15740 27117,15740 "/><polygon class="fil6" points="27117,16553 31696,16553 31696,16918 27117,16918 "/><polygon class="fil7" points="27117,17731 31696,17731 31696,18097 27117,18097 "/><polygon class="fil5" points="26670,15374 26223,15374 26223,15740 26670,15740 "/><polygon class="fil6" points="26670,16553 26223,16553 26223,16918 26670,16918 "/><polygon class="fil7" points="26670,17731 26223,17731 26223,18097 26670,18097 "/><path class="fil5" d="M26065 3202c478,0 314,169 556,245 193,62 62,-38 288,-48 68,-5 137,15 206,8 196,-18 95,-28 163,-62 144,-69 654,-56 778,-13 124,44 105,70 301,113 251,53 529,-54 751,64 141,77 79,100 302,102 182,0 356,-43 522,-2 196,46 69,-8 301,-44 75,-10 118,0 186,23 164,54 128,90 347,80 386,-23 621,158 967,207 239,33 481,-18 465,271 -249,31 -448,-189 -680,-51 10,217 134,79 255,256 -10,2 -23,5 -30,7 -183,44 -265,98 -395,269 -180,0 -314,-41 -504,56 -32,297 353,220 308,663 -4,82 -4,217 -17,332 -163,-15 -552,-430 -627,-552 -138,-225 261,-724 26,-712 -85,6 -30,54 -118,144 -232,-10 -124,-184 -408,-79 -66,250 94,219 -30,286 -127,67 -226,-31 -320,-46 -20,-5 -638,28 -667,41 -69,82 -193,397 -222,476 202,120 343,92 415,94 98,3 130,62 209,80 232,56 7,-75 193,0 140,153 281,304 422,455 -27,59 -50,115 -72,171 -151,-112 -174,-350 -360,-419 -29,245 219,133 82,709 -118,501 -206,312 -419,368 -49,31 -179,368 -192,425 156,146 349,222 339,524 -91,46 -150,89 -274,56 -131,-516 -88,-258 -245,-414 -164,-164 42,-317 -412,-136 -69,-100 -26,-89 -62,-199 -115,15 -272,163 -307,279 98,51 176,117 225,125 95,10 140,-59 268,23 -72,143 -124,112 -183,258 105,172 284,295 347,522 3,8 6,18 9,28 36,118 62,29 69,192 3,121 -56,187 -98,307 -213,555 -523,479 -945,683 7,154 141,402 -167,346 -22,-249 109,-121 82,-358 -199,-70 -314,25 -402,235 79,368 523,397 405,959 -137,115 -274,228 -408,341 -124,-80 10,-21 -108,-167 -124,-148 -271,-253 -408,-376 -10,20 -20,41 -30,62 -46,120 -105,255 -75,376 13,61 117,286 173,335 98,94 199,115 232,263 13,51 62,433 62,456 -405,-149 -284,-417 -431,-678 -62,-118 -79,-90 -160,-205 -7,-210 55,-381 6,-599 -33,-128 -95,-314 -127,-445 -147,31 -278,236 -311,36 -6,-36 -13,-69 -16,-100 -85,-368 -206,-268 -330,-621 -200,63 -206,69 -442,107l-3 4 1 13c-94,131 5,75 -160,211 -196,161 -324,382 -543,512 -26,228 20,279 -39,550 -23,100 -137,368 -271,348 -42,-8 -222,-443 -265,-563 -72,-204 -154,-356 -206,-591 -29,-125 -49,-366 -78,-450 -141,20 -134,107 -268,15 -95,-66 -52,-107 -105,-207 -111,-102 -225,-205 -340,-307 -88,-28 -428,21 -572,5 -258,-23 -281,-8 -435,-209 -271,12 -248,112 -513,-111 -173,-143 -140,-373 -392,-243 -10,210 95,256 189,354 69,74 154,125 190,225 3,2 20,97 23,110 245,15 304,-100 438,-198 131,121 3,141 193,236 150,74 121,30 219,151 49,161 -337,598 -464,678 -98,61 -151,25 -239,97 -131,107 16,92 -213,174 -244,87 -487,271 -745,286 -55,-148 -111,-299 -166,-450 -164,-514 -157,-314 -324,-581 -79,-115 -46,-189 -98,-291 -36,-77 -92,-110 -141,-205 -75,-146 -163,-373 -336,-350l-85 -418c23,-1 50,-3 85,-7 36,-71 301,-721 -43,-639 -101,25 -32,61 -176,25 -151,-38 -7,-66 -173,-43 -164,23 -360,163 -488,-320 -49,-174 -137,-325 -339,-62 52,90 88,98 146,184 -16,26 -71,90 -91,111 -111,107 46,56 -134,79 -98,-72 -78,-164 -173,-292 -167,-238 -59,-128 -144,-355 -67,-58 -178,-101 -268,-157l0 -2 -5 -3c-23,-15 -46,-31 -65,-49 -144,-125 -174,-237 -334,-209 -3,117 13,122 72,199 222,271 154,179 327,279l6 4 0 1c41,22 88,55 153,100 -222,191 -18,212 -153,276l0 0 -1 0 -5 3c-13,5 -26,10 -36,15 -46,-113 56,-59 -62,-223 -65,-84 -128,-109 -229,-156 -255,-118 -222,-209 -379,-363 -177,5 -137,59 -262,120 -150,72 -127,-12 -304,3 -144,248 62,41 -199,246 -314,237 -56,486 -559,560 -36,5 -49,0 -85,13 -92,31 -43,7 -90,53l-83 4 0 0c-13,-105 -130,-122 -255,-127 -69,-227 -69,-171 -17,-381 30,-117 4,-174 30,-291 65,-295 578,-3 726,-123 68,-126 78,-248 0,-369 -82,-120 -190,-104 -246,-220 125,-81 33,-10 141,-33 128,-28 111,-64 261,-92 134,-26 220,-146 350,-227 187,-118 98,-223 324,-259 363,-61 127,-51 167,-381 55,-21 107,-44 160,-67 114,146 -30,87 107,184 37,-20 79,-40 118,-61 -19,-158 -94,-128 -144,-325 -179,28 -245,177 -389,123 -140,-51 -146,-248 -140,-412 52,-123 313,-189 415,-220 164,-53 140,-161 291,-307 196,-192 52,3 147,-245 216,-8 115,-16 242,-80l5 -2 1 0 12 -5c75,-33 173,-41 271,-74 360,-118 507,-59 768,46 203,82 814,84 860,335 -147,151 -288,41 -500,54 39,194 56,194 235,248 30,-92 -13,-56 36,-115 59,13 118,23 177,33 59,-197 127,-169 327,-192 -33,-135 -69,-97 6,-204 206,20 39,2 141,164 144,-18 284,-175 484,-195 124,-13 117,33 294,15 144,-15 137,-66 281,-7 52,-95 0,-92 127,-115 196,-34 366,84 556,110 -141,-169 -274,-136 -101,-417 219,-44 238,-13 333,148 65,-36 85,-72 121,-82 98,-23 131,59 343,-64 134,-74 -85,-26 157,-92 95,-23 95,15 180,-54 193,-69 383,-140 575,-212 206,-2 102,59 337,-28 320,-113 412,7 654,15 566,22 365,337 1250,337 141,0 131,-54 331,-56 10,0 19,0 32,0zm3456 4653c16,123 78,215 186,264 111,-174 -26,-184 379,-310 26,-7 52,-18 75,-28 347,-194 108,-54 370,-156 3,-158 -37,-263 -50,-435 -6,-192 -72,-266 -245,-297 -16,356 232,241 -170,612 -209,197 -346,-33 -545,350zm-2275 4838c22,-107 39,-241 88,-320 153,0 13,125 245,97 39,-89 39,-133 23,-227 -105,-23 -134,-3 -210,61 -22,-25 -45,-51 -68,-77 -108,-76 -95,100 -196,-99 -108,-208 13,-210 -222,-353 -144,-87 -193,-136 -311,-256 -203,-213 -23,-118 -360,-220 -6,233 46,94 226,365 75,129 147,256 222,384 108,177 219,658 563,645zm519 -335c291,43 500,148 582,92 88,-100 59,-166 147,-312 118,-189 36,-131 186,-297 -84,-304 -124,-169 40,-479 -27,-97 -98,-209 -180,-268 -95,59 -13,-8 -79,77 -114,125 -232,251 -343,376 -98,95 -59,23 -209,141 -43,23 -85,46 -131,69 -72,25 -118,-57 -134,156 -10,97 92,314 121,445zm-6968 -5955c23,312 213,432 347,575 -16,149 -53,110 -49,318 160,112 278,181 487,125 29,-251 -53,-238 -131,-409 13,-21 49,-46 56,-51 58,-77 29,30 58,-100 -153,-49 -402,-202 -421,-404 75,-59 52,-23 108,-59 121,-77 29,41 101,-90 -62,-117 -131,-138 -281,-79 -66,26 -239,146 -275,174zm-1337 82c-101,-138 -95,-207 -291,-212 -78,81 -170,204 -212,329 -66,190 -20,59 -13,264 -3,8 0,18 0,26 -3,122 -33,-24 -13,89 153,-31 36,-28 150,-64 108,-36 438,-133 533,-110 225,51 415,225 670,51 -13,-222 -288,-307 -477,-404 10,-204 65,-43 52,-240 -65,-3 -105,-13 -167,12 -147,64 -65,82 -65,105 7,110 147,-23 -3,113 -43,36 -112,36 -164,41zm-3816 -1551c-6,358 121,238 242,414 -56,151 -66,34 -128,189 -55,131 13,13 -23,241 95,5 236,-28 360,-38 177,-15 173,-31 236,-208 -99,-117 -197,-235 -298,-352 -128,-190 0,-59 -39,-218 -30,-56 -56,-112 -82,-169 -170,57 -154,41 -268,141z"/><path class="fil6" d="M19660 8547c-36,115 160,504 209,598 49,95 127,136 150,272 33,186 -6,163 98,288 219,259 -9,213 331,466 254,190 189,246 297,499 167,46 664,-171 748,-107 102,176 -117,457 -173,611 -183,514 -503,507 -748,900 -134,213 -196,241 -321,497 -140,289 285,1089 30,1425 -56,76 -236,123 -461,355 -239,254 6,210 -85,632 -72,97 -160,102 -249,171 -32,100 -6,180 -62,302 -59,149 -68,69 -153,190 -62,94 -56,133 -128,220 -62,79 -95,102 -154,153 -284,256 -895,264 -947,228 -144,-120 -46,-151 -82,-320 -35,-148 -115,-273 -183,-387l0 -4 -5 -9c-33,-56 -62,-109 -79,-161 -117,-363 -74,-639 -281,-1007 -258,-477 144,-725 128,-993 -7,-72 -33,-115 -40,-172 -48,-296 -78,-562 -281,-795 -222,-254 -192,-164 -120,-581 91,-478 -118,-355 -412,-368 -144,-435 -425,-223 -706,-95 -177,79 -242,-23 -442,5 -444,59 -94,246 -690,-215 -248,-192 -81,-94 -228,-335 -49,-87 -200,-202 -268,-289 -226,-276 42,-555 3,-872 -69,-589 -167,-77 170,-788 176,-379 445,-381 513,-550 59,-151 20,-259 131,-397 98,-112 239,-89 294,-266 19,-51 24,-92 20,-124l0 0 83 -4 -5 5c43,98 -16,82 154,105 310,41 350,-145 575,-192 111,-23 808,-51 857,-38 150,164 26,279 26,417 163,85 395,105 490,192 108,100 56,84 108,102l6 2 0 1c20,6 48,16 97,34 131,43 124,69 265,79 127,-417 -3,-374 611,-182 641,205 353,18 624,46 109,11 106,40 200,38l85 418zm1608 4994c-144,71 -164,235 -271,327 -118,105 -275,56 -321,251 -58,243 98,168 -75,486 -62,117 -65,411 29,498 285,269 439,-409 504,-621 49,-151 95,-322 147,-463 52,-151 128,-284 -13,-478z"/><path class="fil7" d="M9923 14264c-88,-143 -303,-210 -477,-325 -10,-3 -16,-5 -19,-10 -239,-164 -464,-806 -654,-1047 -88,-115 -144,-64 -183,-245 -43,-167 23,-138 78,-277 -291,-521 376,-514 239,-1140 -29,-116 -114,-277 -186,-328 -137,59 -72,92 -144,205 -111,-62 -223,-123 -330,-184 -337,-318 -157,-87 -252,-295 -202,-435 -396,-192 -637,-406 -108,-90 -128,-231 -308,-205 -271,36 -121,76 -402,-51 -238,-110 -487,-238 -654,-387 -6,-230 79,-240 -68,-455 -72,-110 -170,-200 -229,-286 -104,-167 49,-16 -213,-343 -173,-218 30,-238 -166,-389 -258,120 147,460 275,1011 -112,-16 -187,-103 -229,-226 -66,-202 3,-151 -200,-235 10,-348 79,-41 -65,-387 -49,-127 -20,-184 -69,-314 -39,-113 20,-10 -46,-74 -26,-77 20,-5 -39,-64 -59,-64 -3,-8 -55,-46 -131,-90 -161,-202 -183,-381 -66,-584 130,-632 356,-1049 173,-300 140,-256 3,-502 33,-123 75,-125 66,-294 -10,-197 -23,-107 22,-258 -6,-8 -16,-13 -22,-16 -7,0 -17,-7 -23,-10 -7,-2 -20,-8 -26,-13 -36,-10 -69,-23 -109,-35 17,-312 66,-497 -297,-533 -160,-15 -261,-81 -314,-79 -29,0 -179,74 -294,102 -203,54 -95,49 -281,16 -100,-19 -382,12 -625,-54l33 -337c139,-18 279,-27 376,-113 -94,-79 -193,-23 -333,-72 26,-248 415,-164 585,-164 23,-186 -78,-181 13,-253 52,-41 1069,-299 1317,-251 380,70 759,139 1138,205 232,23 601,-133 840,-123 180,11 16,46 239,62 153,10 160,-34 330,15 157,46 81,59 268,59 29,-100 59,-202 92,-304 -164,25 -262,84 -422,48 6,-151 202,-212 307,-266 356,-179 601,115 987,143 144,11 248,-89 415,-94 -55,105 -91,82 -170,220 72,189 -29,-62 56,107 13,21 23,21 36,74 -268,64 -102,95 -474,67 46,64 -39,28 104,95 121,56 295,25 422,20 43,-77 69,-143 144,-171 29,-11 65,-13 114,-11 7,39 17,77 26,115 0,3 7,28 4,23 3,-5 6,16 10,24 205,-118 32,-121 144,-333 -174,-33 -151,-13 -259,-120 105,-113 307,-151 458,-141 -10,102 -59,100 -20,187 118,-72 200,-264 389,-228 36,25 79,49 118,72 -98,89 -245,94 -373,146 -55,555 180,89 102,470 140,-10 277,-110 330,-212 -53,-67 -128,-67 -170,-146 33,-102 103,-180 202,-226 68,-31 148,-48 239,-48 1039,8 546,54 866,197 72,31 200,46 242,108 66,97 4,189 108,266 91,66 105,-3 226,146 -26,84 -89,171 -216,173 -177,3 -72,-114 -262,-97 3,174 180,241 16,335 -143,85 -52,-30 -160,29 -3,2 -13,7 -16,10 -7,5 -13,13 -16,18 -20,20 -36,38 -53,56 -261,-69 -212,-38 -369,-207 -59,-64 -68,-80 -173,-72 -65,3 -150,31 -213,-25 128,-156 190,-5 376,-98 33,-15 239,-171 272,-207 -56,-123 -7,-21 -89,-100 -183,-181 -235,-135 -483,-135 -117,130 -204,292 -330,363l0 0c-77,43 -168,53 -288,3 55,220 199,51 212,317 -95,-18 -144,-64 -242,-31 -209,77 -23,69 -6,110 0,3 98,13 0,49 -108,38 -17,-21 -226,-141 30,-51 59,-105 88,-159 -169,52 -382,134 -581,228 -226,110 -438,236 -566,351 -3,192 33,64 52,291 305,18 206,108 510,192 59,16 135,31 226,46 0,143 -131,251 -39,399 212,146 219,-138 271,-320 719,-146 373,-353 559,-740l0 0c28,-58 67,-119 124,-186 56,3 281,26 330,36 164,28 76,67 252,143 -3,138 -75,318 134,285 160,-28 124,-152 320,-182 89,202 66,289 105,532 471,179 261,325 170,660 59,28 121,54 183,79 -3,97 -7,192 -10,287 -10,0 -503,-105 -536,-115 75,-210 212,-213 301,-427 -177,30 -164,84 -291,122 -114,34 -203,11 -324,26 -42,138 -3,-120 10,56 7,67 39,3 -7,74 -163,-74 -107,-248 -411,-87 68,31 137,59 209,87 -10,197 -26,49 -69,179 -104,335 285,128 386,110 -26,177 -137,177 -294,225 -173,51 -226,121 -363,152 0,-210 -33,-34 62,-180 -137,13 -239,74 -369,128l-13 5 0 0c-168,67 -194,77 -213,287 -143,43 -310,92 -411,194 -102,95 -203,190 -302,282 -9,7 -16,15 -22,20 36,264 0,269 -164,371 -137,87 -183,85 -310,195 -409,358 -213,191 -190,808 -85,-26 -166,-54 -245,-82 -62,-409 23,-274 -314,-368 -363,-102 -314,71 -464,102 -167,36 -249,-148 -490,5 -134,90 -262,149 -295,307 -39,192 -127,333 -114,545 23,576 559,609 696,340 92,-179 69,-276 367,-230 29,154 -17,266 -56,384 -26,69 -98,194 -62,289 212,84 219,-74 500,89 19,274 -128,581 88,740 167,120 177,13 324,-13 163,-28 134,72 284,95 85,-103 49,-39 105,-164 98,-217 124,-115 356,-248 23,-13 43,-26 66,-41 26,53 55,105 81,156 170,-197 190,-5 386,48 84,23 144,31 191,32l0 0c142,2 157,-66 351,1 23,11 53,19 79,26 3,0 13,5 13,10 3,3 13,11 16,13 33,36 36,72 63,110 134,126 268,251 398,374 258,100 258,-87 553,192 124,115 68,112 137,261 10,23 29,46 42,74 27,69 56,135 85,202 135,171 318,64 504,240 108,103 26,72 265,113 369,59 225,26 506,233 108,77 134,33 236,100 140,191 104,399 -13,567 -363,517 -239,433 -255,842 -14,235 -82,721 -308,780 -820,226 -343,382 -559,778 -62,113 -108,141 -147,230 -163,374 -49,499 -533,415 46,79 17,25 63,97 143,217 166,381 -128,435 -245,46 -140,0 -163,266 -95,38 -138,0 -200,61 85,154 7,26 151,113 -27,84 -46,166 -69,248 -55,199 -72,15 -91,248 84,38 143,31 218,131 -9,76 -88,286 -111,406 121,177 219,366 477,384 -3,148 33,133 -97,164 -112,25 -347,-77 -445,-128 -170,-90 -327,-207 -441,-376 -66,-95 -40,-49 -108,-138 -124,-156 -75,-228 -111,-333 -20,-61 -121,-128 -79,-327 10,-56 102,-325 -10,-279 -111,43 85,25 -68,97 -36,-97 -66,-240 -85,-361 -40,-202 -88,-209 -111,-332 -49,-284 75,-315 -63,-788 -90,-313 -53,-1054 -149,-1435 -14,-53 -29,-106 -57,-151z"/><polygon class="fil3" points="12753,24599 21318,24599 21318,24826 12753,24826 "/></g></g></svg>