<?xml version="1.0" ?><!DOCTYPE svg  PUBLIC '-//W3C//DTD SVG 1.1//EN'  'http://www.w3.org/Graphics/SVG/1.1/DTD/svg11.dtd'><svg height="113px" style="shape-rendering:geometricPrecision; text-rendering:geometricPrecision; image-rendering:optimizeQuality; fill-rule:evenodd; clip-rule:evenodd" version="1.1" viewBox="0 0 57187 35967" width="180px" xml:space="preserve" xmlns="http://www.w3.org/2000/svg" xmlns:xlink="http://www.w3.org/1999/xlink"><defs><style type="text/css">
   <![CDATA[
    .fil5 {fill:#596366}
    .fil3 {fill:#6C7678}
    .fil4 {fill:#83CF8F}
    .fil8 {fill:#8597B1}
    .fil6 {fill:#B9C1C9}
    .fil2 {fill:#F2F2F2}
    .fil1 {fill:#FCD34E}
    .fil9 {fill:#FF7069}
    .fil0 {fill:#FFE356}
    .fil7 {fill:#FFE45E}
    .fil10 {fill:white}
   ]]>
  </style></defs><g id="Layer_x0020_1"><g id="_459558240"><rect class="fil0" height="19098" rx="588" ry="507" width="24790" x="1663"/><polygon class="fil1" points="3308,0 6731,0 6731,3671 5047,2058 3308,3671 "/><path class="fil2" d="M29788 7391l0 24436 10716 0 12177 0 0 -3816 3410 0 0 -6576c0,0 -2598,-2192 -6414,-3084 0,0 -4465,-7875 -6007,-9174 0,0 -2030,-1380 -13882,-1786z"/><polygon class="fil3" points="3972,24277 3972,26306 1455,26306 1455,31827 29788,31827 29788,26225 24349,26225 24349,24251 3967,24251 "/><polygon class="fil4" points="24349,24251 28774,24251 28774,18465 0,18465 0,24251 3967,24251 "/><path class="fil5" d="M53680 31827c36,-280 57,-564 57,-853 0,-3654 -2963,-6616 -6617,-6616 -3654,0 -6616,2962 -6616,6616 0,289 20,573 56,853l13120 0zm-36451 0c36,-280 57,-564 57,-853 0,-3654 -2962,-6616 -6617,-6616 -3653,0 -6616,2962 -6616,6616 0,289 21,573 57,853l13119 0z"/><path class="fil3" d="M52113 30974c0,2757 -2236,4993 -4993,4993 -2757,0 -4993,-2236 -4993,-4993 0,-2757 2236,-4993 4993,-4993 2758,0 4993,2236 4993,4993z"/><path class="fil3" d="M15541 30974c0,2690 -2181,4871 -4872,4871 -2690,0 -4870,-2181 -4870,-4871 0,-2690 2180,-4871 4870,-4871 2691,0 4872,2181 4872,4871z"/><path class="fil6" d="M4053 32090l-2831 0c-448,0 -812,-363 -812,-811l0 -2781c0,-448 364,-812 812,-812l2831 0 0 4404zm45512 -1116c0,1350 -1095,2445 -2445,2445 -1350,0 -2445,-1095 -2445,-2445 0,-1350 1095,-2445 2445,-2445 1350,0 2445,1095 2445,2445zm-36207 0c0,1485 -1204,2688 -2689,2688 -1484,0 -2688,-1203 -2688,-2688 0,-1485 1204,-2688 2688,-2688 1485,0 2689,1204 2689,2688zm17485 -446l0 -2109 0 -85 0 -19295c0,-103 84,-187 187,-187l33 0c102,0 186,84 186,187l0 18816c26,-4 52,-7 79,-7l8058 0c266,0 484,219 484,486l0 85c0,267 -218,485 -484,485l-8058 0c-27,0 -53,-2 -79,-6l0 1630 9255 0 0 1299 -10716 0 0 -1299 1055 0zm25471 1714l-3785 0 0 -4394 3785 0c482,0 873,391 873,873l0 2649c0,482 -391,872 -873,872zm-18249 -11294l-2459 0c-170,0 -308,-138 -308,-308l0 -54c0,-169 138,-307 308,-307l2459 -1c169,0 308,139 308,308l0 54c0,170 -139,308 -308,308z"/><path class="fil7" d="M1491 27686l-51 0c-159,0 -289,-130 -289,-289l0 -883c0,-159 130,-289 289,-289l51 0c159,0 289,130 289,289l0 883c0,159 -130,289 -289,289z"/><path class="fil8" d="M43241 10699l1724 0c0,0 4225,6292 4713,7652l-3418 0c-181,0 -345,-106 -422,-269l-3077 -6631c-163,-351 93,-752 480,-752zm1439 7014l-2754 -6528c-124,-294 -412,-486 -732,-486l-5015 0c-376,0 -680,305 -680,680l0 6291c0,376 304,681 680,681l8078 0c328,0 550,-335 423,-638z"/><path class="fil9" d="M56091 23304c-612,63 -1096,578 -1096,1206l0 1309c0,628 484,1143 1096,1205l0 -3720z"/><path class="fil10" d="M4989 14496c-309,-290 -741,-432 -1306,-432l-1213 0 0 3506 1135 0c584,0 1036,-157 1360,-476 319,-314 481,-766 481,-1350 0,-546 -152,-958 -457,-1248l0 0zm18428 -432l-1031 0 1154 2165 0 1341 953 0 0 -1370 1154 -2136 -1027 0 -604 1301 -599 -1301zm-2788 2229l741 1277 1076 0 -1022 -1527c398,-226 595,-535 595,-943 0,-693 -477,-1036 -1429,-1036l-1150 0 0 3506 948 0 0 -1277 241 0zm-241 -1512l187 0c324,0 486,122 486,363 0,290 -162,437 -496,437l-177 0 0 -800zm-1561 2018l-1134 0 0 -663 1051 0 0 -761 -1051 0 0 -550 1134 0 0 -761 -2082 0 0 3506 2082 0 0 -771zm-4006 -948c-25,94 -54,226 -89,393 -34,172 -54,310 -68,423 -10,-158 -64,-433 -163,-825l-476 -1778 -1066 0 1144 3506 1115 0 1149 -3506 -1060 0 -486 1787zm-2240 1719l0 -3506 -953 0 0 3506 953 0zm-1513 0l0 -766 -1351 0 0 -2740 -948 0 0 3506 2299 0zm-2911 -771l-1135 0 0 -663 1051 0 0 -761 -1051 0 0 -550 1135 0 0 -761 -2083 0 0 3506 2083 0 0 -771zm-3894 -255c-133,167 -344,251 -634,251l-211 0 0 -1965 275 0c260,0 452,79 580,231 127,157 191,393 191,717 0,344 -69,599 -201,766l0 0z"/><path class="fil10" d="M14058 3373c610,0 1206,58 1784,168l0 0 41 8c62,12 124,24 186,38l17 3 40 9c53,12 107,25 161,38l40 9c66,16 133,33 199,51l39 11c67,18 132,37 198,56l39 12c52,15 104,32 156,48l39 13 39 12c51,17 103,35 154,53l39 13 8 4c61,21 122,43 182,66l0 0 38 15 2 1c57,21 114,44 170,67l17 6 37 16c49,20 98,40 147,62l2 1 38 16 37 16c46,21 92,42 138,63l9 4 36 17c61,28 120,57 180,87l2 1 36 18c3114,1559 5251,4779 5251,8499l0 53 -19001 0 -1 -53c0,-4050 2534,-7506 6102,-8874l50 -19c51,-19 101,-38 152,-56l51 -18 8 -3c353,-123 716,-227 1086,-308l4 -1 54 -12c54,-11 107,-22 161,-33l55 -10c142,-27 287,-51 432,-72l3 0 0 0c439,-63 888,-95 1343,-95zm-1318 2512c-277,753 -512,1548 -698,2376 -496,-46 -985,-108 -1464,-186 582,-855 1316,-1597 2162,-2190zm-3196 1992c-680,-148 -1338,-329 -1970,-540 1289,-1507 3094,-2560 5143,-2884 127,20 253,43 378,68 -1456,792 -2681,1952 -3551,3356zm-2652 375c668,254 1370,473 2099,654 -479,1040 -775,2181 -848,3383l-2591 0c100,-1482 579,-2859 1340,-4037zm3075 871c603,117 1222,210 1855,275 -153,931 -247,1898 -273,2891l-2430 0c77,-1130 374,-2200 848,-3166zm6837 3166c-27,-1004 -122,-1981 -278,-2922 831,-96 1638,-239 2414,-426 528,1014 858,2147 939,3348l-3075 0zm3097 -3605c451,-134 890,-283 1315,-445 766,1181 1248,2563 1349,4050l-1709 0c-79,-1288 -414,-2507 -955,-3605zm633 -1357c-391,131 -792,251 -1202,358 -845,-1292 -1996,-2367 -3350,-3120 1803,416 3387,1404 4552,2762zm-2219 596c-652,135 -1323,239 -2011,311 -229,-1012 -530,-1974 -894,-2872 1154,621 2148,1501 2905,2561zm-5131 413c282,11 566,17 853,17 380,0 757,-10 1130,-30 -247,-1114 -581,-2168 -991,-3144 -411,980 -746,2038 -992,3157zm2201 1132c-444,28 -893,42 -1348,42 -361,0 -718,-9 -1072,-26 -144,904 -233,1842 -258,2805l2939 0c-26,-968 -115,-1911 -261,-2821z"/><polygon class="fil1" points="20183,0 23606,0 23606,3671 21922,2058 20183,3671 "/></g></g></svg>