<?xml version="1.0" ?><!DOCTYPE svg  PUBLIC '-//W3C//DTD SVG 1.1//EN'  'http://www.w3.org/Graphics/SVG/1.1/DTD/svg11.dtd'><svg height="180px" style="shape-rendering:geometricPrecision; text-rendering:geometricPrecision; image-rendering:optimizeQuality; fill-rule:evenodd; clip-rule:evenodd" version="1.1" viewBox="0 0 42974 48690" width="159px" xml:space="preserve" xmlns="http://www.w3.org/2000/svg" xmlns:xlink="http://www.w3.org/1999/xlink"><defs><style type="text/css">
   <![CDATA[
    .fil1 {fill:#596366}
    .fil5 {fill:#5D718F}
    .fil4 {fill:#6B7F9E}
    .fil0 {fill:#6C7678}
    .fil11 {fill:#75BD80}
    .fil9 {fill:#83CF8F}
    .fil3 {fill:#ECF0F1}
    .fil2 {fill:#F2F2F2}
    .fil7 {fill:#FCD34E}
    .fil10 {fill:#FF7069}
    .fil6 {fill:#FFE356}
    .fil8 {fill:white}
    .fil12 {fill:#6C7678;fill-rule:nonzero}
   ]]>
  </style></defs><g id="Layer_x0020_1"><g id="_469488520"><path class="fil0" d="M13807 36395l-4121 10965c-550,-181 -1093,-381 -1627,-597l3400 -11189c763,334 1546,609 2348,821zm13704 10530c-534,206 -1076,396 -1626,568l-4171 -11098c802,-212 1585,-487 2348,-821l3449 11351zm-8849 1756c-223,6 -447,9 -672,9 -379,0 -756,-10 -1131,-26l0 -11782c299,17 599,28 901,28 303,0 603,-11 902,-28l0 11799z"/><path class="fil1" d="M13807 36395l-595 1583c-776,-187 -1534,-422 -2271,-701l518 -1703c763,334 1546,609 2348,821zm10773 882c-737,279 -1494,514 -2271,701l-595 -1583c802,-212 1585,-487 2348,-821l518 1703zm-5918 1221c-299,13 -599,21 -902,21 -302,0 -602,-8 -901,-21l0 -1616c299,17 599,28 901,28 303,0 603,-11 902,-28l0 1616z"/><path class="fil2" d="M17760 1473c9810,0 17761,7952 17761,17761 0,9809 -7951,17761 -17761,17761 -9808,0 -17760,-7952 -17760,-17761 0,-9809 7952,-17761 17760,-17761z"/><path class="fil3" d="M31968 29894l-14561 -10187c-261,-182 -325,-542 -143,-804 183,-261 543,-325 804,-143l14562 10188c-211,322 -431,638 -662,946z"/><path class="fil4" d="M17760 2894c9025,0 16341,7315 16341,16340 0,9025 -7316,16340 -16341,16340 -9024,0 -16340,-7315 -16340,-16340 0,-9025 7316,-16340 16340,-16340z"/><path class="fil5" d="M31466 28133c-211,323 -432,639 -663,945l-13396 -9371c-261,-182 -325,-542 -143,-804 183,-261 543,-325 804,-143l13398 9373z"/><path class="fil6" d="M17760 6268c7161,0 12966,5805 12966,12966 0,7161 -5805,12966 -12966,12966 -7160,0 -12965,-5805 -12965,-12966 0,-7161 5805,-12966 12965,-12966z"/><path class="fil7" d="M28699 26198c-207,325 -429,640 -664,944l-10628 -7435c-261,-182 -325,-542 -143,-804 183,-261 543,-325 804,-143l10631 7438z"/><path class="fil8" d="M17760 11032c4531,0 8203,3672 8203,8202 0,4530 -3672,8202 -8203,8202 -4529,0 -8201,-3672 -8201,-8202 0,-4530 3672,-8202 8201,-8202z"/><path class="fil3" d="M24790 23463c-200,330 -422,646 -665,944l-6718 -4700c-261,-182 -325,-542 -143,-804 183,-261 543,-325 804,-143l6722 4703z"/><path class="fil9" d="M17760 14858c2417,0 4377,1959 4377,4376 0,2417 -1960,4376 -4377,4376 -2416,0 -4375,-1959 -4375,-4376 0,-2417 1959,-4376 4375,-4376z"/><polygon class="fil10" points="34259,5367 40002,0 39536,3494 34440,7153 "/><polygon class="fil10" points="34935,7787 36348,8458 42974,4956 39995,4239 "/><path class="fil11" d="M21640 21260c-180,344 -404,660 -665,943l-3568 -2496c-261,-182 -325,-542 -143,-804 183,-261 543,-325 804,-143l3572 2500z"/><path class="fil12" d="M18091 19707c-261,183 -621,119 -803,-143 -183,-261 -119,-621 142,-803l21684 -15170c262,-183 622,-119 804,142 183,262 119,622 -143,804l-21684 15170z"/></g></g></svg>