<?xml version="1.0" ?><!DOCTYPE svg  PUBLIC '-//W3C//DTD SVG 1.1//EN'  'http://www.w3.org/Graphics/SVG/1.1/DTD/svg11.dtd'><svg height="151px" style="shape-rendering:geometricPrecision; text-rendering:geometricPrecision; image-rendering:optimizeQuality; fill-rule:evenodd; clip-rule:evenodd" version="1.1" viewBox="0 0 74517 62459" width="180px" xml:space="preserve" xmlns="http://www.w3.org/2000/svg" xmlns:xlink="http://www.w3.org/1999/xlink"><defs><style type="text/css">
   <![CDATA[
    .fil0 {fill:#6C7678}
    .fil5 {fill:#83CF8F}
    .fil10 {fill:#B9C1C9}
    .fil8 {fill:#CCD2D9}
    .fil1 {fill:#E4E7ED}
    .fil9 {fill:#E5E8ED}
    .fil2 {fill:#F2F2F2}
    .fil7 {fill:#FF7069}
    .fil6 {fill:#FFE356}
    .fil4 {fill:white}
    .fil3 {fill:white}
   ]]>
  </style></defs><g id="Layer_x0020_1"><g id="_448316744"><path class="fil0" d="M3976 0l66566 0c2186,0 3975,1789 3975,3976l0 41005 -74517 0 0 -41005c0,-2187 1789,-3976 3976,-3976z"/><path class="fil1" d="M2700 42281l69118 0 0 -38305c0,-696 -580,-1276 -1277,-1276l-66565 0c-696,0 -1276,580 -1276,1276l0 38305z"/><path class="fil2" d="M74517 44981l0 4349c0,2187 -1972,3976 -4383,3976l-65751 0c-2411,0 -4383,-1789 -4383,-3976l0 -4349 74517 0z"/><path class="fil3" d="M17158 8461l40202 0 5985 0c725,0 1318,594 1318,1318l0 7847 0 24655 -54808 0 0 -24655 0 -7847c0,-725 593,-1318 1318,-1318l5985 0z"/><path class="fil0" d="M11173 8461l52172 0c725,0 1318,593 1318,1318l0 2637 -54808 0 0 -2637c0,-725 593,-1318 1318,-1318z"/><path class="fil4" d="M32072 9827l28659 0c194,0 354,159 354,354l0 657c0,195 -160,354 -354,354l-28659 0c-195,0 -354,-159 -354,-354l0 -657c0,-195 159,-354 354,-354z"/><path class="fil5" d="M12971 9592c419,0 759,339 759,759 0,419 -340,759 -759,759 -420,0 -760,-340 -760,-759 0,-420 340,-759 760,-759z"/><path class="fil6" d="M15967 9592c420,0 759,339 759,759 0,419 -339,759 -759,759 -419,0 -759,-340 -759,-759 0,-420 340,-759 759,-759z"/><path class="fil7" d="M18964 9592c419,0 759,339 759,759 0,419 -340,759 -759,759 -419,0 -759,-340 -759,-759 0,-420 340,-759 759,-759z"/><circle class="fil8" cx="37259" cy="48970" r="1369"/><polygon class="fil9" points="45853,59561 52175,61587 22342,61587 27443,59561 27443,53306 45853,53306 "/><polygon class="fil8" points="27443,59561 45853,59561 52175,61587 52175,62459 37259,62459 22342,62459 22342,61587 "/><rect class="fil8" height="629" width="18410" x="27438" y="53307"/><g><polygon class="fil1" points="18036,15074 56675,15074 56675,27820 18036,27820 "/><g><path class="fil5" d="M23769 29681c1418,0 2568,1150 2568,2568 0,1419 -1150,2569 -2568,2569 -1419,0 -2569,-1150 -2569,-2569 0,-1418 1150,-2568 2569,-2568z"/><path class="fil6" d="M37355 29681c1419,0 2569,1150 2569,2568 0,1419 -1150,2569 -2569,2569 -1418,0 -2568,-1150 -2568,-2569 0,-1418 1150,-2568 2568,-2568z"/><path class="fil7" d="M50942 29681c1418,0 2568,1150 2568,2568 0,1419 -1150,2569 -2568,2569 -1419,0 -2568,-1150 -2568,-2569 0,-1418 1149,-2568 2568,-2568z"/></g><path class="fil10" d="M20083 35674l7371 0 0 400 -7371 0 0 -400zm0 2513l4951 0 0 400 -4951 0 0 -400zm0 -1256l7371 0 0 399 -7371 0 0 -399z"/><path class="fil10" d="M33670 35674l7371 0 0 400 -7371 0 0 -400zm0 2513l4951 0 0 400 -4951 0 0 -400zm0 -1256l7371 0 0 399 -7371 0 0 -399z"/><path class="fil10" d="M47257 35674l7370 0 0 400 -7370 0 0 -400zm0 2513l4951 0 0 400 -4951 0 0 -400zm0 -1256l7370 0 0 399 -7370 0 0 -399z"/><polygon class="fil10" points="17844,28633 56675,28633 56675,28794 17844,28794 "/></g></g></g></svg>