<?xml version="1.0" ?><!DOCTYPE svg  PUBLIC '-//W3C//DTD SVG 1.1//EN'  'http://www.w3.org/Graphics/SVG/1.1/DTD/svg11.dtd'><svg height="140px" style="shape-rendering:geometricPrecision; text-rendering:geometricPrecision; image-rendering:optimizeQuality; fill-rule:evenodd; clip-rule:evenodd" version="1.1" viewBox="0 0 76987 59132" width="183px" xml:space="preserve" xmlns="http://www.w3.org/2000/svg" xmlns:xlink="http://www.w3.org/1999/xlink"><defs><style type="text/css">
   <![CDATA[
    .fil11 {fill:#6B7F9E}
    .fil6 {fill:#6C7678}
    .fil4 {fill:#83CF8F}
    .fil2 {fill:#B9C1C9}
    .fil0 {fill:#CCD2D9}
    .fil8 {fill:#E5E8ED}
    .fil10 {fill:#F0B97D}
    .fil1 {fill:#F2F2F2}
    .fil9 {fill:#FED298}
    .fil5 {fill:#FF7069}
    .fil3 {fill:#FFE356}
    .fil7 {fill:white}
    .fil12 {fill:white}
   ]]>
  </style></defs><g id="Layer_x0020_1"><g id="_469487872"><g><path class="fil0" d="M75503 0c816,0 1484,670 1484,1484l0 54595c0,1682 -1371,3053 -3053,3053l-55572 0c-1682,0 -3053,-1371 -3053,-3053l0 -54595c0,-816 667,-1484 1483,-1484l58711 0z"/><path class="fil1" d="M75087 1301l-57878 0c-318,0 -581,263 -581,581l0 53821c0,1171 956,2128 2128,2128l54784 0c1171,0 2128,-957 2128,-2128l0 -53821c0,-317 -265,-581 -581,-581z"/></g><g><path class="fil2" d="M21800 46759l11110 0 0 677 -11110 0 0 -677zm0 3298l7870 0 0 677 -7870 0 0 -677zm0 -1648l11110 0 0 676 -11110 0 0 -676z"/><path class="fil2" d="M42050 46759l11111 0 0 677 -11111 0 0 -677zm0 3298l7870 0 0 677 -7870 0 0 -677zm0 -1648l11111 0 0 676 -11111 0 0 -676z"/><polygon class="fil3" points="40425,32975 54786,32975 54786,44391 40425,44391 "/><polygon class="fil4" points="20175,32975 34536,32975 34536,44391 20175,44391 "/><path class="fil2" d="M59385 46759l11110 0 0 677 -11110 0 0 -677zm0 3298l7870 0 0 677 -7870 0 0 -677zm0 -1648l11110 0 0 676 -11110 0 0 -676z"/><polygon class="fil5" points="57760,32975 72120,32975 72120,44391 57760,44391 "/></g><path class="fil6" d="M16867 0l58561 0c814,0 1480,666 1480,1480l0 2960 -61521 0 0 -2960c0,-814 666,-1480 1480,-1480z"/><path class="fil7" d="M42776 1533l29718 0c219,0 397,179 397,398l0 737c0,219 -178,398 -397,398l-29718 0c-219,0 -397,-179 -397,-398l0 -737c0,-219 178,-398 397,-398z"/><path class="fil4" d="M18340 1270c470,0 851,381 851,851 0,471 -381,853 -851,853 -472,0 -853,-382 -853,-853 0,-470 381,-851 853,-851z"/><path class="fil3" d="M21703 1270c471,0 852,381 852,851 0,471 -381,853 -852,853 -471,0 -852,-382 -852,-853 0,-470 381,-851 852,-851z"/><path class="fil5" d="M25067 1270c470,0 852,381 852,851 0,471 -382,853 -852,853 -471,0 -852,-382 -852,-853 0,-470 381,-851 852,-851z"/><polygon class="fil8" points="18403,6068 73892,6068 73892,24165 18403,24165 "/><path class="fil9" d="M21042 39494l-12808 480c-2931,-3911 -4763,-8693 -5037,-13887l18336 756c596,-1300 2090,-3084 3140,-3377l3075 -3296 813 -2626 409 -3186c157,-1223 2058,-1343 2994,-219 1059,1270 1152,4364 754,5750l-1325 4624 6836 164 2274 -108c2432,-116 2794,3887 159,4012l-2066 98 -58 330 2375 -212c2022,-180 2386,3664 86,3869l-3150 281 -66 375 2329 -211c1860,-168 2047,3602 77,3828l-2688 309 3 205 1761 -74c1847,-76 1929,3228 188,3413 -2115,226 -3878,368 -6047,523 -3443,120 -9232,1144 -11819,-1188 -233,-210 -417,-425 -545,-633z"/><path class="fil10" d="M21042 39494l-12808 480c-175,-233 -346,-470 -513,-709l13572 -371c314,-48 489,182 616,297 1446,3377 14056,1339 16719,1383 916,15 1830,-472 1830,-472 -207,370 -541,640 -1005,690 -2115,226 -3878,368 -6047,523 -3443,120 -9232,1144 -11819,-1188 -233,-210 -417,-425 -545,-633z"/><polygon class="fil11" points="14678,25151 14858,40720 0,40968 0,24961 "/><polygon class="fil8" points="17454,25599 17696,40218 14866,40232 14624,25614 "/><path class="fil8" d="M13224 39357c5,416 -321,756 -726,761 -405,4 -737,-330 -741,-746 -4,-416 322,-756 727,-760 405,-4 737,329 740,745z"/><path class="fil7" d="M30303 14758l-106 1942c-412,-155 -835,-235 -1282,-155l127 -1769c79,-1096 1320,-1107 1261,-18z"/><path class="fil12" d="M30595 9258l418 0 0 1870 -418 0 0 -1870zm-1852 203l-403 113 508 1800 402 -114 -507 -1799zm3962 0l402 113 -507 1800 -403 -114 508 -1799zm5948 7810l-33 417 -1864 -145 32 -417 1865 145zm-215 -2109l82 410 -1833 366 -83 -410 1834 -366zm-778 -1972l190 372 -1666 850 -190 -372 1666 -850zm-1285 -1687l284 307 -1373 1270 -283 -307 1372 -1270zm-1693 -1275l355 218 -976 1595 -356 -218 977 -1595zm-11887 7043l32 417 1864 -145 -32 -417 -1864 145zm214 -2109l-82 410 1834 366 82 -410 -1834 -366zm779 -1972l-190 372 1665 850 191 -372 -1666 -850zm1284 -1687l-283 307 1372 1270 283 -307 -1372 -1270zm1694 -1275l-356 218 977 1595 355 -218 -976 -1595z"/></g></g></svg>