<?xml version="1.0" ?><!DOCTYPE svg  PUBLIC '-//W3C//DTD SVG 1.1//EN'  'http://www.w3.org/Graphics/SVG/1.1/DTD/svg11.dtd'><svg height="151px" style="shape-rendering:geometricPrecision; text-rendering:geometricPrecision; image-rendering:optimizeQuality; fill-rule:evenodd; clip-rule:evenodd" version="1.1" viewBox="0 0 491767 412191" width="180px" xml:space="preserve" xmlns="http://www.w3.org/2000/svg" xmlns:xlink="http://www.w3.org/1999/xlink"><defs><style type="text/css">
   <![CDATA[
    .fil0 {fill:#6C7678}
    .fil5 {fill:#83CF8F}
    .fil9 {fill:#B9C1C9}
    .fil10 {fill:#CCD2D9}
    .fil1 {fill:#E5E8ED}
    .fil2 {fill:#F2F2F2}
    .fil8 {fill:#F7635B}
    .fil7 {fill:#FF7069}
    .fil6 {fill:#FFE356}
    .fil4 {fill:white}
    .fil3 {fill:white}
   ]]>
  </style></defs><g id="Layer_x0020_1"><g id="_469476928"><path class="fil0" d="M26241 0l439288 0c14434,0 26238,11807 26238,26238l0 270607 -491767 0 0 -270607c0,-14431 11807,-26238 26241,-26238z"/><path class="fil1" d="M17820 279028l456130 0 0 -252787c0,-4598 -3823,-8424 -8421,-8424l-439288 0c-4598,0 -8421,3826 -8421,8424l0 252787z"/><path class="fil2" d="M491767 296845l0 28697c0,14434 -13015,26241 -28926,26241l-433912 0c-15914,0 -28929,-11807 -28929,-26241l0 -28697 491767 0z"/><path class="fil3" d="M113233 55836l265308 0 39492 0c4786,0 8702,3920 8702,8702l0 51777 0 162713 -361696 0 -4 -162713 0 -51777c0,-4786 3917,-8702 8702,-8702l39496 0z"/><path class="fil0" d="M73737 55836l344296 0c4786,0 8702,3916 8702,8702l0 17400 -361700 0 0 -17400c0,-4786 3917,-8702 8702,-8702z"/><path class="fil4" d="M211653 64848l189129 0c1286,0 2336,1057 2336,2339l0 4337c0,1283 -1050,2336 -2336,2336l-189129 0c-1282,0 -2336,-1050 -2336,-2336l0 -4337c0,-1289 1050,-2339 2336,-2339z"/><path class="fil5" d="M85599 63297c2766,0 5008,2239 5008,5008 0,2770 -2242,5012 -5008,5012 -2769,0 -5015,-2242 -5015,-5012 0,-2769 2246,-5008 5015,-5008z"/><path class="fil6" d="M105374 63297c2769,0 5009,2239 5009,5008 0,2770 -2240,5012 -5009,5012 -2766,0 -5008,-2242 -5008,-5012 0,-2769 2242,-5008 5008,-5008z"/><path class="fil7" d="M125153 63297c2766,0 5008,2239 5008,5008 0,2770 -2242,5012 -5008,5012 -2769,0 -5012,-2242 -5012,-5012 0,-2769 2243,-5008 5012,-5008z"/><rect class="fil7" height="256480" transform="matrix(0.397078 -0 -0.264202 0.379737 233397 181632)" width="70532"/><polygon class="fil8" points="261405,181632 233396,181632 278443,246380 306452,246380 "/><polygon class="fil7" points="375904,146621 306452,246380 278443,246380 351298,141348 322889,133884 399887,103581 395402,153013 "/><path class="fil9" d="M157960 104705l86801 0 0 4301 -86801 0 0 -4301zm0 9991l62204 0 0 4301 -62204 0 0 -4301z"/><rect class="fil6" height="29725" width="10508" x="85427" y="162579"/><rect class="fil7" height="55368" width="10508" x="107609" y="136936"/><rect class="fil5" height="87422" width="10508" x="129792" y="104882"/><circle class="fil9" cx="245885" cy="323168" r="9034"/><polygon class="fil1" points="302600,393065 344325,406433 147445,406433 181108,393065 181108,351783 302600,351783 "/><polygon class="fil10" points="181108,393065 302600,393065 344325,406433 344325,412191 245885,412191 147445,412191 147445,406433 "/><path class="fil9" d="M157960 125886l86801 0 0 4301 -86801 0 0 -4301zm0 9991l62204 0 0 4301 -62204 0 0 -4301z"/><rect class="fil9" height="4149" width="121492" x="181110" y="351783"/></g></g></svg>