<?xml version="1.0" ?><!DOCTYPE svg  PUBLIC '-//W3C//DTD SVG 1.1//EN'  'http://www.w3.org/Graphics/SVG/1.1/DTD/svg11.dtd'><svg height="180px" style="shape-rendering:geometricPrecision; text-rendering:geometricPrecision; image-rendering:optimizeQuality; fill-rule:evenodd; clip-rule:evenodd" version="1.1" viewBox="0 0 300081 336801" width="160px" xml:space="preserve" xmlns="http://www.w3.org/2000/svg" xmlns:xlink="http://www.w3.org/1999/xlink"><defs><style type="text/css">
   <![CDATA[
    .fil8 {fill:#666666}
    .fil3 {fill:#6B7F9E}
    .fil7 {fill:#83CF8F}
    .fil4 {fill:#8597B1}
    .fil2 {fill:#B9C1C9}
    .fil11 {fill:#CCD2D9}
    .fil6 {fill:#E4E7ED}
    .fil10 {fill:#FF7069}
    .fil5 {fill:#FFE356}
    .fil9 {fill:white}
    .fil0 {fill:white}
    .fil1 {fill:#B9C1C9;fill-rule:nonzero}
   ]]>
  </style></defs><g id="Layer_x0020_1"><g id="_405484784"><circle class="fil0" cx="19750" cy="61529" r="17632"/><path class="fil1" d="M8493 61847c-493,-589 -418,-1465 171,-1959 586,-495 1465,-418 1958,168l4929 5863 13470 -11809c580,-507 1459,-449 1965,131 507,577 450,1458 -130,1965l-14540 12744 0 -2 -22 18c-586,493 -1465,418 -1958,-170l-5843 -6949z"/><path class="fil1" d="M19749 41779c5455,0 10392,2211 13966,5785 3574,3574 5785,8511 5785,13964 0,5455 -2211,10392 -5785,13966 -3574,3574 -8511,5785 -13966,5785 -5453,0 -10390,-2211 -13964,-5785 -3574,-3574 -5785,-8511 -5785,-13966 0,-5453 2211,-10390 5785,-13964 3574,-3574 8511,-5785 13964,-5785zm12107 7644c-3098,-3098 -7378,-5015 -12107,-5015 -4727,0 -9007,1917 -12105,5015 -3098,3098 -5015,7378 -5015,12105 0,4729 1917,9009 5015,12107 3098,3099 7378,5015 12105,5015 4729,0 9009,-1916 12107,-5015 3098,-3098 5015,-7378 5015,-12107 0,-4727 -1917,-9007 -5015,-12105z"/><path class="fil2" d="M5918 13024l64648 0 0 2989 -64648 0 0 -2989zm0 14619l41106 0 0 2989 -41106 0 0 -2989zm0 -7310l64648 0 0 2990 -64648 0 0 -2990z"/><rect class="fil3" height="127671" width="2289" x="287693" y="14405"/><rect class="fil4" height="127671" width="7809" x="289982" y="14405"/><rect class="fil3" height="127671" width="2289" x="297791" y="14405"/><polygon class="fil5" points="293893,169272 300081,142077 287692,142077 "/><rect class="fil6" height="4032" width="12387" x="287693" y="10373"/><path class="fil7" d="M291722 2308l4327 0c2217,0 4030,1813 4030,4030l0 4034 -12387 0 0 -4034c0,-2217 1813,-4030 4030,-4030z"/><polygon class="fil8" points="293639,171238 294157,171238 296215,159077 291596,159077 "/><polygon class="fil5" points="50691,35698 274638,35698 274638,336801 50691,336801 "/><polygon class="fil9" points="68380,45050 256952,45050 256952,327449 68380,327449 "/><path class="fil3" d="M158557 0l8217 0c5085,0 9246,4160 9246,9246l0 21320 -26711 0 0 -21320c0,-5086 4163,-9246 9248,-9246zm4107 5426c4081,0 7385,3304 7385,7385 0,4079 -3304,7385 -7385,7385 -4078,0 -7382,-3306 -7382,-7385 0,-4081 3304,-7385 7382,-7385z"/><path class="fil4" d="M126922 25781l71487 0c4072,0 7402,3331 7402,7405l0 20488 -86291 0 0 -20488c0,-4074 3330,-7405 7402,-7405z"/><g><rect class="fil2" height="5305" width="116478" x="104426" y="74684"/><rect class="fil10" height="31072" width="84941" x="120194" y="96571"/><rect class="fil7" height="31072" width="84941" x="120194" y="141002"/><circle class="fil10" cx="162664" cy="205034" r="23408"/><path class="fil7" d="M92112 244076l38468 0 0 24562 -38468 0 0 -24562zm103422 0l38469 0 0 24562 -38469 0 0 -24562zm-51711 0l38469 0 0 24562 -38469 0 0 -24562z"/><path class="fil0" d="M126666 101550l65283 0 0 2654 -65283 0 0 -2654zm0 12968l41509 0 0 2654 -41509 0 0 -2654zm0 -6484l65283 0 0 2654 -65283 0 0 -2654z"/><path class="fil0" d="M126666 147840l65283 0 0 2653 -65283 0 0 -2653zm0 12968l41509 0 0 2653 -41509 0 0 -2653zm0 -6484l65283 0 0 2653 -65283 0 0 -2653z"/><path class="fil0" d="M150570 196006l24189 0 0 2653 -24189 0 0 -2653zm0 12968l15381 0 0 2653 -15381 0 0 -2653zm0 -6484l24189 0 0 2653 -24189 0 0 -2653z"/><path class="fil0" d="M98934 248115l24189 0 0 2653 -24189 0 0 -2653zm0 12968l15381 0 0 2654 -15381 0 0 -2654zm0 -6484l24189 0 0 2654 -24189 0 0 -2654z"/><path class="fil0" d="M150781 248115l24188 0 0 2653 -24188 0 0 -2653zm0 12968l15380 0 0 2654 -15380 0 0 -2654zm0 -6484l24188 0 0 2654 -24188 0 0 -2654z"/><path class="fil0" d="M202627 248115l24188 0 0 2653 -24188 0 0 -2653zm0 12968l15380 0 0 2654 -15380 0 0 -2654zm0 -6484l24188 0 0 2654 -24188 0 0 -2654z"/><path class="fil2" d="M99651 280206l126026 0 0 2990 -126026 0 0 -2990zm0 14619l80131 0 0 2990 -80131 0 0 -2990zm0 -7310l126026 0 0 2990 -126026 0 0 -2990z"/><path class="fil1" d="M107390 149986l5354 5743 805 863 -861 810 -5302 4984 -1627 -1729 3116 -2930 -4879 0c-3473,0 -6646,-1148 -8961,-2998 -2388,-1908 -3870,-4561 -3870,-7496l0 -25972c0,-2936 1482,-5590 3870,-7495 2313,-1850 5488,-2999 8961,-2999l13605 0 0 2379 -13605 0c-2930,0 -5579,947 -7483,2470 -1832,1463 -2969,3463 -2969,5645l0 25972c0,2182 1137,4183 2969,5646 1906,1522 4555,2469 7483,2469l5145 0 -3490 -3744 1739 -1618z"/><path class="fil1" d="M216188 199557l5145 0c2928,0 5577,-947 7482,-2469 1833,-1463 2970,-3464 2970,-5646l0 -25971c0,-2182 -1137,-4183 -2970,-5646 -1903,-1522 -4552,-2470 -7482,-2470l-13605 0 0 -2379 13605 0c3473,0 6648,1149 8961,2999 2388,1905 3870,4561 3870,7496l0 25971c0,2935 -1482,5588 -3870,7496 -2315,1850 -5488,2998 -8961,2998l-4879 0 3116 2930 -1627 1731 -5302 -4984 -861 -812 805 -863 5354 -5743 1739 1618 -3490 3744z"/><path class="fil1" d="M110154 243609l0 -5897c0,-1454 509,-2789 1328,-3762 868,-1034 2083,-1676 3430,-1676l96242 0c1347,0 2562,642 3430,1676l-3 2c819,978 1330,2310 1330,3760l0 5897 -2381 0 0 -5897c0,-883 -292,-1675 -765,-2238l-3 0c-425,-506 -995,-821 -1608,-821l-46932 0 0 8956 -2379 0 0 -8956 -46931 0c-613,0 -1184,315 -1609,821 -473,565 -767,1357 -767,2238l0 5897 -2382 0z"/></g><polygon class="fil11" points="119522,48949 205809,48949 205809,53674 119522,53674 "/></g></g></svg>