<?xml version="1.0" encoding="iso-8859-1"?>
<!-- Generator: Adobe Illustrator 19.0.0, SVG Export Plug-In . SVG Version: 6.00 Build 0)  -->
<svg version="1.1" id="Layer_1" xmlns="http://www.w3.org/2000/svg" xmlns:xlink="http://www.w3.org/1999/xlink" x="0px" y="0px"
	 viewBox="0 0 473.654 473.654" style="enable-background:new 0 0 473.654 473.654;" xml:space="preserve">
<circle style="fill:#EDC92C;" cx="236.827" cy="236.827" r="236.827"/>
<g>
	<path style="fill:#36A5DD;" d="M232.624,259.624c0,12.726-10.321,23.043-23.043,23.043L88.598,321.072
		c-12.73,0-23.043-10.318-23.043-23.043V177.05c0-12.726,10.314-23.043,23.043-23.043l120.983,38.409
		c12.722,0,23.043,10.317,23.043,23.043L232.624,259.624L232.624,259.624z"/>
	<path style="fill:#36A5DD;" d="M253.745,259.624c0,12.726,10.314,23.043,23.043,23.043l120.983,38.409
		c12.722,0,23.043-10.317,23.043-23.043V177.05c0-12.726-10.321-23.043-23.043-23.043l-120.983,38.405
		c-12.729,0-23.043,10.317-23.043,23.043V259.624z"/>
</g>
<path style="fill:#1F92D0;" d="M272.05,186.65h-53.887c-4.951,0-9.562,1.417-13.489,3.829c3.74,20.126,6.062,55.641-3.885,95.038
	c1.432,1.309,3.003,2.461,4.704,3.418c3.747,2.109,8.063,3.332,12.673,3.332h53.887c14.278,0,25.863-11.581,25.863-25.863v-53.887
	C297.913,198.235,286.328,186.65,272.05,186.65z"/>
<g>
	<path style="fill:#249BCB;" d="M302.786,252.56c-0.045,1.866,0.767,3.246,1.825,3.078l48.884-21.996
		c1.051-0.165,1.948-1.806,1.993-3.672l0,0c0.045-1.862-0.774-3.235-1.832-3.074l-48.169-6.926
		c-1.058,0.168-1.948,1.806-1.993,3.672L302.786,252.56z"/>
	<path style="fill:#249BCB;" d="M200.232,253.958c0.052,1.866-0.767,3.246-1.825,3.078l-48.884-21.996
		c-1.051-0.165-1.945-1.806-1.986-3.672l0,0c-0.045-1.862,0.774-3.235,1.825-3.074l48.177-6.926
		c1.051,0.168,1.945,1.806,1.993,3.672L200.232,253.958z"/>
</g>
<g>
</g>
<g>
</g>
<g>
</g>
<g>
</g>
<g>
</g>
<g>
</g>
<g>
</g>
<g>
</g>
<g>
</g>
<g>
</g>
<g>
</g>
<g>
</g>
<g>
</g>
<g>
</g>
<g>
</g>
</svg>
