<?xml version="1.0" encoding="iso-8859-1"?>
<!-- Generator: Adobe Illustrator 19.0.0, SVG Export Plug-In . SVG Version: 6.00 Build 0)  -->
<svg version="1.1" id="Layer_1" xmlns="http://www.w3.org/2000/svg" xmlns:xlink="http://www.w3.org/1999/xlink" x="0px" y="0px"
	 viewBox="0 0 473.654 473.654" style="enable-background:new 0 0 473.654 473.654;" xml:space="preserve">
<circle style="fill:#4ABC96;" cx="236.827" cy="236.827" r="236.827"/>
<path style="fill:#E0E4E3;" d="M420.81,157.331c0-22.426-18.182-40.608-40.612-40.608H107.763
	c-22.426,0-40.608,18.182-40.608,40.608v168.935c0,22.422,18.182,40.608,40.608,40.608h272.435c22.43,0,40.612-18.186,40.612-40.608
	V157.331z"/>
<path style="fill:#D1D3D3;" d="M420.541,152.806c-2.255-20.295-19.446-36.083-40.346-36.083H107.763
	c-22.426,0-40.608,18.182-40.608,40.608v8.212h353.39v-12.737H420.541z"/>
<circle style="fill:#E84849;" cx="99.559" cy="140.391" r="8.881"/>
<circle style="fill:#EFC849;" cx="133.215" cy="140.391" r="8.881"/>
<circle style="fill:#37B34C;" cx="166.871" cy="140.391" r="8.881"/>
<path style="fill:#9ED8D8;" d="M343.816,333.275h-0.711c-1.687-5.146-3.758-10.112-6.174-14.88l0.509-0.505
	c8.997-8.994,21.817-34.939,8.837-47.915l-7.909-7.909c-12.98-12.976-38.207-0.879-47.915,8.833l-0.509,0.509
	c-4.764-2.416-9.738-4.484-14.88-6.17v-0.707c0-12.722-9.282-40.126-27.639-40.126h-11.181c-18.346,0-27.639,26.39-27.639,40.126
	v0.711c-5.142,1.683-10.108,3.755-14.872,6.167l-0.509-0.512c-7.558-7.558-34.943-21.809-47.915-8.829l-7.909,7.905
	c-12.98,12.976,0.553,39.639,8.829,47.915l0.512,0.512c-2.416,4.764-4.484,9.73-6.17,14.876h-0.707
	c-10.691,0-40.126,9.285-40.126,27.639v5.164c2.595,0.52,5.277,0.8,8.025,0.8h72.391c0-0.123-0.019-0.243-0.019-0.374
	c0-34.079,27.624-61.703,61.703-61.703s61.703,27.624,61.703,61.703c0,0.127-0.019,0.247-0.019,0.374h76.672
	c1.264,0,2.513-0.079,3.747-0.191v-5.774C383.942,342.56,357.556,333.275,343.816,333.275z"/>
<g>
</g>
<g>
</g>
<g>
</g>
<g>
</g>
<g>
</g>
<g>
</g>
<g>
</g>
<g>
</g>
<g>
</g>
<g>
</g>
<g>
</g>
<g>
</g>
<g>
</g>
<g>
</g>
<g>
</g>
</svg>
