<?xml version="1.0" encoding="iso-8859-1"?>
<!-- Generator: Adobe Illustrator 19.0.0, SVG Export Plug-In . SVG Version: 6.00 Build 0)  -->
<svg version="1.1" id="Layer_1" xmlns="http://www.w3.org/2000/svg" xmlns:xlink="http://www.w3.org/1999/xlink" x="0px" y="0px"
	 viewBox="0 0 473.654 473.654" style="enable-background:new 0 0 473.654 473.654;" xml:space="preserve">
<circle style="fill:#4ABC96;" cx="236.827" cy="236.827" r="236.827"/>
<g>
	<g>
		<path style="fill:#E0E4E3;" d="M419.057,153.67c0-22.422-18.178-40.608-40.616-40.608H106.013
			c-22.43,0-40.608,18.186-40.608,40.608v168.935c0,22.426,18.178,40.608,40.608,40.608h272.428
			c22.437,0,40.616-18.182,40.616-40.608V153.67z"/>
		<path style="fill:#D1D3D3;" d="M418.795,149.168c-2.244-20.302-19.438-36.109-40.354-36.109H106.013
			c-22.43,0-40.608,18.186-40.608,40.608v8.212h353.39V149.168z"/>
	</g>
</g>
<g>
	<g>
		<circle style="fill:#E84849;" cx="97.827" cy="136.723" r="8.885"/>
		<circle style="fill:#EFC849;" cx="131.446" cy="136.723" r="8.878"/>
		<circle style="fill:#37B34C;" cx="165.102" cy="136.723" r="8.885"/>
	</g>
</g>
<path style="fill:#DDA027;" d="M348.801,326.416c0.482,7.434-0.927,13.627-5.134,14.001c-4.207,0.374-26.256-22.467-32.867-21.88
	c-6.612,0.591-22.905,28.567-28.421,27.366c-5.523-1.197-6.413-5.49-6.903-12.924l4.315-81.62
	c-0.482-7.434,5.572-14.035,13.541-14.753l25.235-2.262c7.969-0.707,14.82,4.745,15.302,12.172L348.801,326.416z"/>
<path style="fill:#DA9027;" d="M336.453,323.069c0.094,7.483-6.638,17.325-10.837,17.621c-4.207,0.292-19.917-26.757-26.521-26.3
	c-6.604,0.464-24.262,28.245-29.688,26.929s-6.077-5.639-6.178-13.118l8.545-81.927c-0.094-7.479,6.275-13.993,14.237-14.551
	l25.205-1.769c7.954-0.553,14.483,5.056,14.584,12.535L336.453,323.069z"/>
<path style="fill:#DEBA24;" d="M331.177,327.676c-0.381,7.468-2.498,13.496-6.705,13.44c-4.215-0.056-23.38-25.104-29.995-25.194
	c-6.619-0.082-26.016,26.17-31.341,24.404c-5.325-1.761-5.695-6.129-5.325-13.601l13.803-80.999
	c0.389-7.468,7.158-13.436,15.127-13.332l25.257,0.325c7.969,0.101,14.124,6.238,13.739,13.709L331.177,327.676z"/>
<g>
	<path style="fill:#CC3432;" d="M355.42,232.355c0,9.087-7.363,16.447-16.447,16.447h-68.528c-9.08,0-16.439-7.363-16.439-16.447
		v-68.528c0-9.08,7.363-16.439,16.439-16.439h68.524c9.087,0,16.447,7.363,16.447,16.439v68.528H355.42z"/>
	<path style="fill:#CC3432;" d="M316.346,258.176c-6.428,6.425-16.843,6.425-23.264,0l-48.454-48.454
		c-6.421-6.428-6.421-16.839,0-23.256l48.454-48.457c6.421-6.421,16.836-6.421,23.264,0l48.454,48.457
		c6.421,6.417,6.421,16.828,0,23.256L316.346,258.176z"/>
</g>
<circle style="fill:#DDA027;" cx="304.7" cy="198.085" r="45.211"/>
<circle style="fill:#DEBA24;" cx="304.7" cy="198.085" r="35.631"/>
<g>
</g>
<g>
</g>
<g>
</g>
<g>
</g>
<g>
</g>
<g>
</g>
<g>
</g>
<g>
</g>
<g>
</g>
<g>
</g>
<g>
</g>
<g>
</g>
<g>
</g>
<g>
</g>
<g>
</g>
</svg>
