<?xml version="1.0" encoding="iso-8859-1"?>
<!-- Generator: Adobe Illustrator 19.0.0, SVG Export Plug-In . SVG Version: 6.00 Build 0)  -->
<svg version="1.1" id="Layer_1" xmlns="http://www.w3.org/2000/svg" xmlns:xlink="http://www.w3.org/1999/xlink" x="0px" y="0px"
	 viewBox="0 0 473.658 473.658" style="enable-background:new 0 0 473.658 473.658;" xml:space="preserve">
<circle style="fill:#F37C2A;" cx="236.829" cy="236.829" r="236.829"/>
<path style="fill:#DDDCD9;" d="M106.538,125.535h253.279c8.508,0,15.471,6.959,15.471,15.471v200.435
	c0,8.5-6.967,15.463-15.471,15.463H106.538c-8.508,0-15.471-6.959-15.471-15.463V141.005
	C91.067,132.498,98.03,125.535,106.538,125.535L106.538,125.535z"/>
<g>
	<path style="fill:#626463;" d="M157.893,242.786c0,2.966-2.412,5.378-5.378,5.378H108.62c-2.965,0-5.378-2.412-5.378-5.378v-23.739
		c0-2.973,2.412-5.378,5.378-5.378h43.895c2.965,0,5.378,2.405,5.378,5.378L157.893,242.786L157.893,242.786z"/>
	<path style="fill:#626463;" d="M226.635,242.786c0,2.966-2.405,5.378-5.378,5.378h-43.884c-2.973,0-5.381-2.412-5.381-5.378
		v-23.739c0-2.973,2.412-5.378,5.381-5.378h43.888c2.973,0,5.378,2.405,5.378,5.378v23.739H226.635z"/>
	<path style="fill:#626463;" d="M294.497,242.786c0,2.966-2.405,5.378-5.378,5.378h-43.888c-2.973,0-5.378-2.412-5.378-5.378
		v-23.739c0-2.973,2.405-5.378,5.378-5.378h43.888c2.973,0,5.378,2.405,5.378,5.378L294.497,242.786L294.497,242.786z"/>
	<path style="fill:#626463;" d="M363.242,242.786c0,2.966-2.405,5.378-5.378,5.378h-43.888c-2.965,0-5.378-2.412-5.378-5.378
		v-23.739c0-2.973,2.412-5.378,5.378-5.378h43.888c2.973,0,5.378,2.405,5.378,5.378V242.786z"/>
	<path style="fill:#626463;" d="M157.893,289.531c0,2.965-2.412,5.378-5.378,5.378H108.62c-2.965,0-5.378-2.412-5.378-5.378v-23.739
		c0-2.973,2.412-5.378,5.378-5.378h43.895c2.965,0,5.378,2.405,5.378,5.378L157.893,289.531L157.893,289.531z"/>
	<path style="fill:#626463;" d="M226.635,289.531c0,2.965-2.405,5.378-5.378,5.378h-43.884c-2.973,0-5.381-2.412-5.381-5.378
		v-23.739c0-2.973,2.412-5.378,5.381-5.378h43.888c2.973,0,5.378,2.405,5.378,5.378v23.739H226.635z"/>
	<path style="fill:#626463;" d="M294.497,289.531c0,2.965-2.405,5.378-5.378,5.378h-43.888c-2.973,0-5.378-2.412-5.378-5.378
		v-23.739c0-2.973,2.405-5.378,5.378-5.378h43.888c2.973,0,5.378,2.405,5.378,5.378L294.497,289.531L294.497,289.531z"/>
	<path style="fill:#626463;" d="M363.242,289.531c0,2.965-2.405,5.378-5.378,5.378h-43.888c-2.965,0-5.378-2.412-5.378-5.378
		v-23.739c0-2.973,2.412-5.378,5.378-5.378h43.888c2.973,0,5.378,2.405,5.378,5.378V289.531z"/>
	<path style="fill:#626463;" d="M157.893,336.276c0,2.966-2.412,5.378-5.378,5.378H108.62c-2.965,0-5.378-2.412-5.378-5.378v-23.739
		c0-2.973,2.412-5.378,5.378-5.378h43.895c2.965,0,5.378,2.405,5.378,5.378L157.893,336.276L157.893,336.276z"/>
	<path style="fill:#626463;" d="M226.635,336.276c0,2.966-2.405,5.378-5.378,5.378h-43.884c-2.973,0-5.381-2.412-5.381-5.378
		v-23.739c0-2.973,2.412-5.378,5.381-5.378h43.888c2.973,0,5.378,2.405,5.378,5.378v23.739H226.635z"/>
	<path style="fill:#626463;" d="M294.497,336.276c0,2.966-2.405,5.378-5.378,5.378h-43.888c-2.973,0-5.378-2.412-5.378-5.378
		v-23.739c0-2.973,2.405-5.378,5.378-5.378h43.888c2.973,0,5.378,2.405,5.378,5.378L294.497,336.276L294.497,336.276z"/>
	<path style="fill:#626463;" d="M363.242,336.276c0,2.966-2.405,5.378-5.378,5.378h-43.888c-2.965,0-5.378-2.412-5.378-5.378
		v-23.739c0-2.973,2.412-5.378,5.378-5.378h43.888c2.973,0,5.378,2.405,5.378,5.378V336.276z"/>
</g>
<path style="fill:#D32027;" d="M106.538,125.535h253.279c8.508,0,15.471,6.959,15.471,15.471v53.488H91.067v-53.488
	C91.067,132.498,98.03,125.535,106.538,125.535L106.538,125.535z"/>
<g style="opacity:0.15;">
	<path d="M310.806,125.535v28.851c0,7.24-5.924,13.156-13.156,13.156h-11.297c-7.24,0-13.156-5.916-13.156-13.156v-28.851H310.806
		L310.806,125.535z M155.556,125.535h37.602v28.851c0,7.24-5.916,13.156-13.148,13.156h-11.305c-7.232,0-13.148-5.916-13.148-13.156
		L155.556,125.535L155.556,125.535z"/>
</g>
<path style="fill:#FFFFFF;" d="M286.353,89.448h11.297c3.624,0,6.597,2.973,6.597,6.597v58.345c0,3.631-2.973,6.597-6.597,6.597
	h-11.297c-3.631,0-6.597-2.965-6.597-6.597V96.044C279.756,92.421,282.721,89.448,286.353,89.448z M168.701,89.448h11.305
	c3.624,0,6.589,2.973,6.589,6.597v58.345c0,3.631-2.965,6.597-6.589,6.597h-11.305c-3.624,0-6.597-2.965-6.597-6.597V96.044
	C162.108,92.421,165.077,89.448,168.701,89.448z"/>
<g>
</g>
<g>
</g>
<g>
</g>
<g>
</g>
<g>
</g>
<g>
</g>
<g>
</g>
<g>
</g>
<g>
</g>
<g>
</g>
<g>
</g>
<g>
</g>
<g>
</g>
<g>
</g>
<g>
</g>
</svg>
