<?xml version="1.0" encoding="iso-8859-1"?>
<!-- Generator: Adobe Illustrator 19.0.0, SVG Export Plug-In . SVG Version: 6.00 Build 0)  -->
<svg version="1.1" id="Layer_1" xmlns="http://www.w3.org/2000/svg" xmlns:xlink="http://www.w3.org/1999/xlink" x="0px" y="0px"
	 viewBox="0 0 473.654 473.654" style="enable-background:new 0 0 473.654 473.654;" xml:space="preserve">
<circle style="fill:#4ABC96;" cx="236.827" cy="236.827" r="236.827"/>
<path style="fill:#344E5D;" d="M298.99,405.086c0,16.499-12.187,29.887-27.209,29.887h-74.26c-15.029,0-27.213-13.388-27.213-29.887
	c0,0,6.238-64.754,11.335-80.947c5.105-16.177,12.187-29.879,27.213-29.879h53.854c15.026,0,23.245,9.962,27.205,29.879
	C293.889,344.071,298.99,405.086,298.99,405.086z"/>
<polygon style="fill:#FFFFFF;" points="217.606,410.317 230.646,307.213 234.213,302.644 236.135,302.539 240.776,307.213 
	253.812,410.317 235.017,426.259 "/>
<g>
	<polygon style="fill:#8DD3D5;" points="227.056,335.597 242.739,322.755 242.048,317.314 227.905,328.892 	"/>
	<polygon style="fill:#8DD3D5;" points="224.659,354.549 244.692,338.162 243.996,332.721 225.511,347.844 	"/>
	<polygon style="fill:#8DD3D5;" points="222.262,373.497 246.632,353.551 245.944,348.109 223.114,366.8 	"/>
	<polygon style="fill:#8DD3D5;" points="219.872,392.442 248.584,368.946 247.889,363.505 220.713,385.737 	"/>
	<polygon style="fill:#8DD3D5;" points="217.606,410.317 218.298,410.717 250.525,384.342 249.837,378.894 218.32,404.693 	"/>
	<polygon style="fill:#8DD3D5;" points="228.002,419.853 252.477,399.731 251.786,394.289 224.434,416.633 	"/>
</g>
<ellipse style="fill:#6FC5BC;" cx="235.518" cy="304.7" rx="8.444" ry="8.56"/>
<circle style="fill:#E9C29C;" cx="233.985" cy="232.19" r="54.837"/>
<path style="fill:#A46434;" d="M288.819,232.194l-37.388-33.649c0,0-7.965,13.182-29.202,22.789
	c-20.478,9.259-43.084,10.86-43.084,10.86c0-30.283,24.543-54.837,54.837-54.837C264.272,177.361,288.819,201.911,288.819,232.194z"
	/>
<g>
	<ellipse style="fill:#343433;" cx="217.531" cy="240.342" rx="7.517" ry="7.932"/>
	<ellipse style="fill:#343433;" cx="250.103" cy="240.342" rx="7.517" ry="7.932"/>
</g>
<g>
	<ellipse style="fill:#FFFFFF;" cx="252.459" cy="237.351" rx="3.003" ry="3.171"/>
	<ellipse style="fill:#FFFFFF;" cx="219.812" cy="237.351" rx="3.003" ry="3.171"/>
</g>
<path style="fill:#DFF1ED;" d="M335.986,106.017c0,35.35-39.4,56.483-98.321,56.483c-58.924,0-96.653-21.129-96.653-56.483
	c0-46.442,37.729-61.505,96.653-61.505C296.582,44.512,335.986,60.832,335.986,106.017z"/>
<path style="fill:#E4F3F0;" d="M335.986,106.017l-194.798-0.198c0,36.008,38.203,57.541,97.872,57.541
	c25.425,0,40.309-3.923,58.764-11.189c10.048,12.838-1.466,27.295-3.631,29.808c-0.217,0.247-0.426,0.8-0.243,0.965
	c0.445,0.415,1.286,0.116,1.84-0.079c27.003-9.046,28.305-31.424,26.424-44.692C332.601,129.386,335.986,118.709,335.986,106.017z"
	/>
<g>
	<circle style="fill:#CCE4DE;" cx="189.548" cy="108.111" r="12.55"/>
	<circle style="fill:#CCE4DE;" cx="235.556" cy="108.111" r="12.55"/>
	<circle style="fill:#CCE4DE;" cx="280.767" cy="108.111" r="12.55"/>
</g>
<g>
</g>
<g>
</g>
<g>
</g>
<g>
</g>
<g>
</g>
<g>
</g>
<g>
</g>
<g>
</g>
<g>
</g>
<g>
</g>
<g>
</g>
<g>
</g>
<g>
</g>
<g>
</g>
<g>
</g>
</svg>
