<?xml version="1.0" encoding="iso-8859-1"?>
<!-- Generator: Adobe Illustrator 19.0.0, SVG Export Plug-In . SVG Version: 6.00 Build 0)  -->
<svg version="1.1" id="Layer_1" xmlns="http://www.w3.org/2000/svg" xmlns:xlink="http://www.w3.org/1999/xlink" x="0px" y="0px"
	 viewBox="0 0 473.654 473.654" style="enable-background:new 0 0 473.654 473.654;" xml:space="preserve">
<circle style="fill:#344E5D;" cx="236.827" cy="236.827" r="236.827"/>
<path style="fill:#83CECA;" d="M145.825,366.796c0-53.678,43.517-111.069,97.184-111.069c53.678,0,97.191,57.395,97.191,111.069
	s-43.517,74.047-97.191,74.047C189.342,440.843,145.825,420.47,145.825,366.796z"/>
<path style="fill:#72C8BC;" d="M152.769,365.472c0,0,180.487-36.861,180.487,0c0,49.834-40.406,68.76-90.247,68.76
	C193.175,434.232,152.769,415.31,152.769,365.472z"/>
<g>
	<path style="fill:#83CECA;" d="M260.749,277.761c0,5.879-2.872,10.643-6.421,10.643H227.83c-3.541,0-6.413-4.76-6.413-10.643
		v-99.327c0-5.879,2.872-10.647,6.413-10.647h26.499c3.549,0,6.421,4.764,6.421,10.647V277.761z"/>
	<path style="fill:#83CECA;" d="M241.083,147.739c-22.359,0-31.233,2.625-31.233,11.57c0,0.254,0.075,0.516,0.093,0.774
		c1.013,8.579,9.424,24.685,31.136,24.685c21.723,0,30.137-16.106,31.151-24.685c0.022-0.258,0.094-0.52,0.094-0.774
		C272.327,150.365,263.453,147.739,241.083,147.739z"/>
</g>
<path style="fill:#4EBFB0;" d="M241.083,163.165c16.783,0,23.447-1.967,23.447-8.672c0-2.027-6.283-4.626-22.292-4.626
	c-16.002,0-24.584,1.443-24.584,4.626C217.651,161.198,224.303,163.165,241.083,163.165z"/>
<path style="fill:#9FD8D6;" d="M166.501,348.184c-10.519-12.344,4.559-42.998,16.895-53.51
	c12.359-10.531,40.896-19.165,51.404-6.821C245.324,300.191,177.013,360.536,166.501,348.184z"/>
<circle style="fill:#CBE9E6;" cx="242.923" cy="111.114" r="24.195"/>
<path style="fill:#DFF1EF;" d="M223.926,114.087c-3.855-4.517,1.672-15.747,6.185-19.592c4.521-3.855,14.988-7.019,18.829-2.498
	C252.795,96.515,227.774,118.616,223.926,114.087z"/>
<circle style="fill:#CBE9E6;" cx="225.646" cy="57.877" r="17.281"/>
<path style="fill:#DFF1EF;" d="M212.101,60.005c-2.752-3.227,1.189-11.256,4.413-13.997c3.235-2.752,10.706-5.019,13.455-1.78
	C232.725,47.451,214.846,63.236,212.101,60.005z"/>
<circle style="fill:#CBE9E6;" cx="276.579" cy="70.603" r="18.664"/>
<path style="fill:#DFF1EF;" d="M261.92,72.907c-2.98-3.485,1.279-12.15,4.768-15.119s11.563-5.411,14.528-1.926
	C284.189,59.355,264.885,76.399,261.92,72.907z"/>
<g>
	<path style="fill:#FFFFFF;" d="M226.147,192.872c-1.328,0-2.446-0.972-2.506-2.21c-0.067-1.279,1.013-2.36,2.39-2.416
		c1.855-0.082,18.115-0.782,19.401-0.782c1.387,0,2.506,1.036,2.506,2.319c0,1.275-1.118,2.311-2.506,2.311
		c-0.883,0-11.94,0.46-19.158,0.763C226.226,192.872,226.188,192.872,226.147,192.872z"/>
	<path style="fill:#FFFFFF;" d="M226.147,206.75c-1.328,0-2.446-0.965-2.506-2.206c-0.067-1.275,1.013-2.36,2.39-2.416
		c1.855-0.082,18.115-0.774,19.401-0.774c1.387,0,2.506,1.028,2.506,2.311c0,1.279-1.118,2.311-2.506,2.311
		c-0.883,0-11.94,0.46-19.158,0.77C226.226,206.75,226.188,206.75,226.147,206.75z"/>
	<path style="fill:#FFFFFF;" d="M226.147,220.635c-1.328,0-2.446-0.969-2.506-2.21c-0.067-1.279,1.013-2.356,2.39-2.416
		c1.855-0.079,18.115-0.774,19.401-0.774c1.387,0,2.506,1.032,2.506,2.307c0,1.283-1.118,2.319-2.506,2.319
		c-0.883,0-11.94,0.456-19.158,0.767C226.226,220.635,226.188,220.635,226.147,220.635z"/>
	<path style="fill:#FFFFFF;" d="M226.147,234.516c-1.328,0-2.446-0.965-2.506-2.199c-0.067-1.286,1.013-2.367,2.39-2.423
		c1.855-0.079,18.115-0.778,19.401-0.778c1.387,0,2.506,1.032,2.506,2.319c0,1.279-1.118,2.315-2.506,2.315
		c-0.883,0-11.94,0.46-19.158,0.767C226.226,234.516,226.188,234.516,226.147,234.516z"/>
	<path style="fill:#FFFFFF;" d="M226.147,248.401c-1.328,0-2.446-0.965-2.506-2.206c-0.067-1.271,1.013-2.352,2.39-2.412
		c1.855-0.086,18.115-0.782,19.401-0.782c1.387,0,2.506,1.036,2.506,2.315s-1.118,2.315-2.506,2.315
		c-0.883,0-11.94,0.46-19.158,0.767C226.226,248.401,226.188,248.401,226.147,248.401z"/>
</g>
<g>
</g>
<g>
</g>
<g>
</g>
<g>
</g>
<g>
</g>
<g>
</g>
<g>
</g>
<g>
</g>
<g>
</g>
<g>
</g>
<g>
</g>
<g>
</g>
<g>
</g>
<g>
</g>
<g>
</g>
</svg>
