<?xml version="1.0" encoding="iso-8859-1"?>
<!-- Generator: Adobe Illustrator 19.0.0, SVG Export Plug-In . SVG Version: 6.00 Build 0)  -->
<svg version="1.1" id="Layer_1" xmlns="http://www.w3.org/2000/svg" xmlns:xlink="http://www.w3.org/1999/xlink" x="0px" y="0px"
	 viewBox="0 0 473.654 473.654" style="enable-background:new 0 0 473.654 473.654;" xml:space="preserve">
<circle style="fill:#49A0AE;" cx="236.827" cy="236.827" r="236.827"/>
<g>
	<path style="fill:#C12C2B;" d="M316.869,229.341h92.715c-4.424-88.542-75.423-159.541-163.965-163.969v92.719
		C283.075,162.148,312.808,191.885,316.869,229.341z"/>
	<path style="fill:#C12C2B;" d="M224.898,158.498V65.611c-87.042,5.95-156.408,76.261-160.775,163.73h92.715
		C160.779,192.958,188.957,163.849,224.898,158.498z"/>
	<path style="fill:#C12C2B;" d="M157.245,250.062H64.354c5.879,85.977,74.563,154.661,160.544,160.544v-92.887
		C190.015,312.524,162.44,284.948,157.245,250.062z"/>
	<path style="fill:#C12C2B;" d="M245.623,318.126v92.711c87.472-4.368,157.78-73.733,163.73-160.775h-92.891
		C311.11,286.003,282.001,314.184,245.623,318.126z"/>
</g>
<path style="fill:#CC3432;" d="M236.853,318.608c-44.46,0-80.498-36.042-80.498-80.498s36.042-80.498,80.498-80.498
	s80.498,36.042,80.498,80.498S281.313,318.608,236.853,318.608z M236.853,98.628c-77.031,0-139.482,62.447-139.482,139.482
	c0,77.031,62.451,139.482,139.482,139.482s139.482-62.451,139.482-139.482C376.336,161.075,313.885,98.628,236.853,98.628z"/>
<path style="fill:#D84141;" d="M236.853,141.67c-53.259,0-96.44,43.177-96.44,96.44c0,53.259,43.181,96.44,96.44,96.44
	s96.44-43.181,96.44-96.44C333.293,184.847,290.112,141.67,236.853,141.67z M236.853,318.608c-44.46,0-80.498-36.042-80.498-80.498
	s36.042-80.498,80.498-80.498s80.498,36.042,80.498,80.498S281.313,318.608,236.853,318.608z"/>
<g>
	<path style="fill:#FFFFFF;" d="M236.853,318.275c-4.065,0-8.055-0.307-11.955-0.886v93.216c3.956,0.269,7.935,0.46,11.955,0.46
		c2.939,0,5.86-0.079,8.769-0.228v-93.044C242.74,318.103,239.819,318.275,236.853,318.275z"/>
	<path style="fill:#FFFFFF;" d="M236.853,157.975c2.965,0,5.886,0.172,8.769,0.482V65.371c-2.906-0.142-5.83-0.221-8.769-0.221
		c-4.02,0-8.003,0.187-11.955,0.456v93.254C228.798,158.281,232.788,157.975,236.853,157.975z"/>
	<path style="fill:#FFFFFF;" d="M156.617,238.11c0-2.965,0.172-5.886,0.482-8.769H64.119c-0.146,2.902-0.224,5.83-0.224,8.769
		c0,4.02,0.187,8.003,0.456,11.952h93.153C156.924,246.161,156.617,242.171,156.617,238.11z"/>
	<path style="fill:#FFFFFF;" d="M409.584,229.341H316.54c0.31,2.883,0.482,5.804,0.482,8.769c0,4.061-0.307,8.051-0.89,11.952
		h93.224c0.269-3.953,0.456-7.932,0.456-11.952C409.809,235.171,409.73,232.243,409.584,229.341z"/>
</g>
<g>
</g>
<g>
</g>
<g>
</g>
<g>
</g>
<g>
</g>
<g>
</g>
<g>
</g>
<g>
</g>
<g>
</g>
<g>
</g>
<g>
</g>
<g>
</g>
<g>
</g>
<g>
</g>
<g>
</g>
</svg>
