<?xml version="1.0" encoding="iso-8859-1"?>
<!-- Generator: Adobe Illustrator 19.0.0, SVG Export Plug-In . SVG Version: 6.00 Build 0)  -->
<svg version="1.1" id="Layer_1" xmlns="http://www.w3.org/2000/svg" xmlns:xlink="http://www.w3.org/1999/xlink" x="0px" y="0px"
	 viewBox="0 0 473.658 473.658" style="enable-background:new 0 0 473.658 473.658;" xml:space="preserve">
<circle style="fill:#357180;" cx="236.829" cy="236.829" r="236.829"/>
<polygon style="fill:#85C88E;" points="392.078,350.846 322.769,336.792 191.651,378.938 83.004,350.846 83.004,109.211 
	187.904,137.303 322.769,95.158 392.078,109.211 "/>
<polygon style="fill:#71C176;" points="379.835,336.209 316.022,323.274 316.022,109.211 379.835,122.147 "/>
<polygon style="fill:#57BA68;" points="316.022,323.274 195.289,362.079 191.834,148.017 316.022,109.211 "/>
<polygon style="fill:#6CC077;" points="195.289,362.079 95.248,336.209 95.248,122.147 191.834,148.017 "/>
<path style="fill:#F3F2F2;" d="M180.877,358.216l-85.629-23.234v-84.5c0,0,31.547-20.927,68.416-22.43
	c36.869-1.503,87.813,3.986,82.54,42.362C240.939,308.783,180.877,358.216,180.877,358.216z"/>
<path style="fill:#67B8CB;" d="M172.141,355.763l-76.894-19.891v-78.15c0,0,30.186-20.022,65.458-21.458
	c35.279-1.44,79.19-0.722,74.149,35.994C229.813,308.973,172.141,355.763,172.141,355.763z"/>
<path style="fill:#5FADB5;" d="M193.996,236.586c24.76,2.016,44.393,9.917,40.859,35.672c-2.906,21.189-22.797,45.735-39.565,62.706
	L193.996,236.586z"/>
<path style="fill:#FFFFFF;" d="M326.89,251.469c-12.161-87.413,42.699-117.162,52.945-121.918v-7.404l-3.134-0.636
	c-13.021,6.713-61.505,36.7-59.871,109.881c-5.142-9.517-11.825-20.422-21.649-32.991c-46.939-60.099-186.408-0.153-199.934,5.856
	v9.73c19.465-8.414,152.105-63.121,193.296-10.392c15.172,19.405,22.322,34.161,28.63,47.175
	c10.979,22.651,21.75,41.341,62.661,62.111V302.53C344.9,284.621,336.415,270.856,326.89,251.469z"/>
<path style="fill:#DDDDDC;" d="M379.835,129.551v-7.404l-3.134-0.636c-13.021,6.713-61.505,36.7-59.871,109.881
	c-5.142-9.517-11.825-20.422-21.649-32.991c-21.716-27.8-63.229-29.902-102.914-23.548l0.146,9.409
	c38.099-6.466,76.983-5.164,96.126,19.334c15.172,19.405,22.322,34.161,28.63,47.175c10.979,22.651,21.75,41.341,62.661,62.111
	V302.53c-34.935-17.909-43.421-31.678-52.945-51.061C314.729,164.056,369.589,134.308,379.835,129.551z"/>
<g>
	<path style="fill:#F3F2F2;" d="M95.248,204.257v9.73c10.422-4.499,53.274-22.269,97.17-29.726l-0.146-9.409
		C146.162,182.227,102.521,201.03,95.248,204.257z"/>
	<path style="fill:#F3F2F2;" d="M376.701,121.511c-13.021,6.713-61.505,36.7-59.871,109.881c-0.262-0.482-0.542-0.98-0.812-1.47
		v18.47c0.389,0.797,0.767,1.586,1.156,2.375c10.979,22.651,21.75,41.341,62.661,62.111v-10.351
		c-34.935-17.909-43.421-31.678-52.945-51.061c-12.161-87.409,42.699-117.158,52.945-121.915v-7.404L376.701,121.511z"/>
</g>
<path style="fill:#EED22F;" d="M268.29,182.388c-17.801,0-32.232,14.431-32.232,32.232c0,23.447,30.422,54.793,33.159,54.793
	c2.73,0,31.304-34.109,31.304-54.793C300.522,196.823,286.098,182.388,268.29,182.388z M268.137,225.393
	c-6.982,0-12.644-5.508-12.644-12.307s5.662-12.315,12.644-12.315c6.989,0,12.651,5.516,12.651,12.315
	S275.126,225.393,268.137,225.393z"/>
<path style="fill:#E4B422;" d="M269.218,271.286c-4.099,0-35.029-32.628-35.029-56.662c0-18.806,15.302-34.101,34.101-34.101
	c18.806,0,34.101,15.295,34.101,34.101C302.392,234.563,274.3,271.286,269.218,271.286z M268.29,184.258
	c-16.742,0-30.362,13.623-30.362,30.362c0,21.189,26.192,49.411,31.233,52.728c4.596-3.549,29.494-33.832,29.494-52.728
	C298.652,197.881,285.04,184.258,268.29,184.258z M268.137,227.263c-8.007,0-14.513-6.361-14.513-14.177
	c0-7.823,6.507-14.184,14.513-14.184c8.006,0,14.521,6.361,14.521,14.184C282.658,220.902,276.143,227.263,268.137,227.263z
	 M268.137,202.642c-5.938,0-10.774,4.682-10.774,10.445c0,5.755,4.835,10.437,10.774,10.437c5.946,0,10.781-4.682,10.781-10.437
	C278.918,207.324,274.083,202.642,268.137,202.642z"/>
<g>
</g>
<g>
</g>
<g>
</g>
<g>
</g>
<g>
</g>
<g>
</g>
<g>
</g>
<g>
</g>
<g>
</g>
<g>
</g>
<g>
</g>
<g>
</g>
<g>
</g>
<g>
</g>
<g>
</g>
</svg>
