<?xml version="1.0" encoding="iso-8859-1"?>
<!-- Generator: Adobe Illustrator 19.0.0, SVG Export Plug-In . SVG Version: 6.00 Build 0)  -->
<svg version="1.1" id="Layer_1" xmlns="http://www.w3.org/2000/svg" xmlns:xlink="http://www.w3.org/1999/xlink" x="0px" y="0px"
	 viewBox="0 0 473.658 473.658" style="enable-background:new 0 0 473.658 473.658;" xml:space="preserve">
<circle style="fill:#D1AFD2;" cx="236.829" cy="236.829" r="236.829"/>
<g>
	<path style="fill:#BB813C;" d="M362.962,302.152c0,66.4-53.835,85.113-120.236,85.113s-120.236-18.713-120.236-85.113
		c0-66.408,53.835-155.362,120.236-155.362S362.962,235.748,362.962,302.152z"/>
	<polygon style="fill:#BB813C;" points="240.034,142.542 243.381,142.542 259.648,142.542 298.372,94.126 298.372,75.589 
		271.6,75.589 271.6,65.069 243.381,65.069 240.034,65.069 211.818,65.069 211.818,75.589 185.047,75.589 185.047,94.126 
		223.778,142.542 	"/>
</g>
<g>
	<polygon style="fill:#A06D35;" points="271.6,75.589 246.387,137.707 287.13,75.682 	"/>
	<polygon style="fill:#A06D35;" points="212.024,75.589 237.233,137.707 196.494,75.682 	"/>
	<polygon style="fill:#A06D35;" points="224.081,173.723 240.378,156.764 214.044,173.693 	"/>
	<polygon style="fill:#A06D35;" points="262.591,173.723 246.301,156.764 272.632,173.693 	"/>
</g>
<path style="fill:#8D602F;" d="M265.616,147.385c0,2.872-2.33,5.202-5.209,5.202H224.35c-2.876,0-5.202-2.33-5.202-5.202l0,0
	c0-2.872,2.326-5.209,5.202-5.209h36.057C263.287,142.176,265.616,144.513,265.616,147.385L265.616,147.385z"/>
<polygon style="fill:#A06D35;" points="237.842,65.615 246.387,65.615 241.545,135.194 "/>
<path style="fill:#8D602F;" d="M194.564,272.295c-6.529,0-9.323-3.171-9.323-7.457v-1.862c0-4.106,2.794-7.274,9.323-7.274h8.201
	c5.591-25.358,24.61-40.646,50.716-40.646c24.992,0,39.905,12.307,39.905,24.24c0,9.693-12.12,13.979-12.864,13.044
	c-6.713-9.693-13.795-14.914-27.037-14.914c-11.746,0-20.504,6.529-24.423,18.275h29.651c6.522,0,9.319,3.171,9.319,7.274v1.862
	c0,4.286-2.797,7.457-9.319,7.457h-31.888v10.819h31.888c6.522,0,9.319,3.171,9.319,7.266v1.87c0,4.106-2.797,7.266-9.319,7.266
	h-29.651c3.919,11.754,13.051,18.646,25.171,18.646c13.238,0,20.325-5.594,26.476-15.848c0.931-1.118,13.238,3.358,13.238,13.051
	c0,10.628-12.864,25.175-39.902,25.175c-27.037,0-46.057-15.104-51.464-41.027c0.187,0-8.018,0-8.018,0
	c-6.529,0-9.323-3.164-9.323-7.266v-1.87c0-4.099,2.793-7.266,9.323-7.266h6.522v-10.819h-6.522V272.295z"/>
<g>
</g>
<g>
</g>
<g>
</g>
<g>
</g>
<g>
</g>
<g>
</g>
<g>
</g>
<g>
</g>
<g>
</g>
<g>
</g>
<g>
</g>
<g>
</g>
<g>
</g>
<g>
</g>
<g>
</g>
</svg>
