<?xml version="1.0" encoding="iso-8859-1"?>
<!-- Generator: Adobe Illustrator 19.0.0, SVG Export Plug-In . SVG Version: 6.00 Build 0)  -->
<svg version="1.1" id="Layer_1" xmlns="http://www.w3.org/2000/svg" xmlns:xlink="http://www.w3.org/1999/xlink" x="0px" y="0px"
	 viewBox="0 0 473.658 473.658" style="enable-background:new 0 0 473.658 473.658;" xml:space="preserve">
<circle style="fill:#1FA85B;" cx="236.829" cy="236.829" r="236.829"/>
<g>
	<path style="fill:#BB813C;" d="M358.201,298.398c0,66.4-53.832,85.113-120.236,85.113S117.73,364.798,117.73,298.398
		c0-66.408,53.832-155.362,120.236-155.362S358.201,231.99,358.201,298.398z"/>
	<polygon style="fill:#BB813C;" points="235.277,138.784 238.616,138.784 254.887,138.784 293.615,90.367 293.615,71.83 
		266.836,71.83 266.836,61.311 238.616,61.311 235.277,61.311 207.062,61.311 207.062,71.83 180.286,71.83 180.286,90.367 
		219.017,138.784 	"/>
</g>
<g>
	<polygon style="fill:#A06D35;" points="266.836,71.83 241.631,133.949 282.374,71.924 	"/>
	<polygon style="fill:#A06D35;" points="207.267,71.83 232.472,133.949 191.729,71.924 	"/>
	<polygon style="fill:#A06D35;" points="219.316,169.965 235.621,153.006 209.283,169.935 	"/>
	<polygon style="fill:#A06D35;" points="257.831,169.965 241.537,153.006 267.875,169.935 	"/>
</g>
<path style="fill:#8D602F;" d="M260.856,143.627c0,2.872-2.33,5.202-5.209,5.202h-36.053c-2.88,0-5.209-2.33-5.209-5.202l0,0
	c0-2.872,2.33-5.209,5.209-5.209h36.053C258.526,138.421,260.856,140.759,260.856,143.627L260.856,143.627z"/>
<polygon style="fill:#A06D35;" points="233.078,61.86 241.631,61.86 236.788,131.436 "/>
<path style="fill:#8D602F;" d="M281.801,234.78c0,8.384-9.51,14.353-10.063,13.608c-7.09-8.201-19.21-14.36-31.517-14.36
	c-12.498,0-20.138,5.594-20.138,13.986c0,9.701,10.254,12.307,24.614,15.478c17.157,3.732,39.718,10.635,39.718,35.059
	c0,18.836-13.051,31.888-34.876,35.249v7.266c0,8.582-3.351,12.681-10.811,12.681h-0.935c-7.831,0-10.628-3.915-10.628-12.681
	v-6.896c-22.568-2.423-35.433-12.681-35.433-23.126c0-8.021,8.949-13.795,9.693-13.051c7.09,8.575,20.889,15.661,35.433,15.661
	c13.242,0,20.889-5.594,20.889-13.986c0-10.254-11.563-13.051-25.175-16.222c-16.413-3.541-38.039-10.063-38.039-34.685
	c0-17.901,12.681-30.766,32.815-34.498v-6.903c0-8.575,3.171-12.681,10.635-12.681h1.118c7.64,0,10.628,3.915,10.628,12.681v6.346
	C270.429,215.943,281.801,225.262,281.801,234.78z"/>
<g>
</g>
<g>
</g>
<g>
</g>
<g>
</g>
<g>
</g>
<g>
</g>
<g>
</g>
<g>
</g>
<g>
</g>
<g>
</g>
<g>
</g>
<g>
</g>
<g>
</g>
<g>
</g>
<g>
</g>
</svg>
