<?xml version="1.0" encoding="iso-8859-1"?>
<!-- Generator: Adobe Illustrator 19.0.0, SVG Export Plug-In . SVG Version: 6.00 Build 0)  -->
<svg version="1.1" id="Layer_1" xmlns="http://www.w3.org/2000/svg" xmlns:xlink="http://www.w3.org/1999/xlink" x="0px" y="0px"
	 viewBox="0 0 476.838 476.838" style="enable-background:new 0 0 476.838 476.838;" xml:space="preserve">
<circle style="fill:#E84849;" cx="238.419" cy="238.419" r="238.419"/>
<path style="fill:#CFC7BE;" d="M363.607,215.187c0-69.346-55.096-132.397-123.053-132.397c-67.964,0-123.053,63.051-123.053,132.397
	h31.846c0-51.396,40.84-99.896,91.208-99.896c50.376,0,91.208,48.501,91.208,99.896H363.607z"/>
<path style="fill:#F4E028;" d="M363.674,370.398c0,14.536-12.028,26.315-26.884,26.315H144.12c-14.852,0-26.884-11.78-26.884-26.315
	V214.724c0-14.528,246.434-14.528,246.434,0v155.674H363.674z"/>
<path style="fill:#DAC425;" d="M268.943,277.798c0-15.168-12.296-27.464-27.464-27.464s-27.464,12.296-27.464,27.464
	c0,11.573,7.16,21.448,17.28,25.495v25.333c0,5.368,4.36,9.72,9.728,9.72c5.376,0,9.728-4.352,9.728-9.72v-25.001
	C261.35,299.817,268.943,289.709,268.943,277.798z"/>
<path style="fill:#D0B82B;" d="M212.988,277.798c0-15.168,12.303-27.464,27.471-27.464c0,0-19.147,12.766-19.147,27.934
	c0,15.45,14.449,24.606,14.449,24.606v26.029c0,5.376,5.146,9.442,5.146,9.442c-5.368,0-9.728-4.352-9.728-9.72v-25.001
	C220.585,299.817,212.988,289.709,212.988,277.798z"/>
<polygon style="fill:#F8E349;" points="318.848,396.713 284.518,396.713 284.518,204.457 318.848,206.174 "/>
<path style="fill:#E8E7E7;" d="M284.518,91.983v36.45c14.17,8.99,26.029,21.997,34.33,37.192v-51.358
	C308.657,104.971,297.069,97.389,284.518,91.983z"/>
<g>
</g>
<g>
</g>
<g>
</g>
<g>
</g>
<g>
</g>
<g>
</g>
<g>
</g>
<g>
</g>
<g>
</g>
<g>
</g>
<g>
</g>
<g>
</g>
<g>
</g>
<g>
</g>
<g>
</g>
</svg>
