<?xml version="1.0" encoding="iso-8859-1"?>
<!-- Generator: Adobe Illustrator 19.0.0, SVG Export Plug-In . SVG Version: 6.00 Build 0)  -->
<svg version="1.1" id="Layer_1" xmlns="http://www.w3.org/2000/svg" xmlns:xlink="http://www.w3.org/1999/xlink" x="0px" y="0px"
	 viewBox="0 0 473.658 473.658" style="enable-background:new 0 0 473.658 473.658;" xml:space="preserve">
<circle style="fill:#4ABC96;" cx="236.829" cy="236.829" r="236.829"/>
<path style="fill:#CC3432;" d="M344.866,202.234c0-58.386-47.321-105.722-105.722-105.722c-58.379,0-105.722,47.336-105.722,105.722
	c0,47.212,30.938,87.181,73.674,100.778l31.802,70.316l31.558-70.073C313.566,289.909,344.866,249.723,344.866,202.234z
	 M239.14,246.911c-24.689,0-44.67-20.007-44.67-44.677c0-24.681,19.984-44.677,44.67-44.677c24.681,0,44.684,19.999,44.684,44.677
	C283.825,226.908,263.821,246.911,239.14,246.911z"/>
<path style="fill:#BA2E2D;" d="M238.901,377.872l-33.174-73.33c-44.408-14.513-74.179-55.518-74.179-102.304
	c0-59.329,48.263-107.592,107.592-107.592s107.596,48.26,107.596,107.588c0,47.19-30.07,88.288-74.923,102.555L238.901,377.872z
	 M239.14,98.381c-57.268,0-103.852,46.592-103.852,103.852c0,45.429,29.083,85.214,72.369,98.998l0.797,0.247l30.444,67.298
	l30.201-67.066l0.811-0.247c43.708-13.534,73.087-53.405,73.087-99.23C342.996,144.969,296.405,98.381,239.14,98.381z
	 M239.14,248.781c-25.665,0-46.539-20.882-46.539-46.547s20.874-46.547,46.539-46.547c25.672,0,46.554,20.882,46.554,46.547
	S264.812,248.781,239.14,248.781z M239.14,159.427c-23.601,0-42.8,19.21-42.8,42.807c0,23.612,19.203,42.807,42.8,42.807
	c23.608,0,42.815-19.195,42.815-42.807C281.955,178.633,262.748,159.427,239.14,159.427z"/>
<path style="fill:#DC4747;" d="M207.653,301.232l0.797,0.247l30.283,66.946v-119.66c-25.478-0.228-46.132-21.005-46.132-46.532
	s20.654-46.3,46.132-46.524V98.393c-57.081,0.221-103.445,46.719-103.445,103.841C135.288,247.663,164.37,287.448,207.653,301.232z"
	/>
<g>
</g>
<g>
</g>
<g>
</g>
<g>
</g>
<g>
</g>
<g>
</g>
<g>
</g>
<g>
</g>
<g>
</g>
<g>
</g>
<g>
</g>
<g>
</g>
<g>
</g>
<g>
</g>
<g>
</g>
</svg>
