<?xml version="1.0" encoding="iso-8859-1"?>
<!-- Generator: Adobe Illustrator 19.0.0, SVG Export Plug-In . SVG Version: 6.00 Build 0)  -->
<svg version="1.1" id="Layer_1" xmlns="http://www.w3.org/2000/svg" xmlns:xlink="http://www.w3.org/1999/xlink" x="0px" y="0px"
	 viewBox="0 0 473.654 473.654" style="enable-background:new 0 0 473.654 473.654;" xml:space="preserve">
<circle style="fill:#4ABC96;" cx="236.827" cy="236.827" r="236.827"/>
<path style="fill:#A07238;" d="M121.297,383.729c-5.55,5.542-14.554,5.542-20.1,0l0,0c-5.553-5.561-5.553-14.558,0-20.104
	l104.039-104.05c5.546-5.531,14.547-5.531,20.1,0.015l0,0c5.546,5.535,5.546,14.536-0.007,20.093L121.297,383.729z"/>
<path style="fill:#D4A160;" d="M135.197,387.543c-4.865,4.85-17.262,0.329-27.699-10.112l0,0
	c-10.445-10.445-14.97-22.849-10.112-27.699l110.489-110.508c4.865-4.854,17.269-0.322,27.706,10.116l0,0
	c10.445,10.426,14.973,22.83,10.112,27.71L135.197,387.543z"/>
<path style="fill:#A07238;" d="M202.763,243.843l-14.532,14.528c0,0,13.272,29.318,41.816,33.821l10.546-10.538v-13.634
	L202.763,243.843z"/>
<circle style="fill:#60C3B6;" cx="292.584" cy="192.326" r="102.188"/>
<circle style="fill:#83CECA;" cx="298.612" cy="202.199" r="80.277"/>
<path style="fill:#EBEDEF;" d="M213.365,113.122c-43.757,43.749-43.757,114.689,0,158.431c43.76,43.76,114.685,43.76,158.442,0.011
	c43.746-43.753,43.746-114.693,0-158.442C328.05,69.369,257.126,69.369,213.365,113.122z M351.834,251.591
	c-32.714,32.721-85.775,32.725-118.5,0c-32.729-32.718-32.729-85.782,0-118.5c32.725-32.725,85.782-32.725,118.5-0.007
	C384.574,165.816,384.559,218.874,351.834,251.591z"/>
<g style="opacity:0.7;">
	<path style="fill:#FFFFFF;" d="M237.13,181.381c-2.094,4.57-0.097,10.018,4.469,12.116c4.588,2.132,10.03,0.101,12.135-4.446
		c0,0,0.086-0.217,0.531-1.013c3.167-5.804,18.444-30.433,50.739-33.436c3.919-0.385,7.004-3.167,7.958-6.765
		c0.266-1.013,0.37-2.094,0.258-3.212c-0.501-5.018-4.947-8.713-9.973-8.208C255.634,141.311,237.601,180.457,237.13,181.381z"/>
</g>
<path style="fill:#357180;" d="M302.389,200.815c-0.015,0-0.03,0.007-0.041,0.007c0.007,0.183,0.052,0.363,0.052,0.546
	c0,6.331-5.138,11.466-11.462,11.466c-5.033,0-9.259-3.253-10.804-7.756c-6.522,1.552-13.003,3.231-18.002,4.525l-4.439,1.148
	c-5.419,1.38-10.295,2.741-14.771,4.278c1.028,1.72,1.657,3.706,1.657,5.856c0,6.331-5.134,11.466-11.462,11.466
	c-4.674,0-8.683-2.805-10.471-6.825c-1.679,1.316-3.317,2.778-4.932,4.353c3.927,7.827,9.095,15.186,15.624,21.712
	c32.725,32.725,85.782,32.721,118.5,0c24.995-24.988,30.84-61.819,17.655-92.42c-2.943,2.577-5.927,5.74-9.147,9.162
	c-0.677,0.718-1.354,1.44-2.049,2.169c0.74,1.522,1.193,3.205,1.193,5.011c0,6.324-5.131,11.462-11.462,11.462
	c-2.105,0-4.05-0.613-5.748-1.597"/>
<g>
	<circle style="fill:#FDF2F7;" cx="233.125" cy="220.897" r="11.466"/>
	<circle style="fill:#FDF2F7;" cx="290.935" cy="201.372" r="11.466"/>
	<circle style="fill:#FDF2F7;" cx="348.005" cy="175.498" r="11.466"/>
</g>
<path style="fill:#FDF7FA;" d="M257.825,211.29l4.416-1.137c11.387-2.954,30.451-7.891,40.2-8.788
	c30.152-2.752,45.754-19.33,58.296-32.65c3.227-3.429,6.155-6.522,8.986-9.035c-0.464-1.092-0.995-2.161-1.503-3.235
	c-3.238,2.767-6.477,6.196-9.981,9.914c-12.142,12.898-27.258,28.952-56.112,31.584c-10.03,0.92-29.258,5.905-40.746,8.881
	l-4.401,1.137c-17.561,4.476-29.647,8.695-40.586,19.079c0.501,1.096,0.976,2.206,1.526,3.283
	C228.507,219.887,240.155,215.8,257.825,211.29z"/>
<g>
</g>
<g>
</g>
<g>
</g>
<g>
</g>
<g>
</g>
<g>
</g>
<g>
</g>
<g>
</g>
<g>
</g>
<g>
</g>
<g>
</g>
<g>
</g>
<g>
</g>
<g>
</g>
<g>
</g>
</svg>
