<?xml version="1.0" encoding="iso-8859-1"?>
<!-- Generator: Adobe Illustrator 19.0.0, SVG Export Plug-In . SVG Version: 6.00 Build 0)  -->
<svg version="1.1" id="Layer_1" xmlns="http://www.w3.org/2000/svg" xmlns:xlink="http://www.w3.org/1999/xlink" x="0px" y="0px"
	 viewBox="0 0 473.654 473.654" style="enable-background:new 0 0 473.654 473.654;" xml:space="preserve">
<circle style="fill:#4ABC96;" cx="236.827" cy="236.827" r="236.827"/>
<path style="fill:#202121;" d="M312.251,371.097c0,20.007-10.187,30.186-30.197,30.186H179.402
	c-20.014,0-30.197-10.183-30.197-30.186V123.503c0-20.007,10.187-30.186,30.197-30.186h102.651
	c20.014,0,30.197,10.183,30.197,30.186V371.097z"/>
<circle style="fill:#121212;" cx="231.169" cy="380.128" r="12.079"/>
<path style="fill:#202121;" d="M232.953,384.937h-3.564c-0.804,0-1.559-0.314-2.124-0.883c-0.568-0.576-0.879-1.328-0.871-2.139
	v-3.549c0-1.649,1.343-2.995,2.999-2.995h3.564c0.819,0,1.567,0.307,2.128,0.875c0.565,0.568,0.871,1.324,0.868,2.124v3.549
	C235.952,383.587,234.602,384.937,232.953,384.937z M232.979,377.241h-3.59c-0.625,0-1.129,0.505-1.129,1.126v3.556
	c-0.004,0.314,0.112,0.598,0.329,0.812c0.213,0.221,0.497,0.337,0.8,0.337h3.564c0.621,0,1.129-0.512,1.129-1.148v-3.556
	c0-0.307-0.112-0.591-0.325-0.804C233.544,377.357,233.271,377.241,232.979,377.241z"/>
<path d="M249.845,115.96c0,1.945-1.582,3.519-3.519,3.519h-31.199c-1.945,0-3.523-1.578-3.523-3.519l0,0
	c0-1.945,1.582-3.519,3.523-3.519h31.199C248.267,112.438,249.845,114.016,249.845,115.96L249.845,115.96z"/>
<rect x="156.763" y="131.82" style="fill:#67B8CB;" width="147.19" height="224.935"/>
<polygon style="fill:#BBBCBB;" points="244.018,213.406 317.243,238.188 366.684,178.976 400.591,138.14 193.815,196.171 "/>
<polygon style="fill:#E7E7E7;" points="441.33,283.329 234.557,341.356 193.755,195.942 317.576,239.744 400.527,137.923 "/>
<g>
	<polygon style="fill:#BBBCBB;" points="400.591,138.14 396.821,137.74 233.278,336.79 234.557,341.356 245.028,338.413 
		403.519,148.599 	"/>
	<polygon style="fill:#BBBCBB;" points="193.815,196.171 196.821,193.871 440.051,278.77 441.33,283.329 430.859,286.264 
		196.743,206.63 	"/>
</g>
<polygon style="fill:#E7E7E7;" points="319.169,245.451 193.388,194.645 400.161,136.614 "/>
<g>
</g>
<g>
</g>
<g>
</g>
<g>
</g>
<g>
</g>
<g>
</g>
<g>
</g>
<g>
</g>
<g>
</g>
<g>
</g>
<g>
</g>
<g>
</g>
<g>
</g>
<g>
</g>
<g>
</g>
</svg>
