<?xml version="1.0" encoding="iso-8859-1"?>
<!-- Generator: Adobe Illustrator 19.0.0, SVG Export Plug-In . SVG Version: 6.00 Build 0)  -->
<svg version="1.1" id="Layer_1" xmlns="http://www.w3.org/2000/svg" xmlns:xlink="http://www.w3.org/1999/xlink" x="0px" y="0px"
	 viewBox="0 0 473.654 473.654" style="enable-background:new 0 0 473.654 473.654;" xml:space="preserve">
<circle style="fill:#EDC92C;" cx="236.827" cy="236.827" r="236.827"/>
<path style="fill:#202121;" d="M312.183,363.617c0,20.007-10.187,30.186-30.193,30.186H179.335
	c-20.014,0-30.193-10.183-30.193-30.186V116.024c0-20.007,10.183-30.186,30.193-30.186H281.99c20.01,0,30.193,10.183,30.193,30.186
	V363.617z"/>
<circle style="fill:#121212;" cx="231.106" cy="372.649" r="12.075"/>
<path style="fill:#202121;" d="M232.889,377.458h-3.568c-0.8,0-1.556-0.314-2.12-0.883c-0.568-0.568-0.879-1.328-0.875-2.132v-3.556
	c0-1.649,1.343-2.995,2.999-2.995h3.568c0.819,0,1.559,0.307,2.12,0.868c0.565,0.568,0.875,1.328,0.875,2.132v3.549
	C235.889,376.108,234.542,377.458,232.889,377.458z M232.916,369.762h-3.594c-0.625,0-1.129,0.505-1.129,1.126v3.556
	c-0.004,0.307,0.116,0.598,0.333,0.811c0.213,0.221,0.497,0.337,0.797,0.337h3.568c0.621,0,1.129-0.512,1.129-1.148v-3.556
	c0-0.307-0.116-0.591-0.333-0.804C233.48,369.87,233.204,369.762,232.916,369.762z"/>
<path d="M249.785,108.481c0,1.945-1.578,3.519-3.519,3.519h-31.203c-1.945,0-3.519-1.578-3.519-3.519l0,0
	c0-1.945,1.578-3.519,3.519-3.519h31.203C248.207,104.959,249.785,106.537,249.785,108.481L249.785,108.481z"/>
<rect x="156.688" y="124.341" style="fill:#67B8CB;" width="147.19" height="224.935"/>
<path style="fill:#357180;" d="M362.23,126.132c-52.343,0-94.783,32.299-94.783,72.103c0,13.249,4.775,25.609,12.95,36.27
	L267.75,276.99l52.777-14.076c12.595,4.712,26.716,7.427,41.7,7.427c52.354,0,94.783-32.276,94.783-72.11
	C457.013,158.431,414.584,126.132,362.23,126.132z"/>
<g>
	<circle style="fill:#67B8CB;" cx="324.745" cy="198.534" r="11.54"/>
	<circle style="fill:#67B8CB;" cx="362.514" cy="198.534" r="11.54"/>
	<circle style="fill:#67B8CB;" cx="400.284" cy="198.534" r="11.54"/>
</g>
<g>
</g>
<g>
</g>
<g>
</g>
<g>
</g>
<g>
</g>
<g>
</g>
<g>
</g>
<g>
</g>
<g>
</g>
<g>
</g>
<g>
</g>
<g>
</g>
<g>
</g>
<g>
</g>
<g>
</g>
</svg>
