<?xml version="1.0" encoding="iso-8859-1"?>
<!-- Generator: Adobe Illustrator 19.0.0, SVG Export Plug-In . SVG Version: 6.00 Build 0)  -->
<svg version="1.1" id="Layer_1" xmlns="http://www.w3.org/2000/svg" xmlns:xlink="http://www.w3.org/1999/xlink" x="0px" y="0px"
	 viewBox="0 0 473.654 473.654" style="enable-background:new 0 0 473.654 473.654;" xml:space="preserve">
<circle style="fill:#EDC92C;" cx="236.827" cy="236.827" r="236.827"/>
<path style="fill:#7FCDCC;" d="M166.374,312.157c0,13.593-10.026,24.606-22.389,24.606H82.854c-12.374,0-22.4-11.013-22.4-24.606
	c0,0,5.131-53.304,9.33-66.624c4.2-13.324,10.033-24.61,22.404-24.61h44.329c12.371,0,19.132,8.201,22.4,24.61
	C162.182,261.931,166.374,312.157,166.374,312.157z"/>
<polygon style="fill:#FFFFFF;" points="99.39,316.469 110.119,231.596 113.055,227.83 114.644,227.744 118.462,231.596 
	129.195,316.469 113.72,329.595 "/>
<g>
	<polygon style="fill:#8DD3D5;" points="107.165,254.964 120.074,244.392 119.506,239.916 107.868,249.441 	"/>
	<polygon style="fill:#8DD3D5;" points="105.194,270.562 121.678,257.066 121.114,252.59 105.894,265.042 	"/>
	<polygon style="fill:#8DD3D5;" points="103.223,286.156 123.283,269.739 122.718,265.259 103.927,280.644 	"/>
	<polygon style="fill:#8DD3D5;" points="101.253,301.75 124.883,282.409 124.318,277.933 101.948,296.238 	"/>
	<polygon style="fill:#8DD3D5;" points="99.39,316.469 99.955,316.791 126.487,295.082 125.923,290.606 99.974,311.839 	"/>
	<polygon style="fill:#8DD3D5;" points="107.943,324.311 128.088,307.756 127.519,303.272 105.011,321.667 	"/>
</g>
<ellipse style="fill:#6FC5BC;" cx="114.124" cy="229.535" rx="6.952" ry="7.042"/>
<circle style="fill:#E9C29C;" cx="112.86" cy="169.851" r="45.137"/>
<path style="fill:#904F22;" d="M158.008,169.844l-30.78-27.695c0,0-6.548,10.856-24.034,18.761
	c-16.854,7.621-35.462,8.938-35.462,8.938c0-24.932,20.201-45.137,45.14-45.137C137.8,124.707,158.008,144.912,158.008,169.844z"/>
<g>
	<ellipse style="fill:#343433;" cx="99.338" cy="176.545" rx="6.185" ry="6.533"/>
	<ellipse style="fill:#343433;" cx="126.136" cy="176.545" rx="6.185" ry="6.533"/>
</g>
<g>
	<ellipse style="fill:#FFFFFF;" cx="128.08" cy="174.073" rx="2.472" ry="2.614"/>
	<ellipse style="fill:#FFFFFF;" cx="101.193" cy="174.073" rx="2.476" ry="2.614"/>
</g>
<path style="fill:#7FCDCC;" d="M311.061,351.782c0,20.201-14.906,36.577-33.293,36.577h-90.879
	c-18.395,0-33.301-16.376-33.301-36.577c0,0,7.629-79.238,13.874-99.046c6.245-19.809,14.906-36.577,33.301-36.577h65.899
	c18.391,0,28.443,12.191,33.297,36.577C304.816,277.114,311.061,351.782,311.061,351.782z"/>
<polygon style="fill:#FFFFFF;" points="211.473,358.188 227.422,232.011 231.79,226.42 234.146,226.297 239.823,232.011 
	255.772,358.188 232.774,377.704 "/>
<g>
	<polygon style="fill:#8DD3D5;" points="223.032,266.751 242.22,251.041 241.382,244.385 224.072,258.55 	"/>
	<polygon style="fill:#8DD3D5;" points="220.096,289.948 244.609,269.885 243.764,263.225 221.14,281.74 	"/>
	<polygon style="fill:#8DD3D5;" points="217.165,313.129 246.991,288.721 246.146,282.061 218.204,304.936 	"/>
	<polygon style="fill:#8DD3D5;" points="214.236,336.319 249.37,307.558 248.532,300.905 215.269,328.118 	"/>
	<polygon style="fill:#8DD3D5;" points="211.473,358.188 212.311,358.677 251.752,326.401 250.91,319.741 212.34,351.299 	"/>
	<polygon style="fill:#8DD3D5;" points="224.187,369.859 254.141,345.237 253.293,338.577 219.823,365.921 	"/>
</g>
<ellipse style="fill:#6FC5BC;" cx="233.387" cy="228.937" rx="10.336" ry="10.471"/>
<circle style="fill:#E9C29C;" cx="231.517" cy="140.215" r="67.107"/>
<path style="fill:#904F22;" d="M298.612,140.215l-45.757-41.18c0,0-9.738,16.136-35.732,27.89
	c-25.059,11.327-52.728,13.29-52.728,13.29c0-37.067,30.036-67.107,67.107-67.107C268.569,73.109,298.612,103.149,298.612,140.215z"
	/>
<g>
	<ellipse style="fill:#343433;" cx="211.398" cy="150.181" rx="9.192" ry="9.715"/>
	<ellipse style="fill:#343433;" cx="251.225" cy="150.181" rx="9.192" ry="9.715"/>
</g>
<g>
	<ellipse style="fill:#FFFFFF;" cx="254.104" cy="146.517" rx="3.676" ry="3.882"/>
	<ellipse style="fill:#FFFFFF;" cx="214.165" cy="146.517" rx="3.676" ry="3.882"/>
</g>
<path style="fill:#7FCDCC;" d="M405.598,312.157c0,13.593-10.03,24.606-22.4,24.606h-61.127c-12.371,0-22.396-11.013-22.396-24.606
	c0,0,5.131-53.304,9.33-66.624c4.2-13.324,10.03-24.61,22.4-24.61h44.329c12.367,0,19.128,8.201,22.393,24.61
	C401.395,261.931,405.598,312.157,405.598,312.157z"/>
<polygon style="fill:#FFFFFF;" points="338.607,316.469 349.34,231.596 352.272,227.83 353.861,227.744 357.672,231.596 
	368.408,316.469 352.937,329.595 "/>
<g>
	<polygon style="fill:#8DD3D5;" points="346.382,254.964 359.295,244.392 358.726,239.916 347.081,249.441 	"/>
	<polygon style="fill:#8DD3D5;" points="344.411,270.562 360.899,257.066 360.327,252.59 345.107,265.042 	"/>
	<polygon style="fill:#8DD3D5;" points="342.436,286.156 362.496,269.739 361.931,265.259 343.14,280.644 	"/>
	<polygon style="fill:#8DD3D5;" points="340.466,301.75 364.096,282.409 363.535,277.933 341.158,296.238 	"/>
	<polygon style="fill:#8DD3D5;" points="338.607,316.469 339.168,316.791 365.704,295.082 365.136,290.606 339.187,311.839 	"/>
	<polygon style="fill:#8DD3D5;" points="347.16,324.311 367.312,307.756 366.74,303.272 344.224,321.667 	"/>
</g>
<ellipse style="fill:#6FC5BC;" cx="353.352" cy="229.535" rx="6.948" ry="7.042"/>
<circle style="fill:#E9C29C;" cx="352.081" cy="169.851" r="45.137"/>
<path style="fill:#904F22;" d="M397.229,169.844l-30.78-27.695c0,0-6.552,10.856-24.038,18.761
	c-16.858,7.621-35.466,8.938-35.466,8.938c0-24.932,20.205-45.137,45.14-45.137C377.013,124.707,397.229,144.912,397.229,169.844z"
	/>
<g>
	<ellipse style="fill:#343433;" cx="338.544" cy="176.545" rx="6.182" ry="6.533"/>
	<ellipse style="fill:#343433;" cx="365.356" cy="176.545" rx="6.182" ry="6.533"/>
</g>
<g>
	<ellipse style="fill:#FFFFFF;" cx="367.301" cy="174.073" rx="2.472" ry="2.614"/>
	<ellipse style="fill:#FFFFFF;" cx="340.413" cy="174.073" rx="2.472" ry="2.614"/>
</g>
<g>
</g>
<g>
</g>
<g>
</g>
<g>
</g>
<g>
</g>
<g>
</g>
<g>
</g>
<g>
</g>
<g>
</g>
<g>
</g>
<g>
</g>
<g>
</g>
<g>
</g>
<g>
</g>
<g>
</g>
</svg>
