<?xml version="1.0" encoding="iso-8859-1"?>
<!-- Generator: Adobe Illustrator 19.0.0, SVG Export Plug-In . SVG Version: 6.00 Build 0)  -->
<svg version="1.1" id="Layer_1" xmlns="http://www.w3.org/2000/svg" xmlns:xlink="http://www.w3.org/1999/xlink" x="0px" y="0px"
	 viewBox="0 0 473.654 473.654" style="enable-background:new 0 0 473.654 473.654;" xml:space="preserve">
<circle style="fill:#344E5D;" cx="236.827" cy="236.827" r="236.827"/>
<g>
	<path style="fill:#59A29F;" d="M269.085,112.617c0,0,17.202-49.684,8.736-54.355c-16.641-5.766-50.948-5.329-63.722,0
		c-12.774,5.321,9.614,54.355,9.614,54.355H269.085z"/>
	<path style="fill:#7FCDCC;" d="M247.481,53.955c-12.382,0.03-26.932,1.619-33.383,4.308c-12.774,5.321,9.614,54.355,9.614,54.355
		h23.473L247.481,53.955z"/>
	<path style="fill:#63AAA5;" d="M223.896,111.372l-43.861,264.994l66.291,55.065l61.183-55.065l-38.462-264.994H223.896z"/>
	<path style="fill:#97D6D5;" d="M223.896,111.372l-43.861,264.994l66.291,55.065l0.568-320.059L223.896,111.372L223.896,111.372z"/>
</g>
<g>
</g>
<g>
</g>
<g>
</g>
<g>
</g>
<g>
</g>
<g>
</g>
<g>
</g>
<g>
</g>
<g>
</g>
<g>
</g>
<g>
</g>
<g>
</g>
<g>
</g>
<g>
</g>
<g>
</g>
</svg>
