<?xml version="1.0" encoding="iso-8859-1"?>
<!-- Generator: Adobe Illustrator 19.0.0, SVG Export Plug-In . SVG Version: 6.00 Build 0)  -->
<svg version="1.1" id="Layer_1" xmlns="http://www.w3.org/2000/svg" xmlns:xlink="http://www.w3.org/1999/xlink" x="0px" y="0px"
	 viewBox="0 0 473.654 473.654" style="enable-background:new 0 0 473.654 473.654;" xml:space="preserve">
<circle style="fill:#D62127;" cx="236.827" cy="236.827" r="236.827"/>
<polygon style="fill:#299ECC;" points="190.094,376.414 228.424,79.761 238.925,66.606 244.594,66.325 258.218,79.761 
	296.556,376.414 241.292,422.299 "/>
<g>
	<polygon style="fill:#48C7F4;" points="217.871,161.434 264.003,124.502 261.972,108.837 220.369,142.152 	"/>
	<polygon style="fill:#48C7F4;" points="249.284,70.955 227.291,88.564 225.021,106.137 258.098,79.657 	"/>
	<polygon style="fill:#48C7F4;" points="210.822,215.96 269.72,168.797 267.697,153.132 213.32,196.672 	"/>
	<polygon style="fill:#48C7F4;" points="203.781,270.48 275.446,213.088 273.423,197.427 206.271,251.191 	"/>
	<polygon style="fill:#48C7F4;" points="196.732,324.995 281.164,257.384 279.141,241.726 199.23,305.714 	"/>
	<polygon style="fill:#48C7F4;" points="190.094,376.414 192.117,377.57 286.893,301.683 284.87,286.014 192.18,360.237 	"/>
	<polygon style="fill:#48C7F4;" points="220.661,403.863 292.618,345.97 290.595,330.313 210.157,394.607 	"/>
</g>
<path style="fill:#344E5D;" d="M215.867,55.48l9.648,43.241h36.117l7.131-43.241C269.268,43.443,215.351,44.456,215.867,55.48z"/>
<polyline style="fill:#4B4A4B;" points="225.021,106.137 184.368,283.362 199.734,301.806 "/>
<g>
</g>
<g>
</g>
<g>
</g>
<g>
</g>
<g>
</g>
<g>
</g>
<g>
</g>
<g>
</g>
<g>
</g>
<g>
</g>
<g>
</g>
<g>
</g>
<g>
</g>
<g>
</g>
<g>
</g>
</svg>
